<svg width="118" height="32" viewBox="0 0 118 32" fill="none" xmlns="http://www.w3.org/2000/svg">
<path d="M12.0836 13.2083C13.1395 13.526 13.9485 14.0611 14.5105 14.8135C15.0725 15.5492 15.3535 16.4604 15.3535 17.5472C15.3535 18.517 15.0896 19.3698 14.5616 20.1054C14.0507 20.8244 13.3098 21.3845 12.339 21.7858C11.3853 22.1871 10.2612 22.3878 8.96688 22.3878H0V4.70605H8.71141C10.6019 4.70605 12.1006 5.12406 13.2076 5.96008C14.3317 6.77937 14.8937 7.89127 14.8937 9.29578C14.8937 10.1987 14.6468 11.0012 14.1528 11.7035C13.6589 12.389 12.9692 12.8906 12.0836 13.2083ZM4.57285 11.6533H7.91946C8.80508 11.6533 9.45226 11.5196 9.86101 11.252C10.2698 10.9845 10.4741 10.5582 10.4741 9.97295C10.4741 9.3543 10.2698 8.90285 9.86101 8.6186C9.45226 8.33436 8.80508 8.19224 7.91946 8.19224H4.57285V11.6533ZM8.3793 18.9016C9.31601 18.9016 9.98023 18.7595 10.3719 18.4752C10.7807 18.1743 10.9851 17.6894 10.9851 17.0206C10.9851 16.3517 10.7807 15.8752 10.3719 15.591C9.98023 15.29 9.31601 15.1395 8.3793 15.1395H4.57285V18.9016H8.3793Z" fill="#2F2B27"/>
<path d="M28.5436 17.0707H20.7774C20.9137 17.8733 21.2117 18.4501 21.6716 18.8013C22.1314 19.1524 22.7871 19.328 23.6386 19.328C24.2518 19.328 24.8734 19.2276 25.5035 19.027C26.1337 18.8263 26.6957 18.5505 27.1896 18.1993L28.3392 21.1337C27.7091 21.5852 26.9512 21.9447 26.0656 22.2122C25.18 22.463 24.2943 22.5884 23.4087 22.5884C21.9611 22.5884 20.7093 22.3292 19.6534 21.8109C18.5974 21.2926 17.7799 20.5485 17.2009 19.5788C16.6389 18.609 16.3578 17.472 16.3578 16.1678C16.3578 14.9305 16.6218 13.827 17.1498 12.8572C17.6948 11.8707 18.4442 11.1099 19.3979 10.5749C20.3687 10.0231 21.4587 9.74722 22.6679 9.74722C24.4732 9.74722 25.9038 10.3157 26.9597 11.4527C28.0156 12.573 28.5436 14.1112 28.5436 16.0675V17.0707ZM22.7956 12.7569C21.5864 12.7569 20.8966 13.4926 20.7263 14.964H24.7371C24.635 13.4926 23.9878 12.7569 22.7956 12.7569Z" fill="#2F2B27"/>
<path d="M39.7881 13.3839L37.3101 13.6347C36.3223 13.735 35.6325 13.9942 35.2408 14.4122C34.8491 14.8302 34.6532 15.4238 34.6532 16.1929V22.3878H30.1059V10.0482H34.4233V12.18C34.7129 11.4276 35.1897 10.8591 35.8539 10.4746C36.5182 10.0733 37.3271 9.84755 38.2809 9.79738L39.5327 9.69706L39.7881 13.3839Z" fill="#2F2B27"/>
<path d="M54.5527 22.3878H49.0602L44.845 17.146V22.3878H40.2977V4.70605H44.845V15.1144L48.9835 10.0733H54.3739L49.4689 15.9421L54.5527 22.3878Z" fill="#2F2B27"/>
<path d="M60.8416 22.5884C59.462 22.5884 58.2443 22.3292 57.1884 21.8109C56.1495 21.2759 55.3405 20.5235 54.7615 19.5537C54.1994 18.5839 53.9184 17.4469 53.9184 16.1427C53.9184 14.8386 54.1994 13.7099 54.7615 12.7569C55.3405 11.7871 56.1495 11.043 57.1884 10.5247C58.2273 10.0064 59.445 9.74722 60.8416 9.74722C62.2381 9.74722 63.4558 10.0064 64.4947 10.5247C65.5336 11.043 66.3341 11.7871 66.8961 12.7569C67.4752 13.7099 67.7647 14.8386 67.7647 16.1427C67.7647 17.4469 67.4752 18.5839 66.8961 19.5537C66.3341 20.5235 65.5336 21.2759 64.4947 21.8109C63.4558 22.3292 62.2381 22.5884 60.8416 22.5884ZM60.8416 19.2527C62.4595 19.2527 63.2685 18.2161 63.2685 16.1427C63.2685 14.0694 62.4595 13.0328 60.8416 13.0328C59.2236 13.0328 58.4146 14.0694 58.4146 16.1427C58.4146 18.2161 59.2236 19.2527 60.8416 19.2527Z" fill="#2F2B27"/>
<g clip-path="url(#clip0)">
<path fill-rule="evenodd" clip-rule="evenodd" d="M81.7979 17.0395C81.7979 17.5252 81.8462 17.9936 81.9427 18.4445C81.6999 18.6778 81.4777 18.8705 81.2761 19.0225C80.7401 19.4285 80.114 19.6316 79.4024 19.6316C78.9518 19.6316 78.5865 19.4805 78.309 19.1783C78.0294 18.8764 77.8303 18.3718 77.7093 17.6645C77.7101 17.6637 77.7108 17.6631 77.7114 17.6627L77.7112 17.6597C79.671 15.0014 80.3516 13.92 81.4967 11.2086C82.4644 8.92107 83.2163 6.08824 83.2163 4.457C83.2163 2.84464 83.1119 1.78941 82.6352 1.01982C82.1584 0.250234 81.8383 0 81.0058 0C79.5281 0 78.2569 0.967886 77.1848 2.90366C76.1175 4.83943 75.4463 6.48483 74.8984 9.18075C74.3529 11.8767 74.3482 12.939 74.3482 15.0471C74.3482 15.9916 74.4168 16.8612 74.5539 17.6555C74.0216 18.064 73.5547 18.3803 73.258 18.5812C73.1524 18.6528 73.0683 18.7097 73.0105 18.751C72.971 18.7795 72.9262 18.8083 72.8797 18.8381C72.6336 18.9963 72.341 19.1842 72.5386 19.5159C72.7605 20.2442 72.7768 20.399 72.8233 20.8403C72.827 20.8753 72.8308 20.9121 72.835 20.9512C72.8808 21.3779 73.356 21.1081 73.7076 20.9085C73.7519 20.8833 73.7943 20.8593 73.8335 20.8379C74.3334 20.5648 74.8011 20.2566 75.2267 19.9423C75.2987 20.1033 75.375 20.2594 75.4558 20.4106C76.1934 21.7916 77.3271 22.4833 78.8546 22.4833C79.9645 22.4833 80.9583 22.1905 81.8359 21.6027C82.2259 21.3408 82.6032 21.0465 82.9677 20.7197C83.2716 21.1094 83.6327 21.4464 84.0511 21.7302C84.7887 22.2307 85.6781 22.4809 86.7193 22.4809C87.9503 22.4809 89.0531 22.0465 90.0256 21.1731C90.9956 20.2996 91.6479 19.1382 91.9776 17.6863C92.4232 17.6687 92.8556 17.6309 93.2748 17.5731C93.259 17.7823 93.2511 17.9932 93.2511 18.2057C93.2511 19.4663 93.5689 20.4932 94.2022 21.2888C94.8355 22.0843 95.6276 22.4809 96.5835 22.4809C97.5369 22.4809 98.3101 22.0324 98.9007 21.1329C98.8419 21.3897 98.787 21.6242 98.7359 21.8423C98.3951 23.2967 98.2247 24.0239 98.2247 25.7812C98.2247 27.4053 98.4809 28.784 98.9932 29.9147C99.5055 31.0455 100.257 31.6121 101.246 31.6121C102.705 31.6121 103.777 30.9794 104.463 29.0436C105.148 27.1079 105.331 25.8402 105.331 23.2316C105.331 22.9493 105.329 22.6808 105.327 22.4263V22.4262C105.322 21.5401 105.318 20.823 105.388 20.2784C105.399 19.9536 105.802 19.8008 106.387 19.6391C106.56 20.2184 106.78 20.747 107.045 21.225C107.809 22.599 109.016 23.2859 110.665 23.2859C111.81 23.2859 112.761 22.9153 113.665 22.1717C114.187 21.7397 114.782 21.1485 114.995 20.8922C115.179 20.6716 114.84 20.2991 114.617 20.0551C114.581 20.0156 114.548 19.9795 114.521 19.9479C114.472 19.891 114.418 19.818 114.36 19.7406C114.189 19.5099 113.988 19.2403 113.814 19.2421C113.625 19.2421 113.432 19.3294 113.24 19.4994C112.927 19.7756 112.583 19.9998 112.211 20.1722C111.836 20.3445 111.502 20.4319 111.208 20.4319C110.669 20.4319 110.242 20.276 109.932 19.9644C109.622 19.654 109.404 19.1466 109.283 18.4424C109.291 18.4321 109.299 18.4211 109.307 18.4096C110.877 16.8243 111.703 14.8338 112.692 12.4522L112.692 12.452C112.789 12.2183 112.888 11.9809 112.989 11.7398C113.767 9.88426 114.559 6.81536 114.559 5.2573L114.559 5.07188V5.07183C114.561 4.00518 114.563 2.54661 114.113 1.82012C113.636 1.05053 113.316 0.800301 112.484 0.800301C111.009 0.800301 109.737 1.76819 108.67 3.70396C107.603 5.63973 106.998 7.28513 106.45 9.98105C105.904 12.677 105.9 13.7393 105.9 15.8474C105.9 16.3348 105.918 16.8019 105.955 17.2486C105.542 17.3756 105.174 17.4639 104.887 17.5282C104.256 17.6674 103.775 18.1419 103.677 18.2718C103.36 18.6967 103.201 19.1759 103.274 19.9384C103.299 20.5265 103.289 20.9386 103.275 21.4462V21.4462V21.4463C103.266 21.8066 103.255 22.2151 103.255 22.7689C103.255 23.8761 103.184 24.5866 103.047 25.5711C102.907 26.5555 102.805 27.0064 102.605 27.5942C102.566 27.7104 102.532 27.8151 102.502 27.9084L102.502 27.9085L102.502 27.9085C102.381 28.2852 102.32 28.4747 102.181 28.4747C101.972 28.4747 101.804 28.1938 101.673 27.6319C101.543 27.0701 101.479 26.7278 101.479 25.9322C101.479 23.8053 101.756 22.3652 102.311 19.6009C102.503 18.633 102.76 17.5636 103.08 16.3879C103.402 15.2147 103.701 14.1429 103.979 13.175C104.047 12.9343 104.19 12.4361 104.408 11.6854C104.624 10.9347 104.733 10.4555 104.733 10.2478C104.752 9.91964 104.659 9.66941 104.46 9.49708C104.261 9.32475 103.867 9.2374 103.277 9.2374C102.722 9.2374 102.288 9.33419 101.975 9.52304C101.664 9.71426 101.429 10.0849 101.272 10.6373C101.047 10.3611 100.727 10.2218 100.31 10.2218C99.0762 10.2218 97.9164 10.5995 96.8325 11.3502C95.7462 12.1009 94.8805 13.0901 94.2283 14.3176C94.1615 14.4433 94.0982 14.5697 94.0383 14.6968C93.351 14.8406 92.7334 14.9296 92.1863 14.9645C92.0487 13.633 91.5743 12.514 90.7679 11.6075C89.9592 10.701 88.8966 10.2478 87.5779 10.2478C86.5011 10.2478 85.5192 10.5381 84.6345 11.1165C83.7498 11.6949 83.0549 12.4999 82.5521 13.5268C82.0493 14.5561 81.7979 15.727 81.7979 17.0395ZM79.0775 4.71667C78.5747 6.15198 78.2664 7.2615 77.8845 9.38613C77.5649 11.1641 77.5543 12.2263 77.5399 13.6697L77.5399 13.6698L77.5399 13.6699V13.67C77.5371 13.9513 77.5341 14.2471 77.5287 14.5655C78.8142 12.455 79.253 11.3219 79.9337 9.4239C80.6405 7.45744 80.9607 5.95368 80.9607 4.40034C80.9607 3.08779 80.9204 2.56372 80.4342 2.56372C80.0333 2.56608 79.5803 3.28373 79.0775 4.71667ZM88.3701 19.0626C88.778 18.6141 89.0508 17.9649 89.1907 17.1198C88.6523 16.7562 88.2396 16.2817 87.955 15.6939C87.668 15.1061 87.5257 14.4852 87.5257 13.829C87.5257 13.5528 87.5518 13.2766 87.604 13.0004H87.4735C86.7786 13.0004 86.2023 13.3332 85.7421 13.9989C85.282 14.6646 85.052 15.6018 85.052 16.8105C85.052 17.7619 85.2393 18.4866 85.6117 18.9871C85.9841 19.4875 86.4228 19.7378 86.9257 19.7378C87.4807 19.7354 87.9621 19.5112 88.3701 19.0626ZM99.5553 17.3511C99.3988 18.0428 99.1402 18.633 98.775 19.1264C98.4097 19.6197 98.0279 19.8653 97.6271 19.8629C97.2784 19.8629 97.0056 19.7213 96.8064 19.4356C96.6072 19.1523 96.5076 18.7416 96.5076 18.2057C96.5076 17.2567 96.6949 16.3525 97.0673 15.498C97.4421 14.641 97.9449 13.9564 98.5781 13.4371C99.2114 12.9201 99.9111 12.651 100.675 12.6344L99.5553 17.3511ZM110.558 5.51933C110.055 6.95464 109.813 8.06416 109.431 10.1888C109.113 11.9589 109.101 13.2046 109.087 14.7V14.7001V14.7003C109.084 14.9997 109.081 15.3092 109.076 15.6349C110.113 13.9351 110.543 12.7046 111.087 11.1482L111.087 11.1481C111.189 10.8543 111.296 10.5489 111.412 10.2266C112.059 8.42063 112.304 6.83424 112.304 5.2691C112.304 3.95655 112.218 3.36638 111.91 3.36638C111.514 3.36874 111.063 4.08639 110.558 5.51933Z" fill="#2F2B27"/>
<path d="M115.083 19.3294C114.867 19.0981 114.758 18.7959 114.758 18.4229C114.758 17.9909 114.882 17.6463 115.126 17.3866C115.373 17.1269 115.717 16.9971 116.16 16.9971C116.585 16.9971 116.905 17.1009 117.121 17.3063C117.336 17.5117 117.446 17.8162 117.446 18.2199C117.446 18.6614 117.32 19.0131 117.071 19.2775C116.819 19.5419 116.478 19.6741 116.044 19.6741C115.619 19.6741 115.299 19.5584 115.083 19.3294Z" fill="#F26889"/>
<path d="M69.5451 21.9261C69.3293 21.6948 69.2202 21.3926 69.2202 21.0196C69.2202 20.5876 69.3435 20.2429 69.5878 19.9833C69.8345 19.7236 70.1784 19.5938 70.6219 19.5938C71.0465 19.5938 71.3667 19.6976 71.5825 19.903C71.7983 20.1084 71.9074 20.4129 71.9074 20.8166C71.9074 21.258 71.7817 21.6098 71.5327 21.8742C71.2813 22.1386 70.9398 22.2708 70.5057 22.2708C70.0835 22.2708 69.7634 22.1551 69.5451 21.9261Z" fill="#6CBF84"/>
</g>
<defs>
<clipPath id="clip0">
<rect width="48.2254" height="32" fill="white" transform="translate(69.2202)"/>
</clipPath>
</defs>
</svg>
