<svg width="28" height="28" viewBox="0 0 28 28" fill="none" xmlns="http://www.w3.org/2000/svg">
<path fill-rule="evenodd" clip-rule="evenodd" d="M12.0888 4.18182H15.9111L16.0779 6.36364H11.9221L12.0888 4.18182ZM9.84422 4.02065C9.93128 2.88131 10.9103 2 12.0888 2H15.9111C17.0897 2 18.0687 2.88131 18.1558 4.02064L18.3225 6.20246C18.3266 6.25655 18.3287 6.31031 18.3287 6.36365H20.8739C22.0684 6.36365 23.0549 7.26826 23.1212 8.42444L23.9965 23.6972C24.0681 24.9478 23.0413 26 21.7492 26H6.25084C4.95871 26 3.93186 24.9478 4.00354 23.6972L4.87883 8.42444C4.9451 7.26826 5.93158 6.36365 7.12613 6.36365H9.67122C9.67129 6.31031 9.67336 6.25656 9.6775 6.20246L9.84422 4.02065ZM6.25084 23.8182L7.12613 8.54546H20.8739L21.7492 23.8182H6.25084Z" fill="currentColor"/>
</svg>
