<svg width="16" height="16" viewBox="0 0 16 16" fill="none" xmlns="http://www.w3.org/2000/svg">
<path fill-rule="evenodd" clip-rule="evenodd" d="M2.17455 2.97454C0.534553 5.79273 2.0691 9.3309 4.31637 11.5855C5.92728 13.2036 8.19274 14.4618 10.3855 14.4618C11.2727 14.4618 12.1491 14.2545 12.9636 13.7854C13.354 13.5527 13.5936 13.3767 14.0909 12.9091C14.7455 12.2582 14.7455 11.1891 14.0909 10.5309L13.2146 9.65454C12.5564 8.99636 11.4873 8.99636 10.8327 9.65454C10.1709 10.3164 9.56728 10.7054 8.77456 10.4436C7.69456 10.0909 5.86183 8.25818 5.5091 7.17818C5.25092 6.38545 5.63638 5.78183 6.29819 5.12001C6.61819 4.80001 6.79274 4.37818 6.79274 3.92727C6.79274 3.47636 6.61819 3.05456 6.29819 2.73819L5.42183 1.85818C5.10183 1.53818 4.68001 1.36364 4.2291 1.36364C3.77819 1.36364 3.35637 1.53818 3.03637 1.85818C2.63605 2.24879 2.44467 2.49094 2.17455 2.97454ZM12.4618 12.9091C10.0873 14.2764 7.01819 12.8727 5.0291 10.8727C3.05456 8.88728 1.67274 5.83273 3.04365 3.48C3.27047 3.12005 3.41631 2.92013 3.7491 2.57091C4.00365 2.31637 4.45092 2.31637 4.70547 2.57091L5.58547 3.45091C5.71274 3.57818 5.78183 3.74909 5.78183 3.92727C5.78183 4.10909 5.71274 4.27636 5.58547 4.40727C4.8691 5.12363 4.10183 6.12363 4.5491 7.4909C5.00001 8.86545 7.08365 10.9491 8.45819 11.4C9.8291 11.8509 10.8255 11.0836 11.5455 10.3636C11.8109 10.1018 12.24 10.1018 12.5018 10.3636L13.3782 11.24C13.6436 11.5054 13.6436 11.9345 13.3782 12.1964C13.0478 12.5222 12.8603 12.6796 12.4618 12.9091Z" fill="#C0A9A8"/>
</svg>
