<svg width="84" height="56" viewBox="0 0 84 56" fill="none" xmlns="http://www.w3.org/2000/svg">
<g clip-path="url(#clip0)">
<path fill-rule="evenodd" clip-rule="evenodd" d="M21.9079 29.8191C21.9079 30.669 21.9922 31.4888 22.1602 32.2778C21.7373 32.6861 21.3503 33.0233 20.9992 33.2894C20.0655 33.9999 18.9749 34.3552 17.7355 34.3552C16.9506 34.3552 16.3144 34.0908 15.831 33.562C15.3439 33.0337 14.9971 32.1506 14.7863 30.9128C14.7878 30.9115 14.7891 30.9105 14.7901 30.9098L14.7897 30.9045C18.2033 26.2525 19.3888 24.36 21.3834 19.615C23.0689 15.6119 24.3785 10.6544 24.3785 7.79974C24.3785 4.97812 24.1967 3.13146 23.3664 1.78469C22.536 0.437909 21.9783 0 20.5282 0C17.9545 0 15.7401 1.6938 13.8728 5.0814C12.0138 8.469 10.8446 11.3485 9.89034 16.0663C8.94016 20.7842 8.93189 22.6432 8.93189 26.3324C8.93189 27.9852 9.05142 29.507 9.29015 30.8972C8.363 31.6121 7.54976 32.1655 7.03297 32.5172C6.84899 32.6424 6.70258 32.742 6.60198 32.8143C6.5331 32.8641 6.45507 32.9145 6.37415 32.9667C5.94542 33.2435 5.43579 33.5724 5.77986 34.1528C6.16642 35.4273 6.19483 35.6983 6.27579 36.4705C6.28221 36.5318 6.28897 36.5962 6.29627 36.6646C6.37595 37.4114 7.20363 36.9392 7.81615 36.5898C7.89333 36.5458 7.96709 36.5037 8.03551 36.4663C8.90612 35.9884 9.72087 35.449 10.4622 34.899C10.5875 35.1807 10.7205 35.4539 10.8612 35.7185C12.146 38.1353 14.1207 39.3457 16.7812 39.3457C18.7146 39.3457 20.4456 38.8335 21.9742 37.8048C22.6534 37.3464 23.3106 36.8314 23.9456 36.2594C24.4749 36.9414 25.1039 37.5312 25.8326 38.0279C27.1174 38.9037 28.6666 39.3416 30.4802 39.3416C32.6243 39.3416 34.5453 38.5814 36.2391 37.0529C37.9288 35.5243 39.0649 33.4918 39.6391 30.9511C40.4154 30.9201 41.1686 30.854 41.8987 30.7529C41.8712 31.119 41.8575 31.488 41.8575 31.8599C41.8575 34.066 42.4111 35.8631 43.5141 37.2553C44.6171 38.6475 45.9969 39.3416 47.6618 39.3416C49.3226 39.3416 50.6694 38.5567 51.698 36.9827C51.5957 37.4318 51.5001 37.8419 51.4111 38.2234L51.411 38.224C50.8174 40.7693 50.5206 42.0419 50.5206 45.117C50.5206 47.9593 50.9668 50.3719 51.8591 52.3508C52.7515 54.3296 54.0611 55.3211 55.7838 55.3211C58.3245 55.3211 60.1918 54.214 61.3857 50.8264C62.5797 47.4388 62.8978 45.2203 62.8978 40.6553C62.8978 40.1612 62.8949 39.6914 62.8922 39.246V39.2459V39.2459C62.8826 37.6952 62.875 36.4403 62.9969 35.4872C63.0163 34.9188 63.7182 34.6514 64.7375 34.3684C65.0393 35.3822 65.4216 36.3073 65.8844 37.1438C67.2147 39.5482 69.3175 40.7504 72.1887 40.7504C74.1841 40.7504 75.8407 40.1018 77.4147 38.8005C78.3235 38.0444 79.3605 37.0098 79.7323 36.5613C80.0523 36.1753 79.4607 35.5234 79.0734 35.0964C79.0107 35.0273 78.9533 34.9641 78.906 34.9088C78.8208 34.8092 78.7262 34.6814 78.626 34.546C78.3272 34.1423 77.9781 33.6705 77.6749 33.6736C77.3444 33.6736 77.0098 33.8265 76.6752 34.1239C76.1299 34.6073 75.5308 34.9997 74.8822 35.3013C74.2295 35.6029 73.647 35.7557 73.1347 35.7557C72.1969 35.7557 71.4533 35.4831 70.9121 34.9378C70.3729 34.3944 69.9936 33.5066 69.7825 32.2742C69.7969 32.2561 69.8105 32.237 69.8235 32.2169C72.558 29.4426 73.9977 25.9593 75.7204 21.7915L75.7207 21.7907C75.8897 21.3819 76.0614 20.9665 76.2373 20.5446C77.5923 17.2975 78.9721 11.9269 78.9721 9.20028C78.9721 9.0948 78.9723 8.9865 78.9725 8.87579C78.9754 7.00914 78.9794 4.45659 78.1955 3.18522C77.3651 1.83844 76.8074 1.40054 75.3573 1.40054C72.7877 1.40054 70.5734 3.09433 68.7143 6.48193C66.8553 9.86953 65.8018 12.749 64.8475 17.4668C63.8973 22.1847 63.8891 24.0437 63.8891 27.7329C63.8891 28.586 63.9214 29.4033 63.986 30.185C63.2652 30.4072 62.6256 30.5618 62.1252 30.6743C61.0263 30.918 60.1877 31.7484 60.0183 31.9756C59.4647 32.7192 59.1879 33.5579 59.316 34.8923C59.3595 35.9214 59.3408 36.6426 59.3178 37.5308V37.5309V37.531V37.531C59.3015 38.1616 59.2829 38.8765 59.2829 39.8456C59.2829 41.7831 59.159 43.0266 58.9194 44.7494C58.6757 46.4721 58.498 47.2611 58.151 48.2898C58.0821 48.4932 58.0233 48.6766 57.9709 48.8399L57.9709 48.8399C57.7596 49.499 57.6532 49.8307 57.4115 49.8307C57.048 49.8307 56.7546 49.3391 56.5274 48.3559C56.3002 47.3727 56.1887 46.7736 56.1887 45.3814C56.1887 41.6592 56.672 39.1392 57.6387 34.3015C57.9734 32.6077 58.4195 30.7363 58.9772 28.6789C59.5391 26.6257 60.0596 24.7501 60.543 23.0563C60.6628 22.6349 60.9106 21.7633 61.2907 20.4495C61.6667 19.1358 61.8567 18.2972 61.8567 17.9336C61.8897 17.3594 61.7286 16.9215 61.3816 16.6199C61.0346 16.3183 60.3488 16.1655 59.3201 16.1655C58.3534 16.1655 57.5974 16.3348 57.0521 16.6653C56.5109 17 56.1019 17.6486 55.8292 18.6153C55.4368 18.1319 54.8791 17.8882 54.152 17.8882C52.0037 17.8882 49.9836 18.5492 48.0956 19.8629C46.2035 21.1766 44.6956 22.9076 43.5595 25.0558C43.4432 25.2758 43.3329 25.497 43.2285 25.7194C42.0314 25.9711 40.9557 26.1268 40.0027 26.1878C39.7631 23.8578 38.9368 21.8996 37.5322 20.3132C36.1235 18.7268 34.2727 17.9336 31.9757 17.9336C30.1001 17.9336 28.3898 18.4417 26.8489 19.4539C25.3079 20.466 24.0975 21.8748 23.2217 23.6719C22.3459 25.4731 21.9079 27.5222 21.9079 29.8191ZM17.1695 8.25418C16.2937 10.766 15.7567 12.7076 15.0915 16.4257C14.5349 19.5372 14.5164 21.396 14.4913 23.922C14.4864 24.4144 14.4813 24.9322 14.4719 25.4896C16.711 21.7963 17.4753 19.8133 18.6609 16.4918C19.892 13.0505 20.4497 10.4189 20.4497 7.70059C20.4497 5.40363 20.3795 4.4865 19.5326 4.4865C18.8344 4.49063 18.0454 5.74653 17.1695 8.25418ZM33.3555 33.3596C34.0661 32.5746 34.5412 31.4386 34.7849 29.9596C33.8472 29.3234 33.1283 28.493 32.6326 27.4643C32.1327 26.4357 31.8848 25.3491 31.8848 24.2007C31.8848 23.7173 31.9303 23.234 32.0212 22.7506H31.7939C30.5835 22.7506 29.5796 23.3331 28.7782 24.4981C27.9767 25.6631 27.576 27.3032 27.576 29.4184C27.576 31.0833 27.9023 32.3516 28.5509 33.2274C29.1995 34.1032 29.9638 34.5411 30.8396 34.5411C31.8063 34.537 32.645 34.1445 33.3555 33.3596ZM52.8382 30.3644C52.5656 31.5749 52.1153 32.6077 51.4791 33.4711C50.8429 34.3345 50.1777 34.7642 49.4796 34.7601C48.8723 34.7601 48.3972 34.5122 48.0502 34.0123C47.7031 33.5166 47.5296 32.7977 47.5296 31.8599C47.5296 30.1992 47.856 28.6169 48.5046 27.1214C49.1573 25.6218 50.0331 24.4238 51.1362 23.5149C52.2392 22.6101 53.4579 22.1392 54.7882 22.1103L52.8382 30.3644ZM72.0028 9.65884C71.127 12.1706 70.7056 14.1123 70.0404 17.8304C69.4863 20.928 69.4655 23.1081 69.4406 25.725C69.4356 26.2492 69.4304 26.791 69.4208 27.3611C71.2279 24.3863 71.9767 22.233 72.924 19.5092C73.1028 18.9951 73.2886 18.4606 73.49 17.8965C74.6178 14.7361 75.0434 11.9599 75.0434 9.22093C75.0434 6.92397 74.8946 5.89117 74.3576 5.89117C73.6677 5.8953 72.8827 7.15119 72.0028 9.65884Z" fill="white"/>
<path d="M79.8853 33.8264C79.5094 33.4215 79.3193 32.8927 79.3193 32.24C79.3193 31.484 79.5342 30.8808 79.9597 30.4264C80.3893 29.972 80.9883 29.7448 81.7609 29.7448C82.5004 29.7448 83.0581 29.9265 83.434 30.2859C83.81 30.6454 84 31.1783 84 31.8847C84 32.6573 83.781 33.2728 83.3473 33.7355C82.9094 34.1982 82.3145 34.4296 81.5585 34.4296C80.819 34.4296 80.2613 34.2271 79.8853 33.8264Z" fill="#F26889"/>
<path d="M0.565977 38.3708C0.190036 37.966 0 37.4372 0 36.7844C0 36.0284 0.214823 35.4253 0.640339 34.9708C1.06999 34.5164 1.66901 34.2892 2.44155 34.2892C3.18104 34.2892 3.73875 34.471 4.11469 34.8304C4.49063 35.1898 4.68067 35.7227 4.68067 36.4292C4.68067 37.2017 4.46172 37.8172 4.02794 38.2799C3.59003 38.7426 2.99513 38.974 2.23912 38.974C1.50376 38.974 0.946049 38.7716 0.565977 38.3708Z" fill="#6CBF84"/>
</g>
<defs>
<clipPath id="clip0">
<rect width="84" height="56" fill="white"/>
</clipPath>
</defs>
</svg>
