<svg width="28" height="28" viewBox="0 0 28 28" fill="none" xmlns="http://www.w3.org/2000/svg">
<path fill-rule="evenodd" clip-rule="evenodd" d="M5.64653 6.27365C5.81515 6.07851 6.04921 5.96802 6.294 5.96802H21.7056C21.9504 5.96802 22.1845 6.07851 22.3531 6.27365C22.5217 6.4688 22.6101 6.7315 22.5976 7.00034L21.8981 22.0315C21.8823 23.8336 20.3246 25.0001 18.7868 25.0001H9.21287C7.67508 25.0001 6.11736 23.8336 6.10153 22.0315L5.40205 7.00034C5.38954 6.7315 5.47792 6.4688 5.64653 6.27365ZM7.23399 7.93227L7.88765 21.9786V22.0038C7.88765 22.4015 8.31836 23.0358 9.21287 23.0358H18.7868C19.6813 23.0358 20.112 22.4015 20.112 22.0038C20.112 21.987 20.1124 21.9703 20.1132 21.9536L20.7657 7.93227H7.23399Z" fill="#C0A9A8"/>
<path fill-rule="evenodd" clip-rule="evenodd" d="M10.8031 3.69992C11.2627 3.26714 11.8635 3 12.599 3H15.4011C16.1365 3 16.7373 3.26714 17.1969 3.69992C17.6396 4.11673 17.9075 4.64467 18.0722 5.11C18.1791 5.41199 18.2499 5.70817 18.297 5.96832H23.1069C23.6001 5.96832 24 6.40803 24 6.95044C24 7.49286 23.6001 7.93257 23.1069 7.93257H16.6095V6.9539L16.6093 6.94259C16.609 6.92987 16.6083 6.90769 16.6068 6.87743C16.6037 6.81662 16.5973 6.72492 16.5841 6.61302C16.5571 6.38412 16.5046 6.09637 16.4077 5.82256C16.3097 5.54581 16.1836 5.33168 16.0351 5.19193C15.9037 5.06815 15.7164 4.96425 15.4011 4.96425H12.599C12.2836 4.96425 12.0963 5.06815 11.9649 5.19193C11.8164 5.33168 11.6903 5.54581 11.5923 5.82256C11.4954 6.09636 11.4429 6.38412 11.4159 6.61302C11.4027 6.72492 11.3963 6.81662 11.3932 6.87743C11.3917 6.90769 11.391 6.92987 11.3907 6.94258L11.3905 6.95393L11.3905 7.93257H4.89312C4.39986 7.93257 4 7.49286 4 6.95044C4 6.40803 4.39986 5.96832 4.89312 5.96832H9.70298C9.75012 5.70817 9.82087 5.41199 9.92777 5.11C10.0925 4.64467 10.3604 4.11672 10.8031 3.69992Z" fill="#C0A9A8"/>
<path fill-rule="evenodd" clip-rule="evenodd" d="M10.4974 10.4204C10.9906 10.4204 11.3905 10.8601 11.3905 11.4025V19.5654C11.3905 20.1078 10.9906 20.5475 10.4974 20.5475C10.0041 20.5475 9.60425 20.1078 9.60425 19.5654V11.4025C9.60425 10.8601 10.0041 10.4204 10.4974 10.4204ZM14 10.4204C14.4933 10.4204 14.8931 10.8601 14.8931 11.4025V19.5654C14.8931 20.1078 14.4933 20.5475 14 20.5475C13.5068 20.5475 13.1069 20.1078 13.1069 19.5654V11.4025C13.1069 10.8601 13.5068 10.4204 14 10.4204ZM17.5027 10.4204C17.9959 10.4204 18.3958 10.8601 18.3958 11.4025V19.5654C18.3958 20.1078 17.9959 20.5475 17.5027 20.5475C17.0094 20.5475 16.6095 20.1078 16.6095 19.5654V11.4025C16.6095 10.8601 17.0094 10.4204 17.5027 10.4204Z" fill="#C0A9A8"/>
</svg>
