<svg width="28" height="28" viewBox="0 0 28 28" fill="none" xmlns="http://www.w3.org/2000/svg">
<path fill-rule="evenodd" clip-rule="evenodd" d="M0 14C0 21.6923 6.25641 28 14 28C21.6923 28 28 21.6923 28 14C28 6.25641 21.6923 0 14 0C6.25641 0 0 6.25641 0 14ZM11.7948 22.1539V14.0514V14.0001H10.359C10.2564 14.0001 10.1538 13.8975 10.1538 13.795V11.3334C10.1538 11.2309 10.2564 11.1283 10.359 11.1283H11.8461V8.71805C11.8461 7.02575 13.1795 5.69241 14.8718 5.69241H17.6923C17.7948 5.69241 17.8974 5.79498 17.8974 5.89754V8.35908C17.8974 8.46164 17.7948 8.56421 17.6923 8.56421H16C15.5897 8.56421 15.2307 8.92318 15.2307 9.33344V11.077H17.641C17.7436 11.077 17.8461 11.1796 17.8461 11.2822L17.641 13.7437C17.641 13.8463 17.5384 13.9488 17.4359 13.9488H15.2307V22.1539C15.2307 22.2565 15.1282 22.3591 15.0256 22.3591H12C11.8974 22.3591 11.7948 22.2565 11.7948 22.1539Z" fill="#2F2B27"/>
</svg>
