<svg width="274" height="173" viewBox="0 0 274 173" fill="none" xmlns="http://www.w3.org/2000/svg">
<path opacity="0.7" d="M246.346 162.821C246.346 162.821 0 164.279 0 166.232C16.1339 176.77 272.368 171.736 274 166.232C274 164.279 247.358 162.821 246.346 162.821Z" fill="#E9E2DF"/>
<path d="M198.374 97.166L200.795 93.9907L201.881 89.0688L200.176 81.4521L199.304 61.0369L197.706 39.9725L189.777 34.9434L193.132 59.9785L195.839 81.7378H195.823L194.63 86.4779L194.225 91.7051C195.505 91.7603 196.007 90.1012 196.16 88.9973C196.312 87.8967 197.142 88.2376 197.142 88.2376C197.142 88.2376 197.398 91.6044 197.566 93.7083C197.644 94.6953 197.028 95.7862 197.067 96.1952C197.197 97.4712 198.374 97.166 198.374 97.166Z" fill="#856451"/>
<path d="M200.354 80.4358L195.544 79.5234L195.738 81.8156L200.354 81.7279V80.4358Z" fill="#E6DCD1"/>
<path d="M192.127 160.4H186.484L182.283 163.173C178.796 163.533 178.556 166.306 178.556 166.306H193.029C193.508 163.173 192.127 160.4 192.127 160.4Z" fill="#C0A9A8"/>
<path opacity="0.1" d="M192.127 160.4H189.686C188.905 162.533 187.806 164.53 186.338 166.306H193.028C193.508 163.17 192.127 160.4 192.127 160.4Z" fill="black"/>
<path d="M176.254 160.4H169.985L163.45 163.173C159.963 163.533 159.723 166.306 159.723 166.306H177.155C177.635 163.173 176.254 160.4 176.254 160.4Z" fill="#C0A9A8"/>
<path opacity="0.1" d="M176.254 160.4H174.254C171.921 163.04 168.877 165.131 165.639 166.306H177.155C177.635 163.17 176.254 160.4 176.254 160.4Z" fill="black"/>
<path d="M156.627 89.1857L157.778 94.0428L160.134 97.5849C160.134 97.5849 161.304 97.8706 161.411 96.6044C161.44 96.2732 160.935 94.2895 160.983 93.5265C161.123 91.3902 161.308 88.2896 161.308 88.2896C161.308 88.2896 162.124 87.939 162.293 89.0266C162.462 90.1143 162.983 91.7538 164.248 91.6792L163.768 86.5105L162.478 81.6956L162.611 80.582C161.24 81.1859 159.603 81.2119 158.235 80.6535L158.238 81.4716H158.231L156.627 89.1857Z" fill="#856451"/>
<path d="M158.231 80.6564L158.008 82.5395C158.082 82.5362 162.698 82.5297 162.698 82.5297L162.607 80.585C161.24 81.1856 159.603 81.2148 158.231 80.6564Z" fill="#E6DCD1"/>
<path d="M192.215 77.3379C192.108 77.3606 164.604 77.5197 164.458 77.4191L164.089 92.4739L166.089 125.025L169.496 160.609L176.254 160.401L176.299 123.837L177.434 91.8506L178.805 91.7856L181.644 123.837L186.153 160.583L192.127 160.401L191.865 123.837L192.733 91.1363L192.215 77.3379Z" fill="#2F2B27"/>
<path opacity="0.2" d="M176.299 123.836L177.434 91.85C176.299 91.7137 173.233 124.625 172.912 130.859C172.403 140.732 172.737 150.618 172.947 160.501L176.254 160.4L176.299 123.836Z" fill="black"/>
<path opacity="0.2" d="M192.215 77.3379C192.108 77.3606 164.604 77.5197 164.458 77.4191L164.293 84.091C164.458 84.1072 164.627 84.1299 164.792 84.1592C170.623 85.2078 183.706 86.1364 184.361 86.1364C187.113 86.1364 188.707 88.3084 189.028 90.8116C190.785 104.565 188.743 158.05 189.271 160.544L192.124 160.404L191.861 123.84L192.73 91.1395L192.215 77.3379Z" fill="black"/>
<path opacity="0.1" d="M190.587 42.4658L190.289 46.719L189.105 63.4394L190.289 77.2897L192.214 77.3384L192.065 74.1242L190.963 63.5368L191.475 46.5209L190.587 42.4658Z" fill="black"/>
<path d="M164.808 30.0144C159.628 31.0046 159.605 36.0208 159.605 36.0208L158.983 60.0267L157.696 81.075L163.21 81.6236L165.265 63.8773L164.545 73.9712H164.536L164.092 83.3184C173.469 83.208 183.083 83.1983 192.464 83.1983L192.068 73.9225H192.049L190.966 63.5331L191.511 46.6569L193.138 62.2669L195.514 80.6139C196.986 80.6399 199.112 80.5328 200.584 80.5393L199.799 60.2378L197.793 33.8552H197.783C197.443 32.9397 196.178 30.3163 192.658 29.404L178.895 24.2288C178.892 24.1996 178.889 24.1704 178.885 24.1412C178.882 24.1249 178.889 24.1119 178.889 24.0957L164.808 30.0144Z" fill="#F26889"/>
<path d="M157.82 79.0392L157.784 79.5977H158.857V81.195L159.415 81.2502V79.5977H160.902V81.3996L161.46 81.4548V79.5977H163.444L163.509 79.0392H161.46V77.549H163.68L163.745 76.9906H161.46V71.3414H164.4L164.465 70.7829H161.46V69.2927H164.637L164.701 68.7343H161.46V64.5071V63.1597H167.1V64.5071V68.7343H164.919L164.88 69.2927H167.1V70.7829H164.773L164.734 71.3414H167.1V76.9906H164.39L164.364 77.549H167.1V79.0392H164.293L164.267 79.5977H167.1V83.2924C167.285 83.2891 167.473 83.2891 167.658 83.2859V79.5944H169.145V83.2729C169.33 83.2729 169.515 83.2697 169.703 83.2664V79.5944H173.913H175.259V83.2339C175.473 83.2339 175.69 83.2307 175.904 83.2307V79.5944H177.301V83.221C177.515 83.221 177.732 83.2177 177.946 83.2177V79.5944H183.498V83.2047C183.712 83.2047 183.929 83.2047 184.143 83.2047V79.5944H185.54V83.2015C185.758 83.2015 185.968 83.2015 186.186 83.2015V79.5944H187.531H191.741V83.1982C191.926 83.1982 192.114 83.1982 192.299 83.1982V79.5944H192.315L192.075 73.9225H192.056L191.728 70.7829H187.537H186.192V69.2927H187.537H191.573L191.514 68.7343H187.537H186.192V64.5071V63.1597H187.537H190.986L191.005 62.5266H187.537H186.192V61.1143H187.537H191.051L191.07 60.4812H187.534H186.189V54.9067H187.534H191.249L191.268 54.2736H187.531H186.186V52.8613H187.531H191.313L191.333 52.2281H187.531H186.186V50.8808V46.6536H187.531H191.741V48.8386L192.299 54.1826V52.8613H193.787V54.2736H192.309L192.373 54.9067H193.783V60.4812H192.954L193.018 61.1143H193.78V62.5266H193.171L193.252 63.1597H193.78V64.5071V67.2343L194.338 71.5394V71.3381H199.978V76.9873H195.041L195.112 77.5458H199.974V79.036H195.304L195.375 79.5944H199.974V80.5457C200.169 80.5424 200.354 80.5425 200.532 80.5425V79.5944H200.542L199.974 64.8902V68.7343H194.334V64.5071V63.1597H199.91L199.884 62.5266H194.334V61.1143H199.829L199.803 60.4812H194.331V54.9067H199.388L199.339 54.2736H194.331V52.8613H199.232L199.184 52.2281H194.331V50.8808V46.6536H198.759L198.717 46.0952H194.331V44.6049H198.603L198.561 44.0465H194.331V38.3973H198.13L198.088 37.8389H194.331V36.3486H197.975L197.932 35.7902H194.331V30.141H194.516C194.133 29.9299 193.712 29.7416 193.242 29.5826H192.286V29.2676L191.728 29.0566V29.5793H187.518H186.173V28.0891H187.518H189.161L187.677 27.5306H187.518H186.173V26.9657L185.527 26.7222V27.5306H184.13V26.1995L184.095 26.1865H184.043H183.573H183.485V27.5339H177.933V26.1865H177.845H177.375H177.288V27.5339H175.891V26.1865H175.803H175.333H175.246V27.5339H173.901H170.695L169.136 28.1897V29.5826H167.648V28.8163L167.09 29.0501V29.5826H165.823L164.799 30.0111C164.617 30.0468 164.458 30.0955 164.29 30.141H167.09V35.7902H161.45V31.6994C161.246 31.9039 161.055 32.1117 160.893 32.3292V35.7902H159.609C159.596 35.9363 159.596 36.0207 159.596 36.0207L159.586 36.3486H160.893V37.8389H159.548L159.535 38.3973H160.893V44.0465H159.405V43.329L158.974 60.0299L158.847 62.0753V62.5299H158.818L158.779 63.163H158.847V64.5103V68.7375H158.439L158.403 69.296H158.844V70.7862H158.313L158.277 71.3446H158.844V76.9938H157.93L157.894 77.5523H158.841V79.0425H157.82V79.0392ZM194.338 69.296H199.978V70.7862H194.338V69.296ZM192.292 30.1442H193.78V35.7935H192.292V30.1442ZM192.292 36.3519H193.78V37.8421H192.292V36.3519ZM192.292 38.3973H193.78V44.0465H192.292V38.3973ZM192.292 44.6049H193.78V46.0952H192.292V44.6049ZM192.292 50.8808V46.6536H193.78V50.8808V52.2281H192.292V50.8808ZM186.182 30.1442H187.527H191.738V35.7935H187.527H186.182V30.1442ZM186.182 36.3519H187.527H191.738V37.8421H187.527H186.182V36.3519ZM186.182 38.3973H187.527H191.738V44.0465H187.527H186.182V38.3973ZM186.182 44.6049H187.527H191.738V46.0952H187.527H186.182V44.6049ZM186.182 71.3414H187.527H191.738V76.9906H187.527H186.182V71.3414ZM186.182 77.549H187.527H191.738V79.0392H187.527H186.182V77.549ZM184.14 28.0956H185.537V29.5858H184.14V28.0956ZM184.14 30.1442H185.537V35.7935H184.14V30.1442ZM184.14 36.3519H185.537V37.8421H184.14V36.3519ZM184.14 38.3973H185.537V44.0465H184.14V38.3973ZM184.14 44.6049H185.537V46.0952H184.14V44.6049ZM184.14 50.8808V46.6536H185.537V50.8808V52.2281H184.14V50.8808ZM184.14 52.8613H185.537V54.2736H184.14V52.8613ZM184.14 54.9067H185.537V60.4812H184.14V54.9067ZM184.14 61.1143H185.537V62.5266H184.14V61.1143ZM184.14 64.5071V63.1597H185.537V64.5071V68.7343H184.14V64.5071ZM184.14 69.296H185.537V70.7862H184.14V69.296ZM184.14 71.3414H185.537V76.9906H184.14V71.3414ZM184.14 77.549H185.537V79.0392H184.14V77.549ZM177.943 28.0956H183.495V29.5858H177.943V28.0956ZM177.943 30.1442H183.495V35.7935H177.943V30.1442ZM177.943 36.3519H183.495V37.8421H177.943V36.3519ZM177.943 38.3973H183.495V44.0465H177.943V38.3973ZM177.943 44.6049H183.495V46.0952H177.943V44.6049ZM177.943 50.8808V46.6536H183.495V50.8808V52.2281H177.943V50.8808ZM177.943 52.8613H183.495V54.2736H177.943V52.8613ZM177.943 54.9067H183.495V60.4812H177.943V54.9067ZM177.943 61.1143H183.495V62.5266H177.943V61.1143ZM177.943 64.5071V63.1597H183.495V64.5071V68.7343H177.943V64.5071ZM177.943 69.296H183.495V70.7862H177.943V69.296ZM177.943 71.3414H183.495V76.9906H177.943V71.3414ZM177.943 77.549H183.495V79.0392H177.943V77.549ZM175.897 28.0956H177.294V29.5858H175.897V28.0956ZM175.897 30.1442H177.294V35.7935H175.897V30.1442ZM175.897 36.3519H177.294V37.8421H175.897V36.3519ZM175.897 38.3973H177.294V44.0465H175.897V38.3973ZM175.897 44.6049H177.294V46.0952H175.897V44.6049ZM175.897 50.8808V46.6536H177.294V50.8808V52.2281H175.897V50.8808ZM175.897 52.8613H177.294V54.2736H175.897V52.8613ZM175.897 54.9067H177.294V60.4812H175.897V54.9067ZM175.897 61.1143H177.294V62.5266H175.897V61.1143ZM175.897 64.5071V63.1597H177.294V64.5071V68.7343H175.897V64.5071ZM175.897 69.296H177.294V70.7862H175.897V69.296ZM175.897 71.3414H177.294V76.9906H175.897V71.3414ZM175.897 77.549H177.294V79.0392H175.897V77.549ZM169.7 28.0956H173.91H175.255V29.5858H173.91H169.7V28.0956ZM169.7 30.1442H173.91H175.255V35.7935H173.91H169.7V30.1442ZM169.7 36.3519H173.91H175.255V37.8421H173.91H169.7V36.3519ZM169.7 38.3973H173.91H175.255V44.0465H173.91H169.7V38.3973ZM169.7 44.6049H173.91H175.255V46.0952H173.91H169.7V44.6049ZM169.7 50.8808V46.6536H173.91H175.255V50.8808V52.2281H173.91H169.7V50.8808ZM169.7 52.8613H173.91H175.255V54.2736H173.91H169.7V52.8613ZM169.7 54.9067H173.91H175.255V60.4812H173.91H169.7V54.9067ZM169.7 61.1143H173.91H175.255V62.5266H173.91H169.7V61.1143ZM169.7 64.5071V63.1597H173.91H175.255V64.5071V68.7343H173.91H169.7V64.5071ZM169.7 69.296H173.91H175.255V70.7862H173.91H169.7V69.296ZM169.7 71.3414H173.91H175.255V76.9906H173.91H169.7V71.3414ZM169.7 77.549H173.91H175.255V79.0392H173.91H169.7V77.549ZM167.658 30.1442H169.145V35.7935H167.658V30.1442ZM167.658 36.3519H169.145V37.8421H167.658V36.3519ZM167.658 38.3973H169.145V44.0465H167.658V38.3973ZM167.658 44.6049H169.145V46.0952H167.658V44.6049ZM167.658 50.8808V46.6536H169.145V50.8808V52.2281H167.658V50.8808ZM167.658 52.8613H169.145V54.2736H167.658V52.8613ZM167.658 54.9067H169.145V60.4812H167.658V54.9067ZM167.658 61.1143H169.145V62.5266H167.658V61.1143ZM167.658 64.5071V63.1597H169.145V64.5071V68.7343H167.658V64.5071ZM167.658 69.296H169.145V70.7862H167.658V69.296ZM167.658 71.3414H169.145V76.9906H167.658V71.3414ZM167.658 77.549H169.145V79.0392H167.658V77.549ZM161.457 36.3519H167.097V37.8421H161.457V36.3519ZM161.457 38.3973H167.097V44.0465H161.457V38.3973ZM161.457 44.6049H167.097V46.0952H161.457V44.6049ZM161.457 50.8808V46.6536H167.097V50.8808V52.2281H161.457V50.8808ZM161.457 52.8613H167.097V54.2736H161.457V52.8613ZM161.457 54.9067H167.097V60.4812H161.457V54.9067ZM161.457 61.1143H167.097V62.5266H161.457V61.1143ZM159.415 44.6049H160.902V46.0952H159.415V44.6049ZM159.415 50.8808V46.6536H160.902V50.8808V52.2281H159.415V50.8808ZM159.415 52.8613H160.902V54.2736H159.415V52.8613ZM159.415 54.9067H160.902V60.4812H159.415V54.9067ZM159.415 61.1143H160.902V62.5266H159.415V61.1143ZM159.415 64.5071V63.1597H160.902V64.5071V68.7343H159.415V64.5071ZM159.415 69.296H160.902V70.7862H159.415V69.296ZM159.415 71.3414H160.902V76.9906H159.415V71.3414ZM159.415 77.549H160.902V79.0392H159.415V77.549Z" fill="#C0A9A8"/>
<path opacity="0.1" d="M164.809 47.9591C164.812 47.9395 164.822 47.9134 164.822 47.9036C164.812 47.897 164.809 47.9166 164.809 47.9591Z" fill="black"/>
<path d="M182.39 20.0369C183.285 18.0954 185.489 14.7156 185.489 12.3553V8.1476L176.296 3.24512L171.729 5.44312L169.995 8.1476V16.8909C169.995 20.8876 173.23 24.131 177.217 24.131C178.851 24.131 181.616 21.7187 182.39 20.0369Z" fill="#856451"/>
<path d="M182.39 28.0244V18.2129H173.784V28.0244C175.479 32.8911 182.39 30.3165 182.39 28.0244Z" fill="#856451"/>
<path d="M182.666 17.3687L182.39 20.0375V20.9011C183.32 19.3524 185.191 17.5278 185.489 12.7876C185.719 9.10263 185.631 7.7163 184.643 5.94361C181.82 0.878791 176.562 1.2132 173.784 2.3398C171.547 3.24887 169.074 4.01184 169.074 6.86892C169.074 7.89811 170.095 8.62212 170.095 8.62212C170.095 8.62212 174.893 6.40464 179.11 8.03772C181.058 8.79095 181.563 11.148 181.544 11.5669L181.593 13.3266H182.688C182.688 13.3266 183.061 12.2617 183.677 12.2617C184.134 12.2617 184.636 12.2259 184.507 13.6837C184.173 17.5018 182.666 17.3687 182.666 17.3687Z" fill="#302A2A"/>
<path opacity="0.1" d="M173.784 23.2442V24.0656C173.784 24.0656 177.113 25.939 180.134 22.7832C180.137 22.78 176.627 24.8871 173.784 23.2442Z" fill="black"/>
<path opacity="0.1" d="M191.194 43.4521L189.22 62.7439L190.108 73.8216V83.1201L192.461 83.198L192.046 73.9255L190.964 63.5361L191.508 46.6599L191.194 43.4521Z" fill="black"/>
<path d="M184.532 26.2901L182.393 23.6992C182.393 23.6992 182.134 26.0368 180.481 27.8387C179.683 28.7088 177.006 30.7672 177.006 30.7672L180.163 34.0821C180.163 34.0821 182.523 31.2185 183.103 30.0822C184.127 28.0822 184.532 26.2901 184.532 26.2901Z" fill="#E9E2DF"/>
<path d="M171.729 26.6855C171.729 26.6855 171.486 27.9355 172.021 29.9809C172.29 31.0101 173.651 33.9061 173.651 33.9061L177.006 30.7666C177.006 30.7666 174.821 28.2829 174.367 27.3511C173.722 26.0362 173.784 24.0654 173.784 24.0654L171.729 26.6855Z" fill="#E9E2DF"/>
<path opacity="0.1" d="M166.617 83.3222C166.617 83.3222 166.715 68.8452 166.277 64.2187C165.839 59.5922 164.478 45.1899 164.478 45.1899L162.533 41.3945L163.849 45.5146L165.262 63.881L164.089 83.3189H166.617V83.3222Z" fill="black"/>
<path opacity="0.1" d="M200.581 80.5457L199.68 58.6858L197.78 33.8584L198.464 58.2767L198.273 80.5846L200.581 80.5457Z" fill="black"/>
<path opacity="0.1" d="M161.684 81.4778L163.207 81.6272L165.22 64.6016L161.684 81.4778Z" fill="black"/>
<path d="M102.278 159.248L95.6234 159.281L92.5472 162.199C89.1502 163.173 88.6543 166.303 88.6543 166.303H103.354C103.928 162.563 102.278 159.248 102.278 159.248Z" fill="#2F2B27"/>
<path d="M134.592 162.395L131.516 159.476L124.861 159.443C124.861 159.443 123.208 162.755 123.785 166.498H138.485C138.485 166.502 137.992 163.369 134.592 162.395Z" fill="#2F2B27"/>
<path d="M97.037 114.132L94.9561 159.326L103.004 160.076L108.457 123.697L113.49 94.2267L118.521 123.697L123.973 160.076L131.441 159.326L129.941 114.132L129.143 77.6719L114.952 75.4122L114.988 74.9414L113.993 75.2596L111.99 74.9414L112.058 75.8797L97.4552 80.5679L97.037 114.132Z" fill="#816E68"/>
<path opacity="0.1" d="M97.037 114.132L95.251 152.927C95.6464 148.995 96.1424 145.066 96.3725 141.148C96.8133 133.628 96.9527 126.09 97.6529 118.587C98.1909 112.83 99.6204 92.3923 100.304 89.9248C102.382 82.4023 110.392 81.7984 117.96 82.2107C129.192 82.8211 127.646 92.467 128.446 98.9214C128.774 101.541 129.305 104.087 129.594 106.671C129.597 106.687 129.6 106.704 129.604 106.72C129.681 107.142 129.743 107.567 129.808 107.989L129.143 77.6719L114.956 75.4122L114.988 74.9414L113.996 75.2596L111.993 74.9414L112.061 75.8797L97.4551 80.5647L97.037 114.132Z" fill="black"/>
<path d="M129.026 26.9361C108.246 20.3714 94.2266 28.4361 94.2266 28.4361L97.9056 55.6271L97.4518 80.5681H129.312C129.124 78.6915 129.441 58.0653 129.441 58.0653L129.026 26.9361Z" fill="#C4C4C4"/>
<path opacity="0.1" d="M107.488 63.196C115.957 61.2999 121.011 60.248 129.445 57.8454L126.022 41.1348C124.272 43.1802 125.737 47.0762 123.834 47.7093C116.431 50.1735 103.225 49.7709 99.7665 46.9463C98.9821 46.3035 98.8298 44.2711 98.3338 41.427L97.9059 55.6279L97.4521 80.5689C97.7568 80.4196 99.1798 66.1667 100.541 65.4849C102.198 64.657 105.74 63.5856 107.488 63.196Z" fill="black"/>
<path d="M100.243 63.5039C104.732 63.2474 122.997 59.004 122.997 59.004L122.333 54.1275L98.93 53.9392L94.272 28.4365C94.272 28.4365 92.2137 30.3131 92.2137 33.313C92.2137 36.313 91.6627 58.7118 92.2235 59.4618C92.7875 60.2118 92.862 63.926 100.243 63.5039Z" fill="#C4C4C4"/>
<path opacity="0.1" d="M103.676 57.5424C105.348 57.6204 120.421 60.2274 124.466 59.8346L122.336 54.1269L98.9334 53.9386L97.9253 48.416C97.5104 50.3153 96.0518 51.9452 93.5429 51.9452C92.966 51.9452 92.4441 51.8575 91.9773 51.7017C91.9676 54.9354 91.9968 57.6431 92.1102 58.8281C93.8347 59.6398 100.535 57.3996 103.676 57.5424Z" fill="black"/>
<path d="M95.8215 49.2505C94.9074 49.3869 92.1004 50.1401 92.1004 50.1401L90.2754 52.5329C90.2754 52.5329 90.1361 53.0783 90.4861 53.4225C90.4861 53.4225 90.4148 55.1984 90.7681 55.5426C90.7681 55.5426 90.8394 57.114 91.5396 57.0458L92.0323 57.1821C92.0323 57.1821 91.6822 58.7535 92.525 58.6854C93.3678 58.6172 94.4893 57.4549 94.4893 57.4549L99.8247 56.8412C99.8247 56.8412 101.578 56.088 102.282 55.338L106.424 55.2699L105.863 50.2115L102.564 49.6661L99.4746 47.546L93.9998 45.9746C93.9998 45.9746 93.5784 46.9324 94.7713 47.546C95.9641 48.1596 96.5249 48.7083 96.5249 48.7083C96.5249 48.7083 96.7323 49.1141 95.8215 49.2505Z" fill="#F8C5AC"/>
<path opacity="0.1" d="M92.5223 58.6831C93.365 58.6149 94.4866 57.4526 94.4866 57.4526L99.8219 56.8389C99.8219 56.8389 101.576 56.0857 102.279 55.3357L106.421 55.2675L106.34 54.5468C106.256 54.5565 106.172 54.5695 106.084 54.576C103.621 54.7448 101.096 54.6799 98.7296 55.4656C95.7377 56.4623 93.3585 56.6441 90.8237 54.4721C90.7006 54.3682 90.5871 54.2546 90.4834 54.1377C90.4996 54.6734 90.5612 55.3422 90.7654 55.5403C90.7654 55.5403 90.8367 57.1117 91.5369 57.0435L92.0296 57.1798C92.0296 57.1798 91.6795 58.7512 92.5223 58.6831Z" fill="black"/>
<path d="M105.345 56.2927C105.345 56.2927 124.683 61.3023 129.037 61.3023C133.39 61.3023 133.951 53.8479 133.951 53.2863C133.951 52.7246 132.443 34.8159 132.022 31.579C131.601 28.3453 128.998 26.9395 128.998 26.9395L125.001 39.1729L125.944 50.3318L105.342 49.6272V56.2927H105.345Z" fill="#C4C4C4"/>
<path d="M117.238 24.339L116.791 16.4561L107.945 18.706L107.368 24.1247C107.089 27.037 109.374 29.5597 112.295 29.5597C115.131 29.5629 117.387 27.1766 117.238 24.339Z" fill="#F8C5AC"/>
<path opacity="0.1" d="M117.04 20.881L116.787 16.459L107.941 18.7089L107.649 21.4361C108.171 21.8063 108.917 23.8939 109.39 24.3647C113.542 28.5009 116.262 23.0303 117.04 20.881Z" fill="black"/>
<path d="M106.307 18.8492C107.38 20.557 108.975 22.031 109.286 22.3134C109.856 22.9985 110.809 23.4205 112.343 23.4205C113.957 23.4205 114.894 23.0374 115.438 22.4108L115.448 22.4335C115.448 22.4335 117.185 20.7453 118.378 18.846C119.059 17.7616 119.474 13.8331 119.688 11.989C119.749 9.86889 120.022 10.6156 120.022 9.65785C120.022 5.46314 116.709 2.45996 112.339 2.45996C107.97 2.45996 104.81 5.85923 104.81 10.0539C104.81 10.5539 104.865 11.0507 104.959 11.5409L104.981 11.8753C104.991 11.8786 105.309 17.2583 106.307 18.8492Z" fill="#F8C5AC"/>
<path d="M105.77 16.9176C106.473 16.6351 105.235 12.0735 105.235 12.0735C105.235 12.0735 104.185 11.3008 103.974 12.0054C103.763 12.7099 104.535 14.8884 104.606 15.3105C104.677 15.7293 105.066 17.2001 105.77 16.9176Z" fill="#F8C5AC"/>
<path d="M120.068 15.3097C120.139 14.8876 120.91 12.7091 120.7 12.0045C120.489 11.3 119.646 12.0045 119.646 12.0045C119.646 12.0045 118.311 16.7155 119.014 16.9979C119.714 17.2771 119.996 15.7285 120.068 15.3097Z" fill="#F8C5AC"/>
<path d="M117.876 6.76475C118.79 7.32643 119.014 13.7451 119.014 13.7451C119.646 13.0633 120.265 10.1997 120.301 9.28418C120.405 6.56995 119.886 4.67714 119.646 4.29727C119.29 3.73235 119.617 2.0246 117.118 1.18046C116.077 0.82982 112.868 -0.00457643 110.632 0.190224C108.392 0.385025 104.959 2.58952 104.476 4.78428C103.893 7.43681 104.875 11.651 104.943 12.0731C105.014 12.4951 106.061 13.6802 106.061 13.6802C106.061 13.6802 105.928 8.73549 107.199 6.82969C108.269 5.22258 116.962 6.20308 117.876 6.76475Z" fill="#C47939"/>
<path d="M121.364 47.01L117.957 49.9385L127.279 50.3963L125.578 46.7275L121.364 47.01Z" fill="#F8C5AC"/>
<path d="M113.425 24.0692C114.842 24.0692 115.993 22.7153 115.993 21.2965V19.79H109.357V21.5562C109.357 22.9393 110.479 24.0692 111.86 24.0692H113.425Z" fill="#C47939"/>
<path d="M114.56 18.7324H110.281C110.281 20.2778 111.237 21.5278 112.421 21.5278C113.604 21.5278 114.56 20.2778 114.56 18.7324Z" fill="#F8C5AC"/>
<path d="M116.553 20.1505C116.553 18.8746 115.451 17.8389 114.09 17.8389H112.281C112.281 19.1148 113.383 20.1505 114.745 20.1505H116.553Z" fill="#C47939"/>
<path d="M112.563 17.8389H110.754C109.396 17.8389 108.291 18.8746 108.291 20.1505H110.1C111.461 20.1505 112.563 19.1181 112.563 17.8389Z" fill="#C47939"/>
<path d="M110.427 28.4369C108.08 26.3331 107.438 23.3818 107.438 23.3818L105.348 24.898C105.286 28.0928 108.294 30.518 108.294 30.518L110.427 28.4369Z" fill="#F7F8F9"/>
<path d="M109.908 28.9495C110.475 29.232 111.043 29.4008 111.043 29.4008L110.424 28.4365L109.908 28.9495Z" fill="#D5DEE2"/>
<path d="M119.322 24.7812L117.169 23.3818C117.169 23.3818 116.524 26.3331 114.181 28.4369L116.317 30.518C116.317 30.518 119.383 27.9726 119.322 24.7812Z" fill="#F7F8F9"/>
<path d="M113.562 29.4008C113.562 29.4008 114.132 29.232 114.696 28.9495L114.181 28.4365L113.562 29.4008Z" fill="#D5DEE2"/>
<path d="M235.186 81.292C235.024 82.3959 234.797 89.1327 234.609 92.8891C234.405 96.9929 235.289 121.418 235.289 121.418L239.286 161.267L244.829 161.063C244.829 161.063 246.884 137.362 245.792 128.427C245.244 123.953 244.939 117.723 244.939 117.723L247.124 81.3926L235.186 81.292Z" fill="#F0C6A8"/>
<path opacity="0.06" d="M235.186 81.292C235.023 82.3959 234.797 89.1327 234.609 92.8891C234.502 94.9995 234.686 102.47 234.887 109.236C234.939 109.252 234.991 109.256 235.043 109.278C238.579 110.593 240.595 112.577 241.221 116.369C242.135 121.905 243.477 126.833 244.051 132.421C244.673 138.486 244.482 144.589 244.738 150.674C244.832 152.904 244.988 155.128 245.117 157.349C245.642 150.316 246.608 135.174 245.785 128.434C245.237 123.96 244.932 117.729 244.932 117.729L247.117 81.3991L235.186 81.292Z" fill="black"/>
<path d="M257.298 81.3955H244.838L246.005 91.8628L248.799 119.641L255.703 161.27L261.246 160.04C261.246 160.04 260.202 131.579 259.949 129.252C259.522 125.287 258.685 118.547 258.685 115.674C258.685 114.424 259.097 94.9439 259.097 90.4278C259.097 86.9895 257.881 83.074 257.298 81.3955Z" fill="#F0C6A8"/>
<path opacity="0.06" d="M257.298 81.3955H244.838L246.005 91.8628L247.762 109.336C247.937 109.336 248.121 109.359 248.319 109.424C251.953 110.635 254.646 112.395 255.988 116.129C257.936 121.55 257.272 127.18 258.293 132.82C259.142 137.501 260.581 155.322 261.243 160.04C260.938 152.235 260.079 130.489 259.946 129.252C259.518 125.287 258.682 118.547 258.682 115.674C258.682 114.424 259.094 94.9439 259.094 90.4278C259.097 86.9895 257.881 83.074 257.298 81.3955Z" fill="black"/>
<path d="M261.564 159.985L255.6 160.245L251.036 163.287C247.289 163.787 247.117 166.307 247.117 166.307H262.725C263.146 162.917 261.564 159.985 261.564 159.985Z" fill="#E9E2DF"/>
<path d="M251.136 163.219L251.039 163.284C247.292 163.784 247.12 166.303 247.12 166.303H255.464C255.402 166.183 255.34 166.063 255.295 165.93C254.524 163.768 253.37 163.167 251.136 163.219Z" fill="#C0A9A8"/>
<path d="M247.688 164.966C247.163 165.664 247.117 166.307 247.117 166.307H262.725C262.78 165.849 262.799 165.401 262.793 164.966H247.688Z" fill="#C0A9A8"/>
<path d="M245.033 160.037L239.082 160.141L231.74 163.371C227.993 163.871 227.821 166.303 227.821 166.303H246.622C247.036 162.917 245.033 160.037 245.033 160.037Z" fill="#E9E2DF"/>
<path d="M234.154 164.521C233.853 163.784 233.451 163.342 232.514 163.219C232.414 163.206 232.316 163.18 232.216 163.16L231.736 163.371C227.989 163.871 227.817 166.303 227.817 166.303H234.417C234.417 165.978 234.404 165.654 234.355 165.339C234.388 165.53 234.057 164.287 234.154 164.521Z" fill="#C0A9A8"/>
<path d="M246.647 164.758H228.599C227.873 165.524 227.814 166.303 227.814 166.303H246.615C246.683 165.774 246.686 165.258 246.647 164.758Z" fill="#C0A9A8"/>
<path d="M256.699 65.6436H236.897C236.897 65.6436 233.212 75.1726 232.923 90.3151L232.645 108.532H262.174C262.174 108.532 262.083 91.341 261.856 84.6886C261.629 78.0361 256.699 65.6436 256.699 65.6436Z" fill="#2F2B27"/>
<path opacity="0.1" d="M262.1 98.8344C262.048 93.7663 261.97 87.958 261.857 84.6918C261.63 78.0361 256.7 65.6436 256.7 65.6436H236.898C236.898 65.6436 234.92 71.309 233.747 79.6692C241.734 80.9419 251.341 81.14 256.687 88.1366C259.127 91.3248 260.865 95.0098 262.1 98.8344Z" fill="black"/>
<path d="M263.947 38.521C263.513 37.5827 262.197 35.362 259.176 34.6607L251.555 32.2744C251.643 34.6835 249.957 37.1542 246.482 37.1542C244.019 37.1542 242.453 35.9042 241.782 34.3166C241.759 34.2711 241.743 34.2289 241.724 34.1835C241.724 34.1802 241.721 34.177 241.721 34.1737C241.516 33.7159 241.383 33.2322 241.332 32.7387L235.043 34.7029C232.735 35.2906 231.449 36.7646 230.8 37.8132L230.518 38.3165C230.324 38.6996 230.239 38.9528 230.239 38.9528L229.374 44.8358C230.894 45.4105 231.672 45.4819 234.223 46.8293C234.003 48.3552 233.906 49.5045 233.906 49.5045V49.8032C233.906 51.4168 235.575 62.5107 235.163 65.647C234.907 67.595 233.212 79.0136 233.212 79.0136H260.936C260.936 79.0136 258.372 65.5074 258.067 63.0919C257.555 59.0303 258.109 47.9429 258.109 47.9429C259.522 43.8618 263.947 38.521 263.947 38.521Z" fill="#E9E2DF"/>
<path opacity="0.05" d="M235.555 46.4235C235.348 45.8781 235.678 57.2999 235.114 57.3031C234.965 57.3031 234.829 57.2869 234.699 57.2609C235.059 60.5953 235.367 64.0952 235.163 65.6471C235.121 65.975 235.036 66.5399 234.926 67.2445C241.526 67.2899 248.517 67.5594 254.744 69.8288C256.255 70.3775 258.109 71.6957 259.759 72.6924C259.039 69.1243 258.225 64.3906 258.063 63.0952C257.551 59.0336 258.106 47.9462 258.106 47.9462C259.522 43.8651 263.947 38.5243 263.947 38.5243C263.878 38.3782 263.785 38.1964 263.671 37.9951C258.961 42.5113 257.571 48.115 255.026 55.3421C253.201 60.5303 243.714 57.4655 238.43 57.3746C233.746 57.2934 236.725 49.4819 235.555 46.4235Z" fill="black"/>
<path d="M246.384 30.03C248.751 30.0787 253.713 27.2671 253.788 23.673L256.319 16.7836L239.474 12.4688L239.769 22.1341C239.691 25.7282 242.371 29.9489 246.384 30.03Z" fill="#F0C6A8"/>
<path d="M251.701 33.4258L252.083 24.7571L243.428 24.374L243.046 33.0427C242.952 35.1822 244.527 37.1789 246.919 37.2861C246.919 37.2861 251.607 35.5653 251.701 33.4258Z" fill="#F0C6A8"/>
<path opacity="0.1" d="M243.244 28.585L243.198 29.6142C243.198 29.6142 246.291 31.3447 249.276 28.7927C249.276 28.7927 245.257 31.1206 243.244 28.585Z" fill="black"/>
<path d="M249.652 15.4658C251.068 15.4852 252.2 16.5307 252.174 17.7969L252.154 18.8001L252.919 18.8163C252.919 18.8163 252.961 17.9073 253.603 17.9203C254.08 17.93 254.686 17.9787 254.66 19.3423C254.585 23.0792 253 22.8422 253 22.8422L251.665 27.67C254.242 26.274 256.696 19.839 256.725 17.2482C256.838 7.72893 247.714 8.10554 247.714 8.10554C247.714 8.10554 247.863 14.1411 247.017 15.2969L249.652 15.4658Z" fill="#302A2A"/>
<path d="M242.537 13.7948C244.411 15.9539 249.707 15.4376 249.707 15.4376L247.879 8.1748H246.077C238.035 8.42805 238.339 15.048 238.339 15.048C238.44 18.2428 239.617 19.6258 239.617 19.6258C239.542 17.2071 242.537 13.7948 242.537 13.7948Z" fill="#302A2A"/>
<path d="M257.872 13.3652C256.164 11.7029 254.644 14.2353 254.644 14.2353C257.982 15.5502 254.984 22.2416 254.984 22.2416C259.535 22.8845 259.58 15.0275 257.872 13.3652Z" fill="#302A2A"/>
<path d="M251.746 30.7549C251.746 30.7549 245.96 37.1768 245.947 37.271L248.586 40.2417L254.177 33.0341L251.746 30.7549Z" fill="#F7F8F9"/>
<path d="M242.988 31.2744L239.737 33.3653L243.611 40.2417L246.249 37.271C246.24 37.1769 242.988 31.2744 242.988 31.2744Z" fill="#F7F8F9"/>
<path d="M262.818 36.8197C260.277 36.7093 258.838 40.5826 258.287 42.9105C257.733 45.2351 256.303 59.5984 256.303 59.5984L239.474 60.5562L238.265 64.5918C238.265 64.5918 256.692 67.9359 260.008 67.8255C263.324 67.7151 263.6 60.3711 264.374 57.9361C265.149 55.5011 264.478 47.1149 264.809 43.2416C265.139 39.3683 262.818 36.8197 262.818 36.8197Z" fill="#E9E2DF"/>
<path opacity="0.05" d="M262.721 65.0825C263.616 62.7027 263.904 59.417 264.374 57.9365C264.429 57.7612 264.478 57.5502 264.52 57.3164C262.053 57.9105 259.567 58.4138 257.146 59.1865C256.851 59.2807 256.582 59.2936 256.339 59.2514C256.316 59.4722 256.303 59.5956 256.303 59.5956L239.474 60.5534L238.265 64.589C238.265 64.589 241.065 65.0987 244.679 65.7091C250.679 64.9072 256.686 65.0338 262.721 65.0825Z" fill="black"/>
<path d="M264.971 56.7873L262.485 56.3457L259.004 56.5665L255.133 58.8359L250.436 59.3326C249.111 59.943 250.657 63.8163 250.657 63.8163L255.519 63.5403C255.519 63.5403 259.995 64.5923 261.486 64.7027C262.978 64.813 263.088 64.2611 263.422 63.8715C263.752 63.4851 263.807 62.5436 263.807 62.5436L264.472 61.878C264.582 61.4365 264.472 60.9917 264.472 60.9917C264.968 60.6053 264.637 59.5534 264.637 59.5534C265.577 58.943 264.858 58.1703 264.858 58.1703C264.858 58.1703 264.637 58.3911 265.023 57.8944C265.412 57.3976 264.971 56.7873 264.971 56.7873Z" fill="#F0C6A8"/>
<path d="M230.243 38.9531C230.243 38.9531 227.199 48.2451 226.985 62.4494C226.94 65.3357 227.834 66.9752 230.521 66.9882C238.265 67.0239 254.181 63.6182 254.181 63.6182L253.623 58.9981L234.427 58.8358L235.675 48.2127C235.672 48.2094 235.439 36.4045 230.243 38.9531Z" fill="#E9E2DF"/>
<path d="M227.694 55.4852C227.694 55.4852 227.694 56.0404 227.86 56.206C228.025 56.3716 229.685 55.7092 229.685 55.7092L228.689 56.43C228.689 56.43 227.694 56.8716 227.749 57.206C227.805 57.5371 228.359 57.9267 228.689 57.9267C229.02 57.9267 231.827 58.7871 232.822 58.8975C233.817 59.0079 235.454 58.9592 238.987 58.891L235.707 54.3294L232.612 52.3359L228.631 52.8327C228.631 52.8327 228.686 53.719 229.461 53.7742C230.236 53.8294 231.616 53.6638 231.616 53.6638L232.002 54.0502L229.017 54.3814L227.694 55.4852Z" fill="#F0C6A8"/>
<g opacity="0.5">
<path opacity="0.5" d="M249.799 19.7516C250.198 18.1704 249.433 17.7906 247.251 17.9432C245.105 18.0893 244.807 18.5665 244.814 19.2224C244.836 21.2418 246.337 21.8197 247.099 21.9203C248.849 22.1444 249.41 21.2872 249.799 19.7516Z" fill="#E3F3F4"/>
</g>
<g opacity="0.5">
<path opacity="0.5" d="M241.764 22.1088C242.496 21.9595 243.939 21.2777 243.861 19.2647C243.835 18.6122 243.517 18.1706 241.427 18.2323C239.365 18.294 238.678 18.729 239.119 20.2095C239.55 21.6576 240.114 22.4465 241.764 22.1088Z" fill="#E3F3F4"/>
</g>
<path d="M238.431 18.7161L238.457 19.0765C238.46 19.1415 238.515 19.1934 238.577 19.1902L238.625 19.1869C238.625 19.1869 238.787 19.2291 238.82 19.4791C238.826 19.5181 238.833 19.5538 238.839 19.5798C238.852 19.7778 238.894 19.9986 238.972 20.2486C239.361 21.5408 239.877 22.3784 241.167 22.3329C241.358 22.3264 241.569 22.3005 241.792 22.255C242.768 22.0537 243.883 21.2713 244.003 19.6901L244.009 19.7031C244.009 19.6804 244.009 19.6609 244.009 19.6414C244.013 19.5798 244.016 19.5148 244.016 19.4499C244.052 19.0668 244.214 19.0148 244.288 19.0116V19.0148C244.288 19.0148 244.295 19.0116 244.308 19.0116C244.321 19.0116 244.327 19.0148 244.327 19.0148V19.0116C244.415 19.0051 244.625 19.0408 244.671 19.4953C244.674 19.5213 244.674 19.5473 244.677 19.57C244.68 19.6025 244.68 19.6382 244.68 19.6772L244.687 19.6544C244.885 21.2323 246.058 21.9401 247.073 22.0732C247.309 22.1024 247.53 22.1154 247.731 22.1089C249.095 22.0602 249.604 21.1576 249.954 19.7843C250.019 19.5343 250.051 19.3135 250.058 19.1155C250.068 19.083 250.077 19.0343 250.084 18.9694C250.107 18.7064 250.282 18.648 250.282 18.648L250.337 18.6447C250.405 18.6415 250.46 18.583 250.463 18.5148L250.473 18.135C250.476 18.0668 250.421 18.0116 250.353 18.0149C250.353 18.0149 249.312 17.7064 248.045 17.7421L248.058 17.7454C247.896 17.7454 247.721 17.7486 247.533 17.7584C247.442 17.7616 247.348 17.7681 247.251 17.7746C246.402 17.833 245.795 17.9402 245.387 18.122C245.325 18.148 245.248 18.1804 245.16 18.2194C244.924 18.3298 244.515 18.4954 244.301 18.5148C244.09 18.5181 243.711 18.3915 243.471 18.3038C243.394 18.2746 243.322 18.2519 243.261 18.2356C242.849 18.0928 242.253 18.0473 241.423 18.0701C241.332 18.0733 241.241 18.0765 241.154 18.0798C240.956 18.0895 240.771 18.1025 240.603 18.122L240.622 18.1123C239.433 18.1999 238.486 18.5928 238.486 18.5928L238.496 18.5993C238.454 18.622 238.428 18.6674 238.431 18.7161ZM247.254 18.109C247.348 18.1025 247.439 18.096 247.53 18.0928C248.674 18.0376 249.306 18.1642 249.575 18.5051C249.769 18.7519 249.792 19.1415 249.646 19.7226C249.322 21.0148 248.907 21.7583 247.737 21.8005C247.552 21.807 247.348 21.7972 247.128 21.768C246.771 21.7226 244.995 21.3849 244.972 19.2194C244.966 18.6967 245.131 18.2519 247.254 18.109ZM239.264 18.9889C239.494 18.6382 240.081 18.4564 241.163 18.4012C241.248 18.398 241.335 18.3947 241.426 18.3915C243.494 18.3298 243.682 18.7551 243.701 19.2713C243.789 21.4239 242.071 21.8881 241.727 21.9563C241.517 21.9985 241.322 22.0245 241.147 22.031C240.039 22.07 239.617 21.3817 239.254 20.1642C239.095 19.622 239.099 19.2453 239.264 18.9889Z" fill="#2F2B27"/>
<path d="M253.046 18.4883L250.294 18.1084L250.333 18.6441L252.971 18.8421L253.046 18.4883Z" fill="#2F2B27"/>
<path d="M150.532 12.9332C150.652 9.09888 147.654 5.89441 143.829 5.77104L139.683 5.64117C135.862 5.52104 132.666 8.53072 132.542 12.365L131.858 31.4945L151.501 32.4685L150.532 12.9332Z" fill="#CE982B"/>
<path d="M140.429 166.495C143.787 166.495 146.014 166.508 148.824 166.495C149.369 166.491 149.82 165.969 149.833 165.423C149.917 161.923 148.824 158.875 148.824 158.875L142.5 158.579C142.5 158.579 139.535 162.637 138.747 162.735C134.112 163.316 135.191 166.495 135.191 166.495C135.191 166.495 136.082 166.495 140.429 166.495Z" fill="#E6EBEE"/>
<path d="M149.835 165.423C149.894 162.956 150.001 162.939 149.686 161.829C148.305 163.183 147.015 165.258 146.886 166.501C147.515 166.501 148.153 166.498 148.827 166.495C149.369 166.491 149.822 165.969 149.835 165.423Z" fill="#816E68"/>
<path d="M140.429 166.494C140.805 166.494 142.111 166.494 142.462 166.494C142.374 165.663 141.515 162.777 138.993 162.621C138.899 162.68 138.815 162.725 138.747 162.731C134.112 163.313 135.191 166.491 135.191 166.491C135.191 166.491 136.082 166.494 140.429 166.494Z" fill="#816E68"/>
<path d="M153.538 73.8866C144.507 74.0554 135.483 74.195 126.498 73.3281L123.535 93.8601C123.535 93.8601 119.12 120.392 118.495 123.846C117.869 127.301 115.83 158.875 115.83 158.875L122.747 159.17C122.747 159.17 125.334 146.576 126.501 138.784C127.094 134.827 127.35 125.317 127.885 123.84C129.071 120.551 137.817 96.7789 139.103 93.2855C140.196 104.042 142.05 122.502 142.05 124.051C142.05 126.249 142.361 158.573 142.361 158.573L148.931 159.066C151.551 140.908 152.734 128.437 152.4 124.993C152.309 124.054 152.085 116.512 152.085 116.512C152.085 116.512 155.301 87.8278 155.255 85.6298C155.129 79.9156 154.228 76.0456 153.538 73.8866Z" fill="#C0A9A8"/>
<path opacity="0.2" d="M153.537 73.8866C144.507 74.0554 135.483 74.195 126.498 73.3281L125.762 78.4189C130.744 78.0196 135.924 78.2533 140.588 79.552C143.505 80.3669 146.439 81.8247 148.004 84.5487C149.589 87.3116 149.914 90.6492 149.998 93.7757C150.076 96.7821 149.764 99.7658 149.667 102.766C149.521 107.223 149.619 111.691 149.492 116.152C149.21 126.116 148.335 135.996 146.692 145.826C145.933 150.369 144.662 154.781 142.358 158.547C142.358 158.563 142.358 158.576 142.358 158.576L148.928 159.07C151.547 140.911 152.73 128.441 152.396 124.996C152.306 124.058 152.082 116.515 152.082 116.515C152.082 116.515 155.298 87.831 155.252 85.633C155.129 79.9156 154.228 76.0456 153.537 73.8866Z" fill="black"/>
<path opacity="0.2" d="M127.881 123.843C129.067 120.554 137.813 96.7823 139.1 93.2888C139.443 96.6751 139.294 88.9286 139.194 88.8928C138.335 88.5747 127.097 112.133 126.082 115.149C124.935 118.561 124.468 122.019 123.998 125.571C120.73 150.414 115.826 158.875 115.826 158.875L122.743 159.17C122.743 159.17 125.33 146.577 126.497 138.785C127.09 134.827 127.349 125.321 127.881 123.843Z" fill="black"/>
<path d="M130.254 30.4268C130.254 30.4268 125.807 31.2189 125.019 33.6929C124.406 35.6085 121.56 42.0044 119.661 56.832C119.194 60.4715 119.502 61.28 121.087 62.0754C122.672 62.8708 129.443 64.0137 137.586 64.6175L137.437 59.3709L126.922 56.3937L128.069 51.3289L130.254 30.4268Z" fill="#2F2B27"/>
<path d="M154.558 77.4322C154.558 77.4322 152.088 65.4584 152.497 56.5138C152.665 52.8613 155.842 31.3163 155.842 31.3163C155.842 31.3163 142.186 25.5307 127.907 31.2481L128.523 39.9622C128.523 39.9622 127.074 44.8907 126.783 46.4393C125.93 50.936 127.57 52.6567 127.57 52.6567L125.509 78.9126L154.558 77.4322Z" fill="#2F2B27"/>
<path opacity="0.1" d="M146.267 62.8577C140.387 64.9259 132.89 64.5298 126.721 63.5168L126.614 64.8902C129.47 64.1824 132.857 64.8869 136.05 65.7311C140.251 66.8447 146.222 68.6109 149.123 72.3316C150.701 73.5101 151.46 75.7373 151.11 77.6074L154.559 77.4321C154.559 77.4321 152.089 65.4583 152.497 56.5137C152.585 54.569 153.528 47.5561 154.39 41.4199C153.531 42.6991 150.526 40.8485 149.855 41.8095C147.431 45.2867 148.03 52.7119 143.616 53.819C141.599 54.3255 138.783 53.8515 136.731 53.8093C134.339 53.7606 131.95 53.7346 129.561 53.5982C128.786 53.5528 128.144 52.9651 127.57 52.6567L127.444 54.2605C127.736 54.2703 128.031 54.2963 128.322 54.3482C133.045 55.1858 142.416 57.8189 146.993 56.2118C152.685 54.2151 151.897 60.8773 146.267 62.8577Z" fill="black"/>
<path d="M151.861 62.2349C157.89 51.7481 158.84 39.6737 158.999 35.8588C159.158 32.044 155.508 31.2518 155.508 31.2518C151.385 30.6155 150.908 36.9725 150.908 36.9725L146.785 55.8811L132.26 54.8C130.517 56.3876 130.977 58.8811 130.977 58.8811C130.977 58.8811 142.182 63.5076 145.991 63.6667C149.8 63.8225 151.861 62.2349 151.861 62.2349Z" fill="#2F2B27"/>
<path d="M131.898 55.1793L127.172 53.9033L125.042 56.0104L130.954 57.5331C130.954 57.5331 131.09 56.6078 131.204 56.2474C131.46 55.4358 131.898 55.1793 131.898 55.1793Z" fill="#F8C5AC"/>
<path d="M145.498 29.1926L144.49 22.0662L137.638 21.8486L137.362 30.5303C137.294 32.6731 138.97 34.4652 141.106 34.5334C143.246 34.5983 145.43 31.3354 145.498 29.1926Z" fill="#F8C5AC"/>
<path opacity="0.1" d="M140.675 28.1991C142.584 27.8777 143.637 27.1634 145.022 25.8258L144.49 22.0629L137.638 21.8486L137.466 27.2608C137.871 28.3258 138.986 28.4848 140.675 28.1991Z" fill="black"/>
<path d="M147.252 20.9652L147.502 13.1018L134.516 12.6895L134.267 19.2835C134.153 22.8808 135.93 26.9619 139.142 27.1339C144.101 27.4002 147.139 24.5626 147.252 20.9652Z" fill="#F8C5AC"/>
<path d="M146.156 26.5204L148.234 23.0724L148.626 12.8681L144.49 12.3486C144.49 12.3486 145.715 16.3193 145.852 20.7738C145.997 25.5464 144.568 28.8937 144.568 28.8937L146.156 26.5204Z" fill="#CE9B25"/>
<path d="M147.164 14.3162L147.242 11.8909L143.012 11.7578L142.973 12.9526C145.096 13.0208 145.144 15.0142 145.144 15.0142L147.164 14.3162Z" fill="#CE9B25"/>
<path d="M134.627 29.2548C134.452 35.1606 137.745 36.5988 137.745 36.5988L139.946 34.3132C137.142 33.0989 137.476 27.1348 137.476 27.1348L134.627 29.2548Z" fill="#F7F8F9"/>
<path d="M147.878 29.2418L145.168 26.9854C145.168 26.9854 143.103 33.2872 139.9 34.3131L141.952 36.7351C141.952 36.7319 145.972 35.3845 147.878 29.2418Z" fill="#F7F8F9"/>
<path d="M123.179 166.321C123.724 166.317 124.174 165.795 124.187 165.249C124.272 161.749 123.179 158.701 123.179 158.701L116.262 158.405C116.262 158.405 110.188 162.545 108.162 162.759C103.517 163.253 104.373 166.321 104.373 166.321C104.373 166.321 120.366 166.334 123.179 166.321Z" fill="#E6EBEE"/>
<path d="M123.852 165.436C123.881 164.228 123.768 163.078 123.609 162.085C122.99 162.267 122.384 162.494 121.8 162.776C120.06 163.624 119.531 164.936 119.003 166.51C120.763 166.51 122.173 166.507 122.841 166.504C123.385 166.504 123.839 165.981 123.852 165.436Z" fill="#816E68"/>
<path d="M109.455 164.304C109.455 164.297 109.448 164.275 109.432 164.235C109.441 164.258 109.448 164.281 109.455 164.304Z" fill="#DE5B3A"/>
<path d="M109.046 163.485C108.965 163.355 108.887 163.225 108.806 163.096C108.799 163.089 108.799 163.086 108.793 163.079C108.764 163.044 108.615 162.904 108.491 162.787C108.238 162.868 108.015 162.923 107.827 162.943C103.182 163.436 104.038 166.505 104.038 166.505C104.038 166.505 106.634 166.508 109.918 166.508C109.859 165.774 109.73 165.06 109.454 164.313C109.461 164.371 109.097 163.583 109.046 163.485Z" fill="#816E68"/>
<path d="M140.429 166.495C143.787 166.495 146.014 166.508 148.824 166.495C149.369 166.491 149.819 165.969 149.832 165.423C149.832 165.388 149.832 165.355 149.832 165.319H135.11C135.016 165.975 135.191 166.495 135.191 166.495C135.191 166.495 136.082 166.495 140.429 166.495Z" fill="#2D5970"/>
<path d="M122.845 166.495C123.389 166.491 123.84 165.969 123.853 165.423C123.853 165.388 123.853 165.352 123.853 165.319H104.054C103.898 165.969 104.038 166.495 104.038 166.495C104.038 166.495 120.031 166.508 122.845 166.495Z" fill="#2D5970"/>
<path d="M143.615 63.5196L137.518 62.3086L137.586 64.3183L140.163 64.0715L143.615 63.5196Z" fill="#F8C5AC"/>
<path opacity="0.1" d="M127.172 53.9028L127.467 53.984L127.571 52.6594C127.571 52.6594 126.131 50.1042 126.611 47.5751C127.091 45.0459 127.499 42.7018 127.499 42.7018L128.524 39.9648C128.524 39.9648 126.258 44.1498 126.024 45.0102C124.297 51.3899 125.574 51.0198 125.817 51.6529C126.06 52.286 125.039 56.0132 125.039 56.0132L127.172 53.9028Z" fill="black"/>
<path d="M59.416 160.037L64.5666 161.268L70.9846 119.055L73.581 91.2759L74.6669 80.8086H63.0853C62.544 82.4871 61.4127 86.4026 61.4127 89.8409C61.4127 94.357 61.7952 113.837 61.7952 115.087C61.7952 117.96 61.0173 125.285 60.6218 129.249C60.3884 131.577 59.416 160.037 59.416 160.037Z" fill="#856451"/>
<path opacity="0.1" d="M59.416 160.037C59.416 160.037 60.7644 145.099 61.5165 139.603C62.4338 132.928 62.5667 124.739 63.3381 118.051C63.6072 115.71 63.3543 111.116 63.9216 108.847C64.6055 106.116 71.5584 106.698 72.1127 106.99L73.581 91.2759L74.6669 80.8086H63.0853C62.544 82.4871 61.4127 86.4026 61.4127 89.8409C61.4127 94.357 61.7952 113.837 61.7952 115.087C61.7952 117.96 61.0173 125.285 60.6218 129.249C60.3884 131.577 59.416 160.037 59.416 160.037Z" fill="black"/>
<path d="M68.9075 163.288L64.6645 160.246L59.4167 160.041C59.4167 160.041 58.1395 163.603 58.0391 166.307H72.5477C72.5509 166.307 72.3921 163.788 68.9075 163.288Z" fill="#856451"/>
<path d="M68.9071 163.287C68.9071 163.287 67.4517 163.712 65.1665 163.787C62.2265 163.881 58.4146 163.625 58.2785 163.602C58.1877 164.3 57.9511 165.527 58.0419 166.31H72.5504C72.5504 166.307 72.3916 163.787 68.9071 163.287Z" fill="#C0A9A8"/>
<path d="M76.1621 161.066L81.1766 161.271L84.794 120.837C84.794 120.837 85.5946 96.4119 85.4099 92.3081C85.2413 88.5517 85.0339 81.8148 84.888 80.7109L74.0908 80.8148L76.0681 117.145C76.0681 117.145 75.7926 123.96 75.2966 128.434C74.3048 137.366 76.1621 161.066 76.1621 161.066Z" fill="#856451"/>
<path opacity="0.1" d="M84.2008 107.025C84.5574 107.038 84.8815 107.097 85.1959 107.171C85.3612 100.831 85.4974 94.2626 85.4099 92.3081C85.2413 88.5517 85.0339 81.8148 84.888 80.7109L74.0908 80.8148L76.0681 117.145C76.0681 117.145 75.7926 123.96 75.2966 128.434C74.7845 133.051 75.0341 141.602 75.3939 148.797C75.4328 148.307 75.4652 147.823 75.4846 147.352C75.7504 141.236 78.2723 120.762 77.786 114.967C77.4295 110.749 78.8557 106.811 84.2008 107.025Z" fill="black"/>
<path d="M88.0057 163.372L81.1112 160.135L76.2102 160.041C76.2102 160.041 74.2783 163.82 74.5376 166.304H91.5486C91.5518 166.307 91.3995 163.875 88.0057 163.372Z" fill="#856451"/>
<path d="M88.0064 163.372L87.854 163.297C87.1506 163.823 86.2431 164.148 85.1248 164.148C85.1248 164.148 75.0115 163.518 74.7328 163.469C74.6161 164.167 74.454 165.521 74.5415 166.303H91.5525C91.5525 166.307 91.4001 163.875 88.0064 163.372Z" fill="#C0A9A8"/>
<path d="M81.5459 40.9336L83.5977 66.4135C83.5977 66.4135 84.3659 71.4459 84.7646 72.9459C85.4032 75.3484 87.7305 80.7704 89.1341 83.9554C88.9104 84.7508 88.4307 86.6047 88.6284 87.3839C88.8456 88.241 89.1016 90.413 89.1697 91.0299L88.9396 92.3415L88.0774 94.2116C88.0774 94.2116 87.7435 94.9714 88.3334 95.3642L89.7694 93.7246L89.7564 94.0331L89.2637 96.0395C89.2637 96.0395 89.0789 96.8512 89.7337 97.1207L90.1259 96.4031L90.0838 96.5363C90.0838 96.5363 89.8439 97.3577 90.5927 97.6077L92.0189 94.9811L91.7758 95.9648C91.7758 95.9648 91.591 96.7765 92.2458 97.046L93.2312 95.2441L93.8309 90.887L93.792 90.8838C93.8179 90.7994 93.8341 90.7182 93.8244 90.6338C93.7693 90.0819 93.7952 87.6728 93.5878 86.7118C93.5002 86.3027 93.2344 85.5884 92.9524 84.8904L89.3609 66.6376V41.3751L81.5459 40.9336Z" fill="#856451"/>
<path opacity="0.1" d="M89.3674 49.7483V41.3849L81.5459 40.9336L83.5977 66.4135C83.5977 66.4135 84.3659 71.4459 84.7646 72.9459C85.4032 75.3484 87.7305 80.7704 89.1341 83.9554C88.9104 84.7508 88.4307 86.6046 88.6284 87.3839C88.8456 88.241 89.1016 90.413 89.1697 91.0299L88.9396 92.3415L88.0774 94.2116C88.0774 94.2116 87.7435 94.9713 88.3334 95.3642L89.7694 93.7246L89.7564 94.0331L89.2637 96.0395C89.2637 96.0395 89.1924 96.3577 89.2961 96.6596C89.3836 96.033 89.63 95.3837 90.0805 94.7246C93.9476 89.1111 90.2232 81.647 88.3496 75.9815C87.1017 72.2024 85.6074 68.0109 85.6981 63.9818C85.7792 60.3552 87.5425 57.0112 87.549 53.4008C87.5587 51.7093 88.301 50.4886 89.3674 49.7483Z" fill="black"/>
<path d="M88.9428 38.7157C88.3301 37.6021 87.1081 36.0339 84.9202 35.4073L73.8767 31.534C73.8669 31.4626 72.9399 31.4626 72.9302 31.534L62.0293 35.3619C59.1639 36.1086 57.9127 38.4689 57.501 39.4657L55.5205 47.5661C55.9905 47.722 59.193 49.6245 63.0438 50.1051L64.3436 69.017L60.0682 80.5037C59.4232 82.5848 59.1314 87.7016 59.206 89.8801L59.6825 105.432H86.6835V88.2698C86.6835 86.5653 86.502 81.9225 86.1389 80.257L83.186 69.0202L83.8537 56.0854C85.1309 55.2965 85.9963 53.7933 85.9963 52.079V51.7609C85.9963 51.7609 85.9185 50.7576 85.75 49.3616C87.7402 48.7317 89.7499 47.9363 90.0902 47.8194L89.4614 39.9202H89.4744L88.9428 38.7157Z" fill="#C0A9A8"/>
<path d="M84.9202 35.4067L84.3044 35.1924H62.5123L62.0293 35.3612C60.2433 35.8287 59.0829 36.9196 58.3633 37.9196H88.4339C87.7338 36.9488 86.622 35.8937 84.9202 35.4067Z" fill="#E9E2DF"/>
<path d="M56.8787 42.0107L56.2109 44.738H89.8439L89.6267 42.0107H56.8787Z" fill="#E9E2DF"/>
<path d="M58.2949 48.8291C59.598 49.3518 61.2479 49.8843 63.0436 50.105L63.1441 51.5563H85.9831C85.9507 51.1959 85.8794 50.3875 85.753 49.3648C86.2975 49.1927 86.8421 49.0077 87.3543 48.8291H58.2949Z" fill="#E9E2DF"/>
<path d="M83.8535 56.0848C84.0577 55.9582 84.249 55.8056 84.4305 55.6465H63.4229L63.6109 58.3737H83.7336L83.8535 56.0848Z" fill="#E9E2DF"/>
<path d="M83.5226 62.4648H63.8926L64.0806 65.1921H83.3832L83.5226 62.4648Z" fill="#E9E2DF"/>
<path d="M64.2431 69.2832L63.2285 72.0104H83.9704L83.254 69.2832H64.2431Z" fill="#E9E2DF"/>
<path d="M61.705 76.1006L60.6904 78.8278H85.7628L85.0465 76.1006H61.705Z" fill="#E9E2DF"/>
<path d="M59.5981 82.9189C59.4847 83.7761 59.3939 84.7176 59.3291 85.6462H86.6154C86.5797 84.7598 86.5246 83.8053 86.4565 82.9189H59.5981Z" fill="#E9E2DF"/>
<path d="M86.6832 92.4645V89.7373H59.1992C59.1992 89.7828 59.1992 89.8347 59.2025 89.8802L59.2803 92.4645H86.6832Z" fill="#E9E2DF"/>
<path d="M86.6838 96.5547H59.4072L59.4915 99.2819H86.6838V96.5547Z" fill="#E9E2DF"/>
<path d="M86.683 103.373H59.6172L59.682 105.431H86.683V103.373Z" fill="#E9E2DF"/>
<path d="M84.2295 35.1677L73.8732 31.5379C73.8634 31.4665 72.9364 31.4665 72.9267 31.5379L63.4131 34.8788C63.8118 35.8528 67.5135 37.7099 68.541 38.2651C73.5036 40.9338 83.86 38.1157 84.2295 35.1677Z" fill="#856451"/>
<path opacity="0.1" d="M59.2029 89.8802L59.6794 105.432H61.9549C61.9549 105.432 61.6178 93.312 61.8803 89.1919C62.4216 80.7765 63.984 76.5072 66.3081 69.0852L66.3567 69.0755C66.3567 69.0723 66.3535 69.0203 66.3502 68.9489C66.3535 68.9424 66.3535 68.9359 66.3567 68.9294H66.3502C66.3502 68.9067 66.347 68.884 66.347 68.8547L66.3567 68.9294L66.4313 55.7317L65.3033 53.6603C65.1866 52.4525 65.0699 51.5077 64.9661 51.0207C64.8721 50.9655 63.1088 50.1668 63.0213 50.1084L64.3438 69.0268L60.0684 80.5103C59.4233 82.5817 59.1316 87.7017 59.2029 89.8802Z" fill="black"/>
<path d="M84.4306 17.4204C84.6316 10.1511 81.844 6.82653 75.5297 6.27135C66.1134 5.44344 61.8509 10.3914 61.6856 16.7419C61.4554 25.7352 65.7503 28.4429 72.0905 28.6085C78.4275 28.7708 84.1324 28.2676 84.4306 17.4204Z" fill="#302A2A"/>
<path d="M77.7824 30.5892C80.1519 28.8263 81.5036 26.0049 81.5781 23.0505L81.6851 18.9272C81.7078 18.0538 81.0238 17.3233 80.1519 17.2908L73.802 17.0538C71.5589 16.9694 69.6432 18.6447 69.4131 20.8817C69.1602 23.3102 68.9658 26.1056 69.2834 26.9367C70.6967 30.6347 73.7501 33.5892 77.7824 30.5892Z" fill="#856451"/>
<path d="M77.757 34.4467L77.877 26.2521L69.6632 26.041L69.5433 34.2356C69.4849 36.5116 71.4427 38.9368 73.7085 38.9953C75.9775 39.0505 77.6987 36.7193 77.757 34.4467Z" fill="#856451"/>
<path opacity="0.1" d="M77.7987 31.2934L77.8181 30.5532C75.2185 31.9688 72.1035 29.9883 72.1035 29.9883C74.755 32.907 77.7987 31.2934 77.7987 31.2934Z" fill="black"/>
<path d="M63.0761 50.1375L56.5123 47.7188C55.0536 57.2575 55.0342 65.5398 55.0342 65.5398L57.5171 83.8608L56.2205 91.0684L57.6921 95.3735L60.1329 97.8865C60.1329 97.8865 61.3323 98.6462 61.316 97.4871C61.3096 97.1235 60.2723 95.4709 60.2431 94.6008C60.1783 92.6853 60.3825 89.8379 60.3825 89.8379C60.3825 89.8379 61.0924 89.4451 61.342 90.4191C61.5916 91.3931 62.2107 92.8314 63.3517 92.6528L62.4603 88.0036L60.9109 83.8705H60.8914L61.5656 65.6437L63.0761 50.1375Z" fill="#856451"/>
<path opacity="0.1" d="M60.4279 49.1635L56.5123 47.7188C55.0536 57.2575 55.0342 65.5398 55.0342 65.5398L57.5171 83.8608L56.2205 91.0684L57.4879 94.7761C57.0503 90.1334 57.9741 85.2828 57.9255 80.6985C57.8866 77.2148 57.5787 73.7441 57.368 70.2669C57.1768 67.0852 57.663 63.9586 57.5981 60.7899C57.5074 56.5075 56.7781 52.0011 60.4279 49.1635Z" fill="black"/>
<path d="M92.6606 93.6328C93.2441 93.1458 93.3899 90.2238 93.3899 90.2238L91.5099 86.0811C91.5099 86.0811 90.9427 87.8862 91.5099 89.5907C92.0772 91.2952 91.779 93.1945 91.779 93.1945C91.779 93.1945 92.0772 94.1198 92.6606 93.6328Z" fill="#856451"/>
<path d="M185.922 87.5811L185.871 88.4025H185.864L183.683 96.0451L184.532 100.967L186.24 103.263C186.24 103.263 187.426 103.61 187.624 102.344C187.819 101.081 188.564 95.3861 188.564 95.3861C188.564 95.3861 189.43 95.0744 189.527 96.175C189.624 97.2756 190.049 98.9412 191.358 98.9282L191.219 93.727L190.224 88.8408L190.438 87.7336C188.982 88.2661 187.294 88.2109 185.922 87.5811Z" fill="#BD8B6F"/>
<path d="M223.072 82.2041C222.962 82.2268 194.512 82.3892 194.363 82.2853L193.98 97.3499L195.245 122.768L198.486 159.306H204.7L205.886 123.395L207.786 96.7265L209.205 96.6616L212.058 122.492L217.539 159.31H223.533L222.994 122.366L223.61 96.0155L223.072 82.2041Z" fill="#6CBF84"/>
<path opacity="0.08" d="M223.072 82.2041C223.037 82.2106 220.051 82.2333 216.022 82.256C216.249 82.6262 193.731 88.0968 194.224 88.1715C202.791 89.5124 219.721 89.1877 219.857 92.4636C220.042 96.9148 219.06 121.638 219.455 129.067C219.863 136.732 220.395 156.897 220.661 159.31H223.533L222.995 122.366L223.61 96.0155L223.072 82.2041Z" fill="black"/>
<path opacity="0.08" d="M204.7 159.31L205.886 123.399L207.786 96.7305C207.786 96.7305 203.63 114.233 203.177 120.909C202.583 129.645 202.084 138.398 202.133 147.158C202.155 151.22 202.168 155.275 201.98 159.313H204.7V159.31Z" fill="black"/>
<path opacity="0.1" d="M221.391 47.3096L221.083 51.5692L219.857 68.2961L221.083 82.1562L223.073 82.2049L222.921 78.9874L221.78 68.3935L222.308 51.3712L221.391 47.3096Z" fill="black"/>
<path d="M223.565 159.311H217.54L213.562 162.057C209.955 162.418 209.705 166.307 209.705 166.307H224.677C225.001 162.71 223.948 160.574 223.565 159.311Z" fill="#19313D"/>
<path d="M204.691 159.311H198.486L191.19 162.057C187.582 162.418 187.336 166.307 187.336 166.307H205.368C205.728 162.71 205.076 160.473 204.691 159.311Z" fill="#19313D"/>
<path d="M194.499 34.2447C190.859 35.1571 189.553 37.7804 189.2 38.6992H189.19L187.673 64.7083L185.439 88.9156L190.558 89.9351L194.408 67.7472C194.408 67.7472 194.992 56.4033 194.969 54.4229L195.245 68.27L194.454 78.7957H194.444L194.227 88.1721C203.929 88.0617 213.63 88.0747 223.332 88.0747L222.923 78.7957H222.901L221.782 68.3966L221.802 67.7765L229.672 68.8544C231.84 69.0784 233.694 67.3544 233.552 65.2408L233.137 62.9227L228.842 38.6959H228.832C228.479 37.7804 227.173 35.1571 223.533 34.2415L209.296 29.063C209.293 29.0338 209.29 29.0046 209.287 28.9754C209.283 28.9591 209.29 28.9429 209.29 28.9299L209.199 28.8975L209.018 28.9624L208.836 28.8975L208.745 28.9299C208.745 28.9462 208.752 28.9591 208.749 28.9754C208.745 29.0046 208.742 29.0338 208.739 29.063L194.499 34.2447ZM222.343 51.5073L223.533 59.6468L222.071 59.6727L222.343 51.5073Z" fill="#816E68"/>
<path opacity="0.14" d="M222.071 59.6722C222.071 59.6722 222.298 52.5815 222.343 51.5068C222.061 53.6399 220.862 56.3866 219.001 57.5879C216.638 59.1138 213.656 59.0196 210.953 58.8995C205.65 58.6625 200.366 59.2469 195.073 59.5391L195.248 68.2727C195.248 68.2727 197.965 68.2922 200.96 68.4448C201.621 68.4772 202.25 68.0584 202.402 67.4123C202.567 66.7078 202.272 65.9935 203.196 65.9513C208.545 65.6916 214.486 67.9415 219.28 70.0908L222.133 71.6103L221.786 68.3993L221.805 67.7792L229.675 68.8571C231.844 69.0811 233.698 67.3571 233.555 65.2435L233.14 62.9254L228.846 38.6987H228.836C228.586 38.0493 227.85 36.5429 226.149 35.3936C227.954 38.6208 228.599 44.1304 228.693 44.6856C229.449 49.0686 229.701 53.4516 230.505 57.8638C230.888 59.9612 231.679 63.0488 230.119 64.9578C228.408 67.0552 212.48 65.4773 208.013 64.9124C205.806 64.6332 208.7 60.6722 208.7 60.6722L222.071 59.6722Z" fill="black"/>
<path d="M182.127 68.0072H199.786C200.529 68.0072 201.131 67.6858 201.131 66.9488L198.901 55.5919C198.901 54.8582 198.298 54.2997 197.556 54.2997L179.741 54.2705C178.792 54.2705 178.552 54.6114 178.552 55.3452L180.782 66.8968C180.782 67.6371 181.382 68.0072 182.127 68.0072Z" fill="#C4C4C4"/>
<path d="M206.097 64.5142L208.009 64.9136L207.601 60.6734L205.484 59.1507L200.635 57.2969L199.209 57.3066L200.431 64.0565L202.969 64.8584C204.022 65.0467 205.209 65.0629 206.097 64.5142Z" fill="#BD8B6F"/>
<path d="M196.104 63.8156L201.134 65.176L204.713 64.9455C204.713 64.9455 205.241 64.8221 205.75 64.637L208.097 64.9552L208.693 60.6696L202.042 58.6826L193.381 59.2118L194.314 62.1728C194.596 62.9747 195.264 63.5916 196.104 63.8156Z" fill="#BD8B6F"/>
<path d="M207.481 28.1436C211.579 27.6566 214.635 19.9328 214.593 17.2056L213.945 11.1895L198.312 13.0498L199.355 21.8451C199.825 25.8157 203.388 28.6339 207.481 28.1436Z" fill="#BD8B6F"/>
<path d="M208.097 38.615C209.497 36.6215 213.011 32.3456 213.043 31.2742L212.2 22.0342L204.025 22.664L203.74 31.8619C204.155 33.4008 206.239 36.839 207.128 38.6182C207.306 38.602 207.961 38.602 208.097 38.615Z" fill="#BD8B6F"/>
<path opacity="0.1" d="M212.596 26.358L212.252 22.6113C210.914 25.7216 206.907 27.6729 203.838 28.7476L203.789 30.2865C205.517 31.6014 208.804 30.3839 210.356 29.2086C211.364 28.4456 212.097 27.4586 212.596 26.358Z" fill="black"/>
<path d="M212.33 20.3877L212.1 23.3454L212.486 24.5727C214.635 20.0403 214.849 16.7871 214.849 16.7871L214.181 11.1639C213.419 4.73546 205.89 5.42375 205.89 5.42375L196.327 7.22242C194.684 12.1898 198.314 13.0535 198.314 13.0535L207.695 11.9366C210.123 11.6476 210.188 13.9625 210.188 13.9625L210.616 16.417L211.828 16.2742C211.828 16.2742 212.149 15.2222 212.778 15.1443C213.244 15.0891 213.708 15.0761 213.88 16.5307C214.353 20.5078 212.33 20.3877 212.33 20.3877Z" fill="#302A2A"/>
<path opacity="0.1" d="M210.178 26.4912C210.178 26.4912 207.51 28.9295 203.708 27.7282L203.805 28.5431C203.805 28.5431 207.449 29.9976 210.178 26.4912Z" fill="black"/>
<path d="M203.763 24.2941C199.258 24.8168 199.258 20.9695 199.258 20.9695C199.258 20.9695 199.251 30.1933 204.7 29.9011C213.063 29.4531 212.418 20.4695 212.418 20.4695L211.747 15.0703L210.564 15.2099C211.079 23.6026 207.802 23.8266 203.763 24.2941Z" fill="#302A2A"/>
<path d="M203.037 28.1829L204.975 27.9524C206.431 27.7803 207.474 26.4686 207.303 25.0271L207.215 24.2999C207.043 22.8583 205.724 21.8291 204.269 22.0012L202.33 22.2317C200.875 22.4038 199.831 23.7155 200.003 25.157L200.09 25.8842C200.262 27.3258 201.581 28.355 203.037 28.1829Z" fill="#302A2A"/>
<path d="M203.585 25.6605C204.629 25.5371 205.481 25.4786 205.342 24.2871L201.556 24.7384C201.695 25.9267 202.538 25.7838 203.585 25.6605Z" fill="#BD8B6F"/>
<path d="M192.049 60.5031L199.971 60.6492L199.822 58.4707L192.016 59.1168C191.608 59.146 191.306 59.4999 191.358 59.896C191.404 60.2336 191.695 60.4934 192.049 60.5031Z" fill="#BD8B6F"/>
<path d="M203.303 29.748L201.556 31.2545C201.556 33.4136 202.933 36.8193 202.933 36.8193L205.757 33.3162C203.342 31.9363 203.805 29.8584 203.805 29.8584L203.303 29.748Z" fill="#F7F8F9"/>
<path d="M205.757 33.3154L203.997 35.4972C204.318 38.4289 207.128 38.6173 207.128 38.6173L205.757 33.3154Z" fill="#D5DEE2"/>
<path d="M212.849 29.1152C212.849 29.1152 212.113 32.1184 210.178 33.1574L212.816 36.1638C212.816 36.1638 214.054 34.0762 214.845 31.5113L212.849 29.1152Z" fill="#F7F8F9"/>
<path d="M210.179 33.1572L208.098 38.6149C208.098 38.6149 210.098 38.037 210.701 37.4461C212.195 35.9786 212.166 35.3487 212.166 35.3487L210.179 33.1572Z" fill="#D5DEE2"/>
<path d="M30.8497 162.203L27.3295 160.307L21.1222 159.249C21.1222 159.249 19.4691 162.561 20.0461 166.304H34.7459C34.7427 166.307 34.25 163.174 30.8497 162.203Z" fill="white"/>
<path d="M34.2467 164.93H20.2243C20.1206 164.93 20.0233 164.921 19.9229 164.914C19.9326 165.369 19.9682 165.833 20.0428 166.304H34.7426C34.7426 166.307 34.6454 165.696 34.2467 164.93Z" fill="#577A8D"/>
<path d="M57.9287 162.564L48.7554 159.269H42.7167C42.7167 159.269 41.0733 162.564 41.6438 166.288H62.3597C62.3597 166.288 62.0712 162.992 57.9287 162.564Z" fill="white"/>
<path d="M61.9062 164.931H41.5273C41.5371 165.372 41.5727 165.827 41.644 166.288H62.3599C62.3599 166.288 62.3048 165.668 61.9062 164.931Z" fill="#577A8D"/>
<path d="M27.3327 160.304L33.5108 124.951L38.266 95.7341L41.5236 124.951L42.4312 160.074L50.1393 159.768L51.3548 121.636L51.5655 80.676C51.2511 80.7376 50.9205 80.7766 50.5639 80.7766C44.6094 80.8058 38.7489 80.874 32.8204 80.2149C29.8221 79.8838 26.8238 79.4649 23.8125 79.2799C23.5661 79.2636 23.323 79.2604 23.0767 79.2539C23.0507 81.0785 23.0313 83.52 23.0313 86.718C23.0313 97.6139 23.0864 119.587 23.0864 119.587L20.7461 160.281L27.3327 160.304Z" fill="#2D5970"/>
<path opacity="0.1" d="M23.1674 160.291C23.7217 154.937 24.5159 149.606 25.2906 144.288C26.6941 134.642 26.5839 124.941 26.814 115.221C26.9242 110.594 27.2354 106 27.6374 101.39C27.9258 98.0522 28.1106 94.4873 29.9355 91.5653C34.0035 85.0557 44.026 85.3674 50.5866 83.3804C50.9205 83.2798 51.2414 83.2181 51.5526 83.1856L51.5655 80.676C51.2511 80.7376 50.9205 80.7766 50.5639 80.7766C44.6094 80.8058 38.7489 80.874 32.8204 80.2149C29.8221 79.8838 26.8238 79.4649 23.8125 79.2799C23.5661 79.2636 23.323 79.2604 23.0767 79.2539C23.0507 81.0785 23.0313 83.52 23.0313 86.718C23.0313 97.6139 23.0864 119.587 23.0864 119.587L20.7461 160.281L23.1674 160.291Z" fill="black"/>
<path opacity="0.1" d="M48.8067 159.82C48.4437 157.872 48.0936 155.944 47.9023 154.061C47.2152 147.366 47.1925 140.528 47.1471 133.801C47.1017 127.175 46.7678 120.867 45.1958 114.406C43.7177 108.344 41.6561 102.448 38.8555 96.8703C38.8134 96.7826 38.781 96.6982 38.7421 96.6138C38.6546 96.4742 38.5703 96.3378 38.4957 96.1982C38.4439 96.2404 38.3855 96.2794 38.3369 96.3249L41.5297 124.954L42.4373 160.077L48.8067 159.82Z" fill="black"/>
<path d="M52.9303 36.9917C50.6613 31.1866 49.932 31.297 48.0941 30.4074C32.1852 22.7257 22.9829 30.547 18.5551 32.6151C17.6572 33.034 16.9927 36.2384 17.1126 37.2254C18.5518 49.1862 21.6928 55.5822 22.3411 61.0074C23.1773 68.0072 23.0315 82.0913 23.0315 82.0913C32.7493 87.5815 51.5851 82.0913 51.5851 82.0913C51.5851 82.0913 51.1249 72.2993 50.3145 57.0562C50.0455 52.0076 54.859 41.9266 52.9303 36.9917Z" fill="#F26889"/>
<path opacity="0.1" d="M48.246 49.1927C45.5264 48.1213 45.1893 48.0109 42.0905 48.0954C37.7405 48.2122 33.3387 48.5921 29.637 48.9947C29.0438 49.0596 28.1103 44.7675 27.4166 43.1279C27.3874 43.4039 27.3356 43.6896 27.2513 43.9851C26.9207 45.1766 23.6663 58.7802 22.1201 59.5367C22.2044 60.0366 22.2789 60.5301 22.3373 61.0106C22.3892 61.4554 22.5221 62.9327 22.5707 63.4586C23.1444 70.8481 23.0277 82.0978 23.0277 82.0978C23.2773 82.2374 23.5334 82.3673 23.7927 82.4939C23.6209 79.8576 22.9143 70.4293 26.1006 62.9457C30.3371 60.7184 33.1183 59.5302 35.1701 59.1698C40.486 58.2347 49.3027 60.0756 50.6381 59.8548C50.5571 59.1308 50.4048 57.7997 50.3108 57.0659C50.0903 55.3355 50.5571 53.0011 51.1827 50.4817C50.9072 50.3973 46.5637 43.4071 46.4664 43.3812C46.1099 43.2545 48.5409 49.3648 48.246 49.1927Z" fill="black"/>
<path d="M51.6209 79.8926C44.8496 81.6523 36.4575 82.6717 35.7768 82.5451C31.5273 82.6263 26.8013 82.2139 23.038 80.3731C23.0348 81.451 23.0283 82.0938 23.0283 82.0938C32.7461 87.5839 51.582 82.0938 51.582 82.0938C51.582 82.0938 51.6112 81.2919 51.6209 79.8926Z" fill="#FF0000"/>
<path d="M35.125 33.1606C39.825 32.9885 39.825 27.7549 39.825 27.4886C35.018 26.349 32.0197 26.9497 28.9209 27.8393C28.9566 27.9659 28.8301 33.3911 35.125 33.1606Z" fill="#FF0000"/>
<path d="M48.094 52.4236L46.3663 48.0958L28.344 50.1022C28.344 50.1022 26.2209 35.4078 24.9405 34.0734C22.61 31.6481 19.3005 31.7163 18.0298 33.028C16.8759 34.2195 17.0055 36.7714 16.944 37.6967C16.3637 46.2777 21.0184 61.5143 24.289 61.4169C25.2485 61.3877 48.094 52.4236 48.094 52.4236Z" fill="#F26889"/>
<path d="M46.3667 48.0957L44.1885 48.3392C45.1706 49.8132 45.9259 51.3813 46.4704 53.0599C47.4882 52.6638 48.0944 52.4235 48.0944 52.4235L46.3667 48.0957Z" fill="#FF0000"/>
<path d="M42.9171 54.6699L36.123 57.0595L44.849 58.6861L42.9171 54.6699Z" fill="#EA9C72"/>
<path d="M36.8391 25.1737C40.8714 24.862 42.2879 20.9855 42.0675 17.6122L41.3836 8.77148L25.7178 9.98574L25.7599 15.346C27.251 23.2874 32.8068 25.4854 36.8391 25.1737Z" fill="#E0A373"/>
<path d="M34.976 31.9107C37.3779 31.7257 39.1769 29.6218 38.9889 27.2128L38.3406 19.2422L29.6406 19.9175L30.2889 27.8849C30.4737 30.2939 32.5709 32.0958 34.976 31.9107Z" fill="#E0A373"/>
<path d="M30.6743 9.8821L41.3872 8.76199C41.3872 8.76199 43.1927 8.52499 42.7583 2.91797L31.5722 3.78483C31.5722 3.78483 24.5869 3.38549 25.0926 9.92755L25.5334 15.6514C25.5334 15.6514 26.3373 21.924 29.9774 23.4824L28.898 18.7196C28.898 18.7196 26.9629 19.541 26.0326 15.4079C25.7052 13.9599 26.1331 13.6482 26.5934 13.6125C27.2157 13.5638 27.5172 14.7261 27.5172 14.7261L28.3275 14.5281L28.5479 12.3755C28.5415 12.3788 28.2854 10.0672 30.6743 9.8821Z" fill="#593F2B"/>
<path opacity="0.1" d="M38.7485 24.6711C35.7955 26.0672 30.5801 23.3789 30.5801 23.3789C35.7664 28.6418 38.8457 25.4535 38.8457 25.4535L38.7485 24.6711Z" fill="black"/>
<path d="M43.3675 58.6857C43.3675 58.6857 53.4127 59.2246 56.3235 58.7701C57.9572 58.5136 60.2942 57.7961 58.8972 52.6728C58.0804 49.6761 52.0837 34.9395 52.0837 34.9395C50.8034 38.7835 48.6738 46.832 48.6738 46.832L51.698 51.3742L42.917 54.3708L43.3675 58.6857Z" fill="#F26889"/>
<path d="M44.515 53.8252L42.917 54.3706L43.3675 58.6855C43.3675 58.6855 43.9672 58.7179 44.904 58.7602C44.8359 57.1108 44.6414 55.4713 44.515 53.8252Z" fill="#FF0000"/>
<path d="M46.4668 48.3486L48.094 52.4232L52.444 51.3096C50.7001 48.7447 46.4668 48.3486 46.4668 48.3486Z" fill="#EA9C72"/>
<path d="M50.6101 157.561L41.8564 157.924L41.9579 160.376L50.7116 160.013L50.6101 157.561Z" fill="#577A8D"/>
<path d="M28.2339 158.041H20.2373V160.496H28.2339V158.041Z" fill="#577A8D"/>
<path opacity="0.18" d="M194.363 68.0068H187.368C187.368 68.0068 192.587 68.7471 192.46 70.036C192.334 71.3249 190.558 89.9317 190.558 89.9317L194.363 68.0068Z" fill="black"/>
</svg>
