<svg width="201" height="132" viewBox="0 0 201 132" fill="none" xmlns="http://www.w3.org/2000/svg">
<path d="M169.293 63.3599C186.79 63.3599 200.973 49.1763 200.973 31.68C200.973 14.1836 186.79 0 169.293 0C151.797 0 137.613 14.1836 137.613 31.68C137.613 49.1763 151.797 63.3599 169.293 63.3599Z" fill="#FAF6F6"/>
<mask id="mask0" mask-type="alpha" maskUnits="userSpaceOnUse" x="137" y="0" width="64" height="64">
<path d="M169.293 63.3599C186.79 63.3599 200.973 49.1763 200.973 31.68C200.973 14.1836 186.79 0 169.293 0C151.797 0 137.613 14.1836 137.613 31.68C137.613 49.1763 151.797 63.3599 169.293 63.3599Z" fill="white"/>
</mask>
<g mask="url(#mask0)">
<path d="M175.349 34.9252C175.366 34.9039 162.318 35.7434 162.318 35.7434C162.215 36.8237 162.151 38.5912 162.122 38.8868C162.041 39.6974 161.867 40.4089 161.646 41.0397L161.752 40.8873C161.752 40.8873 164.945 45.8835 168.882 46.2629C172.756 45.8896 176.051 41.0549 176.156 40.9026C175.958 40.3053 175.803 39.6395 175.727 38.8883C175.699 38.614 175.443 35.9095 175.349 34.9252Z" fill="#E0A48B"/>
<path d="M179.194 23.9727C178.93 25.9931 177.721 26.4791 177.745 25.2084C177.772 23.8081 177.754 22.3012 177.67 20.4576C177.49 16.464 176.627 15.4569 175.156 15.6671C173.949 15.8378 163.741 15.8378 162.534 15.6671C161.062 15.4553 160.2 16.464 160.02 20.4576C159.936 22.3012 159.918 23.8081 159.945 25.2084C159.971 26.4791 159.379 25.3409 158.496 23.9727C157.931 23.7289 157.372 23.8645 157.527 25.539C157.876 29.3116 158.995 31.137 160.322 31.0928C160.434 32.7064 160.307 33.2549 162.062 35.8284C164.134 38.4628 165.531 40.5655 168.845 40.5655C172.159 40.5655 173.556 38.4628 175.629 35.8284C177.384 33.2564 177.256 32.7064 177.369 31.0928C178.696 31.1355 179.814 29.3116 180.163 25.539C180.318 23.8645 179.758 23.7304 179.194 23.9727Z" fill="#F5B99F"/>
<path d="M168.769 8.41344C161.754 8.01272 160.751 12.4222 160.751 12.4222C160.751 12.4222 156.942 14.0267 157.944 19.4372C158.15 20.5495 157.952 22.352 158.498 23.9732C159.217 26.1079 159.921 26.146 159.925 25.9159C159.96 24.5156 159.936 22.3017 160.02 20.4581C160.2 16.4645 161.063 16.6215 162.534 16.8317C163.791 17.01 165.319 17.6804 168.95 17.6332C171.981 17.5936 173.908 16.8104 175.164 16.6321C176.635 16.4203 177.498 17.0892 177.697 21.0813C177.78 22.7177 177.705 26.1795 177.623 27.0449C178.153 26.7996 178.706 26.0728 179.057 24.671C179.733 21.9528 180.09 19.0822 180.189 18.0872C180.391 16.0836 179.384 9.01986 168.769 8.41344Z" fill="#52362B"/>
<path d="M191.963 47.4234C187.479 45.88 179.225 42.7138 178.399 42.2109C178.03 42.7046 168.721 44.6808 168.721 44.6808C168.721 44.6808 159.729 42.7046 159.361 42.2109C158.535 42.7153 150.283 45.88 145.797 47.4234C143.248 48.3011 141.279 50.3519 140.505 52.9346L137.98 64.6334H199.781L197.256 52.9346C196.482 50.3519 194.513 48.3011 191.963 47.4234Z" fill="#FAF6F6"/>
<path d="M162.158 38.1455L159.376 42.1695C159.376 42.1695 159.238 44.0437 160.96 46.2621C162.406 48.1271 164.186 49.7483 164.186 49.7483L167.364 46.0214L168.885 44.6821C164.741 44.2814 162.158 38.1455 162.158 38.1455Z" fill="#F0F0F0"/>
<path d="M168.885 44.6824L170.875 46.2929L173.744 49.7486C173.744 49.7486 175.487 47.8486 176.902 46.2624C178.572 44.3914 178.553 42.1698 178.553 42.1698C178.553 42.1698 176.147 38.9473 175.664 38.1458C175.565 37.9797 172.961 44.2893 168.885 44.6824Z" fill="#F0F0F0"/>
<path d="M162.157 38.1465L159.375 42.1705C159.375 42.1705 159.794 43.4108 161.516 45.6293C162.962 47.4942 164.185 48.8214 164.185 48.8214L167.364 46.0224L168.884 44.6831C164.74 44.2823 162.157 38.1465 162.157 38.1465Z" fill="#FAF6F6"/>
<path d="M168.885 44.6828L170.875 46.2934L173.744 48.8196C173.744 48.8196 175.487 47.1253 176.902 45.5376C178.572 43.6666 178.553 42.1688 178.553 42.1688C178.553 42.1688 176.147 38.9462 175.664 38.1448C175.565 37.9802 172.961 44.2897 168.885 44.6828Z" fill="#FAF6F6"/>
<path d="M145.799 46.6163C143.25 47.494 141.281 49.5449 140.507 52.1275L137.982 64.6338H166.871C165.402 62.0436 161.278 50.4027 160.981 39.7842C159.288 40.5826 149.966 45.181 145.799 46.6163Z" fill="#002135"/>
<path d="M191.96 46.6158C187.793 45.1805 178.471 40.582 176.778 39.7852C176.481 50.4037 172.357 62.0446 170.888 64.6348H199.777L197.252 52.1285C196.479 49.5443 194.511 47.4934 191.96 46.6158Z" fill="#002135"/>
</g>
<path d="M100.653 63.3599C118.15 63.3599 132.333 49.1763 132.333 31.6799C132.333 14.1836 118.15 0 100.654 0C83.1572 0 68.9736 14.1836 68.9736 31.6799C68.9736 49.1763 83.1572 63.3599 100.653 63.3599Z" fill="#FAF6F6"/>
<mask id="mask1" mask-type="alpha" maskUnits="userSpaceOnUse" x="68" y="0" width="65" height="64">
<path d="M100.653 63.3599C118.15 63.3599 132.333 49.1763 132.333 31.6799C132.333 14.1836 118.15 0 100.654 0C83.1572 0 68.9736 14.1836 68.9736 31.6799C68.9736 49.1763 83.1572 63.3599 100.653 63.3599Z" fill="white"/>
</mask>
<g mask="url(#mask1)">
<path d="M112.373 20.1504C112.384 20.2119 112.396 20.275 112.407 20.3382C112.396 20.275 112.384 20.2119 112.373 20.1504Z" fill="#002135"/>
<path d="M112.065 18.8673C112.164 19.2008 112.248 19.544 112.322 19.8953C112.246 19.5278 112.159 19.1668 112.054 18.8203C112.057 18.8365 112.06 18.8511 112.065 18.8673Z" fill="#002135"/>
<path d="M112.323 19.8965C112.341 19.9807 112.357 20.0649 112.373 20.1507C112.357 20.0649 112.339 19.9807 112.323 19.8965Z" fill="#002135"/>
<path d="M112.408 20.3379C112.431 20.469 112.455 20.6002 112.475 20.7329C112.455 20.6002 112.432 20.469 112.408 20.3379Z" fill="#002135"/>
<path d="M112.068 18.8678C111.439 16.7406 110.277 15.0391 108.182 14.5162C108.182 14.5162 105.616 9.55589 95.9983 12.2157C85.0594 15.2415 85.673 25.3806 85.6535 30.4397C85.6341 35.1766 84.9072 49.8794 84.9072 49.8794C84.9072 49.8794 90.4293 49.2351 96.7139 49.6803C96.8013 49.138 97.3258 40.6371 97.3339 40.1952C94.8149 38.7301 93.0033 36.1641 93.0033 36.1641C90.4827 32.3937 91.1724 26.8781 91.1724 26.8781C91.1724 26.8781 98.574 25.2641 100.599 24.2555C105.828 21.6491 108.375 21.2751 108.375 21.2751C108.375 21.2751 111.519 31.1067 108.07 36.1641C108.07 36.1641 106.711 38.089 104.711 39.5573C104.726 40.1563 104.243 49.7693 104.355 50.2777C111.15 48.9486 114.622 50.854 114.622 50.854C114.622 50.854 112.964 23.9107 112.493 20.8072C112.365 20.1564 112.225 19.5105 112.068 18.8678Z" fill="#002135"/>
<path d="M105.644 38.3457C104.745 38.8686 102.638 40.4098 101.608 40.4859H101.035C100.999 40.4826 100.962 40.4778 100.926 40.4729C100.891 40.4762 100.854 40.4826 100.818 40.4859H100.245C99.2152 40.4114 97.1074 39.5113 96.2089 38.9868C96.2024 39.4287 96.0195 43.6719 94.8782 44.5655C94.7535 44.6529 91.8201 46.73 89.1699 47.8454C91.0559 49.7508 96.6703 52.4722 100.593 52.4107C100.593 52.4107 100.711 52.4123 100.926 52.3961C101.142 52.4123 101.26 52.4107 101.26 52.4107C105.182 52.4722 110.797 49.7508 112.683 47.8454C110.033 46.73 107.099 44.6529 106.975 44.5655C105.835 43.6719 105.652 38.7893 105.644 38.3457Z" fill="#8C5D4B"/>
<path d="M100.595 24.2576C98.5695 25.2662 91.1679 26.8802 91.1679 26.8802C91.1679 26.8802 90.4799 32.3958 92.9989 36.1662C92.9989 36.1662 94.812 38.7322 97.3294 40.1973C98.2279 40.7202 99.2154 41.1071 100.245 41.1816H100.818C102.235 41.0796 103.572 40.3916 104.705 39.5578C106.704 38.0895 108.064 36.1646 108.064 36.1646C111.513 31.1072 108.385 20.4678 108.385 20.4678C108.385 20.4678 105.825 21.6512 100.595 24.2576Z" fill="#9C6753"/>
<path d="M119.658 50.2244L110.992 46.904C110.992 46.904 109.411 50.2276 100.927 50.2276C93.3381 50.2276 91.0814 46.7939 91.0814 46.7939L82.6339 49.2158C80.6443 49.8504 78.9914 51.254 78.0444 53.1141C75.6063 57.898 76.0062 67.1273 75.0332 69.1769C84.9538 69.2432 91.5023 69.1574 100.387 69.1574C109.195 69.1574 116.934 69.1574 126.276 69.1574C125.713 67.8866 125.638 59.3728 123.88 54.665C123.137 52.6722 121.612 51.0695 119.658 50.2244Z" fill="#C0A9A8"/>
</g>
<path d="M169.29 132.001C186.787 132.001 200.97 117.817 200.97 100.321C200.97 82.8242 186.787 68.6406 169.29 68.6406C151.794 68.6406 137.61 82.8242 137.61 100.321C137.61 117.817 151.794 132.001 169.29 132.001Z" fill="#FAF6F6"/>
<mask id="mask2" mask-type="alpha" maskUnits="userSpaceOnUse" x="137" y="68" width="64" height="65">
<path d="M169.29 132.001C186.787 132.001 200.97 117.817 200.97 100.321C200.97 82.8242 186.787 68.6406 169.29 68.6406C151.794 68.6406 137.61 82.8242 137.61 100.321C137.61 117.817 151.794 132.001 169.29 132.001Z" fill="white"/>
</mask>
<g mask="url(#mask2)">
<path d="M160.83 80.5391C156.322 84.4319 150.061 105.479 163.473 105.949H175.927C175.927 105.949 189.658 104.283 180.331 83.0248C177.688 77.0048 166.201 75.9023 160.83 80.5391Z" fill="#9C6753"/>
<path d="M175.115 104.95C174.167 105.502 171.099 107.45 170.012 107.528H169.408C169.37 107.525 169.332 107.518 169.293 107.515C169.255 107.52 169.217 107.526 169.179 107.528H168.575C167.488 107.449 164.42 106.5 163.472 105.948C163.464 106.414 163.272 110.889 162.068 111.832C161.936 111.924 159.687 114.114 156.892 115.291C158.881 117.301 164.803 120.171 168.94 120.107C168.94 120.107 169.063 120.109 169.292 120.092C169.519 120.107 169.644 120.107 169.644 120.107C173.781 120.171 179.703 117.301 181.692 115.291C178.897 114.114 176.649 111.924 176.516 111.832C175.315 110.889 175.123 105.417 175.115 104.95Z" fill="#E0A48B"/>
<path d="M189.846 117.633L178.714 112.989C178.714 112.989 178.531 117.13 169.583 117.13C161.578 117.13 160.966 112.821 160.966 112.821L149.781 116.571C147.682 117.241 145.939 118.721 144.939 120.683C142.368 125.729 142.788 134.957 141.764 137.119C152.229 137.19 159.641 137.098 169.013 137.098C178.304 137.098 186.972 137.098 196.826 137.098C196.231 135.758 196.152 127.285 194.299 122.319C193.514 120.214 191.907 118.524 189.846 117.633Z" fill="#6CBF84"/>
<path d="M173.925 85.4678L159.448 88.1122C159.448 88.1122 157.945 98.8261 161.806 104.48C161.806 104.48 163.633 107.067 166.174 108.545C167.082 109.074 168.076 109.462 169.115 109.538H169.693C171.121 109.435 172.471 108.741 173.614 107.901C175.63 106.421 176.438 105.544 177.001 104.48C180.795 97.3223 179.25 87.6267 179.25 87.6267L173.925 85.4678Z" fill="#F5B99F"/>
<path d="M157.931 92.8424C157.325 93.5816 158.414 101.957 160.834 100.192L159.421 93.4848C159.421 93.4848 158.531 92.1111 157.931 92.8424Z" fill="#F5B99F"/>
<path d="M178.314 93.5533L177.762 100.192C180.181 101.958 181.271 93.5819 180.665 92.8427C180.065 92.1114 178.314 93.5533 178.314 93.5533Z" fill="#F5B99F"/>
<path d="M170.775 77.7096C153.898 78.2346 159.88 96.4804 159.891 96.3123C160.026 94.1787 161.2 89.6196 164.634 89.4594C169.482 89.2326 173.462 88.1666 175.085 86.7119C175.085 86.7119 176.576 89.0327 177.764 91.3979C178.635 93.1301 179.226 94.7656 179.066 96.6629C179.046 96.7342 186.818 77.2115 170.775 77.7096Z" fill="#9C6753"/>
<path d="M162.854 110.034L159.364 113.229C162.68 118.034 166.753 121.1 166.753 121.1L169.228 117.128C165.619 114.113 162.854 110.034 162.854 110.034Z" fill="#F5F5F5"/>
<path d="M169.363 117.128L171.838 121.1C171.838 121.1 175.912 118.034 179.227 113.229L175.737 110.034C175.737 110.034 172.972 114.113 169.363 117.128Z" fill="#F5F5F5"/>
<path d="M179.341 92.4141C179.337 92.4125 179.333 92.4093 179.329 92.4077L179.343 92.395C179.343 92.395 177.736 91.8557 175.775 91.8145L175.809 91.8256C175.533 91.8097 175.233 91.8018 174.909 91.8018C174.768 91.8018 174.622 91.8033 174.471 91.8065C173.126 91.8319 172.166 91.9509 171.511 92.1999C171.416 92.2317 171.303 92.2729 171.178 92.3221C170.796 92.4759 169.908 92.6964 169.568 92.7107C169.225 92.698 168.277 92.4759 167.894 92.3221C167.758 92.2665 167.633 92.2237 167.533 92.1904C166.879 91.9461 165.926 91.8319 164.598 91.8065C164.447 91.8033 164.301 91.8018 164.16 91.8018C163.867 91.8018 163.596 91.8081 163.342 91.8208L163.362 91.8129C161.402 91.8541 159.795 92.3935 159.795 92.3935C159.744 92.3935 159.698 92.4141 159.665 92.4458L159.102 92.9074L159.205 93.5562L159.796 93.3389H159.88C159.88 93.3389 160.144 93.4198 160.172 93.8148C160.18 93.9147 160.191 93.9861 160.206 94.0353C160.21 94.3367 160.256 94.673 160.345 95.0521C160.848 97.1762 161.632 98.5896 163.824 98.5896C164.148 98.5896 164.505 98.5579 164.885 98.4945C166.535 98.2216 168.427 97.0113 168.692 94.5001L168.704 94.5334C168.704 94.4747 168.704 94.4192 168.707 94.3668C168.71 94.3272 168.711 94.2875 168.713 94.2495C168.77 93.542 169.397 93.4722 169.538 93.4737V93.4801C169.538 93.4801 169.549 93.4769 169.566 93.4753C169.587 93.4769 169.6 93.4801 169.6 93.4801V93.4737C169.722 93.4737 170.274 93.5467 170.35 94.1384C170.355 94.2399 170.361 94.3383 170.371 94.4351C170.371 94.4668 170.372 94.5001 170.371 94.5334L170.379 94.5112C170.647 97.016 172.538 98.2232 174.184 98.4945C174.565 98.5579 174.922 98.5896 175.245 98.5896C177.436 98.5896 178.22 97.1762 178.724 95.0521C178.819 94.6476 178.867 94.2907 178.865 93.9734C178.873 93.9306 178.88 93.8783 178.884 93.8132C178.913 93.4182 179.176 93.3373 179.176 93.3373H179.26C179.272 93.3373 179.281 93.3326 179.291 93.331L179.887 94.1781L180.085 93.5166L179.341 92.3919V92.4141ZM164.796 97.9186C164.452 97.9757 164.133 98.0043 163.846 98.0043C162.027 98.0043 161.406 96.8843 160.948 94.9474C160.745 94.0908 160.789 93.5166 161.089 93.139C161.498 92.6219 162.449 92.3919 164.175 92.3919C164.309 92.3919 164.447 92.3935 164.59 92.395C167.834 92.4553 168.105 93.1025 168.112 93.8798C168.144 97.1968 165.355 97.825 164.796 97.9186ZM178.128 94.9474C177.669 96.8828 177.049 98.0043 175.23 98.0043C174.942 98.0043 174.624 97.9757 174.279 97.9186C173.719 97.8266 170.931 97.1968 170.964 93.8798C170.972 93.1025 171.242 92.4553 174.486 92.395C174.628 92.3919 174.766 92.3919 174.901 92.3919C176.626 92.3919 177.577 92.6219 177.987 93.139C178.286 93.5166 178.331 94.0924 178.128 94.9474Z" fill="#025E75"/>
</g>
<path d="M100.654 132C118.15 132 132.334 117.817 132.334 100.321C132.334 82.8242 118.15 68.6406 100.654 68.6406C83.1572 68.6406 68.9736 82.8242 68.9736 100.321C68.9736 117.817 83.1572 132 100.654 132Z" fill="#FAF6F6"/>
<mask id="mask3" mask-type="alpha" maskUnits="userSpaceOnUse" x="68" y="68" width="65" height="65">
<path d="M100.654 132C118.15 132 132.334 117.817 132.334 100.321C132.334 82.8242 118.15 68.6406 100.654 68.6406C83.1572 68.6406 68.9736 82.8242 68.9736 100.321C68.9736 117.817 83.1572 132 100.654 132Z" fill="white"/>
</mask>
<g mask="url(#mask3)">
<path d="M107 103.635C107.016 103.614 93.9709 104.454 93.9709 104.454C93.8672 105.535 93.8046 107.303 93.7743 107.598C93.6938 108.407 93.5205 109.119 93.2988 109.751L93.4043 109.599C93.4043 109.599 96.5982 114.595 100.536 114.974C104.409 114.6 107.704 109.766 107.81 109.614C107.612 109.015 107.456 108.352 107.381 107.599C107.352 107.322 107.097 104.618 107 103.635Z" fill="#E0A48B"/>
<path d="M110.847 92.6815C110.582 94.703 109.372 95.1873 109.399 93.9165C109.428 92.5153 109.408 91.0104 109.326 89.1659C109.145 85.1731 108.282 84.165 106.811 84.3759C105.605 84.5475 95.3954 84.5475 94.189 84.3759C92.7181 84.165 91.8548 85.1731 91.6743 89.1659C91.5921 91.0104 91.5724 92.5153 91.601 93.9165C91.626 95.1873 91.0344 94.0506 90.1533 92.6815C89.5885 92.4385 89.0291 92.5743 89.1846 94.2472C89.5349 98.0202 90.6519 99.845 91.9799 99.8021C92.0925 101.416 91.9638 101.965 93.7189 104.537C95.7904 107.171 97.1881 109.275 100.502 109.275C103.815 109.275 105.213 107.173 107.285 104.537C109.04 101.965 108.911 101.414 109.024 99.8021C110.352 99.845 111.469 98.0202 111.819 94.2472C111.971 92.5725 111.411 92.4385 110.847 92.6815Z" fill="#F5B99F"/>
<path d="M101.469 75.8404C95.2188 75.5205 92.2072 77.5222 90.3323 79.8457C89.1688 81.2881 89.0812 83.8547 89.5959 88.146C89.73 89.2684 89.9891 92.112 90.15 92.6821C90.7612 94.8501 91.5727 94.8555 91.578 94.6249C91.6138 93.2237 91.6567 91.0128 91.6728 89.1665C91.696 86.5767 93.1884 85.885 94.6593 86.0959C95.9158 86.2747 98.9078 86.8466 102.54 86.8001C105.571 86.7608 106.466 85.4275 106.817 85.3417C108.261 84.986 109.151 85.7974 109.349 89.7903C109.431 91.4274 109.358 94.8895 109.276 95.7527C109.807 95.5079 110.361 94.7804 110.709 93.3792C111.387 90.6607 111.562 85.0932 111.517 84.0941C111.324 79.7653 108.191 76.1853 101.469 75.8404Z" fill="#C7AA69"/>
<path d="M123.616 116.132C119.132 114.587 110.878 111.422 110.053 110.918C109.684 111.411 100.374 113.388 100.374 113.388C100.374 113.388 91.3825 111.411 91.0143 110.918C90.1885 111.422 81.9366 114.587 77.4505 116.132C74.9018 117.009 72.9322 119.061 72.1583 121.644L69.6328 133.343H131.432L128.907 121.644C128.135 119.061 126.165 117.009 123.616 116.132Z" fill="#025E75"/>
<path d="M93.8103 106.854L91.0293 110.879C91.0293 110.879 91.4493 112.12 93.1687 114.338C94.6146 116.202 95.8389 117.53 95.8389 117.53L99.0168 114.731L100.538 113.392C96.393 112.99 93.8103 106.854 93.8103 106.854Z" fill="#D8E7F0"/>
<path d="M100.538 113.392L102.527 115.002L105.398 117.529C105.398 117.529 107.142 115.835 108.558 114.248C110.227 112.377 110.207 110.879 110.207 110.879C110.207 110.879 107.802 107.656 107.319 106.854C107.217 106.688 104.613 112.997 100.538 113.392Z" fill="#D8E7F0"/>
</g>
<path d="M32.013 63.3599C49.5093 63.3599 63.6929 49.1763 63.6929 31.6799C63.6929 14.1836 49.5093 0 32.0129 0C14.5166 0 0.333017 14.1836 0.333029 31.6799C0.333041 49.1763 14.5166 63.3599 32.013 63.3599Z" fill="#FAF6F6"/>
<mask id="mask4" mask-type="alpha" maskUnits="userSpaceOnUse" x="0" y="0" width="64" height="64">
<path d="M32.013 63.3599C49.5093 63.3599 63.6929 49.1763 63.6929 31.6799C63.6929 14.1836 49.5093 0 32.0129 0C14.5166 0 0.333017 14.1836 0.333029 31.6799C0.333041 49.1763 14.5166 63.3599 32.013 63.3599Z" fill="white"/>
</mask>
<g mask="url(#mask4)">
<path d="M38.5653 40.8945C37.4975 41.5162 34.0447 43.7076 32.8227 43.7962H32.142C32.0993 43.7929 32.0567 43.7863 32.014 43.7814C31.9714 43.7863 31.9271 43.7929 31.8861 43.7962H31.2054C29.9834 43.7076 26.5306 42.6381 25.4628 42.0181C25.4546 42.543 25.2381 47.5786 23.8832 48.6399C23.7356 48.7432 21.2046 51.2086 18.0586 52.5323C20.2976 54.7942 26.962 58.0239 31.6171 57.9517C31.6171 57.9517 31.7565 57.9534 32.0124 57.9337C32.2683 57.9517 32.4077 57.9517 32.4077 57.9517C37.0628 58.0239 43.7272 54.7942 45.9662 52.5323C42.8202 51.2086 40.2909 48.7432 40.1416 48.6399C38.79 47.577 38.5735 41.4194 38.5653 40.8945Z" fill="#EDBFAA"/>
<path d="M55.1412 55.1626L42.6128 49.9383C42.6128 49.9383 42.4061 54.5967 32.3381 54.5967C23.3298 54.5967 22.6425 49.748 22.6425 49.748L10.0567 53.9685C7.69467 54.723 5.73454 56.3879 4.60931 58.5957C1.71587 64.2743 2.18991 74.6572 1.03516 77.0898C12.8107 77.1701 21.1531 77.0668 31.6984 77.0668C42.1535 77.0668 51.9082 77.0668 62.9965 77.0668C62.3273 75.5577 62.2387 66.0245 60.1523 60.4361C59.2698 58.0675 57.4606 56.1648 55.1412 55.1626Z" fill="#00998E"/>
<path d="M37.2257 18.9697L20.9345 21.9452C20.9345 21.9452 19.2434 34.0012 23.5868 40.3638C23.5868 40.3638 25.6437 43.2753 28.5027 44.9385C29.5229 45.5323 30.6433 45.9703 31.8111 46.0556H32.4607C34.0681 45.9391 35.5854 45.1583 36.873 44.2135C39.1415 42.547 40.0502 41.5596 40.685 40.3638C44.9546 32.3101 43.2159 21.399 43.2159 21.399L37.2257 18.9697Z" fill="#F5CFBF"/>
<path d="M19.2294 27.269C18.5471 28.1006 19.7723 37.5256 22.4952 35.5392L20.9041 27.9923C20.9041 27.9907 19.9036 26.4456 19.2294 27.269Z" fill="#F5CFBF"/>
<path d="M42.1666 28.0691L41.5449 35.5405C44.2678 37.5269 45.4931 28.1019 44.8107 27.2703C44.1366 26.4468 42.1666 28.0691 42.1666 28.0691Z" fill="#F5CFBF"/>
<path d="M33.6784 11.001C17.2067 11.001 19.9345 23.4408 20.6693 31.2288C20.6874 31.4175 20.958 31.424 20.9876 31.237C21.3517 28.9226 22.9034 23.6426 26.7679 23.4605C32.2234 23.2046 36.7014 22.0056 38.527 20.3686C38.527 20.3686 40.205 22.9799 41.5419 25.6421C42.5211 27.5924 43.3183 29.2851 43.1378 31.4191C43.1395 31.4208 50.4912 11.001 33.6784 11.001Z" fill="#002135"/>
<path d="M27.9709 9.18246C25.3284 11.3755 27.0261 14.5626 27.0261 14.5626C27.0261 14.5626 37.8323 19.8935 39.2117 13.503C40.5929 7.11406 31.3204 6.40054 27.9709 9.18246Z" fill="#002135"/>
</g>
<path d="M32.013 132.001C49.5093 132.001 63.6929 117.817 63.6929 100.321C63.6929 82.8242 49.5093 68.6406 32.013 68.6406C14.5166 68.6406 0.333008 82.8242 0.333008 100.321C0.333008 117.817 14.5166 132.001 32.013 132.001Z" fill="#FAF6F6"/>
<mask id="mask5" mask-type="alpha" maskUnits="userSpaceOnUse" x="0" y="68" width="64" height="65">
<path d="M32.013 132.001C49.5093 132.001 63.6929 117.817 63.6929 100.321C63.6929 82.8242 49.5093 68.6406 32.013 68.6406C14.5166 68.6406 0.333008 82.8242 0.333008 100.321C0.333008 117.817 14.5166 132.001 32.013 132.001Z" fill="white"/>
</mask>
<g mask="url(#mask5)">
<path d="M38.4787 103.811C38.4953 103.79 25.4489 104.629 25.4489 104.629C25.3446 105.709 25.2826 107.477 25.2524 107.772C25.1708 108.582 24.9985 109.294 24.7764 109.925L24.8822 109.773C24.8822 109.773 28.0754 114.769 32.0137 115.148C35.887 114.775 39.183 109.941 39.2872 109.788C39.0893 109.189 38.9336 108.526 38.858 107.773C38.8308 107.5 38.5754 104.795 38.4787 103.811Z" fill="#996551"/>
<path d="M42.3227 92.8595C42.0598 94.8801 40.8493 95.3667 40.875 94.0942C40.9037 92.6933 40.884 91.1866 40.8009 89.3429C40.6211 85.3502 39.7567 84.3422 38.2862 84.5538C37.0803 84.7246 26.8704 84.7246 25.6644 84.5538C24.1925 84.3422 23.3296 85.3502 23.1497 89.3429C23.0666 91.1866 23.047 92.6933 23.0757 94.0942C23.1014 95.3652 22.509 94.2272 21.6279 92.8595C21.0627 92.6162 20.5036 92.7507 20.6592 94.4252C21.0083 98.1987 22.1266 100.023 23.4535 99.979C23.5653 101.591 23.4384 102.142 25.1929 104.714C27.2648 107.349 28.6627 109.451 31.9768 109.451C35.291 109.451 36.6889 107.349 38.7608 104.714C40.5153 102.142 40.3884 101.591 40.5002 99.979C41.827 100.021 42.9454 98.1972 43.2944 94.4252C43.4471 92.7523 42.8879 92.6162 42.3227 92.8595Z" fill="#B3765F"/>
<path d="M32.9448 76.0178C28.1829 75.6415 26.2953 77.585 25.9916 77.9885C25.6788 78.4056 23.4875 78.197 21.8085 80.6482C20.7612 82.1776 20.5587 84.656 21.0725 88.9479C21.207 90.0708 21.8992 92.9754 22.0609 93.5466C22.6714 95.7137 23.0477 95.0321 23.0537 94.8009C23.09 93.4 23.1323 91.1891 23.1474 89.3439C23.1701 86.7536 24.6632 86.063 26.1352 86.273C27.3925 86.4514 30.3832 87.0241 34.0147 86.9773C37.0447 86.938 37.9424 85.6051 38.293 85.5174C39.7378 85.1608 40.6279 85.9738 40.8258 89.9665C40.909 91.6032 40.8349 95.0654 40.7518 95.9298C41.2822 95.685 41.6268 94.9581 41.9759 93.5557C42.6529 90.837 43.0383 85.2696 42.993 84.2707C42.801 79.944 39.6546 76.5498 32.9448 76.0178Z" fill="#002135"/>
<path d="M55.095 116.309C50.6097 114.764 42.3568 111.6 41.5317 111.097C41.163 111.591 31.8523 113.568 31.8523 113.568C31.8523 113.568 22.8604 111.591 22.4917 111.097C21.6666 111.6 13.4137 114.766 8.9284 116.309C6.37895 117.187 4.41132 119.238 3.63606 121.82L1.1123 133.52L62.9111 133.52L60.3858 121.822C59.6121 119.238 57.6445 117.187 55.095 116.309Z" fill="#F26889"/>
<path d="M36.9509 101.058C36.4023 101.484 35.479 100.529 34.4725 100.188C33.8937 99.9911 32.2011 99.7326 31.9699 99.7221C31.9699 99.7221 29.9599 99.9926 29.3811 100.188C28.3747 100.528 27.4513 101.484 26.9027 101.058C25.9627 100.328 23.8576 99.2415 23.0702 94.0958L22.3887 93.8555C22.3887 93.8555 23.1246 101.339 23.85 102.726C24.7779 104.501 26.7728 107.475 28.1298 108.572C28.9127 109.204 30.8032 109.689 31.8837 109.766V109.772C31.8973 109.772 31.914 109.769 31.9276 109.769C31.9412 109.77 31.9578 109.772 31.9714 109.772V109.766C33.0519 109.689 34.9425 109.205 35.7253 108.572C37.0824 107.476 38.7538 104.717 40.0051 102.726C40.8378 101.401 41.4665 93.8555 41.4665 93.8555L40.7849 94.0958C39.996 99.2415 37.8909 100.328 36.9509 101.058Z" fill="#002135"/>
<path d="M35.1239 103.247H29.0186C31.9942 107.37 35.1239 103.247 35.1239 103.247Z" fill="#B3765F"/>
<path d="M25.2871 107.033L22.5049 111.058C22.5049 111.058 22.925 112.297 24.6448 114.515C26.091 116.38 27.3136 117.707 27.3136 117.707L30.4917 114.908L32.0136 113.569C27.8713 113.169 25.2871 107.033 25.2871 107.033Z" fill="#D8E7F0"/>
<path d="M32.0146 113.57L34.0049 115.181L36.8748 117.707C36.8748 117.707 38.6187 116.013 40.0348 114.427C41.7047 112.556 41.685 111.058 41.685 111.058C41.685 111.058 39.2792 107.836 38.7971 107.034C38.6943 106.866 36.0904 113.175 32.0146 113.57Z" fill="#D8E7F0"/>
</g>
</svg>
