<svg width="300" height="215" viewBox="0 0 300 215" fill="none" xmlns="http://www.w3.org/2000/svg">
<path d="M290.149 10.9473H9.85742V204.743H290.149V10.9473Z" fill="#E9E2DF"/>
<path d="M300 164.232H0V204.743H300V164.232Z" fill="#C0A9A8"/>
<path d="M299.997 164.643H0V169.155H299.997V164.643Z" fill="#816E68"/>
<path d="M299.201 0H0.749023V11.1155H299.201V0Z" fill="#C0A9A8"/>
<path d="M176.36 59.3555H29.3145V161.818H176.36V59.3555Z" fill="#ECF3F9"/>
<path d="M173.942 61.8089V159.425H31.7425V61.8089H173.942ZM178.788 56.9326H26.8965V164.241H178.818V56.9326H178.788Z" fill="#556E81"/>
<path d="M68.1665 110.368C64.5623 113.427 59.8678 113.669 56.2636 110.368C53.1137 107.46 52.9017 101.312 56.2636 98.4651C65.9253 90.2875 75.9504 82.5642 86.127 75.0529C92.1239 70.6309 98.1814 66.2998 104.269 62.0293H88.5802C83.0074 66.6027 77.3436 71.0246 71.6799 75.4769C62.5634 82.6247 53.4468 89.8331 44.7846 97.5867C41.5742 100.464 38.394 103.432 35.335 106.522V155.072H53.3257C60.5038 148.924 160.573 66.9359 167.964 62.0596H133.587C128.62 65.4821 72.2856 106.885 68.1665 110.368Z" fill="white"/>
<path d="M272.632 56.9326H192.705V204.743H272.632V56.9326Z" fill="white"/>
<path d="M269.654 59.5234H207.262V202.158H269.654V59.5234Z" fill="#D0E3F2"/>
<path opacity="0.6" d="M257.168 144.435C248.929 151.254 240.752 158.196 232.392 164.894C229.697 167.055 226.365 167.36 223.7 164.894C221.428 162.793 221.186 158.196 223.7 156.156C228.455 152.32 256.017 129.273 265.376 121.997V97.458C259.591 102.695 218.581 133.14 211.524 140.477V197.287H265.376V137.706C262.619 139.929 259.893 142.182 257.168 144.435Z" fill="white"/>
<path d="M267.063 62.1083V199.598H209.82V62.1083H267.063ZM272.212 56.9326H204.671V204.743H272.182V56.9326H272.212Z" fill="#556E81"/>
<path d="M266.023 49.9284H33.3017C30.1544 49.9284 27.582 48.0335 27.582 45.6649V25.7909C27.582 22.2041 31.4859 19.2715 36.328 19.2715H266.023C269.17 19.2715 271.743 21.1664 271.743 23.535V45.6649C271.743 48.011 269.201 49.9284 266.023 49.9284Z" fill="#2F2B27"/>
<path d="M213.574 136.99H205.851V112.215H213.574C216.33 112.215 218.541 114.456 218.541 117.182V131.993C218.541 134.779 216.33 136.99 213.574 136.99Z" fill="#556E81"/>
<path d="M173.187 80.29L111.28 131.9C107.161 135.322 106.615 141.44 110.038 145.529C111.946 147.831 114.702 149.012 117.489 149.012C119.669 149.012 121.88 148.285 123.667 146.771L173.187 105.519V80.29Z" fill="white"/>
<g clip-path="url(#clip0)">
<path d="M263.665 147.19C263.665 147.19 263.483 148.162 263.209 149.834C262.936 151.537 262.51 153.938 262.024 156.826C261.781 158.286 261.537 159.836 261.264 161.508C260.99 163.18 260.686 164.913 260.413 166.737C259.865 170.354 259.257 174.215 258.649 178.076L258.528 178.806L258.467 179.14L258.406 179.505C258.345 179.991 258.285 180.478 258.224 180.964C258.102 181.906 257.981 182.849 257.859 183.791C257.646 185.706 257.433 187.561 257.221 189.385C257.008 191.209 256.825 192.972 256.673 194.644C256.491 196.316 256.339 197.897 256.187 199.356C255.883 202.274 255.67 204.706 255.518 206.409C255.366 208.111 255.275 209.084 255.275 209.084C255.153 210.482 253.907 211.516 252.509 211.394C251.201 211.273 250.198 210.178 250.198 208.901C250.198 208.901 250.198 207.929 250.168 206.196C250.137 204.493 250.107 202.031 250.046 199.082C249.985 196.133 249.925 192.698 249.864 189.02C249.833 187.165 249.803 185.281 249.773 183.335C249.773 182.362 249.773 181.359 249.742 180.386C249.742 179.414 249.742 178.41 249.742 177.407C249.773 169.564 249.803 161.69 249.803 155.793C249.803 152.844 249.803 150.382 249.803 148.679C249.803 146.946 249.803 145.974 249.803 145.974C249.773 142.143 252.873 139.012 256.734 138.982C260.565 138.951 263.696 142.052 263.726 145.913C263.726 146.308 263.696 146.734 263.635 147.098L263.665 147.19Z" fill="#123D5E"/>
<path d="M273.423 146.065C273.423 146.065 273.423 147.038 273.423 148.77C273.423 150.503 273.423 152.935 273.454 155.884C273.454 157.343 273.484 158.954 273.484 160.657C273.515 162.359 273.515 164.122 273.545 165.977C273.575 167.801 273.606 169.716 273.667 171.631C273.697 172.574 273.727 173.546 273.727 174.519C273.727 175.005 273.758 175.492 273.788 175.948L273.849 177.346V177.589V177.802C273.879 178.076 273.91 178.289 273.94 178.562C274.001 179.049 274.062 179.505 274.123 180.052C274.183 180.569 274.244 181.085 274.275 181.633C274.305 182.119 274.366 182.636 274.396 183.122C274.548 185.098 274.67 187.013 274.791 188.868C274.883 190.722 275.004 192.516 275.095 194.218C275.187 195.921 275.247 197.501 275.339 198.991C275.612 204.889 275.795 208.841 275.795 208.841C275.855 210.239 274.761 211.425 273.363 211.485C272.055 211.546 270.931 210.604 270.718 209.327V209.297C270.718 209.297 270.566 208.324 270.323 206.621C270.049 204.919 269.715 202.517 269.228 199.599C268.985 198.14 268.711 196.589 268.438 194.917C268.164 193.276 267.83 191.513 267.495 189.719C267.161 187.925 266.796 186.071 266.401 184.217C266.31 183.761 266.188 183.305 266.097 182.818C266.006 182.393 265.884 181.937 265.793 181.511C265.702 181.085 265.58 180.599 265.459 180.113L265.276 179.413L265.064 178.441L264.76 176.921C264.668 176.434 264.577 175.917 264.486 175.431C264.304 174.458 264.152 173.486 263.969 172.513C263.635 170.598 263.331 168.713 263.027 166.889C262.419 163.241 261.841 159.836 261.355 156.918C260.352 151.081 259.683 147.19 259.683 147.19C259.044 143.42 261.568 139.833 265.337 139.194C269.107 138.556 272.694 141.079 273.332 144.849C273.393 145.244 273.423 145.67 273.423 146.065Z" fill="#123D5E"/>
<path d="M272.937 138.282C272.937 138.282 273.241 142.751 273.363 144.423C273.636 148.102 266.979 151.658 261.567 152.145C256.187 152.631 250.137 151.02 249.803 147.342L250.076 138.252L272.937 138.282Z" fill="#123D5E"/>
<path d="M255.578 208.811C256.885 214.191 255.578 214.131 255.578 214.131L241.686 214.161C241.686 214.161 241.108 211.82 244.239 211.486C246.245 211.273 250.319 208.811 250.319 208.811H255.578Z" fill="#816E68"/>
<path d="M275.734 208.841C277.285 212.823 275.734 213.978 275.734 213.978L265.003 214.009C265.003 214.009 264.334 211.516 267.891 211.455C268.529 211.455 270.87 208.871 270.87 208.871L275.734 208.841Z" fill="#816E68"/>
<path d="M256.703 99.4615C254.241 98.7623 250.654 100.921 249.955 103.383C249.955 103.383 249.924 103.535 249.833 103.809C249.742 104.082 249.62 104.508 249.468 105.055C249.134 106.15 248.648 107.67 248.009 109.524C247.371 111.348 246.611 113.476 245.668 115.665C245.212 116.759 244.696 117.853 244.179 118.857C243.905 119.373 243.632 119.86 243.358 120.316C243.084 120.741 242.659 121.471 242.75 121.441L242.112 121.684C241.929 121.745 241.838 121.805 241.686 121.836L241.321 121.957C241.048 122.049 240.774 122.14 240.5 122.231C239.376 122.565 238.22 122.809 237.096 122.991C234.816 123.356 232.596 123.508 230.681 123.538C228.766 123.569 227.155 123.477 226.06 123.386C224.936 123.295 223.598 122.991 223.628 122.991C222.504 122.748 222.078 123.538 221.835 124.663C221.592 125.788 221.622 126.852 222.747 127.095C222.747 127.095 223.659 127.369 223.993 127.46C224.328 127.551 224.784 127.642 225.392 127.764C226.577 128.007 228.31 128.341 230.377 128.585C232.475 128.828 234.937 128.98 237.643 128.889C238.98 128.828 240.409 128.706 241.838 128.493C242.203 128.433 242.568 128.372 242.932 128.281L243.51 128.159C243.692 128.129 243.905 128.068 244.057 128.037L244.696 127.885L245.273 127.673C245.364 127.642 245.456 127.581 245.547 127.551C246.246 127.217 246.702 126.852 247.128 126.517C247.523 126.183 247.888 125.849 248.192 125.514C248.496 125.18 248.769 124.876 249.043 124.572C249.559 123.933 250.015 123.325 250.411 122.717C251.231 121.501 251.961 120.316 252.599 119.161C253.907 116.85 255.001 114.692 255.883 112.837C256.764 110.983 257.463 109.402 257.95 108.308C258.193 107.761 258.375 107.305 258.497 107.001C258.619 106.697 258.71 106.514 258.71 106.514C258.771 106.362 258.831 106.18 258.892 105.998C259.591 103.474 259.166 100.161 256.703 99.4615Z" fill="#F26889"/>
<path d="M276.707 115.756C274.609 126.275 273.424 127.643 273.849 143.937C273.849 143.937 265.641 144.606 260.686 144.241C255.883 143.876 249.864 143.116 249.864 143.116C249.864 143.116 249.803 127.551 250.046 115.209C250.168 109.099 245.638 96.9387 263.787 98.5499C283.121 100.283 277.497 111.835 276.707 115.756Z" fill="#F26889"/>
<path d="M266.644 94.7502C266.644 94.7502 272.116 84.8703 269.745 82.1951C267.89 80.0975 258.649 81.9519 258.649 81.9519C258.649 81.9519 255.183 96.483 260.199 96.5742C264.577 96.635 266.644 94.7502 266.644 94.7502Z" fill="#B47D5A"/>
<path d="M266.249 95.0234C266.249 95.0234 271.6 92.3786 270.992 85.4474C270.657 81.6778 268.317 79.9755 265.641 79.5499C262.936 79.1243 259.166 80.6443 257.829 80.6139C257.829 80.6139 256.37 84.505 260.322 84.809C264.273 85.113 265.429 85.4778 265.368 86.4202C265.307 87.3626 264.881 88.4266 264.881 88.4266L265.793 88.9738C265.793 88.9738 267.496 88.0922 267.678 88.9738C267.921 90.129 267.465 91.801 266.341 91.8618C266.341 91.8922 266.219 93.3818 266.249 95.0234Z" fill="#0E2E47"/>
<path d="M266.31 94.2938L266.006 98.489C266.219 100.1 265.064 101.559 263.483 101.772C261.872 101.985 260.412 100.83 260.2 99.249C260.169 98.9146 260.169 98.5498 260.23 98.2458L260.26 98.1546C260.26 98.1546 260.504 97.0602 260.808 95.9962C260.96 95.4794 261.112 94.9322 261.233 94.537C261.355 94.1418 261.446 93.8682 261.446 93.8682C261.78 92.713 263.027 92.0746 264.152 92.409C265.064 92.6826 265.641 93.473 265.702 94.385L266.31 94.2938Z" fill="#B47D5A"/>
<path d="M286.252 125.94C285.948 120.985 281.418 113.172 279.108 108.916C277.436 105.845 275.886 101.833 271.417 102.897C269.441 103.353 267.951 105.085 267.83 107.122C267.708 108.885 268.681 110.132 269.684 111.439C272.754 115.452 275.946 119.586 278.226 124.116C276.007 124.602 273.697 124.724 271.447 124.784C270.292 124.815 268.559 124.511 267.586 125.301C266.127 126.517 266.978 128.463 268.559 128.98C270.14 129.496 272.025 129.557 273.666 129.74C287.65 131.26 286.282 126.092 286.252 125.94Z" fill="#F26889"/>
<path d="M265.519 130.105L263.178 120.65L258.132 119.769L260.564 129.223L265.519 130.105Z" fill="#0E2E47"/>
<path d="M265.884 129.771L263.543 120.347L258.527 119.435L258.162 119.799L265.549 130.135L265.884 129.771Z" fill="#0E2E47"/>
<path d="M268.772 126.913C268.681 127.916 268.134 128.828 266.826 129.162C265.945 129.406 264.06 129.406 262.084 128.828L262.449 124.846C262.449 124.846 265.124 124.937 267.1 124.937C268.286 124.876 268.863 125.818 268.772 126.913Z" fill="#B47D5A"/>
<path d="M263.817 129.163C263.817 129.163 263.726 129.163 263.574 129.132C263.422 129.102 263.24 129.072 262.997 129.041C262.51 128.95 261.902 128.768 261.325 128.585C261.021 128.494 260.717 128.372 260.443 128.251C260.169 128.129 259.926 128.038 259.713 127.916C259.501 127.825 259.318 127.734 259.197 127.673C259.075 127.612 259.014 127.582 259.014 127.582C258.801 127.46 258.71 127.217 258.832 127.004C258.923 126.792 259.197 126.7 259.379 126.822C259.379 126.822 259.44 126.852 259.561 126.913C259.683 126.974 259.835 127.035 260.048 127.126C260.261 127.217 260.504 127.308 260.747 127.4C261.021 127.491 261.294 127.582 261.568 127.673C262.145 127.856 262.723 127.977 263.149 128.038C263.361 128.068 263.544 128.099 263.665 128.099C263.787 128.099 263.848 128.099 263.848 128.099C264.152 128.129 264.365 128.372 264.334 128.676C264.365 128.98 264.091 129.193 263.817 129.163Z" fill="#B47D5A"/>
<path d="M263.999 127.946C263.999 127.946 263.968 127.946 263.938 127.946C263.877 127.946 263.816 127.946 263.756 127.946C263.604 127.946 263.36 127.916 263.117 127.916C262.844 127.886 262.57 127.825 262.236 127.764C261.932 127.703 261.597 127.612 261.263 127.521C260.928 127.43 260.624 127.308 260.32 127.217C260.016 127.095 259.743 127.004 259.5 126.913C259.256 126.822 259.074 126.73 258.952 126.67C258.831 126.609 258.74 126.578 258.74 126.578C258.557 126.487 258.466 126.274 258.557 126.092C258.648 125.91 258.831 125.849 259.013 125.91C259.013 125.91 259.074 125.94 259.226 126.001C259.348 126.062 259.53 126.122 259.773 126.214C259.986 126.305 260.26 126.366 260.564 126.457C260.868 126.548 261.172 126.609 261.476 126.7C261.78 126.761 262.114 126.822 262.388 126.852C262.692 126.882 262.965 126.913 263.178 126.913C263.421 126.913 263.604 126.913 263.725 126.913C263.786 126.913 263.847 126.913 263.877 126.913C263.908 126.913 263.938 126.913 263.938 126.913C264.242 126.882 264.485 127.095 264.516 127.399C264.546 127.703 264.333 127.946 264.029 127.977C264.029 127.916 264.029 127.946 263.999 127.946Z" fill="#B47D5A"/>
<path d="M264.243 126.7C264.243 126.7 264.212 126.7 264.182 126.73C264.121 126.761 264.06 126.761 263.969 126.791C263.817 126.821 263.574 126.852 263.3 126.882C263.179 126.882 263.027 126.913 262.875 126.913C262.723 126.913 262.571 126.913 262.388 126.913C262.054 126.913 261.689 126.852 261.355 126.791C261.02 126.73 260.656 126.639 260.352 126.548C260.048 126.457 259.744 126.365 259.5 126.274C259.257 126.183 259.044 126.092 258.923 126.031C258.771 125.97 258.71 125.94 258.71 125.94C258.497 125.849 258.406 125.605 258.497 125.393C258.588 125.18 258.801 125.089 259.014 125.18H259.044C259.044 125.18 259.105 125.21 259.257 125.271C259.379 125.332 259.592 125.393 259.804 125.453C260.048 125.545 260.291 125.605 260.595 125.666C260.899 125.727 261.203 125.788 261.507 125.818C261.811 125.849 262.145 125.879 262.419 125.879C262.571 125.879 262.723 125.879 262.844 125.879C262.966 125.879 263.088 125.849 263.209 125.849C263.452 125.818 263.635 125.788 263.756 125.757C263.817 125.727 263.878 125.727 263.878 125.727C263.908 125.727 263.908 125.727 263.908 125.727H263.939C264.212 125.636 264.516 125.788 264.608 126.061C264.699 126.274 264.547 126.578 264.243 126.7Z" fill="#B47D5A"/>
<path d="M266.218 125.696C266.218 125.696 266.096 125.696 265.884 125.726C265.671 125.726 265.397 125.757 265.063 125.757C264.728 125.757 264.333 125.757 263.908 125.726C263.482 125.696 263.026 125.666 262.6 125.574C262.144 125.514 261.719 125.422 261.293 125.331C261.08 125.301 260.898 125.24 260.716 125.179C260.533 125.118 260.351 125.088 260.199 125.027C259.864 124.936 259.621 124.814 259.439 124.754C259.256 124.693 259.135 124.632 259.135 124.632C258.922 124.541 258.831 124.328 258.892 124.115C258.952 123.902 259.196 123.811 259.378 123.872H259.408C259.408 123.872 259.5 123.902 259.682 123.963C259.864 124.024 260.108 124.115 260.412 124.176C260.564 124.206 260.746 124.267 260.898 124.298C261.08 124.328 261.263 124.389 261.476 124.419C261.871 124.48 262.296 124.571 262.722 124.602C263.148 124.662 263.573 124.662 263.968 124.693C264.364 124.693 264.728 124.693 265.063 124.693C265.367 124.693 265.64 124.662 265.823 124.632C266.005 124.602 266.096 124.602 266.096 124.602C266.4 124.571 266.674 124.784 266.704 125.058C266.735 125.362 266.522 125.635 266.218 125.696Z" fill="#B47D5A"/>
<path d="M267.161 126.426C267.161 126.426 267.131 126.396 267.07 126.335C267.009 126.274 266.888 126.183 266.766 126.092C266.523 125.91 266.188 125.636 265.824 125.423C265.459 125.18 264.729 125.028 264.638 124.754C264.456 124.116 264.334 123.478 264.304 123.447C264.304 123.447 265.55 123.569 266.614 124.116C267.04 124.329 269.076 125.666 268.256 126.274C267.921 126.518 267.556 126.7 267.192 126.487C267.222 126.457 267.192 126.457 267.161 126.426Z" fill="#B47D5A"/>
<path d="M222.898 123.143C221.956 121.927 217.791 119.647 217.791 119.647L217.973 127.156C217.973 127.156 220.497 127.187 222.017 126.487C223.111 125.91 224.053 124.603 222.898 123.143Z" fill="#B47D5A"/>
<path d="M217.852 119.708L213.809 118.948C213.809 118.948 213.413 120.195 214.538 120.468C215.633 120.742 217.821 121.411 217.821 122.566C217.821 123.721 218.399 123.356 218.399 123.356C218.399 123.356 219.828 120.681 217.852 119.708Z" fill="#B47D5A"/>
</g>
<path d="M46.6077 108.699C46.85 111.637 47.0923 114.545 47.4255 117.452C47.6375 119.421 47.8495 121.39 48.1221 123.358C48.3038 124.6 48.2735 126.266 48.7884 127.417C48.7581 127.387 48.7582 127.387 48.7582 127.356C50.7571 131.778 52.9075 136.079 55.1185 140.41C55.8151 141.773 56.8752 142.742 55.27 143.802C53.483 144.953 53.1195 143.833 52.2109 142.439C49.4548 138.32 46.2443 134.171 44.0636 129.719C43.2761 128.083 42.9127 126.205 42.4886 124.449C41.7012 121.208 41.0046 117.907 40.3382 114.636C39.8839 112.334 38.4604 108.76 40.1565 106.7C42.1252 104.186 45.3659 104.186 46.6077 108.699Z" fill="#123D5E"/>
<path d="M24.0505 110.212C24.5351 115.876 26.6855 126.719 27.3519 131.141C27.7456 133.806 25.6558 137.895 25.4438 143.771L45.7969 144.134C45.7969 144.134 44.1614 128.87 45.5849 118.875C46.0392 115.725 47.2204 108.032 45.4032 106.124C42.7682 103.337 39.4972 103.065 37.165 103.065C26.1707 103.034 23.8082 107.426 24.0505 110.212Z" fill="#123D5E"/>
<path d="M46.7807 149.192C46.7807 149.192 46.7807 150.131 46.811 151.797C46.811 153.463 46.8413 155.795 46.811 158.642C46.7807 160.066 46.7807 161.58 46.7504 163.215C46.7201 164.821 46.6596 166.547 46.6293 168.304C46.5687 170.06 46.5081 171.908 46.4476 173.756C46.3567 175.603 46.2658 177.481 46.175 179.389C46.0841 181.237 45.963 183.175 45.8418 184.992C45.7207 186.84 45.5692 188.657 45.4481 190.414C45.1755 193.927 44.9332 197.198 44.6909 199.984C44.4486 202.771 44.2366 205.103 44.1154 206.739C43.964 208.374 43.8731 209.313 43.8731 209.313C43.7823 210.464 42.7525 211.312 41.6016 211.221C40.5415 211.13 39.7237 210.222 39.6935 209.192V209.162C39.6935 209.162 39.6329 205.436 39.542 199.833C39.4814 197.047 39.4209 193.776 39.3603 190.262C39.33 188.505 39.2694 186.719 39.2088 184.871C39.1483 183.023 39.0877 181.206 39.0271 179.328C38.9363 177.511 38.8454 175.633 38.7243 173.816C38.6031 171.999 38.482 170.212 38.3608 168.486C38.2094 166.759 38.0882 165.063 37.9671 163.488C37.8156 161.913 37.6945 160.399 37.5733 159.006C37.3007 156.249 37.0887 153.917 36.9373 152.312C36.7556 150.707 36.6647 149.798 36.6647 149.798V149.768C36.3618 146.981 38.3911 144.498 41.1775 144.195C43.964 143.892 46.4476 145.921 46.7504 148.708C46.7807 148.859 46.7807 149.011 46.7807 149.192Z" fill="#E9AC8A"/>
<path d="M36.3505 149.314C36.3505 149.314 36.3202 150.253 36.2596 151.919C36.1991 153.585 36.1385 155.947 35.987 158.764C35.9265 160.187 35.8356 161.702 35.7447 163.337C35.6539 164.973 35.5327 166.669 35.4419 168.425C35.3207 170.182 35.1996 172.03 35.0481 173.877C34.8967 175.725 34.715 177.602 34.5332 179.511C34.3515 181.358 34.1698 183.266 33.9578 185.114C33.7458 186.961 33.564 188.779 33.352 190.535C32.928 194.049 32.5343 197.32 32.1708 200.106C31.8074 202.892 31.4742 205.225 31.2319 206.86C30.9896 208.496 30.8685 209.435 30.8685 209.435C30.6867 210.585 29.6267 211.373 28.506 211.191C27.446 211.04 26.6888 210.101 26.7191 209.041V209.011C26.7191 209.011 26.7494 208.072 26.8402 206.436C26.9008 204.801 26.9917 202.468 27.0825 199.682C27.1734 196.896 27.2643 193.625 27.3551 190.111C27.3854 188.355 27.4157 186.568 27.446 184.72C27.4763 182.903 27.4763 181.055 27.4763 179.177C27.4763 177.33 27.446 175.482 27.3854 173.665C27.3551 171.848 27.2946 170.031 27.234 168.304C27.1734 166.578 27.1128 164.882 27.022 163.277C26.9311 161.671 26.8705 160.187 26.81 158.794C26.6585 156.008 26.5374 153.706 26.4162 152.07C26.2951 150.465 26.2345 149.526 26.2345 149.526V149.496C26.0528 146.709 28.1729 144.286 30.9593 144.105C33.7458 143.923 36.1688 146.043 36.3505 148.829C36.3505 148.981 36.3808 149.163 36.3505 149.314Z" fill="#E9AC8A"/>
<path d="M39.7122 209.011C39.7122 209.011 39.167 210.979 39.167 212.676C39.167 213.221 39.4699 214.099 39.4699 214.099L51.7666 214.129C51.7666 214.129 52.2814 211.858 49.5253 211.555C47.7383 211.373 43.9524 208.98 43.9524 208.98L39.7122 209.011Z" fill="white"/>
<path d="M26.6478 209.012C26.6478 209.012 25.9209 210.98 25.9209 212.252C25.9209 213.797 26.2541 214.13 26.2541 214.13L34.9768 214.161C34.9768 214.161 35.3403 211.889 33.3716 211.586C32.0995 211.404 30.9486 209.012 30.9486 209.012H26.6478Z" fill="white"/>
<path d="M34.7326 99.9449C34.7326 99.9449 27.0396 92.3125 28.4934 89.2232C29.6443 86.8002 38.6397 86.0127 38.6397 86.0127C38.6397 86.0127 44.5457 96.6436 39.8512 99.8844C36.0955 102.459 34.7326 99.9449 34.7326 99.9449Z" fill="#E9AC8A"/>
<path d="M37.521 98.0085C37.521 98.0085 37.6118 98.3114 37.733 98.7354C37.8541 99.1594 38.0056 99.7652 38.1267 100.341C38.2479 100.946 38.369 101.552 38.4599 102.006C38.4902 102.249 38.5205 102.43 38.5507 102.582C38.581 102.733 38.581 102.794 38.581 102.794V102.854C38.793 104.399 37.7027 105.792 36.158 106.004C34.6134 106.216 33.2202 105.126 33.0082 103.581C32.9779 103.279 32.9779 102.976 33.0385 102.703C33.0385 102.703 33.0385 102.642 33.0688 102.552C33.099 102.461 33.1293 102.309 33.1293 102.097C33.1899 101.734 33.2505 101.219 33.3111 100.674C33.3716 100.159 33.4019 99.6137 33.4019 99.22C33.4019 98.8262 33.4322 98.5537 33.4322 98.5537V98.4325C33.4625 97.2816 34.4317 96.373 35.5826 96.4335C36.5215 96.5244 37.2787 97.1604 37.521 98.0085Z" fill="#E9AC8A"/>
<path d="M35.2552 102.764C35.2552 102.764 30.1366 105.096 27.5319 102.612C24.9272 100.129 24.1397 90.5579 27.4108 86.9537C29.6823 84.4398 34.2254 83.6524 37.5873 84.4095C40.8281 85.1364 40.6464 88.9527 40.6464 88.9527C40.6464 88.9527 34.4071 90.2248 34.0437 91.406C33.6802 92.5872 35.2552 102.764 35.2552 102.764Z" fill="#0E2E47"/>
<path d="M46.8081 148.104C46.172 144.197 45.5966 140.26 45.5966 140.26L25.9097 140.018C25.7886 140.108 25.1223 141.895 25.0011 144.076L22.5781 178.059C22.5781 178.059 37.6007 180.451 49.8671 177.574C49.8671 177.574 48.5345 158.554 46.8081 148.104Z" fill="#F26889"/>
<path d="M31.5142 186.327H7.25391L8.34426 155.827H30.4541L31.5142 186.327Z" fill="#E9C68F"/>
<path d="M24.2399 158.22H14.4873V152.707C14.4873 151.193 15.6988 149.981 17.2132 149.981H21.4837C22.9981 149.981 24.2096 151.193 24.2096 152.707V158.22H24.2399ZM16.4257 156.312H22.3621V152.707C22.3621 152.253 21.9986 151.89 21.5443 151.89H17.2738C16.8194 151.89 16.456 152.253 16.456 152.707V156.312H16.4257Z" fill="#E9C68F"/>
<path d="M19.0238 145.86C19.0238 145.86 17.0551 148.132 17.0551 149.555C17.0551 150.979 16.9037 152.433 17.6305 152.826C18.7815 153.432 21.9313 152.978 21.9313 152.978C21.9313 152.978 22.2948 151.857 21.2953 151.948C21.2953 151.948 20.5684 150.736 21.5376 150.252C21.5376 150.252 22.0222 149.707 22.9611 150.585C22.9611 150.585 22.0222 146.375 21.5376 145.921C21.053 145.436 19.0238 145.86 19.0238 145.86Z" fill="#E9AC8A"/>
<path d="M31.3064 110.788C27.9748 116.391 25.6427 122.812 24.2495 129.173C23.5226 132.535 23.0683 135.927 22.6745 139.349C22.4928 140.924 22.3111 142.499 22.1597 144.044C22.0688 144.922 22.2202 146.225 21.3419 146.709C20.403 147.224 18.9795 146.679 18.6766 145.801C18.3132 144.771 18.5858 143.044 18.5555 141.954C18.4646 138.683 18.2526 134.291 18.3435 131.02C18.5555 124.63 20.3424 119.208 22.4625 113.211C23.3106 110.788 24.2798 106.215 27.1571 105.397C30.3069 104.519 32.9419 108.002 31.3064 110.788Z" fill="#123D5E"/>
<path d="M53.5116 143.318C53.5116 143.318 53.4208 145.165 53.9054 145.771C54.4203 146.377 55.026 147.619 55.026 147.619C55.026 147.619 54.2083 148.133 54.4203 148.527C54.6323 148.921 56.3587 149.951 56.7524 149.739C57.1461 149.527 59.0846 148.315 59.5994 147.497C60.1143 146.68 57.6005 142.621 55.238 142.106C54.3294 141.924 53.5116 143.318 53.5116 143.318Z" fill="#E9AC8A"/>
<g filter="url(#filter0_d)">
<rect x="63.4951" y="91.8916" width="76.6974" height="34.6964" transform="rotate(-4.85294 63.4951 91.8916)" fill="white"/>
</g>
<path d="M78.1077 119.08C76.9068 119.182 75.8379 119.025 74.9009 118.61C73.9749 118.194 73.2337 117.558 72.6773 116.704C72.1319 115.848 71.8091 114.831 71.709 113.652C71.6089 112.473 71.756 111.421 72.1504 110.497C72.5547 109.561 73.1782 108.81 74.0208 108.244C74.8743 107.676 75.9016 107.342 77.1025 107.24C77.8558 107.176 78.5915 107.229 79.3097 107.399C80.0388 107.568 80.6434 107.824 81.1235 108.168L80.3708 110.377C79.3644 109.791 78.3645 109.541 77.371 109.625C76.4321 109.705 75.7365 110.061 75.2844 110.693C74.8432 111.324 74.6721 112.224 74.7713 113.392C74.8705 114.56 75.1912 115.424 75.7335 115.982C76.2857 116.529 77.0313 116.763 77.9702 116.683C78.9637 116.599 79.9071 116.183 80.8004 115.437L81.9146 117.486C81.4994 117.907 80.9467 118.261 80.2566 118.551C79.5773 118.839 78.861 119.016 78.1077 119.08Z" fill="#FF0000"/>
<path d="M83.4295 118.479L82.4493 106.934L85.4625 106.678L86.2356 115.784L91.1484 115.366L91.3556 117.806L83.4295 118.479Z" fill="#FF0000"/>
<path d="M97.4642 117.436C96.2851 117.536 95.2384 117.383 94.3243 116.977C93.4201 116.559 92.6957 115.928 92.1512 115.083C91.6057 114.228 91.282 113.2 91.18 111.999C91.0781 110.798 91.2243 109.735 91.6187 108.811C92.0121 107.876 92.6197 107.132 93.4414 106.578C94.274 106.024 95.2798 105.696 96.4589 105.596C97.638 105.496 98.6792 105.65 99.5825 106.057C100.497 106.463 101.221 107.094 101.756 107.951C102.3 108.795 102.623 109.818 102.725 111.019C102.827 112.22 102.682 113.288 102.288 114.223C101.894 115.147 101.281 115.892 100.449 116.457C99.6273 117.011 98.6323 117.337 97.4642 117.436ZM97.2681 115.127C98.1415 115.053 98.7979 114.689 99.2373 114.036C99.6757 113.372 99.8449 112.451 99.7448 111.272C99.6447 110.093 99.3176 109.219 98.7635 108.65C98.2203 108.08 97.5174 107.832 96.655 107.905C95.7816 107.979 95.1252 108.343 94.6858 108.996C94.2455 109.638 94.0759 110.554 94.1769 111.744C94.2779 112.934 94.6 113.814 95.1432 114.384C95.6864 114.954 96.3947 115.201 97.2681 115.127Z" fill="#FF0000"/>
<path d="M109.024 116.455C108.162 116.528 107.3 116.486 106.44 116.328C105.58 116.17 104.872 115.922 104.315 115.585L105.068 113.376C105.654 113.678 106.272 113.895 106.921 114.027C107.57 114.159 108.217 114.198 108.861 114.143C109.516 114.087 110.005 113.958 110.329 113.754C110.662 113.539 110.815 113.268 110.788 112.94C110.762 112.646 110.584 112.419 110.251 112.26C109.93 112.1 109.325 111.965 108.436 111.853C107.335 111.716 106.466 111.515 105.828 111.25C105.189 110.985 104.727 110.651 104.439 110.246C104.163 109.841 103.998 109.327 103.946 108.705C103.885 107.995 104.028 107.345 104.374 106.755C104.73 106.153 105.254 105.663 105.948 105.285C106.652 104.896 107.473 104.661 108.412 104.581C109.242 104.511 110.054 104.563 110.85 104.737C111.655 104.9 112.292 105.148 112.76 105.482L112.024 107.689C110.915 107.057 109.782 106.791 108.624 106.889C108.068 106.936 107.629 107.084 107.309 107.331C106.988 107.567 106.843 107.86 106.873 108.209C106.89 108.416 106.965 108.58 107.096 108.701C107.227 108.822 107.462 108.934 107.801 109.037C108.138 109.13 108.635 109.214 109.29 109.29C110.358 109.431 111.205 109.639 111.834 109.915C112.461 110.181 112.918 110.516 113.206 110.921C113.493 111.325 113.662 111.822 113.712 112.412C113.808 113.547 113.447 114.474 112.628 115.192C111.809 115.9 110.607 116.32 109.024 116.455Z" fill="#FF0000"/>
<path d="M115.547 115.753L114.567 104.207L122.771 103.511L122.968 105.836L117.695 106.284L117.882 108.478L122.827 108.058L123.023 110.367L118.078 110.787L118.281 113.178L123.554 112.731L123.751 115.056L115.547 115.753Z" fill="#FF0000"/>
<path d="M124.174 103.392L128.874 102.993C130.151 102.884 131.268 103.02 132.224 103.401C133.191 103.781 133.957 104.386 134.523 105.218C135.087 106.039 135.42 107.044 135.521 108.234C135.623 109.435 135.465 110.493 135.048 111.408C134.641 112.312 133.993 113.032 133.104 113.569C132.226 114.106 131.143 114.428 129.854 114.538L125.154 114.937L124.174 103.392ZM129.436 112.132C130.571 112.036 131.394 111.686 131.903 111.082C132.413 110.477 132.62 109.613 132.524 108.489C132.429 107.364 132.079 106.553 131.476 106.054C130.872 105.545 130.002 105.338 128.867 105.434L127.393 105.559L127.962 112.257L129.436 112.132Z" fill="#FF0000"/>
<path d="M84.2769 100.686L84.2246 100.823C84.2326 100.918 84.3723 100.998 84.6436 101.063C84.9179 101.125 85.2131 101.143 85.5291 101.116C85.8484 101.089 86.1946 101.012 86.5677 100.885C86.9408 100.758 87.2617 100.615 87.5302 100.454C87.802 100.293 88.0228 100.13 88.1925 99.9647C88.3654 99.7991 88.4472 99.6609 88.4378 99.5502C88.4259 99.4101 88.252 99.2936 87.916 99.2007C87.58 99.1078 87.0948 99.0161 86.4604 98.9256C85.829 98.8316 85.3589 98.6861 85.0501 98.4892C84.7447 98.292 84.5785 98.0354 84.5517 97.7194C84.5246 97.4002 84.6127 97.0859 84.8161 96.7766C85.0196 96.4673 85.2942 96.1848 85.6399 95.929C85.989 95.673 86.3727 95.4386 86.791 95.2259C87.6562 94.7882 88.4715 94.5369 89.2371 94.4719C89.5303 94.447 89.7915 94.4511 90.0207 94.4841C90.4593 94.5486 90.6857 94.6639 90.6998 94.8301C90.7139 94.9962 90.7089 95.1115 90.6848 95.1758C90.6605 95.237 90.6394 95.2781 90.6215 95.2993C90.6069 95.3203 90.5857 95.3418 90.5581 95.3638C90.5337 95.3856 90.5153 95.4019 90.5031 95.4128C90.37 95.5455 89.9838 95.6537 89.3446 95.7375C89.1239 95.7661 89.0043 95.7877 88.9859 95.8024C88.9674 95.8171 88.9501 95.8252 88.9338 95.8265C88.9207 95.8276 88.9033 95.816 88.8816 95.7916C88.8598 95.7672 88.8465 95.7257 88.8415 95.667C88.8365 95.6084 88.8909 95.4955 89.0047 95.3283C88.6092 95.3849 88.1918 95.5122 87.7525 95.7103C87.3165 95.9081 86.9409 96.1221 86.6258 96.3523C86.3104 96.5792 86.0502 96.7998 85.8453 97.0141C85.6401 97.2251 85.5409 97.3713 85.5478 97.4527C85.5545 97.5309 85.5844 97.594 85.6377 97.642C85.787 97.777 86.1795 97.8979 86.8153 98.0047C87.4744 98.116 87.9158 98.2131 88.1394 98.2958C88.363 98.3786 88.5487 98.4596 88.6965 98.5389C88.8476 98.618 88.9695 98.7011 89.0622 98.7884C89.2803 98.9996 89.3993 99.2224 89.4192 99.457C89.4391 99.6915 89.3943 99.9168 89.2846 100.133C89.1783 100.349 89.0062 100.563 88.7684 100.777C88.5339 100.991 88.2519 101.187 87.9226 101.366C87.2018 101.765 86.3235 102.008 85.2875 102.096C84.5317 102.161 84.0326 102.001 83.79 101.618C83.7261 101.522 83.6895 101.42 83.6804 101.312C83.671 101.202 83.687 101.1 83.7284 101.008C83.7731 100.916 83.8293 100.844 83.8971 100.792C84.0297 100.692 84.1253 100.64 84.184 100.635C84.2426 100.63 84.2736 100.647 84.2769 100.686Z" fill="#FF0000"/>
<path d="M93.0564 97.5437C93.1541 97.5354 93.2572 97.5709 93.3657 97.6503C93.4774 97.7294 93.541 97.8602 93.5565 98.0426C93.5717 98.2218 93.5281 98.4617 93.4256 98.7625C93.3229 99.0599 93.1735 99.3679 92.9774 99.6864C92.7811 100.002 92.5606 100.303 92.3158 100.589C92.0741 100.872 91.8057 101.112 91.5105 101.307C91.2184 101.499 90.9469 101.606 90.6961 101.627C90.4453 101.649 90.2366 101.588 90.0703 101.444C89.9068 101.297 89.8132 101.084 89.7895 100.804C89.7654 100.52 89.8073 100.202 89.915 99.848C90.0261 99.4941 90.1797 99.1775 90.3758 98.8984C90.5717 98.6159 90.7878 98.3597 91.0242 98.1296C91.519 97.6578 91.9667 97.4049 92.3674 97.3708C92.5466 97.3556 92.6855 97.3881 92.7842 97.4683C92.8193 97.4949 92.8378 97.5196 92.8397 97.5424L92.8422 97.5717C92.8873 97.5613 92.9586 97.552 93.0564 97.5437ZM92.618 98.2355L92.5838 98.2384C92.4698 98.2481 92.4057 98.1698 92.3916 98.0037C92.1604 98.1021 91.9228 98.2601 91.6788 98.4776C91.4348 98.6952 91.2215 98.9463 91.039 99.2309C90.6673 99.8005 90.4939 100.27 90.5186 100.638C90.5341 100.821 90.6086 100.906 90.7422 100.895C90.8758 100.884 91.067 100.779 91.316 100.581C91.5649 100.382 91.8042 100.109 92.0339 99.7616C92.2669 99.4137 92.4368 99.1155 92.5437 98.8669C92.6535 98.6147 92.7048 98.4463 92.6976 98.3616C92.6902 98.2737 92.6636 98.2316 92.618 98.2355Z" fill="#FF0000"/>
<path d="M95.0913 98.4389C95.786 97.5006 96.4037 97.0085 96.9445 96.9626C97.078 96.9512 97.1906 96.9827 97.2823 97.0569C97.3768 97.1276 97.4295 97.2265 97.4403 97.3536C97.4511 97.4806 97.378 97.7017 97.221 98.0169C97.067 98.3286 96.9222 98.5936 96.7865 98.8118C96.7139 98.923 96.6255 98.983 96.5212 98.9918C96.4202 99.0004 96.3372 98.9697 96.2722 98.8998C96.2105 98.8295 96.1753 98.7439 96.1668 98.6429C96.1477 98.4181 96.2466 98.1538 96.4637 97.8499L96.4531 97.841C96.3464 97.8599 96.0972 98.0943 95.7056 98.5443C95.3172 98.994 94.9871 99.396 94.7154 99.7505C94.4466 100.101 94.1578 100.526 93.8491 101.025C93.76 101.174 93.6796 101.251 93.6079 101.257C93.5395 101.263 93.4465 101.249 93.3289 101.217C93.2077 101.181 93.1349 101.155 93.1104 101.137C93.0827 101.12 93.0669 101.088 93.0631 101.043C93.0592 100.997 93.0678 100.944 93.0889 100.883C93.1097 100.819 93.1512 100.728 93.2135 100.611C93.2725 100.495 93.3615 100.307 93.4806 100.047C93.6029 99.7875 93.7926 99.3941 94.0497 98.867C94.3068 98.3398 94.4603 98.0217 94.5101 97.9124C94.6156 97.6869 94.7033 97.522 94.7732 97.4176C94.9041 97.2195 95.1438 97.1056 95.4923 97.076C95.5705 97.0694 95.6138 97.1149 95.6221 97.2126C95.6351 97.3658 95.5178 97.6661 95.2704 98.1137L95.0913 98.4389Z" fill="#FF0000"/>
<path d="M98.5901 98.1419C99.2847 97.2035 99.9025 96.7114 100.443 96.6655C100.577 96.6542 100.689 96.6856 100.781 96.7599C100.876 96.8306 100.928 96.9295 100.939 97.0565C100.95 97.1836 100.877 97.4047 100.72 97.7199C100.566 98.0316 100.421 98.2965 100.285 98.5147C100.213 98.6259 100.124 98.6859 100.02 98.6948C99.919 98.7033 99.836 98.6726 99.771 98.6027C99.7093 98.5325 99.6741 98.4469 99.6656 98.3459C99.6465 98.1211 99.7454 97.8568 99.9624 97.5529L99.9518 97.5439C99.8452 97.5628 99.596 97.7973 99.2044 98.2472C98.816 98.6969 98.4859 99.099 98.2141 99.4535C97.9454 99.8044 97.6566 100.229 97.3478 100.728C97.2587 100.877 97.1784 100.954 97.1067 100.96C97.0383 100.966 96.9453 100.952 96.8276 100.92C96.7065 100.884 96.6337 100.857 96.6092 100.84C96.5815 100.823 96.5657 100.791 96.5618 100.745C96.558 100.7 96.5666 100.647 96.5877 100.586C96.6085 100.522 96.65 100.431 96.7123 100.314C96.7713 100.198 96.8603 100.01 96.9794 99.7502C97.1017 99.4905 97.2914 99.097 97.5485 98.5699C97.8056 98.0428 97.9591 97.7246 98.0089 97.6154C98.1144 97.3899 98.2021 97.2249 98.272 97.1205C98.4028 96.9224 98.6425 96.8085 98.9911 96.7789C99.0693 96.7723 99.1125 96.8178 99.1208 96.9156C99.1338 97.0687 99.0166 97.369 98.7691 97.8166L98.5901 98.1419Z" fill="#FF0000"/>
<path d="M102.335 102.14C102.321 102.158 102.277 102.244 102.205 102.397C102.136 102.554 102.061 102.712 101.979 102.869C101.897 103.031 101.793 103.186 101.664 103.334C101.539 103.483 101.429 103.566 101.336 103.584C101.246 103.604 101.188 103.616 101.162 103.618C100.862 103.644 100.699 103.505 100.673 103.202C100.643 102.847 100.792 102.416 101.12 101.909C101.245 101.718 101.404 101.509 101.598 101.283C101.792 101.059 101.898 100.932 101.915 100.901C101.933 100.874 102.138 100.397 102.532 99.4708C102.248 99.8394 101.982 100.143 101.733 100.38C101.484 100.615 101.237 100.755 100.991 100.802L100.957 100.805C100.83 100.816 100.701 100.784 100.57 100.71C100.439 100.639 100.365 100.5 100.348 100.291C100.321 99.9817 100.379 99.6749 100.52 99.3709C100.57 99.2649 100.657 99.0853 100.78 98.832C100.906 98.5785 101.021 98.3341 101.126 98.0988C101.228 97.9097 101.331 97.691 101.435 97.4426C101.538 97.1943 101.618 97.0169 101.675 96.9104C101.731 96.8006 101.789 96.7432 101.847 96.7382C101.906 96.7333 101.984 96.7644 102.082 96.8315C102.182 96.8952 102.237 96.9775 102.245 97.0785C102.254 97.1795 102.078 97.6358 101.717 98.4473C101.356 99.2589 101.18 99.7185 101.189 99.826C101.191 99.852 101.205 99.8639 101.231 99.8617C101.319 99.8543 101.503 99.714 101.781 99.441C102.063 99.1644 102.37 98.8152 102.701 98.3933C103.072 97.9254 103.357 97.5025 103.558 97.1245C103.584 97.0764 103.604 97.0403 103.618 97.0161C103.635 96.9884 103.655 96.9539 103.678 96.9126C103.704 96.8677 103.724 96.8332 103.738 96.809C103.756 96.7845 103.775 96.7567 103.795 96.7254C103.818 96.6906 103.839 96.6643 103.857 96.6463C103.876 96.6284 103.895 96.6103 103.917 96.5921C103.95 96.5564 103.988 96.5368 104.03 96.5332C104.075 96.5294 104.143 96.5335 104.233 96.5456C104.326 96.5574 104.381 96.574 104.399 96.5954C104.421 96.6165 104.442 96.636 104.463 96.6539C104.499 96.687 104.518 96.7198 104.521 96.7524C104.523 96.7817 104.514 96.8235 104.492 96.8779C104.47 96.929 104.341 97.1992 104.103 97.6885C103.406 99.1325 102.931 100.183 102.678 100.841C103.138 100.382 103.782 99.7058 104.612 98.8118C104.645 98.7795 104.68 98.7618 104.716 98.7587C104.817 98.7501 104.881 98.9006 104.907 99.2101C104.915 99.3013 104.903 99.3629 104.873 99.395C103.963 100.227 103.117 101.142 102.335 102.14Z" fill="#FF0000"/>
<path d="M111.477 96.0732L111.398 95.8437C111.387 95.7101 111.424 95.602 111.509 95.5193C111.596 95.4331 111.71 95.384 111.85 95.3721C112.124 95.3489 112.276 95.5116 112.305 95.8602C112.327 96.111 112.232 96.4685 112.022 96.9325C111.812 97.3933 111.555 97.845 111.251 98.2875C110.951 98.7265 110.624 99.1151 110.273 99.4534C109.92 99.7885 109.642 99.9647 109.436 99.9821C109.234 99.9993 109.086 99.9561 108.992 99.8525C108.898 99.7489 108.847 99.6466 108.838 99.5456C108.829 99.4414 108.826 99.3433 108.828 99.2512C108.837 98.9289 108.899 98.6168 109.014 98.315C108.705 98.8007 108.365 99.243 107.995 99.6419C107.625 100.037 107.305 100.247 107.034 100.27C106.904 100.281 106.797 100.251 106.712 100.179C106.627 100.107 106.577 99.9788 106.561 99.7931C106.545 99.6042 106.627 99.2428 106.808 98.709C106.989 98.172 107.169 97.7383 107.348 97.4082C107.277 97.4601 107.212 97.4886 107.153 97.4936C107.098 97.4983 107.033 97.4726 106.96 97.4165C106.889 97.3569 106.852 97.3092 106.849 97.2733C106.846 97.2375 106.866 97.1833 106.909 97.1107C106.952 97.0382 107.125 96.8545 107.428 96.5597C107.731 96.2617 107.943 96.1075 108.063 96.0973C108.184 96.0871 108.3 96.1002 108.411 96.1367C108.526 96.1729 108.586 96.2317 108.593 96.3131C108.6 96.3913 108.413 96.8748 108.032 97.7635C107.652 98.6522 107.464 99.1324 107.471 99.204C107.471 99.2138 107.475 99.2184 107.482 99.2179C107.55 99.2121 107.861 98.8346 108.414 98.0854C108.971 97.336 109.406 96.7216 109.719 96.2421C109.761 96.1565 109.831 96.1096 109.929 96.1013L109.973 96.1025L110.237 96.0259C110.28 96.0223 110.322 96.0351 110.364 96.0644C110.409 96.0934 110.433 96.1209 110.435 96.1469C110.437 96.173 110.388 96.2953 110.289 96.5137C110.192 96.7319 110.039 97.142 109.827 97.744C109.616 98.346 109.52 98.7643 109.54 98.9988C109.545 99.0575 109.569 99.085 109.611 99.0814C109.735 99.0709 109.973 98.8259 110.326 98.3464C110.682 97.8633 110.967 97.4061 111.179 96.9746C111.392 96.5431 111.491 96.2426 111.477 96.0732Z" fill="#FF0000"/>
<path d="M115.301 95.7239C115.319 95.939 115.247 96.1354 115.085 96.3132C114.926 96.4907 114.736 96.5889 114.515 96.6077C114.443 96.6138 114.394 96.6015 114.369 96.5709C114.343 96.537 114.328 96.4924 114.323 96.437C114.318 96.3816 114.32 96.3273 114.329 96.2741C114.215 96.3231 114.09 96.3944 113.953 96.488C113.817 96.5817 113.651 96.7171 113.456 96.8945C113.261 97.0718 113.167 97.1995 113.174 97.2777C113.176 97.3038 113.215 97.3136 113.29 97.3073C113.368 97.3006 113.484 97.2645 113.64 97.1988C113.795 97.1299 113.903 97.0928 113.965 97.0875C114.03 97.082 114.073 97.0817 114.093 97.0865C114.137 97.1057 114.187 97.1523 114.242 97.2264C114.298 97.2972 114.327 97.3554 114.331 97.401C114.335 97.4433 114.297 97.5039 114.219 97.5828C114.14 97.6616 114.048 97.7252 113.944 97.7734C113.84 97.8184 113.771 97.8521 113.736 97.8747C113.082 98.3175 112.76 98.6106 112.772 98.7539C112.794 99.008 113.021 99.1167 113.455 99.0799C113.732 99.0564 114.003 98.9447 114.268 98.745C114.493 98.575 114.694 98.4054 114.87 98.2362C115.048 98.0636 115.161 97.9572 115.207 97.9172C115.256 97.877 115.293 97.8557 115.319 97.8535C115.404 97.8463 115.454 97.9372 115.47 98.1262C115.487 98.3151 115.486 98.4415 115.468 98.5053C115.45 98.5659 115.391 98.6447 115.291 98.7418C114.642 99.3679 114.007 99.7073 113.385 99.7601C113.052 99.7883 112.783 99.7653 112.576 99.6909C112.197 99.5557 111.993 99.3171 111.964 98.9751C111.926 98.5255 112.208 98.1587 112.811 97.8745C112.683 97.8297 112.597 97.7664 112.554 97.6847C112.51 97.5998 112.481 97.4629 112.465 97.274C112.448 97.0817 112.519 96.8723 112.677 96.6456C112.838 96.4154 113.041 96.2209 113.287 96.0623C113.834 95.7041 114.333 95.5059 114.782 95.4678C114.89 95.4586 115.001 95.4754 115.116 95.5182C115.231 95.5609 115.293 95.6295 115.301 95.7239Z" fill="#FF0000"/>
<path d="M117.656 92.6201C117.829 92.6055 117.958 92.6421 118.044 92.7299C118.134 92.8175 118.185 92.9378 118.198 93.0909C118.211 93.244 118.168 93.3986 118.07 93.5546C117.975 93.7103 117.825 93.8789 117.621 94.0603C117.419 94.2382 117.266 94.3316 117.162 94.3404C117.058 94.3493 116.983 94.3359 116.937 94.3004C116.895 94.2647 116.862 94.2445 116.839 94.2399C116.815 94.2353 116.801 94.2086 116.797 94.1597C116.793 94.1076 116.803 94.0707 116.827 94.0489C116.852 94.0272 116.91 93.9369 117.001 93.7782C117.096 93.616 117.151 93.5096 117.166 93.4591C117.11 93.4146 117.077 93.3387 117.068 93.2312C117.058 93.1204 117.11 92.9946 117.223 92.8538C117.339 92.7127 117.483 92.6348 117.656 92.6201Z" fill="#FF0000"/>
<path d="M118.293 96.4691C118.987 95.5307 119.605 95.0386 120.146 94.9927C120.28 94.9813 120.392 95.0128 120.484 95.087C120.578 95.1578 120.631 95.2566 120.642 95.3837C120.653 95.5108 120.579 95.7319 120.422 96.0471C120.268 96.3587 120.124 96.6237 119.988 96.8419C119.915 96.9531 119.827 97.0131 119.723 97.0219C119.622 97.0305 119.539 96.9998 119.474 96.9299C119.412 96.8597 119.377 96.774 119.368 96.6731C119.349 96.4483 119.448 96.1839 119.665 95.8801L119.655 95.8711C119.548 95.89 119.299 96.1244 118.907 96.5744C118.519 97.0241 118.189 97.4262 117.917 97.7806C117.648 98.1316 117.359 98.5564 117.051 99.0551C116.961 99.2038 116.881 99.2811 116.809 99.2872C116.741 99.293 116.648 99.2796 116.53 99.2469C116.409 99.2113 116.336 99.1847 116.312 99.167C116.284 99.1497 116.268 99.1182 116.265 99.0726C116.261 99.027 116.269 98.9738 116.29 98.9129C116.311 98.8488 116.353 98.7584 116.415 98.6415C116.474 98.5249 116.563 98.3369 116.682 98.0774C116.804 97.8177 116.994 97.4242 117.251 96.8971C117.508 96.37 117.662 96.0518 117.712 95.9426C117.817 95.717 117.905 95.5521 117.975 95.4477C118.106 95.2496 118.345 95.1357 118.694 95.1061C118.772 95.0995 118.815 95.145 118.824 95.2428C118.837 95.3959 118.719 95.6962 118.472 96.1438L118.293 96.4691Z" fill="#FF0000"/>
<path d="M123.471 95.0303C123.49 95.2453 123.418 95.4417 123.256 95.6195C123.097 95.7971 122.907 95.8952 122.685 95.914C122.613 95.9201 122.565 95.9078 122.539 95.8772C122.513 95.8433 122.498 95.7987 122.493 95.7433C122.489 95.6879 122.491 95.6336 122.499 95.5804C122.385 95.6294 122.26 95.7007 122.124 95.7944C121.987 95.888 121.822 96.0234 121.627 96.2008C121.432 96.3781 121.338 96.5059 121.344 96.584C121.346 96.6101 121.385 96.62 121.46 96.6136C121.538 96.607 121.655 96.5708 121.81 96.5051C121.965 96.4362 122.073 96.3991 122.135 96.3938C122.2 96.3883 122.243 96.388 122.263 96.3928C122.307 96.412 122.357 96.4587 122.413 96.5327C122.468 96.6035 122.498 96.6617 122.501 96.7073C122.505 96.7496 122.467 96.8102 122.389 96.8891C122.31 96.968 122.219 97.0315 122.115 97.0797C122.01 97.1247 121.941 97.1585 121.907 97.181C121.252 97.6238 120.931 97.9169 120.943 98.0602C120.964 98.3143 121.192 98.423 121.625 98.3862C121.902 98.3627 122.173 98.2511 122.438 98.0514C122.663 97.8813 122.864 97.7117 123.04 97.5426C123.219 97.3699 123.331 97.2635 123.377 97.2235C123.426 97.1833 123.464 97.1621 123.49 97.1598C123.574 97.1526 123.625 97.2435 123.641 97.4325C123.657 97.6214 123.656 97.7478 123.639 97.8116C123.621 97.8722 123.562 97.951 123.462 98.0481C122.813 98.6742 122.177 99.0136 121.555 99.0664C121.223 99.0946 120.953 99.0716 120.747 98.9972C120.368 98.8621 120.164 98.6235 120.135 98.2814C120.097 97.8318 120.379 97.465 120.981 97.1809C120.853 97.136 120.767 97.0727 120.724 96.9911C120.681 96.9061 120.651 96.7692 120.635 96.5803C120.619 96.3881 120.69 96.1786 120.848 95.9519C121.008 95.7217 121.212 95.5273 121.458 95.3686C122.005 95.0104 122.503 94.8123 122.952 94.7741C123.06 94.765 123.171 94.7818 123.287 94.8245C123.402 94.8672 123.463 94.9358 123.471 95.0303Z" fill="#FF0000"/>
<path d="M66.7561 34.2484C67.6612 34.5257 68.3546 34.9929 68.8364 35.6498C69.3181 36.2922 69.559 37.0878 69.559 38.0367C69.559 38.8834 69.3327 39.6279 68.8802 40.2703C68.4422 40.898 67.8072 41.3871 66.9751 41.7374C66.1576 42.0878 65.1941 42.263 64.0846 42.263H56.3984V26.825H63.8656C65.486 26.825 66.7707 27.19 67.7196 27.9199C68.6831 28.6352 69.1649 29.606 69.1649 30.8323C69.1649 31.6206 68.9532 32.3214 68.5298 32.9345C68.1065 33.533 67.5152 33.971 66.7561 34.2484ZM60.3181 32.8907H63.1868C63.9459 32.8907 64.5006 32.7739 64.851 32.5403C65.2014 32.3068 65.3765 31.9345 65.3765 31.4236C65.3765 30.8834 65.2014 30.4892 64.851 30.2411C64.5006 29.9929 63.9459 29.8688 63.1868 29.8688H60.3181V32.8907ZM63.5809 39.2192C64.3838 39.2192 64.9532 39.0951 65.2889 38.8469C65.6393 38.5841 65.8145 38.1608 65.8145 37.5768C65.8145 36.9929 65.6393 36.5768 65.2889 36.3287C64.9532 36.0659 64.3838 35.9345 63.5809 35.9345H60.3181V39.2192H63.5809Z" fill="white"/>
<path d="M76.7921 42.4382C75.6097 42.4382 74.5659 42.2119 73.6607 41.7593C72.7702 41.2922 72.0768 40.6352 71.5805 39.7885C71.0987 38.9418 70.8578 37.9491 70.8578 36.8104C70.8578 35.6717 71.0987 34.6863 71.5805 33.8542C72.0768 33.0075 72.7702 32.3579 73.6607 31.9053C74.5513 31.4528 75.5951 31.2265 76.7921 31.2265C77.9892 31.2265 79.033 31.4528 79.9235 31.9053C80.814 32.3579 81.5002 33.0075 81.9819 33.8542C82.4783 34.6863 82.7264 35.6717 82.7264 36.8104C82.7264 37.9491 82.4783 38.9418 81.9819 39.7885C81.5002 40.6352 80.814 41.2922 79.9235 41.7593C79.033 42.2119 77.9892 42.4382 76.7921 42.4382ZM76.7921 39.5257C78.179 39.5257 78.8724 38.6206 78.8724 36.8104C78.8724 35.0002 78.179 34.0951 76.7921 34.0951C75.4053 34.0951 74.7118 35.0002 74.7118 36.8104C74.7118 38.6206 75.4053 39.5257 76.7921 39.5257Z" fill="white"/>
<path d="M89.9223 42.4382C88.7398 42.4382 87.696 42.2119 86.7909 41.7593C85.9004 41.2922 85.2069 40.6352 84.7106 39.7885C84.2288 38.9418 83.988 37.9491 83.988 36.8104C83.988 35.6717 84.2288 34.6863 84.7106 33.8542C85.2069 33.0075 85.9004 32.3579 86.7909 31.9053C87.6814 31.4528 88.7252 31.2265 89.9223 31.2265C91.1193 31.2265 92.1631 31.4528 93.0537 31.9053C93.9442 32.3579 94.6303 33.0075 95.112 33.8542C95.6084 34.6863 95.8566 35.6717 95.8566 36.8104C95.8566 37.9491 95.6084 38.9418 95.112 39.7885C94.6303 40.6352 93.9442 41.2922 93.0537 41.7593C92.1631 42.2119 91.1193 42.4382 89.9223 42.4382ZM89.9223 39.5257C91.3091 39.5257 92.0026 38.6206 92.0026 36.8104C92.0026 35.0002 91.3091 34.0951 89.9223 34.0951C88.5354 34.0951 87.842 35.0002 87.842 36.8104C87.842 38.6206 88.5354 39.5257 89.9223 39.5257Z" fill="white"/>
<path d="M109.841 42.263H105.133L101.52 37.6863V42.263H97.6217V26.825H101.52V35.9126L105.067 31.5111H109.687L105.483 36.6352L109.841 42.263Z" fill="white"/>
<path d="M120.028 42.4601C118.875 42.4601 117.736 42.3068 116.612 42.0002C115.488 41.6936 114.575 41.2849 113.875 40.7739L115.123 37.9272C115.867 38.3944 116.663 38.752 117.51 39.0002C118.356 39.2484 119.21 39.3725 120.072 39.3725C120.948 39.3725 121.612 39.2557 122.064 39.0221C122.531 38.7739 122.765 38.4309 122.765 37.9929C122.765 37.5987 122.553 37.2776 122.13 37.0294C121.721 36.7812 120.933 36.533 119.765 36.2849C118.32 35.9783 117.188 35.6133 116.371 35.19C115.553 34.7666 114.977 34.2703 114.641 33.7009C114.32 33.1316 114.159 32.4309 114.159 31.5987C114.159 30.6498 114.422 29.8031 114.948 29.0586C115.488 28.2995 116.239 27.7082 117.203 27.2849C118.181 26.8469 119.298 26.6279 120.553 26.6279C121.663 26.6279 122.736 26.7885 123.772 27.1097C124.823 27.4163 125.641 27.8177 126.225 28.3141L124.999 31.1608C123.597 30.1973 122.123 29.7155 120.575 29.7155C119.831 29.7155 119.232 29.8615 118.78 30.1535C118.327 30.4309 118.101 30.8031 118.101 31.2703C118.101 31.5476 118.181 31.7739 118.342 31.9491C118.502 32.1243 118.802 32.2995 119.239 32.4746C119.677 32.6352 120.327 32.8031 121.188 32.9783C122.59 33.2849 123.692 33.6571 124.495 34.0951C125.298 34.5184 125.867 35.0148 126.203 35.5841C126.539 36.1535 126.707 36.8323 126.707 37.6206C126.707 39.1389 126.123 40.3287 124.955 41.19C123.787 42.0367 122.145 42.4601 120.028 42.4601Z" fill="white"/>
<path d="M135.971 31.2265C137.255 31.2265 138.212 31.6133 138.839 32.3871C139.467 33.1462 139.781 34.3068 139.781 35.8688V42.263H135.883V36.044C135.883 35.4017 135.766 34.9345 135.533 34.6425C135.314 34.3506 134.978 34.2046 134.526 34.2046C133.942 34.2046 133.474 34.3944 133.124 34.7739C132.788 35.1389 132.62 35.6352 132.62 36.263V42.263H128.723V26.825H132.62V32.7812C133.015 32.2703 133.496 31.8834 134.066 31.6206C134.635 31.3579 135.27 31.2265 135.971 31.2265Z" fill="white"/>
<path d="M147.412 42.4382C146.229 42.4382 145.185 42.2119 144.28 41.7593C143.39 41.2922 142.696 40.6352 142.2 39.7885C141.718 38.9418 141.477 37.9491 141.477 36.8104C141.477 35.6717 141.718 34.6863 142.2 33.8542C142.696 33.0075 143.39 32.3579 144.28 31.9053C145.171 31.4528 146.215 31.2265 147.412 31.2265C148.609 31.2265 149.653 31.4528 150.543 31.9053C151.434 32.3579 152.12 33.0075 152.601 33.8542C153.098 34.6863 153.346 35.6717 153.346 36.8104C153.346 37.9491 153.098 38.9418 152.601 39.7885C152.12 40.6352 151.434 41.2922 150.543 41.7593C149.653 42.2119 148.609 42.4382 147.412 42.4382ZM147.412 39.5257C148.799 39.5257 149.492 38.6206 149.492 36.8104C149.492 35.0002 148.799 34.0951 147.412 34.0951C146.025 34.0951 145.331 35.0002 145.331 36.8104C145.331 38.6206 146.025 39.5257 147.412 39.5257Z" fill="white"/>
<path d="M162.25 31.2265C163.17 31.2265 163.987 31.4673 164.702 31.9491C165.432 32.4163 165.994 33.0805 166.389 33.9418C166.797 34.8031 167.002 35.7885 167.002 36.898C167.002 38.0075 166.797 38.9856 166.389 39.8323C165.994 40.6644 165.44 41.3068 164.724 41.7593C164.009 42.2119 163.184 42.4382 162.25 42.4382C161.564 42.4382 160.929 42.2995 160.345 42.0221C159.775 41.7447 159.33 41.3725 159.009 40.9053V46.2046H155.111V31.4892H158.943V32.8688C159.25 32.3579 159.695 31.9564 160.279 31.6644C160.878 31.3725 161.535 31.2265 162.25 31.2265ZM161.067 39.5257C161.739 39.5257 162.25 39.2995 162.6 38.8469C162.965 38.3944 163.148 37.7447 163.148 36.898C163.148 36.0075 162.965 35.3287 162.6 34.8615C162.235 34.3798 161.717 34.1389 161.045 34.1389C160.374 34.1389 159.856 34.3725 159.491 34.8396C159.126 35.3068 158.943 35.9783 158.943 36.8542C158.943 37.7155 159.126 38.3798 159.491 38.8469C159.856 39.2995 160.381 39.5257 161.067 39.5257Z" fill="white"/>
<path d="M38.1877 34.5994V28.3421H35.7734V27.6523H41.4296V28.3421H39.0056V34.5994H38.1877Z" fill="white"/>
<path d="M44.6978 29.6823C45.8474 29.6823 46.4222 30.3162 46.4222 31.5841V34.5994H45.6241V31.6334C45.6241 31.1867 45.5354 30.8615 45.358 30.6578C45.1872 30.4542 44.9113 30.3523 44.5303 30.3523C44.0901 30.3523 43.7387 30.487 43.4759 30.7564C43.2131 31.0257 43.0817 31.3903 43.0817 31.8502V34.5994H42.2836V27.6523H43.0817V30.5691C43.2394 30.2801 43.4562 30.06 43.7321 29.9089C44.0146 29.7578 44.3365 29.6823 44.6978 29.6823Z" fill="white"/>
<path d="M51.9046 32.3231H48.3966C48.4229 32.8815 48.574 33.3053 48.8499 33.5943C49.1258 33.8768 49.5167 34.018 50.0225 34.018C50.5809 34.018 51.0933 33.8275 51.5597 33.4465L51.8258 34.0279C51.6156 34.225 51.3462 34.3826 51.0178 34.5009C50.6893 34.6126 50.3542 34.6684 50.0126 34.6684C49.2637 34.6684 48.6725 34.4483 48.2389 34.0082C47.8119 33.568 47.5984 32.9604 47.5984 32.1852C47.5984 31.6925 47.6937 31.2589 47.8842 30.8845C48.0747 30.5034 48.3407 30.2078 48.6824 29.9976C49.0305 29.7874 49.4247 29.6823 49.8648 29.6823C50.5021 29.6823 51.0013 29.8925 51.3626 30.3129C51.724 30.7268 51.9046 31.2983 51.9046 32.0275V32.3231ZM49.8747 30.3031C49.4542 30.3031 49.1159 30.4345 48.8597 30.6972C48.6101 30.96 48.4623 31.3312 48.4163 31.8107H51.205C51.1918 31.3246 51.0703 30.9534 50.8404 30.6972C50.6105 30.4345 50.2886 30.3031 49.8747 30.3031Z" fill="white"/>
<path d="M231.125 40.2385H228.006C228.03 40.7348 228.164 41.1115 228.409 41.3684C228.655 41.6195 229.002 41.7451 229.452 41.7451C229.948 41.7451 230.403 41.5757 230.818 41.237L231.055 41.7538C230.868 41.929 230.628 42.0692 230.336 42.1743C230.044 42.2735 229.747 42.3232 229.443 42.3232C228.777 42.3232 228.252 42.1275 227.866 41.7363C227.487 41.3451 227.297 40.8049 227.297 40.1159C227.297 39.6779 227.382 39.2925 227.551 38.9597C227.72 38.621 227.957 38.3582 228.26 38.1713C228.57 37.9845 228.92 37.8911 229.311 37.8911C229.878 37.8911 230.322 38.0779 230.643 38.4516C230.964 38.8195 231.125 39.3275 231.125 39.9757V40.2385ZM229.32 38.4429C228.947 38.4429 228.646 38.5597 228.418 38.7932C228.196 39.0268 228.065 39.3567 228.024 39.783H230.503C230.491 39.3509 230.383 39.021 230.179 38.7932C229.974 38.5597 229.688 38.4429 229.32 38.4429Z" fill="white"/>
<path d="M233.615 42.3232C232.897 42.3232 232.328 42.1392 231.907 41.7713L232.144 41.2458C232.371 41.4268 232.602 41.5582 232.836 41.64C233.075 41.7159 233.344 41.7538 233.641 41.7538C233.957 41.7538 234.196 41.7013 234.36 41.5962C234.529 41.4852 234.614 41.3275 234.614 41.1232C234.614 40.9538 234.558 40.8195 234.447 40.7202C234.336 40.621 234.152 40.5421 233.896 40.4838L233.177 40.3173C232.815 40.2356 232.538 40.0954 232.345 39.8969C232.152 39.6984 232.056 39.4531 232.056 39.1611C232.056 38.7816 232.205 38.475 232.503 38.2414C232.801 38.0078 233.198 37.8911 233.694 37.8911C233.992 37.8911 234.275 37.9407 234.544 38.04C234.812 38.1334 235.037 38.2706 235.218 38.4516L234.982 38.9684C234.59 38.6356 234.161 38.4692 233.694 38.4692C233.396 38.4692 233.163 38.5275 232.993 38.6443C232.83 38.7553 232.748 38.913 232.748 39.1173C232.748 39.2867 232.798 39.4239 232.897 39.529C233.002 39.6283 233.168 39.7042 233.396 39.7567L234.123 39.9319C234.52 40.0254 234.815 40.1684 235.008 40.3611C235.201 40.548 235.297 40.7932 235.297 41.0969C235.297 41.4706 235.145 41.7684 234.841 41.9903C234.544 42.2122 234.135 42.3232 233.615 42.3232Z" fill="white"/>
<path d="M238.21 41.7538C238.339 41.7538 238.467 41.7451 238.596 41.7275L238.56 42.2881C238.426 42.3115 238.28 42.3232 238.123 42.3232C237.609 42.3232 237.22 42.1889 236.958 41.9202C236.701 41.6516 236.572 41.2779 236.572 40.7991V38.5567H235.74V37.9962H236.572V36.6998H237.282V37.9962H238.49V38.5567H237.282V40.7465C237.282 41.4181 237.591 41.7538 238.21 41.7538Z" fill="white"/>
<path d="M239.327 41.3684H240.22V42.2619H239.327V41.3684Z" fill="white"/>
<path d="M246.25 41.6575H247.607V42.2619H244.174V41.6575H245.531V36.9801L244.445 37.6633L244.112 37.1115L245.733 36.0867H246.25V41.6575Z" fill="white"/>
<path d="M250.722 36.0166C251.47 36.0166 252.045 36.2765 252.448 36.7962C252.856 37.3159 253.061 38.0575 253.061 39.021C253.061 40.0662 252.851 40.8808 252.43 41.4648C252.01 42.0429 251.423 42.3319 250.67 42.3319C250.319 42.3319 249.975 42.2677 249.636 42.1392C249.297 42.0049 248.999 41.8151 248.743 41.5699L249.014 41.0181C249.306 41.2633 249.583 41.4443 249.846 41.5611C250.115 41.6721 250.386 41.7275 250.661 41.7275C251.192 41.7275 251.604 41.494 251.896 41.0268C252.188 40.5538 252.334 39.8881 252.334 39.0297V38.9159C252.199 39.2429 251.981 39.4998 251.677 39.6867C251.379 39.8735 251.04 39.967 250.661 39.967C250.287 39.967 249.954 39.8852 249.662 39.7217C249.37 39.5582 249.143 39.3275 248.979 39.0297C248.816 38.7319 248.734 38.3903 248.734 38.0049C248.734 37.6254 248.818 37.2838 248.988 36.9801C249.157 36.6765 249.394 36.44 249.697 36.2706C250.001 36.1013 250.343 36.0166 250.722 36.0166ZM250.766 39.3626C251.169 39.3626 251.496 39.237 251.747 38.9859C252.004 38.729 252.132 38.3991 252.132 37.9962C252.132 37.5874 252.004 37.2575 251.747 37.0064C251.496 36.7494 251.166 36.621 250.757 36.621C250.36 36.621 250.042 36.7465 249.802 36.9976C249.563 37.2487 249.443 37.5816 249.443 37.9962C249.443 38.4108 249.563 38.7436 249.802 38.9947C250.048 39.24 250.369 39.3626 250.766 39.3626Z" fill="white"/>
<path d="M256.43 38.3816C256.803 38.3816 257.136 38.4633 257.428 38.6268C257.72 38.7903 257.948 39.021 258.111 39.3188C258.275 39.6166 258.357 39.9582 258.357 40.3436C258.357 40.7232 258.272 41.0648 258.103 41.3684C257.933 41.6721 257.697 41.9086 257.393 42.0779C257.09 42.2473 256.748 42.3319 256.368 42.3319C255.621 42.3319 255.043 42.0721 254.634 41.5524C254.231 41.0327 254.03 40.2911 254.03 39.3275C254.03 38.6327 254.123 38.037 254.31 37.5407C254.503 37.0443 254.777 36.6677 255.133 36.4108C255.49 36.148 255.916 36.0166 256.412 36.0166C256.768 36.0166 257.116 36.0838 257.454 36.2181C257.793 36.3465 258.091 36.5334 258.348 36.7786L258.076 37.3305C257.784 37.0852 257.504 36.9071 257.235 36.7962C256.973 36.6794 256.704 36.621 256.43 36.621C255.898 36.621 255.484 36.8575 255.186 37.3305C254.894 37.7976 254.748 38.4604 254.748 39.3188V39.4502C254.882 39.1232 255.098 38.8633 255.396 38.6706C255.694 38.4779 256.038 38.3816 256.43 38.3816ZM256.333 41.7275C256.73 41.7275 257.049 41.602 257.288 41.3509C257.527 41.0998 257.647 40.767 257.647 40.3524C257.647 39.9436 257.525 39.6137 257.279 39.3626C257.04 39.1115 256.722 38.9859 256.325 38.9859C255.922 38.9859 255.592 39.1144 255.335 39.3713C255.084 39.6224 254.958 39.9494 254.958 40.3524C254.958 40.7611 255.084 41.094 255.335 41.3509C255.592 41.602 255.925 41.7275 256.333 41.7275Z" fill="white"/>
<path d="M262.26 39.0911C262.622 39.1962 262.899 39.3772 263.092 39.6341C263.285 39.8852 263.381 40.2035 263.381 40.5889C263.381 41.1261 263.197 41.5494 262.829 41.8589C262.467 42.1684 261.974 42.3232 261.349 42.3232C260.952 42.3232 260.569 42.256 260.202 42.1217C259.834 41.9874 259.524 41.8005 259.273 41.5611L259.545 41.0093C260.105 41.4823 260.701 41.7188 261.332 41.7188C261.77 41.7188 262.102 41.6224 262.33 41.4297C262.558 41.2312 262.672 40.9421 262.672 40.5626C262.672 39.8093 262.199 39.4327 261.253 39.4327H260.543V38.8283H261.113C261.568 38.8283 261.918 38.729 262.164 38.5305C262.409 38.3261 262.532 38.0341 262.532 37.6546C262.532 37.3217 262.432 37.0677 262.234 36.8925C262.035 36.7115 261.752 36.621 261.384 36.621C260.788 36.621 260.205 36.8575 259.632 37.3305L259.361 36.7786C259.612 36.5392 259.918 36.3524 260.28 36.2181C260.642 36.0838 261.019 36.0166 261.41 36.0166C261.971 36.0166 262.415 36.1597 262.742 36.4458C263.075 36.7261 263.241 37.1057 263.241 37.5845C263.241 37.9407 263.153 38.2531 262.978 38.5217C262.809 38.7845 262.569 38.9743 262.26 39.0911Z" fill="white"/>
<defs>
<filter id="filter0_d" x="63.2451" y="85.4033" width="79.8577" height="41.5605" filterUnits="userSpaceOnUse" color-interpolation-filters="sRGB">
<feFlood flood-opacity="0" result="BackgroundImageFix"/>
<feColorMatrix in="SourceAlpha" type="matrix" values="0 0 0 0 0 0 0 0 0 0 0 0 0 0 0 0 0 0 127 0"/>
<feOffset dy="0.25"/>
<feGaussianBlur stdDeviation="0.125"/>
<feColorMatrix type="matrix" values="0 0 0 0 0 0 0 0 0 0 0 0 0 0 0 0 0 0 0.25 0"/>
<feBlend mode="normal" in2="BackgroundImageFix" result="effect1_dropShadow"/>
<feBlend mode="normal" in="SourceGraphic" in2="effect1_dropShadow" result="shape"/>
</filter>
<clipPath id="clip0">
<rect width="72.5949" height="134.671" fill="white" transform="translate(213.718 79.4893)"/>
</clipPath>
</defs>
</svg>
