<svg width="360" height="295" viewBox="0 0 360 295" fill="none" xmlns="http://www.w3.org/2000/svg">
<path opacity="0.7" d="M323.666 277.981C323.666 277.981 0 280.535 0 283.958C21.1978 302.421 357.856 293.6 360 283.958C360 280.535 324.996 277.981 323.666 277.981Z" fill="#E9E2DF"/>
<path d="M236.327 0H122.047C114.784 0 108.896 5.85161 108.896 13.0679V271.21C108.896 278.426 114.784 284.278 122.047 284.278H236.327C243.59 284.278 249.478 278.426 249.478 271.21V13.0679C249.476 5.85161 243.588 0 236.327 0Z" fill="#2F2B27"/>
<path d="M243.537 21.9492H114.856V263.552H243.537V21.9492Z" fill="#C0A9A8"/>
<mask id="mask0" mask-type="alpha" maskUnits="userSpaceOnUse" x="114" y="21" width="130" height="243">
<path d="M243.537 21.9492H114.856V263.552H243.537V21.9492Z" fill="#433C36"/>
</mask>
<g mask="url(#mask0)">
<path d="M110.662 110.97C125.966 110.97 138.372 98.23 138.372 82.5143C138.372 66.7987 125.966 54.0586 110.662 54.0586C95.3576 54.0586 82.9512 66.7987 82.9512 82.5143C82.9512 98.23 95.3576 110.97 110.662 110.97Z" fill="white"/>
<path d="M116.297 66.1309H105.041C100.329 66.1309 92.9258 71.9682 92.9258 77.2039V78.9172H128.412V77.2039C128.41 71.9682 121.007 66.1309 116.297 66.1309Z" fill="#D67B51"/>
<path d="M92.9276 91.7602C92.9276 94.5702 96.8036 96.8496 99.3329 96.8496H122.007C124.536 96.8496 128.412 94.5702 128.412 91.7602V90.373H92.9258V91.7602H92.9276Z" fill="#D67B51"/>
<path d="M126.567 84.7832H94.7655C93.2838 84.7832 92.083 86.0167 92.083 87.5388V87.76C92.083 89.2821 93.2838 90.5156 94.7655 90.5156H126.567C128.049 90.5156 129.25 89.2821 129.25 87.76V87.5388C129.25 86.0167 128.049 84.7832 126.567 84.7832Z" fill="#FFBA17"/>
<path d="M115.704 80.8896H106.043C105.54 80.8896 105.131 81.3095 105.131 81.8269V82.1437C105.131 82.6611 105.54 83.081 106.043 83.081H115.704C116.208 83.081 116.617 82.6611 116.617 82.1437V81.8269C116.615 81.3095 116.208 80.8896 115.704 80.8896Z" fill="#E0313A"/>
<path d="M128.091 80.8896H118.43C117.926 80.8896 117.518 81.3095 117.518 81.8269V82.1437C117.518 82.6611 117.926 83.081 118.43 83.081H128.091C128.594 83.081 129.003 82.6611 129.003 82.1437V81.8269C129.001 81.3095 128.594 80.8896 128.091 80.8896Z" fill="#E0313A"/>
<path opacity="0.3" d="M120.935 70.6427C120.201 70.3615 119.922 70.5733 119.813 70.9276C119.703 71.2819 119.804 71.6399 120.537 71.9211C121.271 72.2023 122.358 72.2997 122.468 71.9473C122.577 71.5931 121.667 70.9238 120.935 70.6427Z" fill="white"/>
<path opacity="0.3" d="M114.506 73.0255C113.946 73.5672 114.001 73.9646 114.247 74.2814C114.494 74.5982 114.84 74.7126 115.402 74.1708C115.963 73.6291 116.526 72.6356 116.28 72.3188C116.03 72.002 115.067 72.4837 114.506 73.0255Z" fill="white"/>
<path opacity="0.3" d="M115.667 67.9363C115.019 67.5332 114.702 67.7244 114.517 68.09C114.333 68.4555 114.353 68.8567 115.001 69.2597C115.649 69.6627 116.682 69.9158 116.866 69.5502C117.049 69.1847 116.315 68.3393 115.667 67.9363Z" fill="white"/>
<path opacity="0.3" d="M124.357 73.5843C123.64 73.2544 122.561 73.0838 122.432 73.4287C122.302 73.7737 123.175 74.5029 123.89 74.8328C124.607 75.1627 124.897 74.9696 125.025 74.6247C125.155 74.2798 125.074 73.9143 124.357 73.5843Z" fill="white"/>
<path d="M180.826 110.97C196.13 110.97 208.536 98.23 208.536 82.5143C208.536 66.7987 196.13 54.0586 180.826 54.0586C165.522 54.0586 153.115 66.7987 153.115 82.5143C153.115 98.23 165.522 110.97 180.826 110.97Z" fill="white"/>
<g clip-path="url(#clip0)">
<path d="M192.616 64.5374L187.131 62.6387C187.131 65.863 182.145 66.9377 181.112 67.0452C180.079 66.9736 175.235 66.472 175.093 62.6387L169.607 64.5374C168.147 65.0032 166.936 65.9704 166.224 67.3318L160.489 78.4019L166.758 83.4891L169.928 80.4081C169.928 80.4081 169.928 87.1433 168.432 102.763H193.827C192.331 87.1433 192.331 80.4081 192.331 80.4081L195.501 83.4891L202.055 78.4019L196.036 67.3318C195.288 66.0063 194.077 65.0032 192.616 64.5374Z" fill="#D8E7F0"/>
<path d="M194.326 82.3049L195.608 83.4872L201.877 78.3999L201.165 76.752L194.326 82.3049Z" fill="#2F2B27"/>
<path d="M160.489 78.3989L166.758 83.4862L168.04 82.3039L161.202 76.751L160.489 78.3989Z" fill="#2F2B27"/>
<path d="M181.148 66.3979C176.482 66.0038 175.983 62.3496 175.983 62.3496L175.093 62.6362C175.093 66.7562 180.008 67.3652 181.041 67.4368C181.041 67.4368 181.077 67.4368 181.148 67.4368C181.219 67.4368 181.255 67.4368 181.255 67.4368C182.288 67.3652 187.203 66.7562 187.203 62.6362L186.312 62.3496C186.312 62.3496 185.814 66.0038 181.148 66.3979Z" fill="#2F2B27"/>
</g>
<path d="M249.612 110.97C264.916 110.97 277.322 98.23 277.322 82.5143C277.322 66.7987 264.916 54.0586 249.612 54.0586C234.308 54.0586 221.901 66.7987 221.901 82.5143C221.901 98.23 234.308 110.97 249.612 110.97Z" fill="white"/>
<path d="M234.83 69.7897C235.706 72.051 237.039 75.2561 238.739 78.6371C239.251 79.6568 243.496 89.6699 244.166 91.4114C246.056 96.314 247.78 101.131 248.81 104.068C249.295 105.447 249.912 105.073 250.437 104.302C250.517 104.184 250.595 104.056 250.671 103.924C251.029 103.294 251.321 102.566 251.455 102.266C251.837 101.414 252.23 100.513 252.629 99.577C253.219 98.1934 258.871 83.8756 259.757 81.5422C260.269 80.1966 260.762 78.893 261.233 77.6554C262.445 74.4603 263.5 71.7031 264.281 69.7977C259.798 67.4483 254.807 66.1367 249.548 66.1367C244.294 66.1347 239.309 67.4443 234.83 69.7897Z" fill="#FFBA17"/>
<path d="M264.667 66.1642C260.064 63.9948 254.941 62.7832 249.543 62.7832C244.202 62.7832 239.131 63.9689 234.563 66.0962C234.035 66.3422 233.782 66.966 233.983 67.5238C234.181 68.0796 234.467 68.8534 234.829 69.7891C239.31 67.4458 244.293 66.1342 249.549 66.1342C254.808 66.1342 259.797 67.4478 264.282 69.7951C264.652 68.8934 264.959 68.1836 265.191 67.7078C265.473 67.1359 265.236 66.4321 264.667 66.1642Z" fill="#D67B51"/>
<path opacity="0.5" d="M242.444 69.1213C237.002 70.9168 236.418 73.512 240.113 76.1072C240.113 76.1072 244.389 77.9027 247.305 74.1118C248.34 72.7622 247.889 67.3238 242.444 69.1213Z" fill="#FFFCEE"/>
<path d="M247.686 78.5068C245.356 77.6671 244.147 78.009 243.438 79.6065C242.286 82.2037 244.419 83.9132 244.509 83.9692C245.979 84.8709 247.88 84.3771 248.756 82.8695C249.634 81.36 249.299 79.0886 247.686 78.5068Z" fill="#E0313A"/>
</g>
<path d="M191.451 9.41016H155.521C154.284 9.41016 153.279 10.4062 153.279 11.6365V11.7806C153.279 13.011 154.284 14.007 155.521 14.007H191.451C192.688 14.007 193.692 13.011 193.692 11.7806V11.6365C193.692 10.4062 192.688 9.41016 191.451 9.41016Z" fill="#E5E5E5"/>
<path d="M202.71 9.18164C201.392 9.18164 200.326 10.3119 200.326 11.7059C200.326 13.0998 201.392 14.2301 202.71 14.2301C204.025 14.2301 205.094 13.0998 205.094 11.7059C205.094 10.3119 204.025 9.18164 202.71 9.18164Z" fill="#E5E5E5"/>
<path d="M243.556 149.881H114.647V263.986H243.556V149.881Z" fill="#E9E2DF"/>
<mask id="mask1" mask-type="alpha" maskUnits="userSpaceOnUse" x="114" y="149" width="130" height="115">
<path d="M243.556 149.881H114.647V263.986H243.556V149.881Z" fill="#C2896D"/>
</mask>
<g mask="url(#mask1)">
<g opacity="0.7">
<path opacity="0.7" d="M244.992 136.628L239.811 134.353L223.224 174.242L207.428 139.364L202.933 141.515L220.605 180.538L203.944 220.606L154.744 220.325L124.578 143.488L118.728 145.914L147.925 220.286L108.623 220.064L108.585 227.243L171.749 227.602L230.299 272.992L233.554 268.556L180.797 227.653L261.954 228.117L261.992 220.935L210.056 220.64L244.992 136.628Z" fill="white"/>
<path opacity="0.7" d="M89.4542 225.657L87.2197 230.463L168.495 270.412L170.73 265.606L89.4542 225.657Z" fill="white"/>
</g>
</g>
<g filter="url(#filter0_d)">
<path d="M158.005 197.518C158.005 194.449 158.561 191.557 159.653 188.916C160.741 186.28 162.261 183.967 164.165 182.034C166.065 180.105 168.317 178.576 170.848 177.479C173.404 176.377 176.159 175.816 179.042 175.816C181.93 175.816 184.675 176.339 187.216 177.374C189.767 178.414 192.028 179.911 193.932 181.829C195.828 183.739 197.343 186.052 198.435 188.707C199.528 191.357 200.079 194.326 200.079 197.522C200.079 213.286 179.042 223.978 179.042 223.978C179.037 223.973 158.005 213.282 158.005 197.518ZM179.037 190.692C178.087 190.692 177.223 190.844 176.396 191.158C175.598 191.462 174.924 191.88 174.34 192.445C173.727 193.034 173.252 193.732 172.891 194.582C172.53 195.428 172.345 196.416 172.345 197.513C172.345 198.534 172.52 199.441 172.891 200.287C173.257 201.137 173.736 201.84 174.359 202.448C174.966 203.041 175.665 203.497 176.501 203.844C177.299 204.177 178.13 204.338 179.047 204.338C179.992 204.338 180.847 204.181 181.664 203.868C182.485 203.55 183.184 203.117 183.792 202.543C184.404 201.968 184.884 201.27 185.255 200.415C185.625 199.56 185.815 198.586 185.815 197.513C185.815 196.425 185.63 195.442 185.259 194.601C184.884 193.751 184.4 193.048 183.777 192.454C183.179 191.884 182.495 191.457 181.687 191.153C180.851 190.844 179.987 190.692 179.037 190.692Z" fill="white"/>
</g>
<path d="M171.408 205.519C169.831 203.823 169.034 201.607 169.034 198.873C169.034 195.705 169.935 193.178 171.719 191.274C173.521 189.37 176.033 188.418 179.273 188.418C182.374 188.418 184.713 189.18 186.289 190.685C187.866 192.191 188.662 194.424 188.662 197.384C188.662 200.621 187.744 203.2 185.925 205.138C184.089 207.077 181.594 208.046 178.424 208.046C175.323 208.046 172.984 207.198 171.408 205.519Z" fill="#2F2B27"/>
<path d="M212.816 133.691L211.422 183.138H251.319L249.923 133.691H212.816Z" fill="#E9C68F"/>
<path d="M234.757 125.215H227.982C225.678 125.215 223.803 127.451 223.803 130.199V137.184C223.803 139.932 225.678 142.168 227.982 142.168H234.757C237.061 142.168 238.936 139.932 238.936 137.184V130.199C238.936 127.451 237.061 125.215 234.757 125.215ZM236.06 136.689C236.06 137.863 235.259 138.817 234.275 138.817H228.461C227.477 138.817 226.675 137.863 226.675 136.689V130.694C226.675 129.519 227.477 128.565 228.461 128.565H234.275C235.259 128.565 236.06 129.519 236.06 130.694V136.689Z" fill="#E9C68F"/>
<path d="M133.949 106.542L133.866 106.578C133.866 106.578 133.806 106.605 133.69 106.657C133.571 106.71 133.393 106.791 133.163 106.893C132.697 107.101 132.018 107.411 131.154 107.811C130.292 108.209 129.243 108.693 128.041 109.247C127.438 109.518 126.807 109.82 126.135 110.13C125.463 110.436 124.758 110.758 124.022 111.092C122.554 111.759 120.966 112.476 119.299 113.197C117.632 113.931 115.883 114.632 114.121 115.303C113.689 115.452 113.254 115.601 112.815 115.75L112.49 115.865L112.231 115.936C112.06 115.985 111.889 116.036 111.718 116.085L111.462 116.163C111.416 116.177 111.383 116.19 111.326 116.204L111.132 116.248C110.873 116.304 110.612 116.363 110.353 116.421L109.961 116.509L109.864 116.531C109.857 116.534 109.854 116.534 109.861 116.531H109.864C109.918 116.519 110.284 116.431 110.092 116.475H110.082H110.061L109.978 116.48C109.876 116.495 109.738 116.492 109.612 116.5C109.068 116.507 108.358 116.443 107.584 116.302C106.806 116.155 105.96 115.945 105.094 115.677C103.36 115.133 101.535 114.415 99.7468 113.592C97.9565 112.769 96.1901 111.856 94.4806 110.939C92.7711 110.018 91.1328 109.056 89.5776 108.134C88.0224 107.213 86.5622 106.303 85.2208 105.448C83.8745 104.604 82.647 103.805 81.5691 103.09C80.4864 102.38 79.5462 101.752 78.7793 101.23C78.0171 100.712 77.4188 100.305 77.0104 100.026C76.6258 99.7626 76.4192 99.621 76.4192 99.621L76.3076 99.5453C73.6056 97.6973 69.9397 98.3418 67.9951 101.056C65.9936 103.854 66.5777 107.789 69.2986 109.845C69.2986 109.845 69.5384 110.028 69.9919 110.37C70.4312 110.694 71.0675 111.163 71.8843 111.744C72.7034 112.32 73.6982 113.011 74.8521 113.785C76.0108 114.552 77.3238 115.404 78.7745 116.312C80.2323 117.208 81.8255 118.16 83.5421 119.131C85.2564 120.105 87.106 121.074 89.0553 122.044C91.0022 123.018 93.0773 123.943 95.2617 124.805C97.4508 125.659 99.7468 126.467 102.245 127.046C103.493 127.336 104.792 127.58 106.172 127.722C107.556 127.854 109.026 127.898 110.623 127.71C111.032 127.651 111.428 127.602 111.851 127.507L112.162 127.441L112.24 127.424L112.556 127.348L112.651 127.319L113.033 127.199C113.287 127.119 113.542 127.038 113.796 126.958L113.986 126.897L114.228 126.809L114.722 126.623C115.049 126.499 115.374 126.372 115.697 126.247L116.182 126.057L116.581 125.874C117.108 125.627 117.632 125.383 118.152 125.142C119.138 124.636 120.125 124.141 121.028 123.621C121.484 123.362 121.939 123.115 122.379 122.857C122.813 122.598 123.241 122.339 123.663 122.088C124.516 121.59 125.304 121.065 126.085 120.576C126.859 120.081 127.59 119.585 128.298 119.117C129.694 118.152 130.964 117.266 132.073 116.453C133.177 115.633 134.136 114.923 134.91 114.307C135.297 114.002 135.644 113.729 135.945 113.492C136.245 113.248 136.499 113.04 136.703 112.874C137.118 112.528 137.339 112.345 137.339 112.345C138.465 111.405 138.904 109.779 138.303 108.339C137.596 106.603 135.639 105.797 133.949 106.542Z" fill="#C2896D"/>
<path opacity="0.06" d="M96.954 119.298C94.4016 118.297 92.9224 116 93.554 113.144C93.5611 113.115 93.5682 113.085 93.5777 113.054C93.224 112.182 93.1147 111.213 93.2572 110.256C91.9917 109.548 90.7666 108.828 89.5913 108.13C88.0361 107.209 86.5759 106.299 85.2344 105.444C83.8882 104.6 82.6607 103.801 81.5827 103.086C80.5001 102.376 79.5598 101.748 78.7929 101.226C78.0308 100.708 77.4324 100.301 77.0241 100.022C76.6394 99.7587 76.4329 99.6171 76.4329 99.6171L76.3213 99.5414C73.6193 97.6934 69.9534 98.3379 68.0088 101.053C66.0073 103.85 66.5914 107.785 69.3123 109.841C69.3123 109.841 69.5521 110.024 70.0056 110.366C70.4449 110.69 71.0812 111.159 71.8979 111.74C72.7171 112.316 73.7119 113.007 74.8658 113.781C76.0245 114.548 77.3375 115.4 78.7882 116.308C80.246 117.204 81.8392 118.156 83.5558 119.127C85.27 120.101 87.1196 121.071 89.0689 122.04C91.0159 123.014 93.091 123.939 95.2754 124.801C97.4645 125.655 99.7604 126.463 102.258 127.042C103.507 127.332 104.806 127.576 106.185 127.718C107.57 127.85 109.039 127.894 110.637 127.706C111.046 127.647 111.442 127.598 111.865 127.503L112.176 127.437L112.254 127.42L112.57 127.344L112.665 127.315L113.047 127.196C113.301 127.115 113.555 127.034 113.809 126.954L113.999 126.893L114.241 126.805L114.735 126.619C115.063 126.495 115.388 126.368 115.711 126.244L116.195 126.053L116.594 125.87C117.121 125.623 117.646 125.379 118.166 125.138C119.151 124.632 120.139 124.137 121.041 123.617C121.497 123.358 121.953 123.111 122.392 122.853C122.827 122.594 123.254 122.335 123.677 122.084C124.529 121.586 125.317 121.061 126.099 120.573C126.873 120.077 127.604 119.581 128.311 119.113C129.708 118.148 130.978 117.262 132.087 116.449C132.616 116.056 133.112 115.688 133.571 115.343C130.125 116.525 126.545 117.392 123.102 118.368C114.647 120.775 105.464 122.635 96.954 119.298Z" fill="black"/>
<path d="M85.7036 280.65C84.0677 280.213 75.8692 277.986 73.4189 276.048L67.1175 276.163C66.5642 278.13 66.0989 280.955 66.7399 283.896L88.142 284.16C88.142 284.158 88.1776 281.311 85.7036 280.65Z" fill="#2F2B27"/>
<path d="M59.8153 280.33C58.5118 279.917 52.918 278.448 51.4673 276.607L44.9165 276.163C44.653 276.163 44.4108 276.131 44.1758 276.087C43.7294 278.045 41.9225 283.235 43.8932 283.613L61.862 283.835C61.8573 283.835 61.8905 280.986 59.8153 280.33Z" fill="#2F2B27"/>
<path d="M51.113 64.417C51.113 64.417 50.5503 80.197 51.576 83.2583C52.5993 86.3196 55.109 89.6348 60.0618 90.4843C65.0146 91.3314 66.0332 90.1963 68.7565 87.1618C72.4985 82.9922 69.3287 65.1298 69.3287 65.1298L51.113 64.417Z" fill="#C2896D"/>
<path d="M56.4228 81.9932L55.2617 95.9057L65.4618 95.0098L65.1389 82.894L56.4228 81.9932Z" fill="#C2896D"/>
<path d="M68.6045 59.3829C66.432 60.2129 59.5014 59.8394 54.2019 61.0966C48.9024 62.3539 48.1878 68.2445 49.128 74.9018C50.0682 81.5565 50.4339 83.4631 53.4374 86.8637C56.4409 90.2644 57.1983 89.2708 60.5722 88.8875C63.9461 88.5018 66.0355 80.4433 66.0355 80.4433C64.5112 80.4238 63.9437 77.6799 64.5776 75.3827C65.2116 73.0855 67.187 76.552 67.187 76.552L68.4644 76.53C68.4644 76.53 68.3718 75.5511 68.2222 73.3613C68.075 71.1716 70.0765 69.8313 70.0765 69.8313C75.0887 68.7621 70.777 58.5529 68.6045 59.3829Z" fill="#3B1820"/>
<path d="M59.6427 174.613C59.5833 178.202 61.9719 201.222 63.6719 224.326C65.5808 250.245 66.8321 276.327 66.8321 276.327L73.8126 276.673C77.9462 244.696 79.6486 168.896 79.6486 168.896C79.6486 168.896 59.7685 166.997 59.6427 174.613Z" fill="#816E68"/>
<path d="M47.1645 171.757C45.474 171.356 43.7075 170.814 42.1286 170.019C42.017 170.014 41.9054 170.011 41.7914 170.004C41.535 174.142 40.9604 172.865 41.3973 180.782C41.4092 180.994 43.0451 201.105 43.6173 221.782C44.3486 248.218 44.0541 276.61 44.0541 276.61L51.5023 276.676C56.5383 246.133 60.7883 197.243 62.7922 174.044C62.1155 173.971 61.4388 173.898 60.7622 173.827C56.2154 173.346 51.6282 172.814 47.1645 171.757Z" fill="#816E68"/>
<path opacity="0.1" d="M59.7626 173.715C55.5411 173.263 51.3005 172.736 47.1645 171.755C45.474 171.354 43.7075 170.812 42.1286 170.017C42.017 170.012 41.9054 170.009 41.7914 170.002C41.535 174.14 40.9604 172.863 41.3973 180.78C41.4092 180.992 43.0451 201.103 43.6173 221.78C44.3486 248.216 44.0541 276.608 44.0541 276.608L48.081 276.644C48.9357 272.919 49.6456 269.159 50.2677 265.385C50.7806 262.27 51.2341 259.146 51.6543 256.018C51.7089 255.616 51.7612 255.213 51.8158 254.81C51.8371 254.649 51.868 254.407 51.8822 254.295C51.9843 253.497 52.0864 252.698 52.1862 251.9C52.3666 250.455 52.5447 249.012 52.7204 247.567C53.5158 241.063 54.3705 234.577 55.3084 228.096C55.5648 226.321 55.807 224.544 56.0468 222.764C56.0515 222.73 56.0563 222.701 56.0587 222.674C56.0658 222.615 56.0753 222.547 56.0848 222.469C56.1441 222.005 56.2035 221.541 56.2628 221.075C56.3602 220.301 56.4552 219.527 56.5501 218.751C56.9561 215.414 57.3289 212.072 57.6827 208.727C58.4045 201.882 59.0384 195.029 59.6629 188.174C59.7483 187.23 60.0119 186.368 60.4274 185.636C61.2608 195.288 62.6023 209.789 63.6731 224.326C65.582 250.245 66.8333 276.327 66.8333 276.327L72.6005 276.613C72.7596 275.555 73.4339 270.832 73.4505 270.722C73.5787 269.716 76.9858 204.941 76.6154 197.078C76.2284 188.907 76.3044 180.802 77.4085 172.69C77.5937 171.325 78.4935 170.327 79.6332 169.729C79.6451 169.182 79.6522 168.894 79.6522 168.894C79.6522 168.894 61.389 167.153 59.7626 173.715Z" fill="black"/>
<path d="M36.6393 140.378C37.2898 136.929 37.9689 133.599 38.7002 130.674C36.8031 131.099 34.7374 131.104 32.5507 130.591C30.9765 130.223 29.4878 129.439 28.1677 128.372C27.2322 132.424 26.4416 136.54 25.8741 140.444C25.2758 147.484 26.0688 149.974 28.2033 150.16C29.4878 150.594 35.0865 152.189 43.6649 150.421C45.9727 149.945 44.4721 141.564 44.4721 141.564C44.4721 141.564 40.0203 140.788 36.6393 140.378Z" fill="#C2896D"/>
<path opacity="0.06" d="M44.1274 144.24C44.0016 144.225 43.8828 144.208 43.8496 144.206C43.2798 144.135 42.7123 144.069 42.1425 144.008C40.9007 143.874 39.6471 143.842 38.4148 143.639C31.7668 142.541 35.6203 133.684 38.0112 133.621C38.2367 132.605 38.4671 131.616 38.7021 130.674C36.805 131.099 34.7394 131.104 32.5526 130.591C30.9785 130.223 29.4898 129.439 28.1697 128.372C27.2342 132.424 26.4436 136.54 25.8761 140.444C25.2778 147.484 26.0708 149.974 28.2053 150.16C29.4898 150.594 35.0884 152.189 43.6668 150.421C45.0914 150.128 45.0653 146.825 44.8373 144.34C44.7162 144.323 44.2912 144.264 44.1274 144.24Z" fill="black"/>
<path d="M54.4984 92.9158L52.4541 96.5166C52.4541 96.5166 63.2762 95.4669 68.0414 95.8453L65.6007 92.6912C65.5983 92.6912 59.4702 90.2061 54.4984 92.9158Z" fill="#F26889"/>
<path opacity="0.1" d="M63.611 92.0958C61.3957 91.5807 57.7084 91.1657 54.4984 92.9161L52.4541 96.5168C52.4541 96.5168 60.7523 95.7112 66.0161 95.765C65.2516 94.8959 64.5464 93.9682 63.9719 92.921C63.8247 92.65 63.7083 92.3741 63.611 92.0958Z" fill="black"/>
<path d="M78.4688 107.429C79.6369 101.189 81.2776 100.891 75.5982 98.2816C62.8577 92.4275 48.3317 95.9624 42.403 98.0985C40.2495 98.8748 36.5527 101.824 36.84 104.136C38.7395 119.354 46.0903 141.784 40.3255 173.405C39.9765 175.317 42.8874 177.565 44.566 178.485C50.6656 181.832 64.3298 183.275 77.5333 178.561C79.4612 177.873 80.703 175.944 80.6603 173.862C79.7461 130.425 77.0299 115.119 78.4688 107.429Z" fill="#F26889"/>
<path d="M26.709 131.945L38.3621 135.463L43.9346 117.674L38.0796 101.003C38.0796 101.003 31.8209 112.091 26.709 131.945Z" fill="#F26889"/>
<path d="M140.991 99.8284L132.432 108.475L135.112 111.959C137.422 113.214 141.587 109.706 141.587 109.706L142.556 110.467C142.556 110.467 145.925 109.195 146.122 107.299C146.317 105.402 144.963 100.917 144.963 100.917L148.845 99.8602C150.493 98.6664 149.835 97.3213 149.835 97.3213L140.991 99.8284Z" fill="#C2896D"/>
<path d="M73.1013 98.023C69.8864 98.7651 74.2409 114.921 74.2409 114.921L91.2671 123.221L97.6967 111.528C97.6967 111.53 76.3161 97.2833 73.1013 98.023Z" fill="#F26889"/>
<path opacity="0.1" d="M75.6051 98.2816C62.8646 92.4275 48.3385 95.9624 42.4099 98.0985C41.142 98.555 39.3423 99.7634 38.1337 101.152L38.0815 101.004C38.0815 101.004 37.9604 101.218 37.7372 101.643C37.336 102.183 37.0392 102.739 36.9086 103.281C34.8548 107.473 30.4718 117.335 26.7109 131.946L36.5168 134.812L40.8072 127.662C42.6307 140.131 43.6445 155.252 40.3347 173.405C39.9857 175.317 42.8966 177.565 44.5752 178.485C50.5941 181.788 63.9757 183.231 77.0154 178.742C77.0154 178.742 76.7923 170.598 77.0154 167.895C78.3783 151.39 76.8825 116.149 76.8825 115.775L91.2732 123.221L97.7028 111.528C97.7028 111.528 86.1518 103.83 78.7534 100.047C78.129 99.5192 77.1342 98.9846 75.6051 98.2816Z" fill="black"/>
<path d="M331.19 264.58L329.421 250.899C328.818 246.342 328.286 241.769 327.721 237.204L326.045 223.504L326.126 224.066L325.591 211.635C325.42 207.49 325.214 203.349 325.081 199.199L324.642 186.756C324.532 182.604 324.388 178.456 324.307 174.301C324.198 168.518 319.698 163.926 314.261 164.043C308.824 164.16 304.505 168.943 304.614 174.726C304.626 175.349 304.702 176.015 304.811 176.606C305.593 180.678 306.307 184.759 307.057 188.836L309.197 201.079C309.923 205.158 310.576 209.245 311.267 213.329L313.311 225.582L313.392 226.143L316.704 239.504C317.799 243.959 318.931 248.407 319.99 252.869L323.208 266.25C324.243 270.717 326.985 280.516 328.835 280.045C330.587 279.601 332.71 280.26 332.446 278.4C331.786 273.847 331.817 269.133 331.19 264.58Z" fill="#FDC9AF"/>
<path d="M298.756 161.968C293.371 161.172 288.397 165.169 287.646 170.896C287.568 171.494 287.542 172.148 287.558 172.731C287.558 172.731 287.615 174.35 287.715 177.179C287.789 180.009 287.936 184.054 288.038 188.902C288.088 191.326 288.14 193.953 288.197 196.731C288.24 199.509 288.287 202.436 288.333 205.466C288.366 208.495 288.401 211.625 288.437 214.806C288.449 216.395 288.461 217.999 288.475 219.608C288.482 220.413 288.487 221.219 288.494 222.025L288.503 223.235V224.09L288.532 224.695C288.686 227.923 288.838 231.15 288.99 234.328C289.128 237.504 289.263 240.632 289.396 243.656C289.534 246.681 289.624 249.606 289.726 252.379C289.826 255.152 289.919 257.774 290.004 260.193C290.182 265.034 291.336 276.747 291.336 276.747C291.379 278.998 297.255 278.683 297.355 276.564C297.355 276.564 298.632 265.159 298.939 260.325C299.088 257.908 299.25 255.291 299.423 252.52C299.599 249.752 299.765 246.83 299.983 243.81C300.195 240.79 300.413 237.668 300.634 234.497C300.869 231.326 301.106 228.103 301.344 224.883C301.664 221.754 301.985 218.626 302.301 215.546C302.638 212.384 302.968 209.274 303.288 206.264C303.621 203.254 303.944 200.347 304.25 197.588C304.568 194.829 304.87 192.222 305.147 189.815C305.705 185.001 306.235 180.993 306.574 178.188C306.942 175.383 307.151 173.779 307.151 173.779C307.902 168.052 304.143 162.764 298.756 161.968Z" fill="#FDC9AF"/>
<path d="M293.689 277.577C292.884 277.555 290.906 276.986 290.906 276.986C290.405 279.528 284.719 282.538 281.26 282.687C277.8 282.838 277.952 284.744 277.952 284.744C282.283 287.864 286.723 285.059 293.908 286.114C296.234 286.456 298.692 285.233 298.692 285.233C298.794 278.737 297.699 277.162 297.699 277.162C297.699 277.162 294.582 277.599 293.689 277.577Z" fill="white"/>
<path opacity="0.04" d="M297.173 277.232C297.081 278.413 296.615 279.563 295.787 280.381C294.745 281.409 293.94 282.639 292.938 283.701C292.135 284.551 291.193 285.295 290.162 285.862C291.328 285.854 292.57 285.915 293.909 286.113C296.236 286.455 298.693 285.232 298.693 285.232C298.795 278.736 297.701 277.161 297.701 277.161C297.701 277.161 297.496 277.19 297.173 277.232Z" fill="black"/>
<path d="M324.533 172.86L287.389 173.256C284.638 181.666 289.453 269.801 289.453 269.801H299.769L302.865 224.089L305.04 193.845C305.04 193.845 309.055 216.775 310.085 222.993C311.116 229.211 323.154 273.461 323.154 273.461L332.782 271.998L327.28 225.554L324.533 172.86Z" fill="#C0A9A8"/>
<path opacity="0.04" d="M324.529 172.86L323.069 172.875C323.099 173.375 323.076 173.881 322.997 174.374C322.836 175.375 322.691 176.378 322.546 177.379C322.53 177.506 322.515 177.604 322.506 177.674C322.482 177.855 322.461 178.033 322.439 178.214C322.387 178.648 322.335 179.083 322.287 179.518C322.057 181.561 321.872 183.609 321.725 185.662C321.437 189.673 321.297 193.694 321.274 197.714C321.186 212.149 322.541 226.555 324.246 240.868C324.659 244.327 325.094 247.784 325.535 251.241C325.661 252.227 325.785 253.216 325.915 254.202C325.918 254.224 325.92 254.243 325.922 254.263C325.934 254.341 325.951 254.453 325.977 254.614C326.089 255.357 326.177 256.104 326.271 256.851C326.483 258.52 326.666 260.193 326.829 261.867C327.183 265.493 327.463 269.123 327.85 272.743L332.782 271.993L327.281 225.549L324.529 172.86Z" fill="black"/>
<path opacity="0.04" d="M297.406 235.632C296.199 243.214 295.167 250.809 294.4 258.45C294.015 262.287 293.552 266.098 292.681 269.801H299.768L302.862 224.09L304.937 195.254C302.857 200.566 302.679 206.381 301.646 212.059C300.214 219.915 298.662 227.739 297.406 235.632Z" fill="black"/>
<path d="M294.59 101.431C294.573 101.443 294.557 101.458 294.54 101.47L294.471 101.526C294.471 101.526 293.714 102.129 292.387 103.186C291.057 104.255 289.153 105.779 286.85 107.578C285.7 108.476 284.454 109.448 283.136 110.478C281.816 111.489 280.422 112.553 278.981 113.654C277.54 114.74 276.039 115.831 274.532 116.903C273.041 117.958 271.45 119.025 270.134 119.75L269.705 119.974L269.558 120.045L269.484 120.084L269.474 120.089C269.277 120.152 269.736 120.008 269.679 120.025L269.636 120.04L269.548 120.069L269.201 120.189C269.18 120.191 269.161 120.199 269.142 120.206C269.163 120.218 268.916 120.272 268.757 120.311C268.028 120.475 267.136 120.609 266.253 120.726C264.453 120.946 262.596 121.124 260.792 121.28C258.971 121.422 257.211 121.559 255.542 121.688C253.859 121.808 252.268 121.922 250.801 122.027C247.852 122.249 245.394 122.433 243.673 122.562C241.954 122.708 240.973 122.791 240.973 122.791L240.957 122.794C239.333 122.933 238.169 124.405 238.357 126.085C238.518 127.527 239.629 128.653 240.968 128.855C240.968 128.855 241.22 128.892 241.693 128.963C242.163 129.036 242.849 129.134 243.723 129.248C245.47 129.483 247.966 129.783 250.969 130.071C252.472 130.208 254.101 130.364 255.829 130.479C257.558 130.601 259.386 130.723 261.29 130.789C263.199 130.864 265.177 130.918 267.262 130.874C268.318 130.845 269.379 130.811 270.595 130.681C270.92 130.64 271.163 130.628 271.661 130.528L272.324 130.393L272.687 130.31C273.729 130.008 274.204 129.776 274.829 129.51C277.039 128.487 278.786 127.444 280.546 126.387C282.286 125.338 283.927 124.261 285.506 123.219C287.082 122.174 288.585 121.151 289.993 120.162C291.401 119.173 292.731 118.243 293.939 117.36C296.361 115.597 298.358 114.11 299.754 113.061C301.145 111.989 301.941 111.376 301.941 111.376C304.541 109.377 305.001 105.527 302.971 102.778C300.941 100.034 297.19 99.4289 294.59 101.431Z" fill="#FDC9AF"/>
<path opacity="0.06" d="M299.296 100.384C299.623 102.019 299.127 103.833 298.004 105.078C294.982 108.428 292 111.84 288.637 114.838C281.992 120.763 273.781 124.994 265.139 126.773C260.687 127.691 256.171 127.974 251.641 128.067C247.747 128.546 243.818 128.678 239.94 128.494C240.256 128.675 240.603 128.8 240.968 128.853C240.968 128.853 241.22 128.89 241.693 128.961C242.163 129.034 242.849 129.132 243.723 129.246C245.47 129.481 247.966 129.781 250.969 130.069C252.472 130.206 254.101 130.362 255.829 130.477C257.558 130.599 259.386 130.721 261.29 130.787C263.199 130.862 265.177 130.916 267.262 130.872C268.318 130.843 269.379 130.809 270.595 130.679C270.92 130.638 271.163 130.626 271.661 130.526L272.324 130.391L272.687 130.308C273.729 130.006 274.204 129.774 274.829 129.508C277.039 128.485 278.786 127.442 280.546 126.385C282.286 125.335 283.927 124.259 285.506 123.217C287.082 122.172 288.585 121.149 289.993 120.16C291.401 119.171 292.731 118.241 293.939 117.358C296.361 115.595 298.358 114.108 299.754 113.059C301.145 111.987 301.941 111.374 301.941 111.374C304.541 109.375 305.001 105.525 302.971 102.776C302.021 101.502 300.701 100.687 299.296 100.384Z" fill="black"/>
<path d="M297.535 100.291C295.493 102.015 297.765 111.267 312.771 102.874C313.006 102.742 313.25 102.642 313.49 102.527C312.087 101.815 310.477 101.114 308.62 100.426C305.945 99.4344 302.279 97.8525 297.535 100.291Z" fill="#FDC9AF"/>
<path d="M319.428 136.377L322.227 120.333C323.132 112.988 326.921 105.791 310.622 99.9663C309.582 99.5952 308.376 99.4121 307.122 99.3145C305.355 101.441 302.428 97.7911 296.058 100.62C293.743 101.463 293.111 103.779 292.753 104.614C290.086 110.817 285.991 116.52 285.388 117.917C284.172 120.734 286.247 128.17 288.773 130.408L288.075 143.884C288.08 143.916 287.85 150.375 288.044 150.661L286.354 174.311C288.809 178.19 293.308 178.261 297.136 178.798C320.629 182.091 324.044 175.488 325.269 175.075C324.331 169.407 323.137 165.171 322.648 163.353C321.648 159.639 317.6 147.138 319.428 136.377Z" fill="#79D288"/>
<path opacity="0.05" d="M319.429 136.376L322.228 120.333C322.672 116.734 323.807 113.17 322.931 109.784C322.102 111.19 321.342 112.636 320.671 114.127C320.538 114.422 320.409 114.72 320.281 115.018C320.236 115.133 320.191 115.245 320.148 115.36C319.875 116.07 319.616 116.79 319.377 117.513C318.403 120.44 317.693 123.455 317.168 126.499C317.04 127.246 316.922 127.998 316.812 128.75C316.781 128.962 316.753 129.172 316.724 129.385C316.713 129.485 316.698 129.582 316.686 129.68C316.523 131.03 316.383 132.385 316.261 133.742C316.007 136.569 315.832 139.401 315.654 142.233C315.29 148.065 314.896 153.895 313.977 159.668C313.078 165.329 311.487 170.844 308.953 175.971C308.324 177.242 307.626 178.478 306.871 179.679C321.658 180.15 324.241 175.419 325.272 175.072C324.334 169.404 323.14 165.168 322.651 163.349C321.649 159.639 317.601 147.137 319.429 136.376Z" fill="black"/>
<path d="M299.611 99.6455C299.189 99.7846 297.717 100.266 296.197 100.952C295.516 102.284 296.2 103.94 297.584 104.335C301.155 105.351 306.958 105.287 313.869 101.242C312.896 100.783 311.82 100.353 310.626 99.9653C307.145 98.8276 303.076 98.5103 299.611 99.6455Z" fill="#FDC9AF"/>
<path d="M307.781 91.5071C307.681 90.948 307.577 90.4769 307.501 90.1375C307.413 89.7713 307.363 89.5638 307.363 89.5638C306.919 87.7305 305.245 86.4879 303.465 86.7613C301.563 87.0543 300.255 88.9511 300.542 90.9993L300.544 91.0164C300.544 91.0164 300.554 91.0847 300.551 91.114C300.554 91.1677 300.559 91.2483 300.563 91.3484C300.575 91.5827 300.592 91.9318 300.597 92.3639C300.613 93.2232 300.578 94.3901 300.464 95.5278C300.354 96.6678 300.157 97.7688 299.972 98.5622C299.884 98.9626 299.794 99.2848 299.73 99.5069C299.668 99.7315 299.633 99.8585 299.633 99.8585L299.614 99.9268C299.545 100.178 299.497 100.442 299.469 100.713C299.421 101.162 299.44 101.604 299.507 102.029C302.318 102.053 305.11 101.824 307.912 101.589C308 101.582 308.085 101.575 308.173 101.567C308.18 101.489 308.19 101.399 308.201 101.287C308.239 100.94 308.289 100.449 308.318 99.8609C308.389 98.6867 308.399 97.1414 308.294 95.6254C308.192 94.1119 307.99 92.6251 307.781 91.5071Z" fill="#FDC9AF"/>
<path d="M300.115 65.9111C291.909 67.6493 291.005 71.5699 290.675 78.0464C290.411 83.2291 287.823 86.122 285.644 91.0191C289.355 97.1343 298.054 99.2997 305.431 98.9628C313.366 98.599 318.221 96.297 322.353 89.276C321.484 85.9804 319.366 81.9743 318.366 79.4965C313.055 66.3335 306.789 64.4977 300.115 65.9111Z" fill="#6B2D39"/>
<path d="M307.562 91.6146C307.453 91.0092 307.341 90.499 307.258 90.1328C307.163 89.7373 307.111 89.5103 307.111 89.5103C306.629 87.5231 304.817 86.178 302.89 86.4758C300.829 86.7932 299.411 88.8487 299.725 91.0653L299.727 91.0849C299.727 91.0849 299.739 91.1581 299.736 91.1898C299.739 91.2484 299.744 91.3339 299.748 91.4437C299.76 91.6976 299.782 92.076 299.786 92.5423C299.805 93.4724 299.765 94.7369 299.641 95.9698C299.523 97.205 299.309 98.3963 299.107 99.2557C299.012 99.6902 298.915 100.037 298.844 100.281C298.777 100.523 298.737 100.662 298.737 100.662L298.715 100.737C298.685 100.855 298.659 100.974 298.635 101.096C299.031 101.16 299.425 101.221 299.824 101.275C301.247 101.338 302.662 101.311 304.074 101.15C304.414 101.052 304.751 100.947 305.086 100.83C306.078 100.486 307.121 100.32 308.165 100.315C308.225 99.0945 308.225 97.5736 308.12 96.0796C308.009 94.4342 307.788 92.8255 307.562 91.6146Z" fill="#FDC9AF"/>
<path opacity="0.07" d="M307.566 91.6146C307.457 91.0092 307.345 90.499 307.262 90.1328C307.167 89.7373 307.115 89.5103 307.115 89.5103C306.633 87.5231 304.822 86.178 302.894 86.4758C300.833 86.7932 299.415 88.8487 299.729 91.0653L299.733 91.0922C299.733 91.0922 299.743 91.1581 299.741 91.1898C299.743 91.2484 299.748 91.3339 299.752 91.4437C299.764 91.6976 299.786 92.076 299.79 92.5423C299.809 93.4724 299.769 94.7369 299.646 95.9697C299.617 96.2651 299.582 96.5581 299.546 96.8437C302.497 99.0261 306.135 97.4149 308.138 96.3115C308.134 96.2334 308.131 96.1553 308.127 96.0796C308.013 94.4342 307.794 92.8254 307.566 91.6146Z" fill="black"/>
<path d="M295.745 93.5926C298.041 96.9908 303.996 96.8468 307.88 92.9408C311.764 89.0349 312.135 78.4937 312.135 78.4937L293.496 72.8594C293.496 72.8594 292.174 88.3074 295.745 93.5926Z" fill="#FDC9AF"/>
<path d="M297.314 88.6514C299.637 97.0564 304.43 89.496 304.43 89.496C302.137 90.0404 297.314 88.6514 297.314 88.6514Z" fill="white"/>
<path d="M292.237 70.9916C290.977 73.4866 291.71 77.9906 291.71 77.9906L296.696 74.5729C296.696 74.5729 301.464 77.8149 302.632 78.3544C305.101 79.4969 312.367 79.3309 312.367 79.3309C312.367 79.3309 311.626 74.1359 309.366 70.291C303.665 70.7841 297.959 71.1503 292.237 70.9916Z" fill="#6B2D39"/>
<path d="M222.746 125.228C222.746 125.228 223.083 126.692 225.09 126.522L228.725 124.771C228.725 124.771 230.486 129.102 231.821 130.428C233.155 131.753 236.534 130.506 236.534 130.506L236.802 129.283C236.802 129.283 242.187 129.222 243.175 126.736L244.243 122.882L231.092 121.314L222.746 125.228Z" fill="#FDC9AF"/>
<path d="M326.277 278.267C326.096 279.285 323.446 280.584 320.894 281.729C319.553 282.329 316.05 283.154 317.665 285.19C319.28 287.226 320.716 286.616 324.484 286.616C328.252 286.616 332.379 286.208 333.454 285.598C334.53 284.988 332.557 277.654 332.557 277.654C328.513 279.854 326.457 277.249 326.277 278.267Z" fill="white"/>
<path opacity="0.04" d="M331.573 278.117C331.546 278.913 331.333 279.692 330.896 280.346C329.241 282.836 327.399 285.018 325.069 286.617C328.669 286.578 332.434 286.183 333.455 285.602C334.531 284.992 332.558 277.658 332.558 277.658C332.216 277.844 331.888 277.995 331.573 278.117Z" fill="black"/>
<path d="M322.167 107.975C320.617 103.18 314.261 102.057 311.312 106.149C308.75 109.706 311.027 113.309 312.52 116.7C316.106 124.839 320.519 133.896 322.293 142.52C323.096 146.151 323.791 149.944 324.382 153.618C325.213 158.786 327.293 172.174 328.279 177.313C328.765 179.854 331.209 179.583 332.571 178.482C333.737 177.542 333.756 176.046 333.87 174.662C334.544 166.4 335.007 157.495 333.865 149.261C331.904 135.121 326.429 121.477 322.167 107.975Z" fill="#FDC9AF"/>
<g clip-path="url(#clip1)">
<path d="M335.193 187.292C335.201 187.256 335.209 187.217 335.207 187.179C335.127 177.744 332.871 176.19 332.871 176.19C328.066 175.428 327.064 178.513 326.256 182.595C326.114 183.305 325.606 186.776 325.6 187.963C325.598 188.23 326.505 188.533 326.906 187.599C327.348 186.57 327.095 184.852 327.918 184.212C328.413 183.827 328.455 184.601 328.448 185.569C328.428 185.582 328.418 185.625 328.42 185.713V185.727L328.442 186.627C328.444 186.756 328.446 186.88 328.45 187.002L328.625 194.2C328.631 194.449 328.821 194.66 329.072 194.68C329.341 194.705 329.578 194.504 329.602 194.23L329.604 194.223L330.145 187.961C330.197 187.972 330.25 187.984 330.304 187.993C330.386 188.757 330.454 189.669 330.487 190.589C330.585 192.934 330.464 195.302 330.464 195.302C330.452 195.569 330.641 195.808 330.906 195.847C331.19 195.89 331.454 195.691 331.495 195.404L331.497 195.397C331.497 195.397 331.84 193.02 331.964 190.6C332.011 189.759 332.029 188.915 332.023 188.167C332.081 188.169 332.138 188.169 332.196 188.171C332.215 188.436 332.233 188.703 332.25 188.972C332.439 191.826 332.381 194.689 332.381 194.689C332.377 194.956 332.577 195.186 332.842 195.214C333.122 195.241 333.373 195.033 333.399 194.75C333.399 194.75 333.683 191.853 333.718 188.94C333.724 188.567 333.728 188.294 333.73 188.072C333.78 188.063 333.829 188.056 333.877 188.047C334.023 189.286 334.092 190.501 334.101 191.439C334.107 191.973 334.097 192.418 334.078 192.731C334.064 193.043 334.058 193.221 334.058 193.221L334.055 193.244C334.047 193.466 334.206 193.665 334.43 193.694C334.666 193.726 334.884 193.558 334.917 193.321C334.917 193.321 334.942 193.138 334.985 192.816C335.035 192.495 335.086 192.034 335.131 191.48C335.224 190.372 335.263 188.891 335.199 187.412C335.197 187.366 335.195 187.33 335.193 187.292Z" fill="#FDC9AF"/>
</g>
<path opacity="0.04" d="M334.312 157.476C334.283 156.497 334.255 155.499 334.226 154.481C334.184 153.463 334.146 152.425 334.081 151.376C334.013 150.323 333.887 149.264 333.697 148.197C333.602 147.663 333.493 147.13 333.374 146.591C333.26 146.054 333.132 145.512 333.006 144.97C332.882 144.425 332.752 143.874 332.633 143.32C332.571 143.039 332.507 142.758 332.453 142.477C332.393 142.192 332.324 141.872 332.265 141.572L332.097 140.739L331.904 139.824L331.807 139.372L331.705 138.94C331.636 138.652 331.569 138.364 331.498 138.088C331.218 136.968 330.921 135.903 330.62 134.851C330.009 132.756 329.404 130.735 328.801 128.792C328.191 126.858 327.6 124.988 327.042 123.216C326.477 121.454 325.942 119.786 325.448 118.246C324.463 115.17 323.642 112.609 323.067 110.815C322.497 109.008 322.172 107.976 322.172 107.976C322.091 107.729 321.987 107.448 321.875 107.209C320.762 104.797 318.361 103.442 315.918 103.591C316.11 103.933 316.3 104.277 316.485 104.624C319.629 108.034 321.699 112.355 323.392 116.683C324.993 120.782 326.13 125.052 327.21 129.319C328.469 134.292 329.824 139.223 330.639 144.301C331.591 150.245 332.115 156.246 332.569 162.249C332.759 164.746 333.626 172.937 333.882 174.575C333.908 174.233 333.937 173.85 333.967 173.422C334.041 172.475 334.093 171.328 334.167 170.007C334.224 168.689 334.281 167.202 334.312 165.581C334.35 163.96 334.359 162.202 334.352 160.342C334.335 159.41 334.324 158.453 334.312 157.476Z" fill="black"/>
<path opacity="0.4" d="M170.204 131.477C170.208 129.327 168.516 127.581 166.424 127.576C164.332 127.572 162.632 129.311 162.628 131.461C162.624 133.611 164.316 135.357 166.408 135.362C168.5 135.366 170.2 133.627 170.204 131.477Z" fill="white"/>
<path opacity="0.7" d="M179.42 127.575C177.328 127.575 175.632 129.319 175.632 131.468C175.632 133.619 177.328 135.36 179.42 135.36C181.512 135.36 183.208 133.617 183.208 131.468C183.208 129.319 181.512 127.575 179.42 127.575Z" fill="white"/>
<path d="M192.434 135.362C194.526 135.362 196.222 133.62 196.222 131.47C196.222 129.32 194.526 127.577 192.434 127.577C190.341 127.577 188.646 129.32 188.646 131.47C188.646 133.62 190.341 135.362 192.434 135.362Z" fill="white"/>
<defs>
<filter id="filter0_d" x="156.005" y="174.816" width="46.0739" height="52.1614" filterUnits="userSpaceOnUse" color-interpolation-filters="sRGB">
<feFlood flood-opacity="0" result="BackgroundImageFix"/>
<feColorMatrix in="SourceAlpha" type="matrix" values="0 0 0 0 0 0 0 0 0 0 0 0 0 0 0 0 0 0 127 0"/>
<feOffset dy="1"/>
<feGaussianBlur stdDeviation="1"/>
<feColorMatrix type="matrix" values="0 0 0 0 0 0 0 0 0 0 0 0 0 0 0 0 0 0 0.25 0"/>
<feBlend mode="normal" in2="BackgroundImageFix" result="effect1_dropShadow"/>
<feBlend mode="normal" in="SourceGraphic" in2="effect1_dropShadow" result="shape"/>
</filter>
<clipPath id="clip0">
<rect width="41.5658" height="40.4112" fill="white" transform="translate(160.489 62.3496)"/>
</clipPath>
<clipPath id="clip1">
<rect width="9.63033" height="19.7785" fill="white" transform="translate(325.6 176.075)"/>
</clipPath>
</defs>
</svg>
