<svg width="28" height="28" viewBox="0 0 28 28" fill="none" xmlns="http://www.w3.org/2000/svg">
<path d="M14 28C6.30258 28 0 21.7491 0 14C0 6.30258 6.30258 0 14 0C21.6974 0 28 6.30258 28 14C28 21.7491 21.7491 28 14 28ZM18.7528 8.31734C18.1845 8.31734 17.7196 8.78229 17.7196 9.35055C17.7196 9.91882 18.1845 10.3838 18.7528 10.3838C19.321 10.3838 19.786 9.91882 19.786 9.35055C19.786 8.78229 19.321 8.31734 18.7528 8.31734ZM14.1033 9.66052C11.7269 9.66052 9.76384 11.6236 9.76384 14C9.76384 16.3764 11.7269 18.3395 14.1033 18.3395C16.4797 18.3395 18.4428 16.3764 18.4428 14C18.4428 11.6236 16.5314 9.66052 14.1033 9.66052ZM14.1033 16.7897C12.5535 16.7897 11.3137 15.5498 11.3137 14C11.3137 12.4502 12.5535 11.2103 14.1033 11.2103C15.6531 11.2103 16.893 12.4502 16.893 14C16.893 15.5498 15.6531 16.7897 14.1033 16.7897ZM22.8856 10.3838C22.8856 7.43911 20.5092 5.06273 17.5646 5.06273H10.5904C7.64576 5.06273 5.26937 7.43911 5.26937 10.3838V17.4096C5.26937 20.3542 7.64576 22.7306 10.5904 22.7306H17.6162C20.5609 22.7306 22.9373 20.3542 22.9373 17.4096V10.3838H22.8856ZM21.2325 17.4096C21.2325 19.4244 19.5793 21.0775 17.5646 21.0775H10.5904C8.57565 21.0775 6.92251 19.4244 6.92251 17.4096V10.3838C6.92251 8.369 8.57565 6.71587 10.5904 6.71587H17.6162C19.631 6.71587 21.2841 8.369 21.2841 10.3838V17.4096H21.2325Z" fill="#2F2B27"/>
</svg>
