<svg width="31" height="30" viewBox="0 0 31 30" fill="none" xmlns="http://www.w3.org/2000/svg">
<path fill-rule="evenodd" clip-rule="evenodd" d="M15.2729 30C7.01601 30 0.300415 23.2844 0.300415 14.9725C0.300415 6.7156 7.01601 0 15.2729 0C23.5298 0 30.2454 6.7156 30.2454 14.9725C30.3004 23.2844 23.5848 30 15.2729 30ZM23.805 16.1282V21.7429C23.805 21.9081 23.6949 22.0182 23.5298 22.0182H20.6124C20.4472 22.0182 20.3371 21.9081 20.3371 21.7429V16.5136C20.3371 15.1374 19.8417 14.2016 18.6307 14.2016C17.6949 14.2016 17.1445 14.8071 16.8692 15.4677C16.8142 15.6879 16.8142 15.9631 16.8142 16.2934V21.7429C16.8142 21.9081 16.7041 22.0182 16.539 22.0182H13.6215C13.4564 22.0182 13.3463 21.9081 13.3463 21.7429C13.3463 21.3996 13.3497 20.7238 13.354 19.8782V19.878C13.3669 17.3342 13.3876 13.2529 13.3463 12.0549C13.3463 11.8897 13.4564 11.7796 13.6215 11.7796H16.4839C16.6491 11.7796 16.7591 11.8897 16.7591 12.0549V13.2108C17.1995 12.4952 18.0252 11.5044 19.8417 11.5044C22.0986 11.5594 23.805 12.9906 23.805 16.1282ZM8.39217 21.9631H11.3096C11.4747 21.9631 11.5848 21.853 11.5848 21.6879V12.0549C11.5848 11.8897 11.4747 11.7796 11.3096 11.7796H8.39217C8.22704 11.7796 8.11694 11.8897 8.11694 12.0549V21.7429C8.17199 21.853 8.28208 21.9631 8.39217 21.9631ZM11.5849 8.69737C11.5849 9.70061 10.7717 10.5139 9.76842 10.5139C8.76519 10.5139 7.9519 9.70061 7.9519 8.69737C7.9519 7.69414 8.76519 6.88086 9.76842 6.88086C10.7717 6.88086 11.5849 7.69414 11.5849 8.69737Z" fill="#2F2B27"/>
</svg>
