<svg width="28" height="28" viewBox="0 0 28 28" fill="none" xmlns="http://www.w3.org/2000/svg">
<path fill-rule="evenodd" clip-rule="evenodd" d="M13.9998 28C6.27934 28 0 21.7321 0 13.9743C0 6.26789 6.27934 0 13.9998 0C21.7203 0 27.9997 6.26789 27.9997 13.9743C28.0512 21.7321 21.7718 28 13.9998 28ZM21.9777 15.053V20.2934C21.9777 20.4475 21.8748 20.5503 21.7204 20.5503H18.9925C18.838 20.5503 18.7351 20.4475 18.7351 20.2934V15.4127C18.7351 14.1283 18.2719 13.2549 17.1395 13.2549C16.2645 13.2549 15.7498 13.82 15.4925 14.4365C15.441 14.642 15.441 14.8989 15.441 15.2072V20.2934C15.441 20.4475 15.3381 20.5503 15.1837 20.5503H12.4558C12.3013 20.5503 12.1984 20.4475 12.1984 20.2934C12.1984 19.9729 12.2016 19.3423 12.2056 18.553V18.5529V18.5528C12.2177 16.1785 12.237 12.3693 12.1984 11.2512C12.1984 11.0971 12.3013 10.9943 12.4558 10.9943H15.1322C15.2866 10.9943 15.3895 11.0971 15.3895 11.2512V12.3301C15.8013 11.6622 16.5734 10.7374 18.2719 10.7374C20.3821 10.7888 21.9777 12.1246 21.9777 15.053ZM7.56611 20.4989H10.294C10.4484 20.4989 10.5514 20.3962 10.5514 20.242V11.2512C10.5514 11.0971 10.4484 10.9943 10.294 10.9943H7.56611C7.4117 10.9943 7.30876 11.0971 7.30876 11.2512V20.2934C7.36023 20.3962 7.46317 20.4989 7.56611 20.4989ZM10.5515 8.11755C10.5515 9.0539 9.79101 9.81296 8.85295 9.81296C7.91489 9.81296 7.15444 9.0539 7.15444 8.11755C7.15444 7.1812 7.91489 6.42214 8.85295 6.42214C9.79101 6.42214 10.5515 7.1812 10.5515 8.11755Z" fill="#2F2B27"/>
</svg>
