<svg width="16" height="16" viewBox="0 0 16 16" fill="none" xmlns="http://www.w3.org/2000/svg">
<path d="M12.9811 3.88427C12.1863 2.20786 10.7585 1.11439 8.96265 0.810247C7.15212 0.502482 5.27168 1.0637 4.05362 2.28028C-0.1047 6.42967 5.4336 12.7443 7.51644 15.1195C7.61579 15.2354 7.77404 15.1702 7.91756 15.1702C8.03531 15.1702 8.06051 15.2028 8.15619 15.1195C8.36963 14.9385 8.46954 14.6705 8.28554 14.4642C5.27904 11.0353 1.63959 6.11467 4.77857 2.98271C5.75007 2.01596 7.3214 1.54888 8.78601 1.79871C10.2433 2.04492 11.4061 2.93925 12.0538 4.3079C13.419 7.19364 10.7033 10.5754 9.07673 12.5995C8.87801 12.8457 7.63301 14.2614 7.47109 14.4678C7.30182 14.6886 7.3423 15.0036 7.56677 15.1702C7.79125 15.3367 8.1114 15.2969 8.28068 15.076C8.43524 14.8733 9.68023 13.4648 9.87527 13.2222C11.649 11.0172 14.6113 7.32762 12.9811 3.88427Z" fill="#C0A9A8"/>
<path fill-rule="evenodd" clip-rule="evenodd" d="M13.0844 3.83531L13.0844 3.83537C13.92 5.60026 13.5741 7.42182 12.8083 9.06586C12.043 10.7088 10.85 12.1928 9.96433 13.2938C9.87275 13.4078 9.55783 13.7695 9.23234 14.1434C9.2046 14.1752 9.17677 14.2072 9.14901 14.2391C8.79184 14.6494 8.4459 15.0478 8.37158 15.1453L8.37139 15.1456C8.1628 15.4177 7.77149 15.4644 7.49868 15.262C7.43681 15.2161 7.38634 15.161 7.34757 15.1003C6.29117 13.8949 4.4447 11.7621 3.34117 9.41382C2.20829 7.00312 1.84239 4.32536 3.97287 2.19942C5.21918 0.954613 7.13775 0.384138 8.98174 0.697568C10.8152 1.00809 12.2739 2.12601 13.0844 3.83531ZM8.96266 0.810249C10.7585 1.11439 12.1863 2.20786 12.9811 3.88427C14.6113 7.32762 11.649 11.0172 9.87528 13.2222C9.78523 13.3342 9.47138 13.6947 9.14436 14.0704C8.9005 14.3505 8.64932 14.639 8.47817 14.8392C8.38171 14.952 8.31067 15.0367 8.28069 15.076C8.25514 15.1094 8.22615 15.1386 8.19457 15.1636C8.19437 15.1638 8.19418 15.1639 8.19398 15.1641C8.11385 15.2273 8.0171 15.2635 7.91756 15.2712C7.79648 15.2805 7.67127 15.2477 7.56678 15.1702C7.54716 15.1556 7.52894 15.1399 7.51215 15.1233C7.51214 15.1233 7.51212 15.1232 7.51211 15.1232C7.48402 15.0953 7.45991 15.0647 7.43987 15.0322C7.38044 14.9644 7.31853 14.8937 7.25441 14.8201C5.01142 12.2491 0.0594749 6.26586 4.05363 2.28028C5.27169 1.0637 7.15213 0.502484 8.96266 0.810249ZM7.80077 13.9039C4.91051 10.5161 1.80682 5.94782 4.77857 2.98271C5.75008 2.01596 7.32141 1.54888 8.78602 1.79871C10.2433 2.04492 11.4061 2.93925 12.0538 4.3079C13.4191 7.19365 10.7033 10.5754 9.07673 12.5995C8.98081 12.7183 8.64109 13.1097 8.29708 13.506C8.17918 13.6418 8.06078 13.7782 7.95151 13.9044C7.92576 13.9341 7.90051 13.9633 7.8759 13.9918C7.85088 13.9626 7.82583 13.9333 7.80077 13.9039ZM7.87642 13.8165C6.51834 12.2234 5.12147 10.3778 4.33228 8.56644C3.44711 6.53486 3.33863 4.58087 4.8593 3.06361C5.80231 2.1253 7.33537 1.6672 8.7668 1.91137L8.76698 1.9114C10.1862 2.15119 11.3183 3.02081 11.9505 4.35678C12.6112 5.75341 12.2899 7.28012 11.5845 8.72674C10.8794 10.1725 9.80222 11.5142 8.98773 12.5278C8.89304 12.6451 8.55361 13.0361 8.20756 13.4347L8.17381 13.4736C8.07259 13.5902 7.97135 13.7069 7.87642 13.8165Z" fill="#C0A9A8"/>
<path d="M10.1182 6.17261C10.1182 5.02121 9.16506 4.08343 7.99484 4.08343C6.82462 4.08343 5.87152 5.02121 5.87152 6.17261C5.87152 7.32402 6.82462 8.2618 7.99484 8.2618C9.16506 8.25818 10.1182 7.32402 10.1182 6.17261ZM7.99484 7.25522C7.38765 7.25522 6.89086 6.77004 6.89086 6.16899C6.89086 5.57156 7.38397 5.08276 7.99484 5.08276C8.60203 5.08276 9.09882 5.56794 9.09882 6.16899C9.09882 6.77004 8.60571 7.25522 7.99484 7.25522Z" fill="#C0A9A8"/>
</svg>
