<svg width="75" height="50" viewBox="0 0 75 50" fill="none" xmlns="http://www.w3.org/2000/svg">
<g clip-path="url(#clip0)">
<path fill-rule="evenodd" clip-rule="evenodd" d="M19.5607 26.6242C19.5607 27.3831 19.6359 28.115 19.7859 28.8195C19.4083 29.184 19.0628 29.4851 18.7493 29.7226C17.9157 30.3571 16.9419 30.6743 15.8353 30.6743C15.1345 30.6743 14.5664 30.4382 14.1349 29.9661C13.7 29.4943 13.3903 28.7059 13.2021 27.6007C13.2034 27.5995 13.2045 27.5986 13.2054 27.598L13.2051 27.5933C16.2529 23.4397 17.3114 21.75 19.0923 17.5134C20.5973 13.9392 21.7666 9.51287 21.7666 6.96405C21.7666 4.44475 21.6043 2.79595 20.8629 1.59347C20.1214 0.39099 19.6235 0 18.3288 0C16.0308 0 14.0537 1.51232 12.3865 4.53696C10.7266 7.56161 9.68274 10.1326 8.83067 14.3449C7.9823 18.5573 7.97492 20.2172 7.97492 23.5111C7.97492 24.9868 8.08164 26.3456 8.29479 27.5868C7.46698 28.2251 6.74088 28.7192 6.27946 29.0332C6.11518 29.145 5.98446 29.234 5.89464 29.2985C5.83314 29.343 5.76347 29.3879 5.69122 29.4346C5.30842 29.6817 4.8534 29.9754 5.16061 30.4936C5.50574 31.6315 5.53112 31.8735 5.6034 32.5629C5.60914 32.6176 5.61517 32.6752 5.62168 32.7362C5.69283 33.403 6.43183 32.9815 6.97872 32.6695C7.04763 32.6302 7.11349 32.5926 7.17458 32.5592C7.9519 32.1325 8.67936 31.6509 9.34124 31.1598C9.45313 31.4113 9.57188 31.6553 9.69749 31.8915C10.8446 34.0494 12.6078 35.1301 14.9832 35.1301C16.7095 35.1301 18.255 34.6727 19.6198 33.7543C20.2263 33.345 20.8131 32.8852 21.38 32.3745C21.8526 32.9834 22.4142 33.51 23.0648 33.9534C24.212 34.7354 25.5952 35.1264 27.2145 35.1264C29.1289 35.1264 30.8441 34.4477 32.3564 33.0829C33.865 31.7182 34.8794 29.9034 35.3921 27.6349C36.0852 27.6073 36.7577 27.5482 37.4095 27.4579C37.385 27.7848 37.3728 28.1143 37.3728 28.4464C37.3728 30.4161 37.867 32.0206 38.8519 33.2637C39.8367 34.5067 41.0687 35.1264 42.5552 35.1264C44.038 35.1264 45.2405 34.4256 46.159 33.0202C46.0676 33.4214 45.9821 33.7878 45.9027 34.1286C45.3727 36.4011 45.1077 37.5374 45.1077 40.2831C45.1077 42.8208 45.5061 44.9749 46.3028 46.7418C47.0996 48.5086 48.2688 49.3939 49.807 49.3939C52.0755 49.3939 53.7427 48.4053 54.8087 45.3807C55.8747 42.356 56.1587 40.3753 56.1587 36.2994C56.1587 35.8582 56.1562 35.4388 56.1537 35.0411V35.041V35.041C56.1452 33.6564 56.1384 32.536 56.2473 31.685C56.2646 31.1775 56.8913 30.9387 57.8013 30.6861C58.0708 31.5912 58.4122 32.4172 58.8254 33.1641C60.0131 35.3109 61.8906 36.3843 64.4542 36.3843C66.2358 36.3843 67.7149 35.8052 69.1203 34.6433C69.9317 33.9683 70.8576 33.0445 71.1895 32.644C71.4753 32.2994 70.9471 31.7173 70.6012 31.3361C70.5452 31.2744 70.494 31.2179 70.4518 31.1686C70.3757 31.0797 70.2913 30.9656 70.2018 30.8447L70.2018 30.8446C69.935 30.4842 69.6233 30.063 69.3526 30.0657C69.0576 30.0657 68.7588 30.2022 68.46 30.4678C67.9731 30.8993 67.4383 31.2498 66.8592 31.519C66.2764 31.7883 65.7563 31.9248 65.2989 31.9248C64.4616 31.9248 63.7976 31.6813 63.3144 31.1944C62.833 30.7093 62.4943 29.9166 62.3058 28.8163C62.3187 28.8001 62.3309 28.783 62.3425 28.7651C64.7839 26.288 66.0694 23.1779 67.6075 19.4567L67.6075 19.4566C67.7585 19.0914 67.9119 18.7203 68.069 18.3434C69.2789 15.4442 70.5109 10.649 70.5109 8.21453L70.5112 7.9248C70.5138 6.25815 70.5173 3.9791 69.8174 2.84395C69.076 1.64147 68.578 1.25048 67.2833 1.25048C64.989 1.25048 63.012 2.7628 61.3521 5.78744C59.6922 8.81208 58.7516 11.383 57.8996 15.5954C57.0512 19.8078 57.0438 21.4676 57.0438 24.7615C57.0438 25.5232 57.0727 26.253 57.1303 26.9509C56.4868 27.1493 55.9157 27.2873 55.469 27.3878C54.4878 27.6054 53.739 28.3468 53.5878 28.5497C53.0935 29.2136 52.8464 29.9624 52.9607 31.1538C52.9996 32.0727 52.9829 32.7166 52.9623 33.5096V33.5098V33.5099V33.51C52.9478 34.0731 52.9312 34.7113 52.9312 35.5764C52.9312 37.3064 52.8206 38.4166 52.6066 39.9548C52.389 41.4929 52.2304 42.1974 51.9205 43.1159C51.859 43.2975 51.8065 43.4612 51.7598 43.607C51.5711 44.1956 51.4761 44.4917 51.2603 44.4917C50.9357 44.4917 50.6738 44.0528 50.4709 43.1749C50.2681 42.297 50.1685 41.7622 50.1685 40.5191C50.1685 37.1957 50.6 34.9457 51.4632 30.6263C51.7619 29.114 52.1603 27.4431 52.6583 25.6062C53.1599 23.7729 53.6247 22.0983 54.0562 20.586C54.1632 20.2098 54.3845 19.4315 54.7239 18.2585C55.0595 17.0855 55.2292 16.3368 55.2292 16.0122C55.2587 15.4994 55.1149 15.1084 54.805 14.8392C54.4952 14.5699 53.8829 14.4334 52.9644 14.4334C52.1013 14.4334 51.4263 14.5847 50.9394 14.8798C50.4562 15.1785 50.091 15.7576 49.8476 16.6208C49.4971 16.1892 48.9992 15.9716 48.35 15.9716C46.4319 15.9716 44.6282 16.5618 42.9425 17.7347C41.2531 18.9077 39.9068 20.4532 38.8925 22.3713C38.7886 22.5676 38.6901 22.7651 38.5969 22.9638C37.5281 23.1885 36.5676 23.3275 35.7167 23.382C35.5028 21.3016 34.765 19.5532 33.5109 18.1368C32.2531 16.7204 30.6006 16.0122 28.5498 16.0122C26.8752 16.0122 25.3481 16.4658 23.9722 17.3696C22.5964 18.2733 21.5156 19.5311 20.7336 21.1356C19.9517 22.7438 19.5607 24.5734 19.5607 26.6242ZM15.33 7.3698C14.548 9.61246 14.0685 11.3461 13.4746 14.6658C12.9776 17.444 12.9611 19.1036 12.9387 21.3589C12.9343 21.7986 12.9297 22.2609 12.9213 22.7586C14.9205 19.461 15.6029 17.6905 16.6615 14.7248C17.7607 11.6523 18.2587 9.30262 18.2587 6.87553C18.2587 4.82467 18.196 4.00581 17.4398 4.00581C16.8165 4.0095 16.1119 5.13083 15.33 7.3698ZM29.7818 29.7853C30.4162 29.0845 30.8404 28.0701 31.058 26.7496C30.2207 26.1816 29.5789 25.4402 29.1363 24.5217C28.6899 23.6033 28.4686 22.6332 28.4686 21.6077C28.4686 21.1762 28.5092 20.7446 28.5903 20.313H28.3875C27.3067 20.313 26.4104 20.8331 25.6948 21.8733C24.9792 22.9135 24.6214 24.3779 24.6214 26.2664C24.6214 27.7529 24.9128 28.8853 25.4919 29.6673C26.071 30.4493 26.7534 30.8403 27.5354 30.8403C28.3985 30.8366 29.1473 30.4862 29.7818 29.7853ZM47.177 27.1111C46.9336 28.1919 46.5315 29.114 45.9635 29.8849C45.3954 30.6558 44.8016 31.0395 44.1782 31.0358C43.636 31.0358 43.2118 30.8145 42.9019 30.3681C42.5921 29.9255 42.4372 29.2837 42.4372 28.4464C42.4372 26.9636 42.7286 25.5508 43.3077 24.2156C43.8905 22.8766 44.6725 21.8069 45.6573 20.9954C46.6422 20.1876 47.7303 19.7671 48.918 19.7413L47.177 27.1111ZM64.2882 8.62396C63.5062 10.8666 63.13 12.6003 62.5361 15.92C62.0414 18.6857 62.0228 20.6322 62.0005 22.9687V22.9688V22.969C61.9961 23.4369 61.9915 23.9206 61.9828 24.4296C63.5963 21.7735 64.2649 19.8509 65.1107 17.419L65.1107 17.419C65.2703 16.9599 65.4363 16.4827 65.6161 15.979C66.6231 13.1572 67.003 10.6785 67.003 8.23297C67.003 6.18212 66.8702 5.25997 66.3907 5.25997C65.7747 5.26366 65.0739 6.38499 64.2882 8.62396Z" fill="#2F2B27"/>
<path d="M71.3261 30.2021C70.9905 29.8406 70.8208 29.3685 70.8208 28.7857C70.8208 28.1107 71.0126 27.5722 71.3925 27.1664C71.7761 26.7607 72.311 26.5578 73.0008 26.5578C73.661 26.5578 74.159 26.7201 74.4946 27.041C74.8303 27.3619 75 27.8377 75 28.4685C75 29.1583 74.8045 29.7079 74.4172 30.121C74.0262 30.5341 73.495 30.7407 72.82 30.7407C72.1598 30.7407 71.6618 30.5599 71.3261 30.2021Z" fill="#6CBF84"/>
<path d="M0.505337 34.2596C0.169675 33.8981 0 33.426 0 32.8432C0 32.1682 0.191807 31.6297 0.571731 31.2239C0.955344 30.8182 1.49019 30.6153 2.17996 30.6153C2.84021 30.6153 3.33817 30.7776 3.67383 31.0985C4.00949 31.4194 4.17917 31.8952 4.17917 32.526C4.17917 33.2158 3.98367 33.7653 3.59637 34.1785C3.20538 34.5916 2.67423 34.7982 1.99921 34.7982C1.34265 34.7982 0.844687 34.6174 0.505337 34.2596Z" fill="#F26968"/>
</g>
<defs>
<clipPath id="clip0">
<path d="M0 0H75V50H0V0Z" fill="white"/>
</clipPath>
</defs>
</svg>
