<svg width="50" height="32" viewBox="0 0 50 32" fill="none" xmlns="http://www.w3.org/2000/svg">
<g clip-path="url(#clip0)">
<path fill-rule="evenodd" clip-rule="evenodd" d="M13.5271 17.0395C13.5271 17.5252 13.5755 17.9936 13.6719 18.4445C13.4291 18.6778 13.207 18.8705 13.0054 19.0225C12.4694 19.4285 11.8432 19.6316 11.1317 19.6316C10.681 19.6316 10.3158 19.4805 10.0383 19.1783C9.75865 18.8764 9.55952 18.3718 9.43853 17.6645C9.43938 17.6637 9.44009 17.6631 9.44065 17.6627L9.44048 17.6597C11.4002 15.0014 12.0808 13.92 13.226 11.2086C14.1936 8.92107 14.9455 6.08824 14.9455 4.457C14.9455 2.84464 14.8411 1.78941 14.3644 1.01982C13.8877 0.250234 13.5675 0 12.735 0C11.2574 0 9.98611 0.967886 8.91407 2.90366C7.84677 4.83943 7.17555 6.48483 6.62767 9.18075C6.08216 11.8767 6.07742 12.939 6.07742 15.0471C6.07742 15.9916 6.14604 16.8612 6.2831 17.6555C5.75081 18.064 5.28392 18.3803 4.98723 18.5812C4.8816 18.6528 4.79754 18.7097 4.73979 18.751C4.70025 18.7795 4.65545 18.8083 4.60899 18.8381C4.36285 18.9963 4.07027 19.1842 4.2678 19.5159C4.48973 20.2442 4.50604 20.399 4.55252 20.8403C4.55621 20.8753 4.56009 20.9121 4.56428 20.9512C4.61002 21.3779 5.08521 21.1081 5.43686 20.9085C5.48117 20.8833 5.52352 20.8593 5.5628 20.8379C6.06262 20.5648 6.53038 20.2566 6.95597 19.9423C7.02792 20.1033 7.10428 20.2594 7.18504 20.4106C7.92267 21.7916 9.05638 22.4833 10.5838 22.4833C11.6938 22.4833 12.6876 22.1905 13.5651 21.6027C13.9551 21.3408 14.3324 21.0465 14.697 20.7197C15.0009 21.1094 15.362 21.4464 15.7803 21.7302C16.5179 22.2307 17.4073 22.4809 18.4486 22.4809C19.6795 22.4809 20.7824 22.0465 21.7548 21.1731C22.7249 20.2996 23.3771 19.1382 23.7068 17.6863C24.1525 17.6687 24.5849 17.6309 25.004 17.5731C24.9882 17.7823 24.9804 17.9932 24.9804 18.2057C24.9804 19.4663 25.2982 20.4932 25.9314 21.2888C26.5647 22.0843 27.3569 22.4809 28.3127 22.4809C29.2662 22.4809 30.0394 22.0324 30.6299 21.1329C30.5712 21.3897 30.5162 21.6242 30.4651 21.8423C30.1244 23.2967 29.954 24.0239 29.954 25.7812C29.954 27.4053 30.2101 28.784 30.7224 29.9147C31.2347 31.0455 31.9866 31.6121 32.9756 31.6121C34.4343 31.6121 35.5063 30.9794 36.1918 29.0436C36.8772 27.1079 37.0598 25.8402 37.0598 23.2316C37.0598 22.9493 37.0582 22.6808 37.0566 22.4263V22.4262C37.0512 21.5401 37.0467 20.823 37.1168 20.2784C37.1279 19.9536 37.5308 19.8008 38.116 19.6391C38.2893 20.2184 38.5088 20.747 38.7745 21.2251C39.5382 22.599 40.7455 23.2859 42.3938 23.2859C43.5394 23.2859 44.4905 22.9153 45.3941 22.1717C45.9159 21.7397 46.5113 21.1485 46.7247 20.8922C46.9084 20.6716 46.5688 20.2991 46.3464 20.0551L46.3462 20.0548C46.3103 20.0154 46.2774 19.9794 46.2504 19.9479C46.2014 19.891 46.1472 19.818 46.0896 19.7406L46.0896 19.7406C45.9181 19.5099 45.7176 19.2403 45.5436 19.2421C45.3538 19.2421 45.1617 19.3294 44.9696 19.4994C44.6565 19.7756 44.3126 19.9998 43.9402 20.1722C43.5655 20.3445 43.2311 20.4319 42.937 20.4319C42.3986 20.4319 41.9717 20.2761 41.661 19.9644C41.3514 19.654 41.1336 19.1466 41.0124 18.4424C41.0207 18.4321 41.0285 18.4211 41.036 18.4097C42.6059 16.8243 43.4324 14.8339 44.4214 12.4523L44.4215 12.4523L44.4216 12.452C44.5186 12.2184 44.6172 11.9809 44.7182 11.7398C45.4961 9.88427 46.2883 6.81536 46.2883 5.2573L46.2885 5.07189V5.07184C46.2902 4.00519 46.2924 2.54662 45.8424 1.82013C45.3657 1.05054 45.0455 0.800307 44.213 0.800307C42.7378 0.800307 41.4665 1.76819 40.3992 3.70396C39.3319 5.63973 38.7271 7.28514 38.1792 9.98105C37.6337 12.677 37.6289 13.7393 37.6289 15.8474C37.6289 16.3348 37.6475 16.8019 37.6846 17.2486C37.2708 17.3756 36.9036 17.4639 36.6163 17.5282C35.9854 17.6674 35.5039 18.1419 35.4067 18.2718C35.0889 18.6967 34.93 19.1759 35.0035 19.9384C35.0285 20.5265 35.0177 20.9386 35.0045 21.4462V21.4462V21.4463C34.9952 21.8066 34.9845 22.2151 34.9845 22.7689C34.9845 23.8761 34.9134 24.5866 34.7758 25.5711C34.6359 26.5555 34.5339 27.0064 34.3347 27.5942C34.2951 27.7104 34.2613 27.8152 34.2313 27.9085C34.1099 28.2852 34.0489 28.4747 33.9101 28.4747C33.7014 28.4747 33.533 28.1938 33.4025 27.6319C33.2721 27.0701 33.2081 26.7278 33.2081 25.9322C33.2081 23.8053 33.4856 22.3652 34.0406 19.6009C34.2327 18.633 34.4888 17.5636 34.809 16.388C35.1316 15.2147 35.4304 14.1429 35.7079 13.175C35.7767 12.9343 35.919 12.4361 36.1372 11.6854C36.353 10.9347 36.4621 10.4555 36.4621 10.2478C36.4811 9.91964 36.3886 9.66941 36.1894 9.49708C35.9902 9.32475 35.5964 9.2374 35.0059 9.2374C34.4509 9.2374 34.0168 9.33419 33.7038 9.52305C33.3931 9.71426 33.1583 10.0849 33.0017 10.6373C32.7764 10.3611 32.4562 10.2218 32.0388 10.2218C30.8055 10.2218 29.6457 10.5995 28.5617 11.3502C27.4755 12.1009 26.6098 13.0901 25.9575 14.3176C25.8908 14.4433 25.8274 14.5697 25.7675 14.6968C25.0802 14.8406 24.4627 14.9296 23.9155 14.9645C23.7779 13.633 23.3036 12.514 22.4972 11.6075C21.6884 10.701 20.6258 10.2478 19.3071 10.2478C18.2304 10.2478 17.2484 10.5381 16.3638 11.1165C15.4791 11.6949 14.7842 12.4999 14.2813 13.5268C13.7785 14.5561 13.5271 15.727 13.5271 17.0395ZM10.8067 4.71667C10.3039 6.15198 9.9956 7.2615 9.61374 9.38613C9.29418 11.1641 9.28358 12.2263 9.26916 13.6697L9.26916 13.6698L9.26916 13.6699V13.67C9.26635 13.9513 9.26339 14.2471 9.25798 14.5655C10.5435 12.455 10.9823 11.3219 11.663 9.4239C12.3698 7.45744 12.6899 5.95368 12.6899 4.40034C12.6899 3.08779 12.6496 2.56372 12.1634 2.56372C11.7626 2.56608 11.3096 3.28373 10.8067 4.71667ZM20.0993 19.0626C20.5073 18.6141 20.78 17.9649 20.9199 17.1198C20.3816 16.7562 19.9689 16.2817 19.6843 15.6939C19.3973 15.1061 19.255 14.4852 19.255 13.829C19.255 13.5528 19.2811 13.2766 19.3332 13.0004H19.2028C18.5079 13.0004 17.9315 13.3332 17.4714 13.9989C17.0113 14.6646 16.7812 15.6018 16.7812 16.8105C16.7812 17.7619 16.9686 18.4866 17.3409 18.9871C17.7133 19.4875 18.1521 19.7378 18.6549 19.7378C19.2099 19.7354 19.6914 19.5112 20.0993 19.0626ZM31.2845 17.3511C31.128 18.0428 30.8695 18.633 30.5042 19.1264C30.139 19.6197 29.7571 19.8653 29.3563 19.8629C29.0076 19.8629 28.7349 19.7213 28.5357 19.4356C28.3364 19.1523 28.2368 18.7416 28.2368 18.2057C28.2368 17.2567 28.4242 16.3525 28.7966 15.498C29.1713 14.641 29.6741 13.9564 30.3074 13.4371C30.9406 12.9201 31.6403 12.651 32.404 12.6344L31.2845 17.3511ZM42.2871 5.51934C41.7843 6.95464 41.5424 8.06417 41.1605 10.1888C40.8424 11.9588 40.8305 13.2046 40.8161 14.7V14.7V14.7002C40.8133 14.9997 40.8103 15.3092 40.8048 15.6349C41.8422 13.935 42.2722 12.7046 42.816 11.1481C42.9186 10.8543 43.0253 10.5489 43.141 10.2266C43.7885 8.42063 44.0327 6.83425 44.0327 5.2691C44.0327 3.95656 43.9474 3.36638 43.639 3.36638C43.2429 3.36874 42.7923 4.0864 42.2871 5.51934Z" fill="#2F2B27"/>
<path d="M46.8127 19.3294C46.5969 19.098 46.4878 18.7959 46.4878 18.4229C46.4878 17.9909 46.6111 17.6462 46.8554 17.3865C47.1021 17.1268 47.446 16.997 47.8895 16.997C48.3141 16.997 48.6343 17.1009 48.8501 17.3063C49.0659 17.5116 49.175 17.8162 49.175 18.2199C49.175 18.6613 49.0493 19.013 48.8003 19.2774C48.5489 19.5418 48.2073 19.674 47.7733 19.674C47.3487 19.674 47.0286 19.5584 46.8127 19.3294Z" fill="#F26889"/>
<path d="M1.27452 21.9261C1.05869 21.6948 0.949585 21.3926 0.949585 21.0196C0.949585 20.5876 1.07292 20.243 1.31721 19.9833C1.56388 19.7236 1.90778 19.5938 2.35131 19.5938C2.77585 19.5938 3.09604 19.6977 3.31188 19.903C3.52771 20.1084 3.63681 20.4129 3.63681 20.8166C3.63681 21.2581 3.51111 21.6098 3.26207 21.8742C3.01066 22.1386 2.66912 22.2708 2.23509 22.2708C1.81291 22.2708 1.49272 22.1551 1.27452 21.9261Z" fill="#79D288"/>
</g>
<defs>
<clipPath id="clip0">
<rect width="48.2253" height="32" fill="white" transform="translate(0.949585)"/>
</clipPath>
</defs>
</svg>
