<svg width="28" height="28" viewBox="0 0 28 28" fill="none" xmlns="http://www.w3.org/2000/svg">
<path fill-rule="evenodd" clip-rule="evenodd" d="M3.80545 5.20544C0.935452 10.1373 3.62091 16.3291 7.55363 20.2745C10.3727 23.1063 14.3373 25.3082 18.1745 25.3082C19.7273 25.3082 21.2609 24.9454 22.6864 24.1245C23.3695 23.7172 23.7888 23.4092 24.6591 22.5909C25.8045 21.4518 25.8045 19.5809 24.6591 18.4291L23.1255 16.8954C21.9736 15.7436 20.1027 15.7436 18.9573 16.8954C17.7991 18.0536 16.7427 18.7345 15.3555 18.2763C13.4655 17.6591 10.2582 14.4518 9.64091 12.5618C9.1891 11.1745 9.86364 10.1182 11.0218 8.96C11.5818 8.4 11.8873 7.6618 11.8873 6.87271C11.8873 6.08362 11.5818 5.34546 11.0218 4.79183L9.48818 3.2518C8.92818 2.6918 8.19 2.38635 7.40091 2.38635C6.61182 2.38635 5.87364 2.6918 5.31364 3.2518C4.61307 3.93537 4.27816 4.35912 3.80545 5.20544ZM21.8082 22.5909C17.6527 24.9836 12.2818 22.5273 8.80091 19.0273C5.34546 15.5527 2.92727 10.2073 5.32636 6.09C5.72331 5.46008 5.97852 5.11022 6.56092 4.49909C7.00637 4.05364 7.7891 4.05364 8.23455 4.49909L9.77455 6.03908C9.99728 6.26181 10.1182 6.5609 10.1182 6.87271C10.1182 7.1909 9.99728 7.48363 9.77455 7.71272C8.52092 8.96635 7.17819 10.7163 7.96091 13.1091C8.75 15.5145 12.3964 19.1609 14.8018 19.95C17.2009 20.7391 18.9446 19.3964 20.2046 18.1364C20.6691 17.6782 21.42 17.6782 21.8782 18.1364L23.4118 19.67C23.8764 20.1345 23.8764 20.8854 23.4118 21.3436C22.8337 21.9138 22.5055 22.1894 21.8082 22.5909Z" fill="#C0A9A8"/>
</svg>
