<svg width="28" height="28" viewBox="0 0 28 28" fill="none" xmlns="http://www.w3.org/2000/svg">
<path fill-rule="evenodd" clip-rule="evenodd" d="M0 13.9743C0 21.7321 6.27934 28 13.9998 28C21.7718 28 28.0512 21.7321 27.9997 13.9743C27.9997 6.26789 21.7203 0 13.9998 0C6.27934 0 0 6.26789 0 13.9743ZM13.3519 17.7766C13.8745 18.1206 14.3232 18.4159 15.0806 18.4955C18.7865 18.7524 20.8453 14.7964 20.3306 11.2515C19.8674 8.01477 16.6248 6.31936 13.1763 6.73037C10.4483 6.98725 7.72044 9.2478 7.6175 12.3817C7.56603 14.0258 7.92632 15.3102 9.21307 15.9267C9.62483 16.1322 10.1395 15.8239 10.191 15.3616C10.2194 14.9086 10.0289 14.596 9.83497 14.2777C9.67696 14.0184 9.51663 13.7552 9.47042 13.4093C8.80131 9.2478 14.2571 6.37073 17.1395 9.29918C19.1468 11.3028 17.8086 17.5194 14.6174 16.8515C13.0421 16.5316 13.5167 15.0504 13.9935 13.5626C14.4358 12.1824 14.8799 10.7965 13.691 10.3267C11.6836 9.55606 10.6542 12.7414 11.5807 14.334C11.4368 15.1001 11.2382 15.8513 11.0375 16.6108C10.5921 18.296 10.136 20.0217 10.2425 22.0405C10.2425 22.4515 10.8086 22.657 11.1175 22.2973C12.0954 21.0643 12.5071 19.3175 12.8674 17.468C13.0415 17.5722 13.1998 17.6765 13.3519 17.7766Z" fill="#2F2B27"/>
</svg>
