<svg width="148" height="132" viewBox="0 0 148 132" fill="none" xmlns="http://www.w3.org/2000/svg">
<path opacity="0.7" d="M36.9174 4.34766C17.6232 4.34766 -1.1402 25.1195 0.0541369 44.1857C1.22004 62.7697 12.7937 79.0897 23.5451 93.3312C33.4719 106.482 47.6736 121.042 62.2402 129.193C65.764 131.164 69.1148 132 72.3234 132C83.589 132 93.0844 121.679 102.011 113.901C126.268 92.7705 163.145 54.1702 140.713 19.4966C134.27 9.53824 123.448 5.01044 112.426 5.01044C102.3 5.01044 92.0062 8.83508 84.7904 15.7859C79.9989 20.4017 77.1102 22.2665 74.5272 22.2665C71.0011 22.2665 68.0436 18.7887 61.5838 14.1017C55.0695 9.37195 45.1972 4.34766 36.9174 4.34766Z" fill="#DE8E45"/>
<path d="M38.5643 0C19.5426 0 1.04459 20.7718 2.22234 39.8357C3.37166 58.4196 14.7818 74.7397 25.3816 88.9811C35.1685 102.132 49.1711 116.692 63.5316 124.84C67.0056 126.812 70.309 127.648 73.4726 127.648C84.5794 127.648 93.9422 117.326 102.743 109.549C126.656 88.4181 163.015 49.8178 140.898 15.1442C134.547 5.18584 123.876 0.658029 113.009 0.658029C103.028 0.658029 92.8758 4.48267 85.7619 11.4335C81.0367 16.0492 78.1907 17.9141 75.6432 17.9141C72.1669 17.9141 69.2521 14.4362 62.8823 9.74928C56.4604 5.0243 46.728 0 38.5643 0Z" fill="#FFE5C4"/>
<path opacity="0.06" d="M90.7882 118.864C88.1151 120.453 85.1743 121.814 82.1742 122.634C78.1765 123.724 74.3447 123.741 70.3114 122.978C66.9488 122.341 63.8871 120.567 61.0767 118.683C57.9012 116.555 54.8704 114.184 51.9414 111.732C51.2826 111.181 50.6333 110.62 49.9864 110.055C45.9034 107.031 41.9981 103.722 38.4791 100.071C34.5193 95.9656 31.0666 91.3333 27.6826 86.7556C24.6162 82.6079 21.7252 78.3271 19.0616 73.9062C16.4217 69.5328 14.0046 65.0193 11.9264 60.3513C10.3008 56.6977 8.62538 53.0275 7.73674 49.1126C5.94997 41.24 5.6348 33.0515 7.31256 25.1338C8.48083 19.6201 11.27 14.3606 15.3696 10.5811C15.5639 10.2533 15.763 9.93021 15.9739 9.61426C7.33389 17.4298 1.54704 28.9133 2.22241 39.8361C3.37172 58.42 14.7819 74.7401 25.3816 88.9815C35.1686 102.133 49.1712 116.692 63.5317 124.84C67.0057 126.812 70.3091 127.648 73.4726 127.648C82.9847 127.648 91.2171 120.078 98.9139 113.017C96.3238 115.139 93.6532 117.163 90.7882 118.864Z" fill="black"/>
<path d="M73.5504 120.092C71.029 120.092 68.5503 119.381 65.9697 117.916C59.8748 114.457 53.5026 109.53 47.0286 103.27C41.3839 97.8138 35.8364 91.483 30.9856 84.9644C26.3244 78.7001 21.0115 71.3763 16.9664 63.7175C12.5871 55.4268 10.2364 47.8036 9.78138 40.418C9.30033 32.65 12.8691 23.9008 19.3266 17.0141C25.4997 10.4291 33.2131 6.6543 40.4834 6.6543C47.32 6.6543 55.9766 11.2391 61.3132 15.1659C62.9744 16.3869 64.3938 17.5343 65.6474 18.5463C69.1641 21.3827 71.9414 23.6253 75.6073 23.6253C79.6193 23.6253 83.2449 20.8696 87.7948 16.4249C93.6551 10.6975 102.331 7.27907 111.001 7.27907C120.931 7.27907 129.414 11.6525 134.277 19.278C138.739 26.2764 140.692 33.9185 140.075 41.993C139.528 49.1672 136.962 56.8949 132.445 64.9551C125.668 77.0515 114.352 90.1479 98.8092 103.883C97.5699 104.978 96.3044 106.138 95.0817 107.261C88.2047 113.568 81.0909 120.092 73.5504 120.092Z" fill="#F26889"/>
<path d="M73.6488 114.228C71.3005 114.228 68.9924 113.592 66.5918 112.278C60.9187 109.178 54.985 104.76 48.9588 99.1461C43.7028 94.2524 38.5391 88.5772 34.0225 82.7334C29.6811 77.1176 24.7356 70.5515 20.9701 63.6838C16.8942 56.2507 14.7045 49.4162 14.2804 42.7932C13.8325 35.828 17.1548 27.984 23.1668 21.8099C28.9134 15.9066 36.0936 12.5215 42.8639 12.5215C49.2289 12.5215 57.2883 16.6336 62.2553 20.1518C63.8003 21.2469 65.125 22.2755 66.2909 23.183C69.5658 25.7272 72.1512 27.7369 75.5636 27.7369C79.3006 27.7369 82.6751 25.2663 86.9098 21.2825C92.3672 16.149 100.443 13.0821 108.514 13.0821C117.759 13.0821 125.657 17.0018 130.183 23.8386C134.34 30.1125 136.155 36.9636 135.581 44.2043C135.072 50.6373 132.683 57.5644 128.477 64.7932C122.169 75.64 111.631 87.3823 97.1612 99.6972C96.0071 100.678 94.8294 101.719 93.6919 102.726C87.2913 108.377 80.6703 114.228 73.6488 114.228Z" fill="#F9C981"/>
<g opacity="0.4">
<path opacity="0.4" d="M113.091 23.6612C107.576 24.7848 106.036 26.8278 106.036 30.7332C106.036 34.6386 109.195 37.8052 113.091 37.8052C116.987 37.8052 120.145 34.6386 120.145 30.7332C120.148 26.8278 116.911 22.8844 113.091 23.6612Z" fill="#C0A9A8"/>
<path opacity="0.4" d="M84.289 83.2138C80.5283 82.1947 77.2344 86.3805 77.2344 90.2859C77.2344 94.1913 79.1775 97.3793 84.289 97.3579C88.1848 97.3413 91.3437 94.1913 91.3437 90.2859C91.3437 86.3805 89.1849 84.5394 84.289 83.2138Z" fill="#C0A9A8"/>
<path opacity="0.4" d="M59.2932 30.7831C56.3097 33.2965 55.9235 37.7578 58.4306 40.7486C60.9378 43.7394 65.8455 43.1146 68.8289 40.6013C71.8124 38.088 71.7413 34.641 69.2342 31.6502C66.727 28.657 62.2767 28.2698 59.2932 30.7831Z" fill="#C0A9A8"/>
<path opacity="0.4" d="M50.524 64.7085C47.1424 66.6517 45.9741 70.9728 47.9102 74.3603C49.8486 77.7502 53.9364 79.8621 57.5384 76.9806C60.5834 74.5432 62.0882 70.7162 60.1521 67.3287C58.2161 63.9388 53.9056 62.7653 50.524 64.7085Z" fill="#C0A9A8"/>
<path opacity="0.4" d="M110.641 63.692C105.126 64.8156 103.586 66.8586 103.586 70.764C103.586 74.6694 106.745 77.836 110.641 77.836C114.536 77.836 117.695 74.6694 117.695 70.764C117.695 66.8586 114.458 62.9128 110.641 63.692Z" fill="#C0A9A8"/>
<path opacity="0.4" d="M28.3807 40.0308C24.8759 41.1782 22.9635 44.9577 24.1081 48.4712C25.2527 51.9846 29.0229 53.9017 32.5277 52.7543C36.0325 51.6069 38.6202 47.5281 36.8003 44.3139C34.1723 39.6745 31.8855 38.8834 28.3807 40.0308Z" fill="#C0A9A8"/>
<path opacity="0.4" d="M85.4747 64.9697C82.3372 67.2882 81.7969 72.5714 84.1073 75.7167C86.4202 78.8619 90.8373 79.5318 93.9725 77.2133C97.11 74.8947 97.7782 70.4691 95.4654 67.3238C93.1525 64.1786 88.6098 62.6511 85.4747 64.9697Z" fill="#C0A9A8"/>
</g>
<path d="M121.098 29.7846C121.098 33.69 117.939 36.8566 114.043 36.8566C110.147 36.8566 106.988 33.69 106.988 29.7846C106.988 25.8792 108.531 23.8362 114.043 22.7126C117.861 21.9334 121.098 25.8768 121.098 29.7846Z" fill="#F26889"/>
<path d="M113.831 24.3374C113.831 24.3374 112.13 24.1379 110.829 24.7389C109.528 25.3399 107.326 28.9531 108.528 31.6613C109.729 34.3694 111.831 35.5738 112.732 35.1723C113.632 34.7709 113.232 33.4667 113.032 31.6613C112.833 29.8559 113.333 27.0456 113.833 26.1429C114.331 25.2402 114.632 24.537 113.831 24.3374Z" fill="#D12417"/>
<path d="M114.379 35.2151C114.379 35.2151 116.081 35.4146 117.382 34.8136C118.683 34.2126 120.884 30.5994 119.683 27.8912C118.481 25.1831 116.379 23.9787 115.479 24.3802C114.578 24.7816 114.979 26.0858 115.178 27.8912C115.377 29.6967 114.877 32.5069 114.377 33.4096C113.879 34.3123 113.581 35.0155 114.379 35.2151Z" fill="#D12417"/>
<path d="M110.802 30.3047C110.445 30.2904 110.165 29.9864 110.179 29.6253C110.193 29.2666 110.497 28.9863 110.857 29.0005C111.215 29.0148 112.101 29.459 112.087 29.8201C112.073 30.1812 111.16 30.3213 110.802 30.3047Z" fill="#F26889"/>
<path d="M111.393 27.393C111.075 27.2267 110.952 26.8324 111.118 26.5117C111.284 26.1933 111.677 26.0698 111.997 26.2361C112.314 26.4024 112.926 27.1839 112.76 27.5046C112.592 27.8253 111.71 27.5616 111.393 27.393Z" fill="#F26889"/>
<path d="M111.51 33.229C111.171 33.3501 110.799 33.172 110.679 32.8346C110.558 32.4949 110.735 32.122 111.072 32.0008C111.411 31.8797 112.397 31.9581 112.517 32.2978C112.641 32.6375 111.849 33.1078 111.51 33.229Z" fill="#F26889"/>
<path d="M117.718 29.405C118.076 29.3884 118.381 29.6687 118.395 30.0274C118.412 30.3861 118.132 30.6925 117.775 30.7068C117.417 30.7234 116.495 30.3552 116.481 29.9941C116.464 29.6354 117.357 29.4193 117.718 29.405Z" fill="#F26889"/>
<path d="M117.371 32.3574C117.703 32.4975 117.857 32.88 117.72 33.2126C117.58 33.5452 117.198 33.6996 116.867 33.5618C116.535 33.424 115.859 32.6947 115.999 32.3645C116.139 32.0295 117.04 32.2172 117.371 32.3574Z" fill="#F26889"/>
<path d="M116.764 26.5512C117.091 26.4015 117.478 26.5464 117.627 26.8743C117.776 27.2021 117.632 27.5893 117.305 27.739C116.978 27.8886 115.987 27.8934 115.838 27.5656C115.689 27.2354 116.437 26.7009 116.764 26.5512Z" fill="#F26889"/>
<path d="M92.2919 89.3347C92.2919 93.2401 89.1331 96.3901 85.2373 96.4067C80.1234 96.4281 78.1826 93.2401 78.1826 89.3347C78.1826 85.4293 81.4765 81.2436 85.2373 82.2627C90.1331 83.5882 92.2919 85.4293 92.2919 89.3347Z" fill="#F26889"/>
<path d="M85.0264 83.8902C85.0264 83.8902 83.3249 83.6906 82.024 84.2916C80.723 84.8927 78.5215 88.5059 79.723 91.214C80.9244 93.9221 83.0263 95.1265 83.9268 94.7251C84.8273 94.3236 84.4268 93.0194 84.2278 91.214C84.0287 89.4086 84.5287 86.5983 85.0287 85.6956C85.5264 84.7929 85.8273 84.0897 85.0264 83.8902Z" fill="#D12417"/>
<path d="M85.5755 94.7678C85.5755 94.7678 87.2769 94.9673 88.5779 94.3663C89.8789 93.7653 92.0804 90.1521 90.8789 87.444C89.6775 84.7358 87.5755 83.5314 86.675 83.9329C85.7745 84.3344 86.175 85.6385 86.3741 87.444C86.5731 89.2494 86.0731 92.0597 85.5731 92.9624C85.0755 93.8651 84.7745 94.5683 85.5755 94.7678Z" fill="#D12417"/>
<path d="M81.9948 89.8574C81.637 89.8432 81.3574 89.5391 81.3716 89.178C81.3858 88.8193 81.6891 88.539 82.0493 88.5533C82.4095 88.5675 83.2934 89.0117 83.2792 89.3728C83.265 89.7339 82.355 89.8717 81.9948 89.8574Z" fill="#F26889"/>
<path d="M82.586 86.9447C82.2684 86.7785 82.1452 86.3841 82.3111 86.0634C82.477 85.7451 82.8703 85.6216 83.1903 85.7878C83.5078 85.9541 84.1192 86.7357 83.9533 87.0564C83.7874 87.3771 82.9059 87.111 82.586 86.9447Z" fill="#F26889"/>
<path d="M82.7057 92.7817C82.3668 92.9029 81.9947 92.7247 81.8739 92.3874C81.753 92.0477 81.9308 91.6747 82.2673 91.5536C82.6061 91.4324 83.5919 91.5108 83.7128 91.8505C83.836 92.1902 83.0445 92.6606 82.7057 92.7817Z" fill="#F26889"/>
<path d="M88.912 88.9548C89.2699 88.9382 89.5756 89.2185 89.5898 89.5772C89.6064 89.9359 89.3267 90.2424 88.9689 90.2566C88.6111 90.2732 87.6893 89.905 87.675 89.5439C87.6584 89.1876 88.5542 88.9714 88.912 88.9548Z" fill="#F26889"/>
<path d="M88.5657 91.9074C88.8974 92.0476 89.0515 92.43 88.914 92.7626C88.7742 93.0952 88.3927 93.2496 88.0609 93.1118C87.7292 92.9717 87.0538 92.2448 87.1936 91.9146C87.3334 91.5796 88.2363 91.7697 88.5657 91.9074Z" fill="#F26889"/>
<path d="M87.9577 86.102C88.2848 85.9523 88.671 86.0972 88.8203 86.425C88.9696 86.7529 88.825 87.1401 88.498 87.2897C88.171 87.4394 87.1805 87.4441 87.0312 87.1163C86.8819 86.7885 87.6307 86.2516 87.9577 86.102Z" fill="#F26889"/>
<path d="M70.1824 30.6973C72.6896 33.6881 72.7607 37.1374 69.7772 39.6484C66.7937 42.1617 61.886 42.7865 59.3789 39.7957C56.8717 36.8048 57.258 32.3435 60.2415 29.8302C63.2249 27.3193 67.6753 27.7065 70.1824 30.6973Z" fill="#F26889"/>
<path d="M61.1263 31.2097C61.1263 31.2097 59.695 32.1528 59.086 33.4523C58.477 34.7517 59.1073 38.9374 61.7662 40.2368C64.425 41.5363 66.8066 41.1039 67.2378 40.2155C67.6691 39.327 66.5269 38.5858 65.2141 37.3339C63.9013 36.0796 62.4818 33.6067 62.2875 32.5923C62.0884 31.5803 61.8681 30.8487 61.1263 31.2097Z" fill="#D12417"/>
<path d="M68.5254 39.1873C68.5254 39.1873 69.9567 38.2442 70.5657 36.9448C71.1748 35.6454 70.5444 31.4596 67.8856 30.1602C65.2268 28.8608 62.8452 29.2931 62.4139 30.1816C61.9827 31.0701 63.1248 31.8112 64.4377 33.0631C65.7505 34.3174 67.1699 36.7904 67.3643 37.8047C67.5633 38.8191 67.7837 39.5508 68.5254 39.1873Z" fill="#D12417"/>
<path d="M62.6339 37.7357C62.3495 37.9566 61.9419 37.902 61.7215 37.6169C61.5011 37.3318 61.5556 36.9232 61.84 36.7023C62.1244 36.4814 63.0888 36.2509 63.3069 36.536C63.5249 36.8211 62.9182 37.5171 62.6339 37.7357Z" fill="#F26889"/>
<path d="M61.2205 35.1232C60.8698 35.1992 60.5238 34.9783 60.4456 34.6267C60.3698 34.2751 60.5901 33.9283 60.9409 33.8499C61.2916 33.7739 62.2608 33.9758 62.339 34.3298C62.4148 34.6814 61.5712 35.0472 61.2205 35.1232Z" fill="#F26889"/>
<path d="M65.0539 39.5185C64.8715 39.8296 64.4734 39.9342 64.1629 39.7513C63.8525 39.5683 63.7482 39.1692 63.9307 38.8581C64.1132 38.5469 64.9189 37.972 65.2293 38.1525C65.5397 38.3331 65.234 39.2073 65.0539 39.5185Z" fill="#F26889"/>
<path d="M67.3496 32.5861C67.615 32.3438 68.025 32.3604 68.2691 32.6265C68.5108 32.8925 68.4942 33.3035 68.2288 33.5482C67.9634 33.7905 67.0226 34.1041 66.7809 33.838C66.5391 33.5719 67.0866 32.8284 67.3496 32.5861Z" fill="#F26889"/>
<path d="M68.9818 35.0676C69.3254 34.9607 69.6903 35.1531 69.7946 35.4976C69.9012 35.8421 69.7093 36.2079 69.3657 36.3124C69.0221 36.4193 68.0387 36.2982 67.932 35.9537C67.8277 35.6116 68.6406 35.1745 68.9818 35.0676Z" fill="#F26889"/>
<path d="M64.7892 31.0186C64.9433 30.6931 65.3319 30.5554 65.6565 30.7098C65.9812 30.8642 66.1186 31.2538 65.9646 31.5792C65.8106 31.9047 65.0546 32.5461 64.73 32.3917C64.4053 32.2372 64.6352 31.3417 64.7892 31.0186Z" fill="#F26889"/>
<path d="M61.1018 66.3773C63.0403 69.7672 61.5331 73.5942 58.488 76.0291C54.8861 78.9107 50.796 76.7988 48.8575 73.4089C46.9191 70.019 48.0897 65.6979 51.4713 63.7547C54.8529 61.8138 59.1634 62.9874 61.1018 66.3773Z" fill="#F26889"/>
<path d="M52.097 65.2733C52.097 65.2733 50.5212 65.9479 49.6918 67.1191C48.8624 68.2902 48.7415 72.5211 51.1278 74.2719C53.5141 76.0227 55.9336 76.0203 56.5165 75.2245C57.0995 74.4263 56.1042 73.4951 55.0355 72.027C53.9667 70.5589 53.007 67.8721 52.9928 66.8412C52.9786 65.8078 52.8909 65.0476 52.097 65.2733Z" fill="#D12417"/>
<path d="M57.967 74.4376C57.967 74.4376 59.5429 73.7629 60.3723 72.5918C61.2017 71.4206 61.3225 67.1898 58.9362 65.439C56.5499 63.6882 54.1305 63.6906 53.5475 64.4864C52.9646 65.2846 53.9598 66.2158 55.0286 67.6815C56.0973 69.1496 57.057 71.8363 57.0713 72.8673C57.0855 73.9031 57.1732 74.6633 57.967 74.4376Z" fill="#D12417"/>
<path d="M52.4257 71.9631C52.1057 72.1294 51.7147 72.0035 51.5489 71.6852C51.383 71.3645 51.5086 70.9725 51.8261 70.8062C52.146 70.6399 53.1342 70.5853 53.3001 70.9036C53.4659 71.222 52.7456 71.7969 52.4257 71.9631Z" fill="#F26889"/>
<path d="M51.4981 69.1405C51.1403 69.1548 50.837 68.8721 50.8228 68.5134C50.8086 68.1523 51.0906 67.8506 51.4484 67.8363C51.8086 67.8221 52.7257 68.195 52.7399 68.5561C52.7517 68.9148 51.856 69.1262 51.4981 69.1405Z" fill="#F26889"/>
<path d="M54.4925 74.1463C54.2579 74.4195 53.8479 74.4528 53.5754 74.2176C53.3029 73.9824 53.2697 73.5714 53.5043 73.2983C53.7389 73.0251 54.6346 72.6022 54.9072 72.835C55.1797 73.0678 54.7271 73.8731 54.4925 74.1463Z" fill="#F26889"/>
<path d="M57.9814 67.732C58.2847 67.5396 58.6875 67.6298 58.8795 67.9339C59.0714 68.238 58.9814 68.6418 58.6781 68.8342C58.3747 69.0267 57.3937 69.1668 57.2017 68.8627C57.0074 68.5587 57.678 67.9244 57.9814 67.732Z" fill="#F26889"/>
<path d="M59.1459 70.4656C59.5014 70.4229 59.826 70.677 59.8711 71.0334C59.9137 71.3897 59.6602 71.7152 59.3047 71.7603C58.9492 71.803 58.0014 71.5109 57.9587 71.1522C57.9137 70.7958 58.7881 70.5084 59.1459 70.4656Z" fill="#F26889"/>
<path d="M55.7374 65.7314C55.9459 65.4392 56.3535 65.3727 56.645 65.5818C56.9364 65.7908 57.0028 66.1994 56.7942 66.4916C56.5857 66.7838 55.7279 67.2827 55.4364 67.0712C55.1449 66.8646 55.5288 66.026 55.7374 65.7314Z" fill="#F26889"/>
<path d="M118.645 69.8129C118.645 73.7183 115.487 76.8849 111.591 76.8849C107.695 76.8849 104.536 73.7183 104.536 69.8129C104.536 65.9074 106.079 63.8645 111.591 62.7408C115.408 61.9616 118.645 65.9074 118.645 69.8129Z" fill="#F26889"/>
<path d="M111.38 64.3658C111.38 64.3658 109.678 64.1662 108.377 64.7672C107.076 65.3682 104.875 68.9815 106.076 71.6896C107.278 74.3977 109.38 75.6021 110.28 75.2007C111.181 74.7992 110.78 73.495 110.581 71.6896C110.382 69.8842 110.882 67.0739 111.382 66.1712C111.88 65.2685 112.181 64.5677 111.38 64.3658Z" fill="#D12417"/>
<path d="M111.929 75.2463C111.929 75.2463 113.63 75.4459 114.931 74.8448C116.232 74.2438 118.434 70.6306 117.232 67.9225C116.031 65.2144 113.929 64.0099 113.029 64.4114C112.128 64.8129 112.529 66.1171 112.728 67.9225C112.927 69.7279 112.427 72.5382 111.927 73.4409C111.429 74.3436 111.128 75.0444 111.929 75.2463Z" fill="#D12417"/>
<path d="M108.347 70.3359C107.99 70.3217 107.71 70.0176 107.724 69.6565C107.738 69.2955 108.042 69.0175 108.402 69.0318C108.76 69.046 109.646 69.4902 109.632 69.8513C109.618 70.2124 108.705 70.3502 108.347 70.3359Z" fill="#F26889"/>
<path d="M108.941 67.4233C108.624 67.257 108.501 66.8626 108.667 66.5419C108.832 66.2236 109.226 66.1001 109.546 66.2664C109.863 66.4327 110.475 67.2142 110.309 67.5349C110.143 67.8556 109.261 67.5896 108.941 67.4233Z" fill="#F26889"/>
<path d="M109.057 73.2602C108.718 73.3814 108.346 73.2032 108.225 72.8659C108.105 72.5262 108.282 72.1532 108.619 72.0321C108.958 71.9109 109.943 71.9893 110.064 72.329C110.188 72.6687 109.396 73.1391 109.057 73.2602Z" fill="#F26889"/>
<path d="M115.265 69.4333C115.622 69.4167 115.928 69.697 115.942 70.0557C115.959 70.4144 115.679 70.7209 115.321 70.7351C114.964 70.7518 114.042 70.3835 114.028 70.0225C114.011 69.6661 114.907 69.4499 115.265 69.4333Z" fill="#F26889"/>
<path d="M114.918 72.3857C115.25 72.5259 115.404 72.9083 115.267 73.2409C115.127 73.5735 114.745 73.7279 114.413 73.5901C114.082 73.4499 113.406 72.723 113.546 72.3928C113.686 72.0579 114.589 72.2455 114.918 72.3857Z" fill="#F26889"/>
<path d="M114.309 66.5795C114.636 66.4298 115.023 66.5748 115.172 66.9026C115.321 67.2304 115.177 67.6177 114.85 67.7673C114.523 67.917 113.532 67.9217 113.383 67.5939C113.233 67.2661 113.982 66.7292 114.309 66.5795Z" fill="#F26889"/>
<path d="M33.4779 51.8035C29.9731 52.9509 26.2029 51.0338 25.0583 47.5203C23.9137 44.0069 25.8261 40.2274 29.3309 39.08C32.8357 37.9326 35.1201 38.7213 37.7505 43.3631C39.5704 46.5772 36.9827 50.6561 33.4779 51.8035Z" fill="#F26889"/>
<path d="M36.2285 43.6529C36.2285 43.6529 35.9086 42.0589 34.9867 41.0635C34.0649 40.0682 30.1762 39.1441 28.098 41.0231C26.0198 42.9022 25.5577 45.1518 26.1833 45.8455C26.8089 46.5392 27.861 45.7956 29.4227 45.0853C30.9843 44.375 33.6526 43.9997 34.61 44.185C35.565 44.3703 36.283 44.4344 36.2285 43.6529Z" fill="#D12417"/>
<path d="M26.6291 47.3446C26.6291 47.3446 26.949 48.9386 27.8709 49.9339C28.7927 50.9293 32.6814 51.8534 34.7596 49.9743C36.8379 48.0952 37.3 45.8456 36.6744 45.1519C36.0488 44.4583 34.9966 45.2018 33.435 45.9121C31.8733 46.6224 29.205 46.9977 28.2476 46.8124C27.2926 46.6272 26.5723 46.563 26.6291 47.3446Z" fill="#D12417"/>
<path d="M29.9841 42.6721C29.8917 42.3443 30.0837 42.0022 30.4107 41.9119C30.7377 41.8193 31.079 42.0117 31.169 42.3395C31.2591 42.6674 31.124 43.5962 30.7946 43.6889C30.4676 43.7815 30.0766 43 29.9841 42.6721Z" fill="#F26889"/>
<path d="M32.7701 42.3507C32.8269 42.0157 33.1445 41.7877 33.4786 41.8447C33.8127 41.9017 34.0402 42.22 33.9834 42.555C33.9265 42.8899 33.4052 43.6715 33.071 43.6145C32.7369 43.5598 32.7132 42.688 32.7701 42.3507Z" fill="#F26889"/>
<path d="M27.5693 44.1736C27.3608 43.9051 27.4105 43.5156 27.6807 43.3089C27.9485 43.0998 28.3371 43.1497 28.5433 43.4205C28.7518 43.689 28.9698 44.6036 28.702 44.8126C28.4319 45.0169 27.7778 44.442 27.5693 44.1736Z" fill="#F26889"/>
<path d="M32.8244 48.6443C32.9429 48.9626 32.7818 49.319 32.4642 49.4377C32.1467 49.5565 31.7912 49.395 31.6728 49.0766C31.5543 48.7583 31.6135 47.82 31.9311 47.7012C32.2486 47.5824 32.706 48.326 32.8244 48.6443Z" fill="#F26889"/>
<path d="M30.073 49.2018C30.0446 49.5415 29.7484 49.7934 29.4095 49.7648C29.0707 49.7363 28.8195 49.4394 28.8479 49.0997C28.8763 48.76 29.329 47.938 29.6678 47.9665C30.0067 47.9927 30.1015 48.8621 30.073 49.2018Z" fill="#F26889"/>
<path d="M35.1041 46.9452C35.3339 47.197 35.3173 47.5866 35.0685 47.817C34.8173 48.0474 34.4287 48.0308 34.1988 47.7814C33.969 47.5296 33.6728 46.6387 33.924 46.4083C34.1728 46.1755 34.8742 46.6934 35.1041 46.9452Z" fill="#F26889"/>
<path d="M96.2009 25.585C96.2009 25.585 90.5254 27.6541 87.9471 29.2053C85.3689 30.7565 88.4637 35.4103 93.106 37.7383C97.7483 40.0663 105.488 42.6509 106.002 38.7717C106.519 34.8924 104.971 34.6334 102.649 30.4976C100.327 26.3594 98.0066 26.3594 96.2009 25.585Z" fill="#FDECD5"/>
<path d="M118.029 42.2609C115.662 42.0447 109.776 46.9146 110.806 50.5349C111.837 54.1553 116.996 55.9654 120.608 57.7756C124.219 59.5858 128.345 60.6192 128.345 56.4833C128.345 52.3475 130.667 49.7605 127.314 46.1401C123.961 42.5198 120.866 42.5198 118.029 42.2609Z" fill="#FDECD5"/>
<path d="M33.3905 25.8219C31.1867 29.3567 30.8123 35.1293 34.1654 34.8727C37.5186 34.6138 47.0614 36.9419 48.0946 33.8394C49.1254 30.7369 52.9952 28.1499 49.1254 25.5653C45.2557 22.9807 44.4832 19.8759 40.6134 20.6527C36.7437 21.4271 34.6797 23.7552 33.3905 25.8219Z" fill="#FDECD5"/>
<path d="M35.4177 56.4004C33.8015 61.3107 39.2874 66.038 43.4131 63.0258C47.5412 60.0136 53.7309 59.1109 53.2143 54.5926C52.6977 50.0743 51.9251 46.4611 49.0862 47.3638C46.2497 48.2689 36.7068 52.4855 35.4177 56.4004Z" fill="#FDECD5"/>
<path d="M58.35 91.0428C57.5751 94.9221 59.8974 100.609 66.6037 100.868C73.31 101.127 78.7272 104.229 78.7272 100.35C78.7272 96.4709 77.9523 93.8863 75.3741 91.5583C72.7958 89.2303 69.9569 84.0587 66.3454 85.6123C62.734 87.1635 58.8713 88.4321 58.35 91.0428Z" fill="#FDECD5"/>
<path d="M89.3331 79.2218C89.9753 81.4739 93.2029 84.9113 96.556 84.3934C99.9092 83.8755 105.068 83.6166 105.068 81.032C105.068 78.4474 104.551 73.5324 102.49 70.171C100.426 66.8096 97.0726 66.8096 94.7527 66.8096C92.4303 66.8096 87.0155 69.1376 86.4989 71.9812C86.0416 74.4874 88.8165 77.4117 89.3331 79.2218Z" fill="#FDECD5"/>
<path opacity="0.4" d="M54.5837 47.2711C54.5837 47.2711 54.1359 65.3467 75.6339 60.6312C75.6339 60.6312 76.9775 42.5556 54.5837 47.2711Z" fill="#C0A9A8"/>
<path opacity="0.4" d="M75.6729 60.3415C75.6729 60.3415 93.5547 69.3258 99.1093 50.5043C99.1093 50.5043 81.654 40.8287 75.6729 60.3415Z" fill="#C0A9A8"/>
<path d="M54.5837 45.846C54.5837 45.846 54.1359 63.9215 75.6339 59.2061C75.6339 59.2061 76.9775 41.1281 54.5837 45.846Z" fill="#67AD45"/>
<path opacity="0.08" d="M67.8036 53.871C63.704 50.8279 59.358 48.1293 54.7086 46.0055C54.6659 45.9865 54.6257 45.9628 54.583 45.9414C54.5854 47.3121 55.0333 62.9646 74.2374 59.4821C72.1687 57.5294 70.0264 55.6503 67.8036 53.871Z" fill="black"/>
<path d="M75.6729 58.9167C75.6729 58.9167 93.5547 67.901 99.1093 49.0795C99.1093 49.0795 81.654 39.4039 75.6729 58.9167Z" fill="#67AD45"/>
<path opacity="0.08" d="M88.3859 54.1057C84.2223 55.3291 80.0137 56.3957 75.9734 57.9921C75.8715 58.2914 75.772 58.6002 75.6748 58.9162C75.6748 58.9162 92.7438 67.4872 98.706 50.3262C95.3813 51.8798 91.8741 53.0794 88.3859 54.1057Z" fill="black"/>
<path d="M105.142 60.4196C104.332 60.4196 103.571 60.1037 103 59.5288C102.427 58.9563 102.111 58.1913 102.111 57.3813C102.111 56.5688 102.427 55.8063 103 55.2338C104.182 54.0484 106.104 54.0484 107.287 55.2338C108.469 56.4192 108.469 58.3458 107.287 59.5312C106.713 60.1037 105.95 60.4196 105.142 60.4196ZM105.142 56.1555C104.829 56.1555 104.514 56.2743 104.275 56.5142C103.796 56.9941 103.796 57.7732 104.275 58.2507C104.754 58.7306 105.528 58.7306 106.007 58.2507C106.486 57.7709 106.486 56.9917 106.007 56.5142C105.768 56.2743 105.455 56.1555 105.142 56.1555Z" fill="#816E68"/>
<path d="M80.4235 40.9645C79.613 40.9645 78.8523 40.6486 78.2812 40.0737C77.7101 39.5012 77.3926 38.7363 77.3926 37.9262C77.3926 37.1138 77.7078 36.3512 78.2812 35.7787C79.4637 34.5933 81.3856 34.5933 82.5681 35.7787C83.7506 36.9641 83.7506 38.8907 82.5681 40.0761C81.9946 40.6486 81.2339 40.9645 80.4235 40.9645ZM80.4235 36.698C80.1107 36.698 79.7955 36.8168 79.5561 37.0567C79.0775 37.5366 79.0775 38.3158 79.5561 38.7933C80.0348 39.2731 80.8121 39.2731 81.2884 38.7933C81.7671 38.3134 81.7671 37.5342 81.2884 37.0567C81.0514 36.8168 80.7363 36.698 80.4235 36.698Z" fill="#816E68"/>
<path d="M70.2135 63.8982C69.403 63.8982 68.6424 63.5822 68.0713 63.0073C67.4978 62.4324 67.1826 61.6699 67.1826 60.8598C67.1826 60.0474 67.4978 59.2848 68.0713 58.7123C69.2538 57.5269 71.1756 57.5269 72.3581 58.7123C73.5406 59.8977 73.5406 61.8243 72.3581 63.0097C71.7822 63.5822 71.0216 63.8982 70.2135 63.8982ZM70.2135 59.634C69.9007 59.634 69.5855 59.7528 69.3462 59.9927C68.8675 60.4726 68.8675 61.2518 69.3462 61.7293C69.8249 62.2091 70.6021 62.2091 71.0784 61.7293C71.5571 61.2494 71.5571 60.4702 71.0784 59.9927C70.8391 59.7528 70.5263 59.634 70.2135 59.634Z" fill="#816E68"/>
<path d="M29.194 63.446C28.3835 63.446 27.6228 63.13 27.0517 62.5552C26.4783 61.9803 26.1631 61.2177 26.1631 60.4077C26.1631 59.5952 26.4783 58.8327 27.0517 58.2601C28.2342 57.0747 30.1561 57.0747 31.3385 58.2601C32.521 59.4456 32.521 61.3721 31.3385 62.5575C30.7627 63.13 30.002 63.446 29.194 63.446ZM29.194 59.1819C28.8812 59.1819 28.566 59.3006 28.3266 59.5406C27.848 60.0204 27.848 60.7996 28.3266 61.2771C28.8053 61.757 29.5826 61.757 30.0589 61.2771C30.5376 60.7972 30.5376 60.0181 30.0589 59.5406C29.8196 59.3006 29.5068 59.1819 29.194 59.1819Z" fill="#816E68"/>
<path d="M51.3111 94.6344C50.5007 94.6344 49.74 94.3185 49.1689 93.7436C48.5978 93.1687 48.2803 92.4062 48.2803 91.5961C48.2803 90.7837 48.5954 90.0211 49.1689 89.4486C50.3514 88.2632 52.2733 88.2632 53.4557 89.4486C54.6382 90.634 54.6382 92.5606 53.4557 93.746C52.8823 94.3185 52.1192 94.6344 51.3111 94.6344ZM51.3111 90.368C50.9983 90.368 50.6832 90.4867 50.4438 90.7267C49.9651 91.2065 49.9651 91.9857 50.4438 92.4632C50.9225 92.943 51.6998 92.943 52.1761 92.4632C52.6548 91.9833 52.6548 91.2041 52.1761 90.7267C51.9391 90.4891 51.6239 90.368 51.3111 90.368Z" fill="#816E68"/>
<path d="M127.3 37.6647C126.49 37.6647 125.729 37.3488 125.158 36.7739C124.587 36.2014 124.27 35.4365 124.27 34.6264C124.27 33.814 124.585 33.0514 125.158 32.4789C126.341 31.2935 128.263 31.2935 129.445 32.4789C130.628 33.6643 130.628 35.5909 129.445 36.7763C128.872 37.3488 128.111 37.6647 127.3 37.6647ZM127.3 33.3982C126.988 33.3982 126.672 33.517 126.433 33.7569C125.954 34.2368 125.954 35.016 126.433 35.4935C126.912 35.9733 127.689 35.9733 128.165 35.4935C128.644 35.0136 128.644 34.2344 128.165 33.7569C127.928 33.517 127.613 33.3982 127.3 33.3982Z" fill="#816E68"/>
<path opacity="0.4" d="M75.829 71.3241C75.528 71.6899 75.1868 71.9797 74.8171 72.2078L74.3503 68.3451C72.2128 67.7821 69.5658 69.2122 69.5658 69.2122C69.6843 70.1814 70.2056 71.7731 70.5824 72.8397C70.0042 72.728 69.5871 72.5641 69.4734 72.443C69.0777 72.0201 65.8477 73.291 67.497 76.194C68.7933 78.4769 71.445 78.8641 73.7981 78.3343C76.1915 78.0279 78.5376 76.7617 78.9783 74.17C79.5399 70.8799 76.2105 70.8585 75.829 71.3241Z" fill="#C0A9A8"/>
<path opacity="0.4" d="M102.904 43.9147C102.919 43.442 103.013 43.0025 103.165 42.5963L105.888 45.3686C107.923 44.5062 109.146 41.753 109.146 41.753C108.461 41.0569 107.08 40.1162 106.132 39.5033C106.658 39.2372 107.087 39.1113 107.253 39.1375C107.824 39.2277 109.606 36.2464 106.532 34.9565C104.115 33.9421 101.781 35.2606 100.239 37.1206C98.5323 38.8286 97.4446 41.2683 98.6745 43.5893C100.239 46.5397 102.888 44.5181 102.904 43.9147Z" fill="#C0A9A8"/>
<path opacity="0.4" d="M37.8156 77.9889C37.8298 77.5162 37.9246 77.0767 38.0763 76.6705L40.7991 79.4428C42.8346 78.5805 44.0574 75.8272 44.0574 75.8272C43.3726 75.1311 41.991 74.1904 41.0431 73.5775C41.5692 73.3115 41.9981 73.1856 42.164 73.2117C42.7351 73.302 44.5171 70.3206 41.4436 69.0307C39.0265 68.0163 36.6923 69.3348 35.1497 71.1948C33.4435 72.9029 32.3558 75.3426 33.5856 77.6635C35.1473 80.6139 37.7966 78.5923 37.8156 77.9889Z" fill="#C0A9A8"/>
<path opacity="0.4" d="M39.2689 34.1918C39.731 34.0968 40.1812 34.0873 40.6102 34.142L38.5509 37.4392C39.859 39.2256 42.8164 39.7792 42.8164 39.7792C43.333 38.9501 43.9254 37.3846 44.2998 36.318C44.6813 36.7693 44.9017 37.1589 44.9135 37.3252C44.9562 37.9025 48.2643 38.9501 48.8046 35.6552C49.2288 33.0611 47.4089 31.0917 45.2477 30.0204C43.1931 28.7518 40.5746 28.2577 38.6077 29.9942C36.103 32.1988 38.6788 34.313 39.2689 34.1918Z" fill="#C0A9A8"/>
<path opacity="0.4" d="M57.2669 92.1713C57.729 92.0763 58.1793 92.0668 58.6082 92.1215L56.5489 95.4187C57.857 97.2052 60.8144 97.7587 60.8144 97.7587C61.331 96.9296 61.9234 95.3641 62.2978 94.2975C62.6794 94.7488 62.8998 95.1384 62.9116 95.3047C62.9543 95.882 66.2624 96.9296 66.8027 93.6347C67.2268 91.0406 65.4069 89.0712 63.2457 87.9999C61.1912 86.7313 58.5726 86.2372 56.6058 87.9737C54.101 90.1782 56.6769 92.2925 57.2669 92.1713Z" fill="#C0A9A8"/>
<path opacity="0.4" d="M127.04 44.1143C127.062 44.5871 127 45.0337 126.879 45.4494L123.957 42.8909C121.993 43.9053 120.979 46.7417 120.979 46.7417C121.715 47.3831 123.163 48.2169 124.152 48.7585C123.647 49.065 123.23 49.2218 123.061 49.2075C122.486 49.16 120.931 52.2696 124.092 53.322C126.581 54.151 128.808 52.6616 130.206 50.6899C131.78 48.8583 132.68 46.3426 131.282 44.1215C129.505 41.2969 127.014 43.5109 127.04 44.1143Z" fill="#C0A9A8"/>
<path opacity="0.4" d="M85.2543 39.6366C85.6998 39.4775 86.143 39.4038 86.5743 39.3967L85.0031 42.9529C86.5506 44.535 89.5554 44.6633 89.5554 44.6633C89.9487 43.7677 90.3137 42.1357 90.5364 41.0263C90.9772 41.4183 91.2497 41.7722 91.2876 41.9362C91.4132 42.5015 94.8351 43.0693 94.9014 39.7293C94.9536 37.1019 92.8753 35.4105 90.5815 34.6575C88.3681 33.693 85.707 33.5766 84.0055 35.5744C81.8396 38.1139 84.688 39.8409 85.2543 39.6366Z" fill="#C0A9A8"/>
<path d="M76.7753 70.1356C76.4743 70.5014 76.1331 70.7913 75.7634 71.0193L75.2966 67.1567C73.1591 66.5937 70.5121 68.0237 70.5121 68.0237C70.6306 68.993 71.1519 70.5846 71.5287 71.6512C70.9505 71.5396 70.5334 71.3757 70.4197 71.2545C70.0239 70.8317 66.794 72.1026 68.4433 75.0055C69.7396 77.2884 72.3913 77.6756 74.7444 77.1459C77.1378 76.8394 79.4838 75.5733 79.9246 72.9815C80.4862 69.6914 77.1568 69.67 76.7753 70.1356Z" fill="#BD9977"/>
<path d="M103.854 42.7272C103.868 42.2545 103.963 41.815 104.114 41.4088L106.837 44.181C108.873 43.3187 110.096 40.5654 110.096 40.5654C109.411 39.8694 108.029 38.9287 107.081 38.3158C107.607 38.0497 108.036 37.9238 108.202 37.95C108.773 38.0402 110.555 35.0589 107.482 33.769C105.065 32.7546 102.73 34.0731 101.188 35.9331C99.4815 37.6411 98.3938 40.0808 99.6237 42.4018C101.188 45.3522 103.837 43.3306 103.854 42.7272Z" fill="#BD9977"/>
<path d="M38.7629 76.8014C38.7771 76.3287 38.8719 75.8892 39.0235 75.483L41.7463 78.2553C43.7819 77.3929 45.0047 74.6397 45.0047 74.6397C44.3198 73.9436 42.9383 73.0029 41.9904 72.39C42.5165 72.124 42.9454 71.9981 43.1113 72.0242C43.6824 72.1145 45.4644 69.1331 42.3909 67.8432C39.9738 66.8288 37.6396 68.1473 36.0969 70.0073C34.3907 71.7154 33.303 74.1551 34.5329 76.476C36.0945 79.4264 38.7439 77.4048 38.7629 76.8014Z" fill="#BD9977"/>
<path d="M40.2181 33.0034C40.6802 32.9083 41.1305 32.8988 41.5594 32.9535L39.5001 36.2507C40.8082 38.0372 43.7656 38.5907 43.7656 38.5907C44.2822 37.7616 44.8746 36.1961 45.249 35.1295C45.6305 35.5808 45.8509 35.9704 45.8628 36.1367C45.9054 36.714 49.2136 37.7616 49.7539 34.4667C50.178 31.8726 48.3581 29.9033 46.1969 28.8319C44.1424 27.5633 41.5238 27.0692 39.557 28.8058C37.0522 31.0103 39.6281 33.1245 40.2181 33.0034Z" fill="#BD9977"/>
<path d="M58.2152 90.9838C58.6773 90.8888 59.1275 90.8793 59.5564 90.9339L57.4972 94.2312C58.8052 96.0176 61.7626 96.5711 61.7626 96.5711C62.2792 95.7421 62.8717 94.1766 63.2461 93.11C63.6276 93.5613 63.848 93.9509 63.8598 94.1172C63.9025 94.6945 67.2106 95.7421 67.7509 92.4472C68.1751 89.8531 66.3552 87.8837 64.194 86.8124C62.1394 85.5438 59.5209 85.0497 57.554 86.7862C55.0492 88.9907 57.6251 91.105 58.2152 90.9838Z" fill="#BD9977"/>
<path d="M127.988 42.9268C128.009 43.3996 127.947 43.8462 127.826 44.2619L124.905 41.7034C122.94 42.7178 121.926 45.5542 121.926 45.5542C122.663 46.1956 124.111 47.0294 125.099 47.571C124.594 47.8775 124.177 48.0343 124.009 48.02C123.433 47.9725 121.878 51.0821 125.04 52.1345C127.528 52.9636 129.755 51.4741 131.153 49.5024C132.727 47.6708 133.627 45.1551 132.229 42.934C130.452 40.1094 127.961 42.3234 127.988 42.9268Z" fill="#BD9977"/>
<path d="M94.9217 76.2621C91.7842 78.5806 87.3671 77.9084 85.0566 74.7655C82.7437 71.6203 83.2864 66.337 86.4239 64.0185C89.5614 61.6999 94.1041 63.2274 96.4146 66.3727C98.7275 69.5155 98.0592 73.9436 94.9217 76.2621Z" fill="#F26889"/>
<path d="M94.9848 67.1691C94.9848 67.1691 94.1365 65.6773 92.8805 64.9836C91.6246 64.29 87.4183 64.6582 85.9562 67.2333C84.4941 69.8107 84.7737 72.2196 85.6316 72.7089C86.4894 73.1983 87.2975 72.1008 88.6293 70.8679C89.961 69.635 92.5132 68.3712 93.5346 68.2405C94.5559 68.1099 95.2977 67.9341 94.9848 67.1691Z" fill="#D12417"/>
<path d="M86.5733 74.0652C86.5733 74.0652 87.4217 75.5571 88.6776 76.2507C89.9336 76.9444 94.1398 76.5762 95.6019 74.0011C97.064 71.4236 96.7844 69.0148 95.9266 68.5254C95.0711 68.036 94.2607 69.1336 92.9289 70.3665C91.5971 71.5994 89.0449 72.8632 88.0236 72.9938C86.9998 73.1269 86.2581 73.3003 86.5733 74.0652Z" fill="#D12417"/>
<path d="M88.393 68.2642C88.1916 67.9649 88.2698 67.561 88.5684 67.3591C88.867 67.1572 89.2698 67.2356 89.4712 67.5349C89.6727 67.8342 89.8409 68.813 89.5423 69.0125C89.2461 69.2144 88.5944 68.5612 88.393 68.2642Z" fill="#F26889"/>
<path d="M91.0838 67.0139C91.0293 66.6575 91.2734 66.325 91.6288 66.2703C91.9843 66.2157 92.316 66.4604 92.3705 66.8167C92.425 67.173 92.1596 68.1304 91.8042 68.185C91.4487 68.2373 91.1383 67.3702 91.0838 67.0139Z" fill="#F26889"/>
<path d="M86.4649 70.5708C86.1663 70.3689 86.0881 69.9651 86.2895 69.6658C86.4909 69.3664 86.8938 69.288 87.1924 69.49C87.4909 69.6919 88.0123 70.5352 87.8109 70.8345C87.6118 71.1314 86.7634 70.7727 86.4649 70.5708Z" fill="#F26889"/>
<path d="M93.2209 73.309C93.446 73.5893 93.4033 74.0003 93.1237 74.2259C92.8441 74.4516 92.4341 74.4088 92.209 74.1285C91.9839 73.8482 91.7327 72.8885 92.0123 72.6604C92.2896 72.4348 92.9934 73.0287 93.2209 73.309Z" fill="#F26889"/>
<path d="M90.645 74.7823C90.7303 75.1315 90.5147 75.4854 90.1664 75.5686C89.818 75.6541 89.4649 75.4379 89.382 75.0887C89.2967 74.7395 89.4815 73.7632 89.8299 73.6776C90.1758 73.5945 90.5597 74.4331 90.645 74.7823Z" fill="#F26889"/>
<path d="M94.9442 70.8452C95.257 71.021 95.3708 71.4178 95.1954 71.7313C95.02 72.0449 94.6243 72.1589 94.3115 71.9831C93.9987 71.8073 93.4063 71.0115 93.5816 70.698C93.7546 70.3844 94.6314 70.6695 94.9442 70.8452Z" fill="#F26889"/>
<path d="M97.0455 93.3571C96.2351 93.3571 95.4744 93.0412 94.9033 92.4663C94.3298 91.8914 94.0146 91.1288 94.0146 90.3188C94.0146 89.5063 94.3298 88.7438 94.9033 88.1713C96.0858 86.9859 98.0076 86.9859 99.1901 88.1713C100.373 89.3567 100.373 91.2833 99.1901 92.4687C98.6166 93.0412 97.8536 93.3571 97.0455 93.3571ZM97.0455 89.0906C96.7327 89.0906 96.4175 89.2094 96.1782 89.4493C95.6995 89.9292 95.6995 90.7084 96.1782 91.1859C96.6569 91.6657 97.4341 91.6657 97.9104 91.1859C98.3891 90.706 98.3891 89.9268 97.9104 89.4493C97.6735 89.2118 97.3583 89.0906 97.0455 89.0906Z" fill="#816E68"/>
<path d="M72.4098 111.245C71.5993 111.245 70.8387 110.929 70.2676 110.354C69.6964 109.779 69.3789 109.017 69.3789 108.206C69.3789 107.394 69.6941 106.631 70.2676 106.059C71.45 104.874 73.3719 104.874 74.5544 106.059C75.7369 107.244 75.7369 109.171 74.5544 110.356C73.9785 110.929 73.2179 111.245 72.4098 111.245ZM72.4098 106.978C72.097 106.978 71.7818 107.097 71.5425 107.337C71.0638 107.817 71.0638 108.596 71.5425 109.074C72.0211 109.553 72.7984 109.553 73.2747 109.074C73.7534 108.594 73.7534 107.815 73.2747 107.337C73.0354 107.097 72.7226 106.978 72.4098 106.978Z" fill="#816E68"/>
<path d="M24.1422 34.8229C23.3318 34.8229 22.5711 34.507 22 33.9321C21.4265 33.3572 21.1113 32.5947 21.1113 31.7846C21.1113 30.9722 21.4265 30.2096 22 29.6371C23.1825 28.4517 25.1043 28.4517 26.2868 29.6371C27.4693 30.8225 27.4693 32.7491 26.2868 33.9345C25.7133 34.507 24.9526 34.8229 24.1422 34.8229ZM24.1422 30.5564C23.8294 30.5564 23.5142 30.6752 23.2749 30.9151C22.7962 31.395 22.7962 32.1742 23.2749 32.6517C23.7536 33.1315 24.5308 33.1315 25.0071 32.6517C25.4858 32.1718 25.4858 31.3926 25.0071 30.9151C24.7702 30.6776 24.4574 30.5564 24.1422 30.5564Z" fill="#816E68"/>
<path d="M86.2036 38.4481C86.6491 38.289 87.0898 38.2153 87.5235 38.2082L85.9524 41.7644C87.4998 43.3465 90.5046 43.4748 90.5046 43.4748C90.898 42.5792 91.2629 40.9472 91.4857 39.8378C91.9264 40.2298 92.199 40.5838 92.2369 40.7477C92.3625 41.3131 95.7843 41.8808 95.8507 38.5408C95.9028 35.9134 93.8246 34.222 91.5307 33.469C89.3174 32.5045 86.6562 32.3881 84.9547 34.3859C82.7888 36.923 85.6372 38.6524 86.2036 38.4481Z" fill="#BD9977"/>
</svg>
