<svg width="28" height="28" viewBox="0 0 28 28" fill="none" xmlns="http://www.w3.org/2000/svg">
<path fill-rule="evenodd" clip-rule="evenodd" d="M10.0395 5.05985C9.59419 5.61545 8.68056 6.19745 7.61826 6.74626C6.56464 7.29058 5.39785 7.78617 4.47306 8.1789C4.18441 8.30148 3.91865 8.41433 3.68853 8.51506C3.42039 8.634 3.22355 8.84968 3.12363 9.10236C3.04456 9.25208 3 9.42283 3 9.6036V24.9237C3 25.3464 3.24284 25.7107 3.59684 25.8847C3.74237 25.9586 3.90701 26 4.08089 26H19.6968C21.9097 26 23.1286 24.3883 23.1286 22.8517C23.1286 22.256 22.9377 21.7042 22.6064 21.2462C23.2592 20.6478 23.6113 19.8361 23.6113 19.0405C23.6113 18.4094 23.3952 17.8222 23.0049 17.3457C23.6104 16.7427 23.931 15.9655 23.931 15.2042C23.931 14.544 23.7003 13.9392 23.2869 13.4536C23.7445 12.9277 24 12.2614 24 11.55C24 10.0631 22.8682 8.57117 20.75 8.57117L16.0599 8.57117C16.3256 7.90661 16.6012 7.09931 16.7649 6.285C16.9508 5.36074 16.9985 4.39859 16.6957 3.62342C16.4244 2.93054 15.9117 2.42987 15.2174 2.18445C14.0853 1.78406 13.1282 2.07467 12.2894 2.67973C11.4636 3.27533 10.736 4.18708 10.0426 5.05601L10.0395 5.05985ZM21.3017 18.6097C21.1263 18.454 20.8248 18.3525 20.3927 18.3525C19.8012 18.3525 19.3243 17.8749 19.3243 17.2825C19.3243 16.69 19.8012 16.2124 20.3927 16.2124C21.4588 16.2124 21.788 15.5699 21.788 15.2042C21.788 15.0758 21.7573 14.9087 21.6145 14.7791C21.4519 14.6306 21.1632 14.5288 20.7437 14.5288C20.1522 14.5288 19.6753 14.0512 19.6753 13.4587C19.6753 12.8663 20.1522 12.3886 20.7437 12.3886C21.1504 12.3886 21.451 12.278 21.6345 12.0992C21.7827 11.9557 21.8632 11.7622 21.8632 11.55C21.8632 11.3579 21.7939 11.1509 21.6295 10.9918C21.4665 10.8341 21.1907 10.7051 20.7437 10.7051L12.9327 10.7051C12.3411 10.7051 11.8643 10.2274 11.8643 9.63497C11.8643 9.04252 12.3412 8.56493 12.9327 8.56493H13.7352C14.058 7.86754 14.3742 7.04107 14.5742 6.28055C14.6797 5.8795 14.7517 5.50149 14.7765 5.17318C14.8017 4.8412 14.7771 4.57805 14.7053 4.3956L14.7038 4.39174C14.6799 4.32716 14.6547 4.29034 14.6292 4.26552C14.6035 4.2406 14.5668 4.21737 14.5044 4.19574L14.5033 4.19535C14.3262 4.13277 14.1617 4.12624 13.9912 4.17239C13.8163 4.21974 13.6247 4.32542 13.4025 4.50443C12.9538 4.86593 12.4249 5.48826 11.701 6.39299C11.1322 7.10051 9.98312 7.83315 8.73698 8.49764C7.52712 9.14279 6.19424 9.73975 5.13681 10.2029V23.8599H19.6968C20.1993 23.8599 20.521 23.696 20.7169 23.4966C20.9168 23.2931 20.9981 23.0404 20.9981 22.8454C20.9981 22.7132 20.9623 22.5414 20.8262 22.4096C20.6835 22.2713 20.4232 22.1763 20.0416 22.1763C19.4501 22.1763 18.9732 21.6986 18.9732 21.1062C18.9732 20.5138 19.4501 20.0361 20.0416 20.0361C21.1501 20.0361 21.4808 19.3892 21.4808 19.0279C21.4808 18.9061 21.4473 18.7422 21.3017 18.6097Z" fill="currentColor"/>
</svg>
