<svg width="232" height="132" viewBox="0 0 232 132" fill="none" xmlns="http://www.w3.org/2000/svg">
<path opacity="0.7" d="M203.126 124.528C203.126 124.528 5.89323 119.946 0.666992 126.812C18.4362 134.456 230.291 132.962 231.667 126.812C231.667 124.629 203.979 124.528 203.126 124.528Z" fill="#E9E2DF"/>
<path d="M204.299 77.3028C204.299 77.3028 204.377 78.0071 204.515 79.2388C204.651 80.4765 204.832 82.2485 205.048 84.3752C205.264 86.5029 205.82 95.69 206.217 99.4646C206.284 100.922 209.093 123.001 209.093 123.001C209.226 123.854 210.025 124.438 210.878 124.306C211.674 124.182 212.235 123.477 212.198 122.688L212.197 122.665C212.197 122.665 212.37 113.802 212.172 109.366C212.169 109.024 211.608 102.028 211.605 101.683C211.605 101.338 211.656 97.5177 211.656 97.5177L212.437 88.1746C212.437 88.1746 211.966 86.187 211.96 84.0186C211.955 81.8502 211.924 80.0444 211.905 78.7769C211.879 77.5055 211.865 76.7784 211.865 76.7784C211.823 74.6805 210.09 73.0137 207.994 73.0555C205.898 73.0972 204.233 74.8325 204.274 76.9304C204.276 77.0446 204.284 77.1578 204.296 77.2691L204.299 77.3028Z" fill="#E9AC8A"/>
<path d="M212.878 78.236C212.878 78.236 212.943 78.9363 213.058 80.163C213.175 81.3888 213.332 83.141 213.538 85.2418C213.948 89.4515 213.427 88.4731 214.817 99.2008C214.863 99.5594 218.739 122.299 218.814 122.624C218.892 122.953 218.934 123.128 218.934 123.128C219.135 123.968 219.977 124.487 220.817 124.286C221.601 124.098 222.037 123.81 221.962 123.206C221.889 122.6 221.472 110.805 221.366 109.764C221.159 107.682 220.479 102.389 220.431 101.03C220.424 100.86 220.402 100.182 220.398 100.013C220.39 99.6766 220.412 89.1426 220.435 84.927C220.448 82.8152 220.445 81.057 220.449 79.8253C220.451 78.5936 220.453 77.8904 220.453 77.8904C220.457 75.7925 218.761 74.088 216.665 74.084C214.57 74.08 212.867 75.7776 212.863 77.8755C212.861 77.9946 212.867 78.1188 212.878 78.236Z" fill="#E9AC8A"/>
<path d="M221.538 77.1832C221.538 77.1832 221.322 81.6799 222.033 91.3637H204.161C204.161 91.3637 204.24 76.4759 204.236 75.137C204.232 73.797 221.538 77.1832 221.538 77.1832Z" fill="#816E68"/>
<path d="M210.823 49.6973C210.823 49.6973 210.784 49.7857 210.711 49.9506C210.696 49.9844 210.678 50.0231 210.66 50.0649C210.64 50.1115 210.618 50.1632 210.595 50.2188C210.548 50.333 210.494 50.4632 210.434 50.6102C210.195 51.2052 209.869 52.1041 209.481 53.2425C209.089 54.3788 208.64 55.7476 208.052 57.2515C207.756 58.0034 207.425 58.7901 207.021 59.5997C206.614 60.4082 206.141 61.2436 205.492 62.079C205.165 62.4952 204.791 62.9114 204.343 63.3057C203.892 63.6981 203.365 64.0716 202.75 64.3586L202.573 64.4411L202.5 64.4679L202.353 64.5205L202.131 64.599L201.894 64.6785C201.768 64.7132 201.642 64.749 201.516 64.7838C201.396 64.8126 201.277 64.8414 201.158 64.8702C200.691 64.9755 200.251 65.0549 199.824 65.1235C198.975 65.2556 198.175 65.35 197.422 65.4254C196.669 65.5009 195.962 65.5585 195.311 65.6062C194.01 65.7006 192.931 65.7532 192.175 65.787C191.796 65.8019 191.498 65.8138 191.296 65.8218C191.089 65.8287 190.979 65.8327 190.979 65.8327C190.174 65.8605 189.499 65.2685 189.469 64.5116C189.442 63.8302 189.948 63.2471 190.636 63.116L190.664 63.111C190.664 63.111 191.073 63.0325 191.79 62.8965C192.509 62.7554 193.54 62.5468 194.758 62.2717C195.368 62.1336 196.024 61.9786 196.708 61.8038C197.392 61.629 198.104 61.4333 198.803 61.2118C199.149 61.0996 199.493 60.9814 199.808 60.8562C199.884 60.8244 199.96 60.7926 200.037 60.7618C200.105 60.7301 200.174 60.6983 200.242 60.6665C200.259 60.6546 200.276 60.6446 200.294 60.6337L200.319 60.6188L200.358 60.5979L200.494 60.5244L200.563 60.4877C200.58 60.4797 200.446 60.5423 200.504 60.5145L200.507 60.5125L200.513 60.5085L200.525 60.4996C200.648 60.4142 200.787 60.286 200.935 60.1152C201.083 59.9433 201.236 59.7278 201.384 59.4805C201.682 58.9838 201.952 58.3699 202.183 57.7233C202.416 57.0757 202.616 56.3923 202.794 55.7118C203.15 54.348 203.427 52.9991 203.684 51.8141C203.938 50.6291 204.177 49.599 204.377 48.856C204.429 48.6693 204.476 48.5014 204.516 48.3564C204.538 48.2829 204.558 48.2143 204.576 48.1517C204.597 48.0842 204.616 48.0236 204.631 47.969C204.69 47.7792 204.721 47.6789 204.721 47.6789V47.6779C205.219 46.0608 207.015 45.1301 208.733 45.5989C210.451 46.0678 211.439 47.7584 210.941 49.3755C210.909 49.4858 210.868 49.594 210.823 49.6973Z" fill="#6CBF84"/>
<path d="M220.195 54.6847C219.839 58.8924 219.248 61.8037 218.763 65.0757C218.471 67.0454 220.958 70.083 221.111 74.4486L206.721 74.7118C206.721 74.7118 207.121 64.5145 205.918 57.1183C205.217 52.8123 201.648 43.3798 213.362 44.3046C221.525 44.9483 220.372 52.5958 220.195 54.6847Z" fill="white"/>
<path d="M221.143 73.4597L221.514 77.1836C221.757 79.8099 218.273 82.2276 214.437 82.5842C210.599 82.9408 206.042 80.5211 205.799 77.8948L206.334 72.666L221.143 73.4597Z" fill="#816E68"/>
<path d="M212.23 122.905C212.23 122.905 212.641 124.377 212.64 125.637C212.64 126.03 212.41 126.701 212.41 126.701L203.283 126.729C203.283 126.729 202.907 125.052 204.951 124.825C206.269 124.679 209.079 122.913 209.079 122.913L212.23 122.905Z" fill="#2F2B27"/>
<path d="M222.011 122.905C222.011 122.905 222.55 124.377 222.55 125.306C222.55 126.462 222.292 126.701 222.292 126.701L215.822 126.721C215.822 126.721 215.554 125.044 217.003 124.819C217.937 124.674 218.792 122.911 218.792 122.911L222.011 122.905Z" fill="#2F2B27"/>
<path d="M212.762 79.9019C215.977 80.2069 219.007 79.9119 222.237 79.9019C221.98 76.7055 221.733 71.5204 220.932 67.5243C220.217 63.9573 220.988 59.9642 221.271 56.5939C221.636 52.2631 224.183 46.627 215.143 44.2471C215.23 44.557 214.078 46.641 213.843 48.7944C213.37 53.1392 212.825 53.2077 212.833 59.7576C212.836 62.7673 212.804 72.6091 212.762 79.9019Z" fill="#6CBF84"/>
<path d="M203.347 79.9006C204.546 80.2294 205.453 79.6642 206.676 79.9006C206.598 70.9022 207.13 57.6753 207.467 55.0957C207.815 52.4306 208.797 46.6416 209.926 44.1742C209.948 44.1255 209.974 44.0799 210.001 44.0352C203.073 44.8199 204.114 51.4343 203.34 56.8926C202.881 60.1238 203.592 64.0325 203.347 71.6442C203.321 72.4428 203.375 79.1139 203.347 79.9006Z" fill="#6CBF84"/>
<path d="M213.413 41.1211C213.413 41.1211 215.509 33.3544 213.42 31.9131C211.791 30.7877 205.713 33.6425 205.713 33.6425C205.713 33.6425 205.045 43.1792 209.271 43.4901C212.635 43.7365 213.413 41.1211 213.413 41.1211Z" fill="#E9AC8A"/>
<path d="M213.54 41.4218C213.54 41.4209 213.542 41.4348 213.547 41.4407C213.551 41.4457 213.558 41.4715 213.566 41.4973C213.584 41.5559 213.609 41.6394 213.64 41.7407C213.703 41.9473 213.794 42.2284 213.894 42.5085C213.993 42.7886 214.098 43.0668 214.182 43.2744C214.265 43.481 214.32 43.619 214.32 43.619C214.755 44.6958 214.236 45.9215 213.161 46.3566C212.086 46.7917 210.861 46.2722 210.426 45.1964C210.32 44.9322 210.271 44.66 210.273 44.3918L210.274 44.3263C210.274 44.3263 210.275 44.1515 210.283 43.8912C210.291 43.63 210.306 43.2823 210.331 42.9337C210.355 42.585 210.388 42.2364 210.417 41.9702C210.433 41.8341 210.447 41.7208 210.457 41.6414C210.462 41.5977 210.467 41.5699 210.469 41.5381C210.472 41.5073 210.474 41.5003 210.474 41.5003L210.545 41.257C210.787 40.4395 211.643 39.9726 212.46 40.214C213.038 40.3838 213.44 40.8656 213.54 41.4218Z" fill="#E9AC8A"/>
<path d="M213.432 40.8704C213.432 40.8704 214.101 40.7601 214.838 38.1854C215.574 35.6118 214.752 31.4885 211.941 30.9194C209.482 30.4207 207.646 30.9293 205.776 32.6567C203.97 34.3264 205.827 35.8055 205.827 35.8055C205.827 35.8055 209.988 34.7585 210.646 35.3843C211.304 36.0101 211.741 37.7613 211.741 37.7613C211.741 37.7613 212.662 35.721 213.246 36.916C213.829 38.1099 213.446 38.9513 212.923 38.9086L213.432 40.8704Z" fill="#0E2E47"/>
<path d="M212.232 32.0143C212.232 32.0143 213.615 30.0058 215.213 31.0974C216.811 32.1881 216.98 36.8358 214.895 36.4295C212.23 35.91 212.232 32.0143 212.232 32.0143Z" fill="#0E2E47"/>
<path d="M213.508 61.1895L213.515 61.2028C213.5 61.195 213.508 61.1895 213.508 61.1895Z" fill="#FFBC99"/>
<path d="M209.574 47.9489C209.574 47.9489 209.026 46.4291 209.177 45.6971C209.327 44.9739 209.121 44.1008 209.121 44.1008L210.263 43.5068C210.263 43.5068 210.179 45.4209 211.245 46.2404L209.574 47.9489Z" fill="#EAF1F7"/>
<path d="M209.784 47.335C209.784 47.335 209.274 46.0437 209.196 45.562C209.078 44.8329 209.121 44.1008 209.121 44.1008L210.263 43.5068C210.263 43.5068 210.179 45.4209 211.245 46.2404L209.784 47.335Z" fill="white"/>
<path d="M214.109 42.9678C214.109 42.9678 213.685 46.0361 211.246 46.2397L211.89 47.8827C211.89 47.8827 214.801 47.4188 215.345 44.3376L214.109 42.9678Z" fill="#EAF1F7"/>
<path d="M214.109 42.9678C214.109 42.9678 213.685 46.0361 211.246 46.2397L211.931 47.3344C211.931 47.3344 214.293 47.5539 215.344 44.3366L214.109 42.9678Z" fill="white"/>
<path d="M190.97 74.7241C195.819 74.7241 199.75 70.7896 199.75 65.9363C199.75 61.0829 195.819 57.1484 190.97 57.1484C186.121 57.1484 182.19 61.0829 182.19 65.9363C182.19 70.7896 186.121 74.7241 190.97 74.7241Z" fill="#FCC600"/>
<path opacity="0.5" d="M190.97 71.9701C194.3 71.9701 196.999 69.2684 196.999 65.9357C196.999 62.603 194.3 59.9014 190.97 59.9014C187.641 59.9014 184.941 62.603 184.941 65.9357C184.941 69.2684 187.641 71.9701 190.97 71.9701Z" fill="white"/>
<path d="M221.241 49.7169C221.241 49.7169 221.216 49.8539 221.169 50.1112C221.121 50.3605 221.051 50.7211 220.958 51.178C220.772 52.0899 220.495 53.3842 220.117 54.9308C219.737 56.4783 219.261 58.2772 218.634 60.2082C218.318 61.1737 217.455 64.5102 217.033 65.5304C216.934 66.4244 216.008 68.2789 212.932 68.9245C212.671 69.0229 206.911 70.6628 200.547 71.4217C200.087 71.4336 199.725 71.4336 199.474 71.4316C199.211 71.4277 199.071 71.4247 199.071 71.4247C198.291 71.4118 197.668 70.7552 197.681 69.9576C197.692 69.2215 198.388 68.7735 198.805 68.71C199.64 68.5818 206.32 65.6436 208.515 64.702C209.673 64.2053 211.712 63.3004 212.402 63.1127C212.402 63.1127 213.664 55.8307 213.758 54.9675C214.255 53.2461 216.14 45.7625 218.434 45.9204C220.166 46.0396 221.438 47.6438 221.282 49.4119C221.274 49.5142 221.259 49.6185 221.241 49.7169Z" fill="#6CBF84"/>
<path d="M200.64 69.611C200.544 69.0796 200.222 68.6614 199.747 68.5611C199.654 68.5144 199.537 68.4588 199.396 68.3992C199.311 68.3624 199.217 68.3247 199.117 68.2869C199.018 68.2492 198.911 68.2124 198.8 68.1757C198.687 68.1409 198.572 68.1062 198.452 68.0764C198.333 68.0446 198.209 68.0197 198.085 67.9969L197.897 67.9671C197.834 67.9601 197.77 67.9542 197.708 67.9472C197.646 67.9393 197.582 67.9393 197.52 67.9363C197.49 67.9353 197.459 67.9343 197.428 67.9323C197.39 67.9303 197.37 67.9333 197.341 67.9333C197.284 67.9353 197.229 67.9373 197.174 67.9393C197.117 67.9413 197.065 67.9452 197.012 67.9482C196.908 67.9562 196.81 67.9641 196.719 67.975C196.539 67.9949 196.388 68.0197 196.282 68.0396C196.176 68.0595 196.113 68.0744 196.109 68.0754C195.964 68.1002 195.867 68.2383 195.893 68.3833C195.919 68.5283 196.056 68.6257 196.2 68.5998C196.196 68.6008 196.247 68.5959 196.342 68.5949C196.438 68.5929 196.576 68.5929 196.74 68.6018C196.823 68.6058 196.913 68.6127 197.007 68.6207C197.054 68.6257 197.104 68.6296 197.151 68.6356C197.201 68.6416 197.251 68.6485 197.303 68.6545C197.407 68.6694 197.498 68.6833 197.6 68.7041C197.649 68.7151 197.699 68.727 197.75 68.7389L197.767 68.7439C197.549 68.7886 197.295 68.8343 197.021 68.8789C196.741 68.9227 196.442 68.9674 196.141 69.0001C195.991 69.019 195.84 69.0329 195.691 69.0468C195.544 69.0627 195.397 69.0717 195.256 69.0826C195.114 69.0945 194.978 69.0995 194.848 69.1064C194.718 69.1144 194.595 69.1183 194.482 69.1193C194.254 69.1263 194.066 69.1253 193.934 69.1233C193.802 69.1223 193.726 69.1213 193.726 69.1213H193.718C193.574 69.1203 193.453 69.2336 193.446 69.3796C193.439 69.5286 193.554 69.6557 193.703 69.6627C193.703 69.6627 193.781 69.6667 193.917 69.6726C194.054 69.6806 194.249 69.6885 194.484 69.6905C194.601 69.6935 194.728 69.6945 194.862 69.6915C194.996 69.6895 195.138 69.6905 195.284 69.6835C195.43 69.6776 195.582 69.6746 195.736 69.6647C195.81 69.6607 195.886 69.6567 195.961 69.6518C195.937 69.7521 195.913 69.8594 195.891 69.9676C195.691 69.9984 195.484 70.0262 195.275 70.0441C195.145 70.059 195.014 70.065 194.886 70.0739C194.757 70.0848 194.631 70.0838 194.507 70.0888C194.384 70.0948 194.266 70.0888 194.154 70.0888C194.042 70.0898 193.936 70.0838 193.838 70.0779C193.739 70.0719 193.65 70.0699 193.571 70.062C193.491 70.054 193.423 70.0471 193.365 70.0421C193.251 70.0312 193.187 70.0242 193.187 70.0242L193.173 70.0233C193.026 70.0093 192.893 70.1126 192.872 70.2597C192.85 70.4106 192.955 70.5507 193.107 70.5726C193.107 70.5726 193.176 70.5825 193.297 70.5994C193.357 70.6083 193.43 70.6182 193.514 70.6302C193.598 70.6411 193.694 70.648 193.797 70.659C193.901 70.6699 194.013 70.6798 194.132 70.6848C194.251 70.6898 194.377 70.7007 194.507 70.7007C194.637 70.7007 194.772 70.7076 194.908 70.7017C195.045 70.6977 195.184 70.6977 195.322 70.6878C195.493 70.6798 195.662 70.6659 195.827 70.65C195.834 70.7305 195.845 70.808 195.859 70.8825C195.845 70.8855 195.83 70.8874 195.816 70.8904C195.688 70.9103 195.558 70.9292 195.428 70.949C195.297 70.9649 195.166 70.9828 195.037 70.9967C194.907 71.0086 194.78 71.0205 194.657 71.0325C194.533 71.0404 194.414 71.0484 194.3 71.0563C194.187 71.0633 194.079 71.0652 193.98 71.0692C193.781 71.0791 193.614 71.0762 193.498 71.0782C193.382 71.0791 193.316 71.0791 193.316 71.0791H193.308C193.178 71.0801 193.07 71.1824 193.064 71.3136C193.057 71.4497 193.162 71.5659 193.298 71.5718C193.298 71.5718 193.366 71.5748 193.486 71.5808C193.606 71.5857 193.777 71.5986 193.982 71.5996C194.086 71.6006 194.197 71.6046 194.315 71.6046C194.433 71.6036 194.557 71.6016 194.686 71.6006C194.815 71.5957 194.948 71.5907 195.084 71.5857C195.219 71.5798 195.357 71.5679 195.495 71.5589C195.633 71.546 195.77 71.5331 195.906 71.5202C195.957 71.5132 196.009 71.5073 196.061 71.5013C196.109 71.6036 196.163 71.696 196.216 71.7794C196.201 71.7824 196.188 71.7854 196.173 71.7894C196.062 71.8152 195.945 71.8341 195.83 71.8569C195.715 71.8798 195.598 71.8956 195.485 71.9155C195.371 71.9354 195.257 71.9493 195.148 71.9652C194.928 71.998 194.722 72.0168 194.545 72.0387C194.457 72.0496 194.375 72.0546 194.303 72.0625C194.231 72.0695 194.168 72.0744 194.116 72.0794C194.013 72.0884 193.954 72.0943 193.954 72.0943L193.947 72.0953C193.791 72.1092 193.674 72.2443 193.682 72.4022C193.69 72.5642 193.828 72.6883 193.989 72.6794C193.989 72.6794 194.05 72.6764 194.156 72.6704C194.21 72.6675 194.274 72.6645 194.348 72.6605C194.422 72.6565 194.505 72.6536 194.597 72.6456C194.779 72.6307 194.992 72.6188 195.221 72.594C195.335 72.582 195.453 72.5731 195.573 72.5562C195.693 72.5403 195.815 72.5284 195.937 72.5085C196.06 72.4887 196.182 72.4738 196.302 72.4509C196.422 72.4291 196.54 72.4092 196.655 72.3834C196.769 72.3605 196.88 72.3347 196.985 72.3069C197.036 72.295 197.085 72.282 197.131 72.2681C198.492 72.0814 199.329 71.6225 199.818 71.3364C200.607 70.8775 200.762 70.2825 200.64 69.611Z" fill="#E9AC8A"/>
<path d="M161.333 62.7851C161.333 62.7851 165.62 56.7676 165.168 55.074C164.717 53.3804 164.648 54.7224 161.06 55.074C159.906 55.1872 159.705 53.288 158.423 53.291C157.063 53.295 156.779 55.1932 155.553 55.074C151.965 54.7224 151.681 53.3804 151.229 55.074C150.778 56.7676 155.534 62.7851 155.534 62.7851C155.534 62.7851 139.266 76.4143 141.114 87.6476C141.908 92.4731 144.461 94.1757 158.19 94.1945C158.23 94.1945 158.267 94.1945 158.306 94.1945C158.346 94.1945 158.383 94.1945 158.422 94.1945C172.15 94.1757 174.704 92.4721 175.498 87.6476C177.347 76.4143 161.333 62.7851 161.333 62.7851Z" fill="#816E68"/>
<path d="M165.012 90.9297C169.694 90.9297 173.49 87.1305 173.49 82.4439C173.49 77.7573 169.694 73.958 165.012 73.958C160.33 73.958 156.534 77.7573 156.534 82.4439C156.534 87.1305 160.33 90.9297 165.012 90.9297Z" fill="#FCC600"/>
<path opacity="0.5" d="M165.011 88.2707C168.226 88.2707 170.832 85.662 170.832 82.4439C170.832 79.2259 168.226 76.6172 165.011 76.6172C161.796 76.6172 159.189 79.2259 159.189 82.4439C159.189 85.662 161.796 88.2707 165.011 88.2707Z" fill="white"/>
<path d="M157.016 98.415C161.698 98.415 165.494 94.6158 165.494 89.9292C165.494 85.2426 161.698 81.4434 157.016 81.4434C152.334 81.4434 148.538 85.2426 148.538 89.9292C148.538 94.6158 152.334 98.415 157.016 98.415Z" fill="#FCC600"/>
<path opacity="0.5" d="M157.015 95.7561C160.23 95.7561 162.836 93.1474 162.836 89.9293C162.836 86.7113 160.23 84.1025 157.015 84.1025C153.8 84.1025 151.193 86.7113 151.193 89.9293C151.193 93.1474 153.8 95.7561 157.015 95.7561Z" fill="white"/>
<path d="M188.033 83.1686C188.783 78.5425 185.644 74.1836 181.022 73.4328C176.401 72.682 172.046 75.8236 171.296 80.4498C170.546 85.0759 173.684 89.4348 178.306 90.1856C182.928 90.9364 187.283 87.7948 188.033 83.1686Z" fill="#FCC600"/>
<path opacity="0.5" d="M185.411 82.7422C185.926 79.5657 183.771 76.5727 180.598 76.0572C177.424 75.5417 174.434 77.6988 173.919 80.8754C173.404 84.0519 175.559 87.0449 178.733 87.5604C181.906 88.0759 184.896 85.9187 185.411 82.7422Z" fill="white"/>
<path d="M73.8275 72.1691H61.7909C61.4227 72.1691 61.124 71.8701 61.124 71.5016V69.1206C61.124 68.7521 61.4227 68.4531 61.7909 68.4531H73.8275C74.1957 68.4531 74.4944 68.7521 74.4944 69.1206V71.5016C74.4944 71.8701 74.1957 72.1691 73.8275 72.1691Z" fill="#FCC600"/>
<path d="M73.8275 67.6593H61.7909C61.4227 67.6593 61.124 67.3603 61.124 66.9918V64.6109C61.124 64.2423 61.4227 63.9434 61.7909 63.9434H73.8275C74.1957 63.9434 74.4944 64.2423 74.4944 64.6109V66.9918C74.4944 67.3603 74.1957 67.6593 73.8275 67.6593Z" fill="#FCC600"/>
<path d="M73.8275 63.1486H61.7909C61.4227 63.1486 61.124 62.8496 61.124 62.4811V60.1001C61.124 59.7316 61.4227 59.4326 61.7909 59.4326H73.8275C74.1957 59.4326 74.4944 59.7316 74.4944 60.1001V62.4811C74.4944 62.8496 74.1957 63.1486 73.8275 63.1486Z" fill="#FCC600"/>
<path d="M73.8275 58.6379H61.7909C61.4227 58.6379 61.124 58.3389 61.124 57.9703V55.5894C61.124 55.2209 61.4227 54.9219 61.7909 54.9219H73.8275C74.1957 54.9219 74.4944 55.2209 74.4944 55.5894V57.9703C74.4944 58.3389 74.1957 58.6379 73.8275 58.6379Z" fill="#FCC600"/>
<path d="M73.8275 54.1271H61.7909C61.4227 54.1271 61.124 53.8281 61.124 53.4596V51.0786C61.124 50.7101 61.4227 50.4111 61.7909 50.4111H73.8275C74.1957 50.4111 74.4944 50.7101 74.4944 51.0786V53.4596C74.4944 53.8281 74.1957 54.1271 73.8275 54.1271Z" fill="#FCC600"/>
<path d="M73.8275 49.6173H61.7909C61.4227 49.6173 61.124 49.3183 61.124 48.9498V46.5689C61.124 46.2003 61.4227 45.9014 61.7909 45.9014H73.8275C74.1957 45.9014 74.4944 46.2003 74.4944 46.5689V48.9498C74.4944 49.3183 74.1957 49.6173 73.8275 49.6173Z" fill="#FCC600"/>
<path d="M73.8275 45.1056H61.7909C61.4227 45.1056 61.124 44.8066 61.124 44.4381V42.0571C61.124 41.6886 61.4227 41.3896 61.7909 41.3896H73.8275C74.1957 41.3896 74.4944 41.6886 74.4944 42.0571V44.4381C74.4944 44.8066 74.1957 45.1056 73.8275 45.1056Z" fill="#FCC600"/>
<path d="M73.8294 40.5949H61.7929C61.4247 40.5949 61.126 40.2959 61.126 39.9274V37.5464C61.126 37.1779 61.4247 36.8789 61.7929 36.8789H73.8294C74.1976 36.8789 74.4963 37.1779 74.4963 37.5464V39.9274C74.4963 40.2969 74.1976 40.5949 73.8294 40.5949Z" fill="#FCC600"/>
<path d="M88.4613 72.087H76.4247C76.0565 72.087 75.7578 71.788 75.7578 71.4195V69.0386C75.7578 68.6701 76.0565 68.3711 76.4247 68.3711H88.4613C88.8295 68.3711 89.1282 68.6701 89.1282 69.0386V71.4195C89.1282 71.788 88.8295 72.087 88.4613 72.087Z" fill="#FCC600"/>
<path d="M88.4613 67.5764H76.4247C76.0565 67.5764 75.7578 67.2774 75.7578 66.9089V64.5279C75.7578 64.1593 76.0565 63.8604 76.4247 63.8604H88.4613C88.8295 63.8604 89.1282 64.1593 89.1282 64.5279V66.9089C89.1282 67.2774 88.8295 67.5764 88.4613 67.5764Z" fill="#FCC600"/>
<path d="M88.4613 63.0656H76.4247C76.0565 63.0656 75.7578 62.7666 75.7578 62.3981V60.0171C75.7578 59.6486 76.0565 59.3496 76.4247 59.3496H88.4613C88.8295 59.3496 89.1282 59.6486 89.1282 60.0171V62.3981C89.1282 62.7666 88.8295 63.0656 88.4613 63.0656Z" fill="#FCC600"/>
<path d="M88.4613 58.5548H76.4247C76.0565 58.5548 75.7578 58.2559 75.7578 57.8873V55.5064C75.7578 55.1379 76.0565 54.8389 76.4247 54.8389H88.4613C88.8295 54.8389 89.1282 55.1379 89.1282 55.5064V57.8873C89.1282 58.2559 88.8295 58.5548 88.4613 58.5548Z" fill="#FCC600"/>
<path d="M88.4613 54.0441H76.4247C76.0565 54.0441 75.7578 53.7451 75.7578 53.3766V50.9956C75.7578 50.6271 76.0565 50.3281 76.4247 50.3281H88.4613C88.8295 50.3281 89.1282 50.6271 89.1282 50.9956V53.3766C89.1282 53.7451 88.8295 54.0441 88.4613 54.0441Z" fill="#FCC600"/>
<path d="M88.4613 49.5333H76.4247C76.0565 49.5333 75.7578 49.2344 75.7578 48.8658V46.4849C75.7578 46.1164 76.0565 45.8174 76.4247 45.8174H88.4613C88.8295 45.8174 89.1282 46.1164 89.1282 46.4849V48.8668C89.1282 49.2353 88.8295 49.5333 88.4613 49.5333Z" fill="#FCC600"/>
<path d="M142.868 126.894H81.5889V125.603C81.5889 121.513 84.9123 118.187 88.998 118.187H135.458C139.544 118.187 142.867 121.513 142.867 125.603V126.894H142.868Z" fill="#C0A9A8"/>
<path d="M174.036 40.0719C173.74 40.0719 173.44 40.0342 173.143 39.9537L49.527 6.79999C48.6358 6.5606 47.8905 5.98845 47.4291 5.18884C46.9676 4.38922 46.8455 3.4575 47.0837 2.56451C47.3229 1.67252 47.8945 0.926539 48.6933 0.464649C49.4922 0.00275938 50.4231 -0.119418 51.3152 0.118977L174.931 33.2727C175.822 33.5121 176.567 34.0843 177.029 34.8839C177.49 35.6835 177.612 36.6152 177.374 37.5082C176.96 39.0518 175.56 40.0719 174.036 40.0719Z" fill="#C0A9A8"/>
<path d="M117.474 126.693H106.982L109.446 7.86719H115.01L115.041 9.32636L117.474 126.693Z" fill="#C0A9A8"/>
<path d="M183.679 88.6902L159.612 35.4815L135.544 88.6902L133.65 87.832L159.612 30.4365L185.574 87.832L183.679 88.6902Z" fill="#C0A9A8"/>
<path d="M96.7432 61.6045C96.0446 71.8654 82.5561 80.0503 66.0161 80.0503C49.4761 80.0503 35.9867 71.8654 35.2891 61.6045H96.7432Z" fill="#C0A9A8"/>
<path d="M91.2506 63.573L67.1824 10.3653L43.1152 63.573L41.2207 62.7148L67.1824 5.32031L93.144 62.7148L91.2506 63.573Z" fill="#C0A9A8"/>
<path d="M112.228 13.3925C108.704 13.3925 105.837 10.5228 105.837 6.99557C105.837 3.46832 108.704 0.597656 112.228 0.597656C115.752 0.597656 118.619 3.46733 118.619 6.99458C118.619 10.5218 115.752 13.3925 112.228 13.3925Z" fill="#C0A9A8"/>
<path d="M54.5821 44.5264C58.0107 41.0945 58.0107 35.5304 54.5821 32.0986C51.1535 28.6668 45.5946 28.6668 42.166 32.0986C38.7374 35.5305 38.7374 41.0945 42.166 44.5264C45.5946 47.9582 51.1535 47.9582 54.5821 44.5264Z" fill="#FCC600"/>
<path opacity="0.5" d="M48.3754 44.348C51.705 44.348 54.4041 41.6463 54.4041 38.3137C54.4041 34.981 51.705 32.2793 48.3754 32.2793C45.0458 32.2793 42.3467 34.981 42.3467 38.3137C42.3467 41.6463 45.0458 44.348 48.3754 44.348Z" fill="white"/>
<path d="M52.6926 46.3604C53.3754 46.6733 54.0522 46.6694 54.7617 45.9502C55.245 45.4605 56.0657 44.5774 56.6552 42.8848C56.6552 42.8848 56.2582 41.8627 55.0267 41.4694C54.6129 41.3373 53.4726 41.378 53.4726 41.378C53.4726 41.378 52.7492 43.2255 52.0049 44.5059C51.5494 45.2886 51.9523 46.0217 52.6926 46.3604Z" fill="#E9AC8A"/>
<path d="M55.3972 43.493C55.3972 43.493 55.4022 43.488 55.4121 43.4791C55.425 43.4662 55.4498 43.4413 55.4806 43.4046C55.5113 43.3678 55.551 43.3221 55.5937 43.2625C55.6374 43.2059 55.685 43.1354 55.7366 43.0599C55.7862 42.9814 55.8428 42.898 55.8964 42.8036C55.952 42.7112 56.0085 42.6109 56.0651 42.5056C56.1236 42.4013 56.1782 42.2891 56.2348 42.1768C56.2923 42.0646 56.3449 41.9454 56.4005 41.8292C56.4561 41.713 56.5047 41.5918 56.5573 41.4756C56.6099 41.3594 56.6546 41.2411 56.7012 41.1279C56.7955 40.9024 56.8719 40.6869 56.9423 40.5041C56.9781 40.4127 57.0059 40.3273 57.0327 40.2518C57.0595 40.1763 57.0823 40.1108 57.1011 40.0571C57.1388 39.9489 57.1607 39.8873 57.1607 39.8873L57.1627 39.8803C57.2222 39.7124 57.4058 39.624 57.5745 39.6836C57.7382 39.7413 57.8256 39.9191 57.775 40.0839C57.775 40.0839 57.7551 40.1485 57.7204 40.2598C57.7035 40.3154 57.6817 40.3839 57.6579 40.4624C57.633 40.5409 57.6082 40.6293 57.5745 40.7246C57.509 40.9153 57.4385 41.1398 57.3502 41.3772C57.3066 41.4964 57.2649 41.6196 57.2143 41.7438C57.1646 41.8679 57.119 41.9951 57.0654 42.1202C57.0118 42.2454 56.9622 42.3715 56.9046 42.4937C56.8481 42.6159 56.7955 42.7371 56.7369 42.8523C56.6814 42.9685 56.6228 43.0798 56.5662 43.1851C56.5117 43.2903 56.4511 43.3887 56.3975 43.4801C56.341 43.5705 56.2894 43.6539 56.2378 43.7274C56.1881 43.8009 56.1395 43.8645 56.0968 43.9181C56.0552 43.9708 56.0165 44.0135 55.9877 44.0453C55.9529 44.08 55.9341 44.0979 55.9341 44.0979C55.7743 44.2548 55.5183 44.2539 55.3615 44.0939C55.2047 43.934 55.2067 43.6777 55.3655 43.5208C55.3694 43.5168 55.3734 43.5128 55.3774 43.5089L55.3972 43.493Z" fill="#E9AC8A"/>
<path d="M54.4849 43.1736C54.4849 43.1736 54.4948 43.1607 54.5127 43.1358C54.5276 43.115 54.5564 43.0733 54.5891 43.0246C54.6228 42.9739 54.6625 42.9113 54.7072 42.8378C54.7529 42.7653 54.8015 42.6789 54.8551 42.5875C54.9593 42.3998 55.0783 42.1783 55.1955 41.9339C55.256 41.8127 55.3106 41.6836 55.3711 41.5545C55.4267 41.4224 55.4832 41.2893 55.5398 41.1552C55.5924 41.0191 55.647 40.885 55.6966 40.7499C55.7442 40.6148 55.7919 40.4817 55.8375 40.3526C55.8802 40.2225 55.9209 40.0963 55.9596 39.9771C55.9973 39.8579 56.029 39.7427 56.0608 39.6374C56.1253 39.4278 56.167 39.249 56.2007 39.1258C56.2335 39.0017 56.2513 38.9311 56.2513 38.9311L56.2533 38.9232C56.291 38.7782 56.4399 38.6908 56.5848 38.7285C56.7247 38.7653 56.8101 38.9053 56.7823 39.0454C56.7823 39.0454 56.7674 39.1199 56.7416 39.249C56.7148 39.3781 56.681 39.5649 56.6265 39.7854C56.5997 39.8957 56.5739 40.0158 56.5421 40.142C56.5084 40.2681 56.4736 40.4003 56.4369 40.5383C56.3972 40.6744 56.3555 40.8155 56.3129 40.9595C56.2692 41.1025 56.2196 41.2466 56.1729 41.3916C56.1213 41.5346 56.0707 41.6786 56.0201 41.8197C55.9645 41.9598 55.9139 42.0988 55.8574 42.2299C55.7492 42.4951 55.6351 42.7395 55.5339 42.9481C55.4813 43.0514 55.4346 43.1468 55.388 43.2302C55.3433 43.3136 55.3016 43.3871 55.2669 43.4467C55.2302 43.5083 55.2044 43.552 55.1806 43.5898C55.1597 43.6226 55.1478 43.6404 55.1478 43.6404C55.0267 43.8292 54.7757 43.8828 54.5881 43.7616C54.3996 43.6404 54.346 43.3891 54.467 43.2014C54.471 43.1954 54.475 43.1895 54.479 43.1835L54.4849 43.1736Z" fill="#E9AC8A"/>
<path d="M53.6329 42.8092C53.6329 42.8092 53.6418 42.7943 53.6596 42.7675C53.6765 42.7407 53.7003 42.7 53.7321 42.6493C53.7946 42.543 53.8839 42.389 53.9822 42.1973C54.0824 42.0066 54.1916 41.7801 54.3007 41.5328C54.3543 41.4086 54.4109 41.2805 54.4615 41.1484C54.5151 41.0173 54.5657 40.8822 54.6133 40.7461C54.6649 40.611 54.7066 40.4729 54.7513 40.3379C54.7979 40.2038 54.8307 40.0677 54.8694 39.9376C54.9091 39.8084 54.9349 39.6803 54.9656 39.5601C54.9964 39.4399 55.0202 39.3247 55.04 39.2194C55.0599 39.1131 55.0817 39.0158 55.0956 38.9293C55.1085 38.8429 55.1204 38.7664 55.1294 38.7049C55.1482 38.5797 55.1591 38.5092 55.1591 38.5092L55.1611 38.4943C55.1869 38.3274 55.3417 38.2132 55.5084 38.239C55.6702 38.2638 55.7833 38.4118 55.7655 38.5737C55.7655 38.5737 55.7575 38.6502 55.7426 38.7833C55.7357 38.8499 55.7268 38.9313 55.7168 39.0237C55.7059 39.1161 55.6871 39.2204 55.6702 39.3336C55.6533 39.4479 55.6335 39.57 55.6067 39.6992C55.5799 39.8283 55.5571 39.9654 55.5213 40.1044C55.4866 40.2435 55.4568 40.3895 55.4142 40.5335C55.3735 40.6786 55.3348 40.8266 55.2862 40.9726C55.2415 41.1186 55.1939 41.2646 55.1423 41.4067C55.0946 41.5497 55.04 41.6878 54.9884 41.8219C54.8833 42.0891 54.7771 42.3364 54.6778 42.545C54.5806 42.7546 54.4903 42.9264 54.4258 43.0466C54.391 43.1082 54.3642 43.1569 54.3464 43.1897C54.3275 43.2214 54.3176 43.2393 54.3176 43.2393C54.2055 43.433 53.9574 43.4986 53.7638 43.3853C53.5703 43.2731 53.5048 43.0248 53.618 42.8311C53.6209 42.8271 53.6229 42.8221 53.6259 42.8182L53.6329 42.8092Z" fill="#E9AC8A"/>
<path d="M52.1664 43.806C52.1664 43.806 52.2051 43.7345 52.2716 43.6094C52.3381 43.4812 52.4324 43.2975 52.5405 43.072C52.6487 42.8475 52.7698 42.5823 52.8948 42.2952C53.0179 42.0081 53.1469 41.6992 53.264 41.3873C53.3255 41.2324 53.3811 41.0744 53.4367 40.9205C53.4942 40.7665 53.5428 40.6125 53.5925 40.4645C53.6441 40.3165 53.6857 40.1715 53.7284 40.0344C53.7721 39.8973 53.8098 39.7672 53.8415 39.647C53.8743 39.5268 53.9051 39.4156 53.9319 39.3182C53.9557 39.2199 53.9775 39.1335 53.9944 39.063C54.0291 38.9209 54.049 38.8405 54.049 38.8405L54.0509 38.8315C54.0906 38.6716 54.2514 38.5742 54.4122 38.613C54.568 38.6517 54.6642 38.8067 54.6325 38.9626C54.6325 38.9626 54.6156 39.0471 54.5848 39.1951C54.57 39.2686 54.5511 39.359 54.5303 39.4623C54.5064 39.5646 54.4796 39.6798 54.4499 39.806C54.4211 39.9321 54.3874 40.0682 54.3487 40.2112C54.3109 40.3543 54.2722 40.5062 54.2256 40.6602C54.18 40.8152 54.1353 40.9761 54.0827 41.137C54.0321 41.2989 53.9805 41.4638 53.9239 41.6257C53.8157 41.9525 53.6957 42.2753 53.5806 42.5773C53.4635 42.8783 53.3493 43.1574 53.2461 43.3958C53.1439 43.6342 53.0526 43.8309 52.9881 43.9689C52.9206 44.108 52.8819 44.1875 52.8819 44.1875C52.7837 44.3891 52.5415 44.4726 52.3401 44.3742C52.1386 44.2759 52.0553 44.0335 52.1535 43.8319C52.1555 43.8279 52.1575 43.8229 52.1605 43.819L52.1664 43.806Z" fill="#E9AC8A"/>
<path d="M51.879 45.3877C51.879 45.3877 51.874 45.3698 51.8651 45.336C51.8552 45.2983 51.8443 45.2536 51.8304 45.193C51.8026 45.0738 51.7688 44.9049 51.7371 44.7023C51.7202 44.601 51.7063 44.4907 51.6924 44.3735C51.6785 44.2563 51.6686 44.1321 51.6597 44.004C51.6537 43.8749 51.6468 43.7418 51.6478 43.6057C51.6458 43.4696 51.6537 43.3305 51.6627 43.1915C51.6686 43.1219 51.6756 43.0524 51.6815 42.9829C51.6914 42.9133 51.7014 42.8438 51.7113 42.7753C51.7192 42.7067 51.7371 42.6382 51.751 42.5716C51.7579 42.5379 51.7649 42.5051 51.7728 42.4713C51.7807 42.4306 51.7897 42.4097 51.7976 42.3779C51.8155 42.3183 51.8324 42.2587 51.8492 42.2011C51.8671 42.1415 51.8859 42.0869 51.9028 42.0313C51.9395 41.922 51.9753 41.8197 52.011 41.7253C52.0814 41.5376 52.1479 41.3836 52.1985 41.2753C52.2243 41.2207 52.2452 41.178 52.2591 41.1492C52.275 41.1174 52.2839 41.1005 52.2839 41.1005C52.3573 40.9555 52.534 40.8979 52.6779 40.9714C52.8069 41.037 52.8664 41.185 52.8257 41.3191L52.8188 41.3399C52.8188 41.3399 52.8148 41.3518 52.8079 41.3757C52.7999 41.4025 52.789 41.4412 52.7741 41.4909C52.7463 41.5922 52.7086 41.7392 52.6729 41.918C52.655 42.0074 52.6372 42.1048 52.6213 42.2081C52.6143 42.2597 52.6044 42.3134 52.5985 42.366C52.5915 42.4206 52.5846 42.4773 52.5776 42.5339C52.5747 42.5607 52.5687 42.5994 52.5687 42.6183C52.5667 42.6451 52.5637 42.6719 52.5618 42.6998C52.5578 42.7544 52.5498 42.808 52.5508 42.8647C52.5498 42.9213 52.5479 42.9779 52.5469 43.0345L52.5528 43.2073C52.5598 43.3226 52.5667 43.4388 52.5826 43.553C52.5945 43.6673 52.6153 43.7795 52.6332 43.8888C52.654 43.997 52.6759 44.1023 52.6997 44.2007C52.7235 44.3 52.7473 44.3924 52.7721 44.4778C52.8198 44.6486 52.8674 44.7887 52.9021 44.8831C52.919 44.9298 52.9339 44.9685 52.9418 44.9884C52.9518 45.0122 52.9567 45.0241 52.9567 45.0241V45.0251C53.0748 45.3171 52.9339 45.6489 52.6421 45.7671C52.3504 45.8853 52.0189 45.7443 51.9008 45.4522C51.8929 45.4334 51.8849 45.4085 51.879 45.3877Z" fill="#E9AC8A"/>
<path d="M38.7659 42.1154C38.0226 41.6843 37.0709 41.9376 36.6392 42.6816L36.6243 42.7074C36.6243 42.7074 36.5747 42.7939 36.4804 42.9558C36.3822 43.1217 36.2383 43.365 36.0557 43.6749C35.6855 44.2938 35.1467 45.1768 34.4758 46.2128C33.804 47.2469 33.0001 48.4398 32.0921 49.6397C31.6386 50.2387 31.1583 50.8397 30.6591 51.4009C30.41 51.681 30.156 51.9512 29.9019 52.1985C29.6916 52.4031 29.4802 52.5919 29.2797 52.7488C29.1944 52.6107 29.0971 52.4399 29.0028 52.2551C28.7418 51.7466 28.4957 51.1426 28.2854 50.5506C28.073 49.9556 27.8914 49.3626 27.7346 48.8074C27.5371 48.1061 27.3783 47.4644 27.2533 46.9181C26.1557 47.4584 25.0224 47.9322 23.8752 48.3802C23.7998 48.4329 23.7234 48.4845 23.649 48.5372C23.5725 48.5908 23.121 48.9752 23.5219 48.6137C23.2857 48.8262 23.0118 49.009 22.7588 49.2027C22.3529 49.5136 21.9431 49.8195 21.5332 50.1245C21.6642 50.4155 21.8051 50.7205 21.9569 51.0393C22.2547 51.6601 22.5931 52.3306 22.995 53.0428C23.4009 53.756 23.8583 54.509 24.4756 55.3096C24.7882 55.7099 25.1375 56.1251 25.603 56.5562C25.8362 56.7707 26.1001 56.9902 26.4246 57.2058C26.7482 57.4194 27.1352 57.6339 27.6224 57.7938C27.8646 57.8733 28.1335 57.9359 28.4183 57.9687C28.4898 57.9776 28.5612 57.9836 28.6347 57.9875L28.8064 57.9965L28.8451 57.9955C28.8351 57.9945 28.989 57.9965 29.0842 57.9915L29.1636 57.9875L29.2222 57.9826L29.3343 57.9706C29.9248 57.8971 30.3664 57.7173 30.7266 57.5376C31.0878 57.3538 31.3687 57.1591 31.6207 56.9664C31.8708 56.7727 32.0872 56.579 32.2856 56.3873C32.6816 56.0029 33.0111 55.6225 33.3147 55.244C33.6174 54.8665 33.8923 54.4911 34.1503 54.1176C34.6664 53.3726 35.1189 52.6376 35.5357 51.9224C36.3663 50.494 37.054 49.1491 37.6227 47.9879C38.1903 46.8277 38.6339 45.8533 38.9395 45.1659C39.0904 44.8202 39.2095 44.549 39.2908 44.3643C39.3722 44.1736 39.4159 44.0713 39.4159 44.0713C39.7225 43.362 39.4546 42.5147 38.7659 42.1154ZM28.8421 53.0488C28.7518 53.0985 28.6754 53.1263 28.6575 53.1193C28.6396 53.1163 28.6793 53.0716 28.855 53.0389L28.8599 53.0379C28.854 53.0418 28.847 53.0458 28.8421 53.0488Z" fill="#2F2B27"/>
<path d="M26.818 38.1213C26.818 38.1213 23.2653 30.5155 25.1518 28.6571C26.6245 27.2068 33.3856 29.0445 33.3856 29.0445C33.3856 29.0445 35.2155 40.0086 31.502 39.809C28.247 39.6331 26.818 38.1213 26.818 38.1213Z" fill="#E9AC8A"/>
<path d="M30.718 38.0373C30.718 38.0373 30.729 38.2588 30.7468 38.5906C30.7657 38.9253 30.7935 39.3733 30.8292 39.8153C30.8649 40.2574 30.9086 40.6924 30.9483 41.0093C30.9681 41.1672 30.985 41.2974 30.9999 41.3848C31.0128 41.4732 31.0207 41.5248 31.0207 41.5248C31.1974 42.7118 30.3787 43.8164 29.1928 43.9932C28.0069 44.17 26.9033 43.3505 26.7267 42.1635C26.6949 41.947 26.6959 41.7334 26.7257 41.5278L26.7336 41.4811C26.7336 41.4811 26.7436 41.4175 26.7604 41.3073C26.7763 41.195 26.8031 41.0411 26.8349 40.8563C26.8994 40.4888 26.9936 40.012 27.0959 39.5432C27.1981 39.0743 27.3072 38.6124 27.3916 38.2658C27.4789 37.9171 27.5365 37.6837 27.5365 37.6837C27.7528 36.8175 28.6291 36.2901 29.4944 36.5066C30.2 36.6824 30.6803 37.2993 30.7171 37.9896L30.718 38.0373Z" fill="#E9AC8A"/>
<path d="M34.8115 27.5697C34.8115 27.5697 34.8363 30.347 33.6027 30.649C32.3692 30.951 31.8194 32.9704 31.8194 32.9704C31.8194 32.9704 31.5098 32.9495 30.8975 32.9068C30.2852 32.8651 30.0371 34.6193 30.574 35.2103C31.1109 35.8013 29.3405 39.1766 29.3405 39.1766C29.3405 39.1766 27.5343 39.8153 26.667 39.1517C25.6945 38.4077 23.8863 35.3046 24.1841 31.1586C24.3389 29.0071 25.4057 26.9449 26.9627 26.6162C31.1873 25.7252 33.2078 27.7158 34.8115 27.5697Z" fill="#D67B51"/>
<path d="M37.1342 75.6133C37.1342 75.6133 37.1352 76.3503 37.1362 77.6407C37.1382 78.2843 37.1412 79.067 37.1442 79.964C37.1452 80.413 37.1461 80.8898 37.1481 81.3924C37.1521 81.895 37.1561 82.4244 37.16 82.9757C37.1729 85.1829 37.1888 87.7585 37.2047 90.5189C37.2126 91.9006 37.2206 93.328 37.2285 94.7782C37.2315 96.2394 37.2345 97.7244 37.2365 99.2094V99.7627L37.2325 100.333L37.2275 100.902C37.2265 101.093 37.2245 101.28 37.2206 101.463C37.2077 102.201 37.1968 102.938 37.1779 103.663C37.1481 105.118 37.1114 106.541 37.0727 107.92C37.035 109.296 36.9983 110.627 36.9635 111.889C36.9258 113.149 36.8901 114.341 36.8574 115.441C36.7939 117.64 36.7413 119.472 36.7045 120.754C36.6708 122.038 36.6509 122.771 36.6509 122.771C36.6232 123.815 35.7548 124.639 34.7118 124.611C33.7284 124.585 32.9404 123.812 32.8759 122.849L32.8749 122.838C32.8749 122.838 32.863 122.656 32.8412 122.315C32.8184 121.973 32.7856 121.471 32.743 120.834C32.6983 120.196 32.6427 119.42 32.5802 118.532C32.5157 117.643 32.4462 116.641 32.3579 115.547C32.2706 114.455 32.1753 113.271 32.0741 112.018C32.0225 111.392 31.9689 110.75 31.9143 110.093C31.8607 109.436 31.8022 108.765 31.7397 108.085C31.6771 107.403 31.6136 106.711 31.5491 106.011C31.4836 105.31 31.4171 104.602 31.3447 103.891C31.2742 103.178 31.1958 102.464 31.1204 101.747C31.1016 101.567 31.0817 101.391 31.0609 101.217L30.9993 100.692L30.9388 100.168L30.8713 99.6266L30.8019 99.0812L30.785 98.9452L30.7761 98.8766L30.7741 98.8597C30.7741 98.8657 30.7711 98.822 30.7741 98.8687L30.7691 98.8349L30.7274 98.5657C30.6719 98.2071 30.6163 97.8485 30.5607 97.491C30.4466 96.7748 30.3335 96.0606 30.2203 95.3524C29.9931 93.9339 29.7599 92.5383 29.5296 91.1874C29.3034 89.8355 29.0761 88.5293 28.8548 87.2907C28.6345 86.052 28.4261 84.8809 28.2346 83.7992C28.1373 83.2588 28.045 82.7403 27.9567 82.2476C27.8654 81.7549 27.7781 81.2881 27.6967 80.849C27.533 79.9719 27.3901 79.2061 27.272 78.5763C27.1519 77.9476 27.0566 77.4529 26.9921 77.1162C26.9266 76.7795 26.8919 76.6007 26.8919 76.6007C26.3471 73.7965 28.177 71.0808 30.9785 70.5365C33.78 69.9912 36.4932 71.8228 37.037 74.6269C37.0995 74.9468 37.1303 75.2656 37.1323 75.5795L37.1342 75.6133Z" fill="#E9E2DF"/>
<path d="M29.7872 77.147C29.7872 77.147 29.5748 77.8602 29.2027 79.1087C29.0191 79.7335 28.7958 80.4924 28.5398 81.3626C28.4118 81.7976 28.2758 82.2605 28.1319 82.7492C27.991 83.2379 27.8421 83.7515 27.6873 84.2879C27.3777 85.3606 27.0433 86.5218 26.688 87.7505C26.5104 88.3644 26.3288 88.9962 26.1422 89.6408C25.9596 90.2865 25.773 90.946 25.5825 91.6175C25.2034 92.9595 24.8114 94.3461 24.4135 95.7546C24.215 96.4589 24.0135 97.1691 23.8131 97.8823C23.7128 98.2389 23.6116 98.5955 23.5104 98.9531L23.3586 99.4895L23.3486 99.5233C23.3457 99.5342 23.3546 99.4915 23.3486 99.5173L23.3447 99.5342L23.3268 99.6017L23.2921 99.7368L23.2216 100.006C23.0271 100.74 22.8683 101.405 22.6957 102.102C22.5289 102.813 22.3582 103.518 22.1985 104.227C22.0347 104.933 21.8779 105.635 21.7251 106.332C21.5723 107.03 21.4214 107.718 21.2726 108.395C21.1247 109.072 20.9808 109.739 20.8449 110.394C20.7079 111.049 20.5739 111.688 20.4439 112.311C20.1859 113.559 19.9428 114.739 19.7175 115.827C19.4922 116.917 19.2958 117.917 19.1201 118.803C18.9464 119.69 18.7946 120.463 18.6696 121.1C18.5475 121.737 18.4512 122.237 18.3857 122.579C18.3212 122.92 18.2865 123.101 18.2865 123.101L18.2855 123.104C18.091 124.131 17.1026 124.805 16.0765 124.611C15.1109 124.429 14.4579 123.531 14.5472 122.57C14.5472 122.57 14.6187 121.829 14.7437 120.533C14.8668 119.236 15.0414 117.386 15.2518 115.165C15.356 114.053 15.4701 112.849 15.5902 111.575C15.7133 110.301 15.8443 108.956 15.9782 107.565C16.1112 106.172 16.2571 104.734 16.4099 103.266C16.4824 102.534 16.5677 101.789 16.6481 101.043C16.7384 100.286 16.8297 99.4885 16.9279 98.7683L17.0053 98.1932L17.0738 97.6399C17.1195 97.2714 17.1651 96.9029 17.2098 96.5354C17.3001 95.8003 17.3904 95.0673 17.4797 94.3402C17.6583 92.8869 17.835 91.4556 18.0057 90.0709C18.09 89.3786 18.1734 88.6982 18.2557 88.0316C18.3341 87.3641 18.4106 86.7115 18.485 86.0768C18.6338 84.8064 18.7758 83.6055 18.9058 82.4959C18.9703 81.9417 19.0328 81.4102 19.0923 80.9046C19.1489 80.3991 19.2025 79.9193 19.2531 79.4683C19.3543 78.5664 19.4426 77.7797 19.5151 77.1331C19.656 75.8368 19.7364 75.0968 19.7364 75.0968C20.043 72.2668 22.5845 70.2216 25.4128 70.5285C28.2401 70.8355 30.2834 73.3793 29.9767 76.2103C29.943 76.5172 29.8845 76.8142 29.8011 77.1003L29.7872 77.147Z" fill="#E9E2DF"/>
<path d="M20.0145 69.9234C20.0145 69.9234 19.7892 73.2411 19.694 74.4817C19.4836 77.2262 24.4395 79.8505 28.4448 80.2141C32.45 80.5776 36.9336 79.3887 37.1827 76.6471L36.9683 69.8896L20.0145 69.9234Z" fill="#E9E2DF"/>
<path d="M32.8992 122.784C31.7946 126.783 32.8952 126.746 32.8952 126.746L44.5874 126.757C44.5874 126.757 45.0647 125.007 42.4458 124.775C40.7578 124.625 36.824 122.787 36.824 122.787L32.8992 122.784Z" fill="#816E68"/>
<path d="M14.5404 122.678C13.3833 125.754 14.1266 126.639 14.1266 126.639L22.4964 126.659C22.4964 126.659 22.9836 124.734 20.3548 124.676C19.8864 124.666 18.1428 122.682 18.1428 122.682L14.5404 122.678Z" fill="#816E68"/>
<path d="M19.2555 54.6822C19.837 61.843 20.7093 62.5522 19.5522 74.619C19.5522 74.619 25.1512 75.4017 28.8409 75.3818C32.4184 75.362 37.1213 75.1027 37.1213 75.1027C37.1213 75.1027 37.6472 63.4333 38.0859 54.273C38.3032 49.7445 41.9839 42.3563 27.9517 41.348C18.147 40.6428 18.8595 49.8051 19.2555 54.6822Z" fill="#2F2B27"/>
<path d="M54.0163 45.0517C53.0706 44.4676 52.1953 45.0457 51.6882 45.8612C51.0541 46.8824 47.7316 50.8755 46.9258 51.7675C44.5937 54.3501 44.2295 55.6046 43.9486 55.4427C43.4018 55.1259 43.0724 54.5468 42.6883 54.0521C42.2328 53.465 36.9851 44.0097 34.527 43.8259C32.1373 43.6472 30.2558 46.0122 30.9633 48.3038C31.2561 49.2524 37.0714 58.1207 41.171 60.8563C43.8504 62.6442 44.7425 61.5407 46.4296 60.31C47.7167 59.3713 48.6634 57.9638 49.5149 56.6397C50.3931 55.2749 51.188 53.8584 51.9482 52.425C52.6647 51.0741 53.3514 49.7054 54.0074 48.3237C54.4956 47.2936 55.3431 45.8712 54.0163 45.0517C53.2849 44.5997 54.6941 45.4699 54.0163 45.0517ZM43.7005 56.2741C43.6082 56.3119 43.8911 56.1748 43.8583 56.1847C43.8057 56.2145 43.7531 56.2443 43.7005 56.2741C43.6688 56.287 43.7392 56.2592 43.7005 56.2741Z" fill="#2F2B27"/>
<path d="M36.9612 42.5955C36.8848 41.5604 38.2175 38.5894 38.6145 38.2915C39.0114 37.9935 41.1947 36.0068 41.1947 36.0068C41.1947 36.0068 42.055 36.3048 41.2939 37.0995C40.7987 37.617 39.7061 38.8874 39.7061 39.1854C39.7061 39.4834 40.0038 41.47 40.4008 41.9667C40.7977 42.4634 40.7977 42.4634 40.7977 42.4634C40.7977 42.4634 39.5413 43.8212 38.9459 43.9205C38.3505 44.0199 37.0088 43.2302 36.9612 42.5955Z" fill="#E9AC8A"/>
<path d="M144.914 81.6108V87.381H146.391V81.6108C147.966 81.6247 151.799 81.3923 154.184 79.0054C157.243 75.943 156.76 70.4947 156.76 70.4947C156.76 70.4947 151.317 70.0109 148.257 73.0733C146.111 75.2218 145.709 78.5435 145.659 80.3354H145.647C145.599 78.5435 145.196 75.2218 143.049 73.0733C139.99 70.0109 134.546 70.4947 134.546 70.4947C134.546 70.4947 134.063 75.943 137.123 79.0054C139.506 81.3923 143.339 81.6247 144.914 81.6108Z" fill="#6CBF84"/>
<path d="M189.171 86.7217C188.472 96.9826 174.984 105.167 158.444 105.167C141.904 105.167 128.414 96.9826 127.717 86.7217H189.171Z" fill="#C0A9A8"/>
</svg>
