<svg width="31" height="30" viewBox="0 0 31 30" fill="none" xmlns="http://www.w3.org/2000/svg">
<path fill-rule="evenodd" clip-rule="evenodd" d="M0.0751953 14.9726C0.0751953 23.1994 6.76627 29.9453 15.0478 29.9453C23.2746 29.9453 30.0205 23.1994 30.0205 14.9726C30.0205 6.69107 23.2746 0 15.0478 0C6.76627 0 0.0751953 6.69107 0.0751953 14.9726ZM21.9034 9.98164C22.5067 9.87195 23.11 9.76226 23.6584 9.48803C23.688 9.48803 23.7016 9.47209 23.7079 9.47459C23.7133 9.47672 23.7133 9.49233 23.7133 9.54288C23.7133 9.59772 23.7133 9.70741 23.6036 9.8171C23.2197 10.3656 22.7809 10.8592 22.2324 11.2431C22.1228 11.2979 22.0131 11.3528 22.0131 11.4624C22.0131 14.3144 21.2452 17.2212 19.1611 19.3053C16.4737 21.9927 12.4701 22.7056 8.90515 21.7184C8.24701 21.5539 7.58887 21.2797 6.93073 20.9506C6.82104 20.8958 6.72506 20.8272 6.62908 20.7586C6.53311 20.6901 6.43713 20.6215 6.32744 20.5667C6.27259 20.5118 6.21775 20.457 6.2726 20.457H6.49197C7.47918 20.5667 8.52123 20.4022 9.4536 20.0731C10.002 19.9086 11.0989 19.5246 11.428 19.031C11.3183 18.9762 11.1538 18.9762 11.0441 18.9762C10.0569 18.702 8.79546 18.2084 8.19217 16.563C8.19217 16.5082 8.19217 16.4533 8.30186 16.4533C8.71319 16.4808 8.98742 16.4808 9.19308 16.4808C9.39875 16.4808 9.53586 16.4808 9.67298 16.5082C9.56329 16.4533 9.39875 16.3985 9.23422 16.3436C8.02763 15.85 7.15011 14.6434 6.98558 13.382V12.9433C6.98558 12.8884 6.98558 12.8336 7.09527 12.8884C7.69856 13.2175 8.41154 13.2723 8.46639 13.2723C8.38412 13.2175 8.31557 13.1489 8.24701 13.0804C8.17845 13.0118 8.1099 12.9433 8.02763 12.8884C6.98558 11.8464 6.60166 9.8171 7.42434 8.55567C7.53403 8.44598 7.53403 8.44598 7.64372 8.55567C9.56329 10.7495 11.9765 11.7915 14.8284 12.2303C14.8496 12.2303 14.8626 12.2303 14.8706 12.2239C14.8832 12.2139 14.8832 12.1879 14.8832 12.1206C14.8284 11.627 14.8284 11.1334 14.9381 10.6398C15.0478 10.0913 15.322 9.65257 15.6511 9.21381C15.9801 8.77505 16.4189 8.44598 16.8577 8.2266C17.2964 7.95238 17.8449 7.84269 18.3385 7.78784C18.8321 7.78784 19.3805 7.84269 19.8741 8.06207C20.2032 8.17176 20.5323 8.39114 20.8613 8.66536L21.0259 8.82989C21.0807 8.88474 21.1355 8.88474 21.1904 8.88474C21.9034 8.66536 22.6164 8.44598 23.2745 8.06207H23.3842V8.17176C23.2745 8.55567 23.0551 8.88474 22.7809 9.21381C22.6164 9.43319 22.1776 9.92679 21.9034 9.98164Z" fill="#2F2B27"/>
</svg>
