<svg width="28" height="28" viewBox="0 0 28 28" fill="none" xmlns="http://www.w3.org/2000/svg">
<path fill-rule="evenodd" clip-rule="evenodd" d="M0 14C0 21.6923 6.25641 28 14 28C21.6923 28 28 21.6923 28 14C28 6.25641 21.6923 0 14 0C6.25641 0 0 6.25641 0 14ZM20.4102 9.33322C20.9743 9.23065 21.5384 9.12809 22.0512 8.87168C22.0789 8.87168 22.0916 8.85677 22.0975 8.85911C22.1025 8.8611 22.1025 8.8757 22.1025 8.92296C22.1025 8.97424 22.1025 9.07681 21.9999 9.17937C21.641 9.69219 21.2307 10.1537 20.7179 10.5127C20.6153 10.564 20.5128 10.6153 20.5128 10.7178C20.5128 13.3845 19.7948 16.1024 17.8461 18.0512C15.3333 20.564 11.5897 21.2307 8.25635 20.3076C7.64096 20.1537 7.02558 19.8973 6.41019 19.5896C6.30763 19.5383 6.21789 19.4742 6.12814 19.4101C6.0384 19.346 5.94866 19.2819 5.84609 19.2307C5.79481 19.1794 5.74353 19.1281 5.79481 19.1281H5.99994C6.92301 19.2307 7.89737 19.0768 8.76917 18.7691C9.28199 18.6153 10.3076 18.2563 10.6153 17.7948C10.5128 17.7435 10.3589 17.7435 10.2563 17.7435C9.33327 17.4871 8.15378 17.0255 7.58968 15.4871C7.58968 15.4358 7.58968 15.3845 7.69225 15.3845C8.07686 15.4101 8.33327 15.4101 8.52558 15.4101C8.71789 15.4101 8.84609 15.4101 8.9743 15.4358C8.87173 15.3845 8.71789 15.3332 8.56404 15.2819C7.43584 14.8204 6.61532 13.6922 6.46148 12.5127V12.1024C6.46148 12.0512 6.46148 11.9999 6.56404 12.0512C7.12814 12.3589 7.79481 12.4101 7.84609 12.4101C7.76917 12.3589 7.70507 12.2948 7.64096 12.2307C7.57686 12.1665 7.51276 12.1024 7.43583 12.0512C6.46148 11.0768 6.1025 9.17937 6.87173 7.99988C6.9743 7.89732 6.9743 7.89732 7.07686 7.99988C8.87173 10.0512 11.1281 11.0255 13.7948 11.4358C13.8146 11.4358 13.8268 11.4358 13.8343 11.4299C13.8461 11.4205 13.8461 11.3961 13.8461 11.3332C13.7948 10.8717 13.7948 10.4101 13.8974 9.9486C13.9999 9.43578 14.2563 9.02552 14.564 8.61527C14.8717 8.20501 15.282 7.89732 15.6922 7.69219C16.1025 7.43578 16.6153 7.33322 17.0769 7.28193C17.5384 7.28193 18.0512 7.33322 18.5128 7.53834C18.8205 7.64091 19.1281 7.84604 19.4358 8.10245L19.5897 8.25629C19.641 8.30758 19.6922 8.30758 19.7435 8.30758C20.4102 8.10245 21.0769 7.89732 21.6922 7.53834H21.7948V7.64091C21.6922 7.99988 21.4871 8.30757 21.2307 8.61527C21.0769 8.8204 20.6666 9.28193 20.4102 9.33322Z" fill="#2F2B27"/>
</svg>
