<svg width="16" height="16" viewBox="0 0 16 16" fill="none" xmlns="http://www.w3.org/2000/svg">
<path fill-rule="evenodd" clip-rule="evenodd" d="M1.14285 8C1.14285 4.23913 4.18622 1.14286 8 1.14286C11.8138 1.14286 14.8571 4.23913 14.8571 8C14.8571 11.7609 11.8138 14.8571 8 14.8571C4.18622 14.8571 1.14285 11.7609 1.14285 8ZM6.53693 2.63546C4.21645 3.28001 2.48739 5.42023 2.48739 8C2.48739 11.0988 4.98215 13.5633 8 13.5633C8.21529 13.5633 8.42792 13.5508 8.63718 13.5264H8C7.74128 13.5264 7.50553 13.3835 7.39373 13.159L6.95196 12.2718C6.90851 12.1846 6.88595 12.0891 6.88595 11.9923V11.365L6.63107 11.1091C6.51113 10.9887 6.44417 10.8283 6.44417 10.6615V9.72291L5.92192 9.46071C5.85705 9.42814 5.79814 9.3856 5.74752 9.33477L4.42219 8.004C4.26395 7.84511 4.20051 7.61971 4.25379 7.40569L4.69557 5.63133C4.76802 5.34036 5.03839 5.13516 5.34934 5.13516H6.50983L7.24725 4.76494C7.36618 4.70522 7.49905 4.68196 7.62884 4.69514L6.73253 4.09516C6.53945 3.96591 6.43061 3.74896 6.44553 3.52309C6.46044 3.29722 6.59695 3.09527 6.80547 2.99058L6.92882 2.92865C6.76399 2.88253 6.62356 2.77688 6.53693 2.63546ZM9.54627 4.56055C9.49231 4.86579 9.21613 5.09819 8.88355 5.09819H8.53297L9.49016 5.57874H9.922L9.97839 5.52213V5.15481L9.72351 4.89888C9.63007 4.80506 9.56879 4.68701 9.54627 4.56055ZM8.67226 2.94981V2.47783C9.22448 2.54591 9.75281 2.69675 10.244 2.91808C10.2324 2.9175 10.2207 2.91721 10.2089 2.91721H8.88355C8.80974 2.91721 8.73871 2.92866 8.67226 2.94981ZM10.7475 3.177C10.8315 3.28494 10.8811 3.41894 10.8811 3.56411V4.19136L11.136 4.44728C11.256 4.56772 11.3229 4.72807 11.3229 4.89488V5.78206C11.3229 5.94886 11.256 6.10922 11.136 6.22965L10.8615 6.50527C10.9345 6.47959 11.0125 6.46592 11.0924 6.46592H11.7455V6.22564C11.7455 5.86837 12.0465 5.57874 12.4178 5.57874H12.9655C12.4809 4.56869 11.703 3.73225 10.7475 3.177ZM13.3998 6.87254H13.09V7.11282C13.09 7.4701 12.789 7.75972 12.4178 7.75972H12.1584C12.2434 7.96404 12.2148 8.19725 12.0801 8.37755L10.8811 9.98272V10.6615C10.8811 10.7583 10.8586 10.8538 10.8151 10.9411L10.3734 11.8282C10.3616 11.8519 10.3483 11.8749 10.3336 11.897L9.45007 13.2278C9.3992 13.3044 9.33306 13.3685 9.25683 13.4175C11.6803 12.8455 13.5126 10.6556 13.5126 8C13.5126 7.61311 13.4737 7.2361 13.3998 6.87254ZM10.7558 7.93378L10.4862 7.39236C10.3935 7.2063 10.399 6.98986 10.4987 6.80933C10.4091 6.85053 10.3102 6.87254 10.2089 6.87254H9.32533C9.21704 6.87254 9.11036 6.84738 9.01436 6.79918L7.55822 6.06812L6.98563 6.35559C6.88963 6.40379 6.78295 6.42896 6.67466 6.42896H5.87956L5.64682 7.36375L6.64181 8.36282L7.42741 8.75723C7.64947 8.86872 7.78871 9.08975 7.78871 9.33077V10.4016L8.04359 10.6575C8.16353 10.778 8.23049 10.9383 8.23049 11.1051V11.8453L8.42333 12.2326H8.51529L9.17854 11.2336L9.53661 10.5145V9.77435C9.53661 9.63887 9.58081 9.50681 9.66299 9.3968L10.7558 7.93378Z" fill="#C0A9A8"/>
</svg>
